<svg width="200" height="200" viewBox="0 0 200 200" fill="none" xmlns="http://www.w3.org/2000/svg">
<path d="M200 100C200 155.228 155.228 200 100 200C44.7715 200 0 155.228 0 100C0 44.7715 44.7715 0 100 0C155.228 0 200 44.7715 200 100Z" fill="white"/>
<mask id="mask0_177_22768" style="mask-type:alpha" maskUnits="userSpaceOnUse" x="66" y="38" width="68" height="124">
<path d="M66 38H134V162H66V38Z" fill="#D9D9D9"/>
</mask>
<g mask="url(#mask0_177_22768)">
<path d="M87.3379 84.4163C87.3379 84.388 87.3269 84.3609 87.3073 84.3409C87.2877 84.3209 87.2612 84.3097 87.2335 84.3097C85.0122 84.3138 82.4903 84.3158 79.6679 84.3158C78.9422 84.3158 78.3571 84.2659 77.9126 84.1661C76.4043 83.8277 75.619 83.1551 74.6469 81.859C74.0873 81.1152 73.5905 80.2867 73.1567 79.3734C69.5979 71.89 67.8927 63.3854 68.0052 55.1186C68.0494 51.9132 68.5274 48.0064 70.4775 45.3322C72.7852 42.1678 75.6471 40.8861 79.3385 40.3036C82.098 39.8689 84.9767 39.901 87.9746 40.4C90.7943 40.8697 93.9033 41.6079 96.8094 42.0058C99.5663 42.3845 102.519 42.2669 105.668 41.6531C109.792 40.8492 111.77 40.3385 114.883 40.0904C117.925 39.847 120.731 40.1156 123.3 40.8963C126.781 41.9545 129.224 44.1468 130.629 47.4732C131.49 49.5158 131.767 51.8189 131.918 54.0912C131.97 54.8759 131.997 55.4064 131.998 55.6826C132.065 64.0703 130.225 72.5996 126.497 80.0953C126.27 80.5519 125.847 81.2007 125.228 82.0415C124.161 83.4948 122.72 84.2406 120.904 84.2789C118.616 84.3295 115.821 84.3363 112.519 84.2994C112.507 84.2991 112.496 84.3012 112.485 84.3055C112.475 84.3098 112.465 84.3163 112.457 84.3245C112.448 84.3327 112.442 84.3425 112.437 84.3534C112.433 84.3642 112.431 84.3759 112.431 84.3876V95.2097C112.431 95.2374 112.441 95.2641 112.458 95.2852C112.476 95.3062 112.5 95.3201 112.527 95.3245C112.968 95.3983 113.312 95.4681 113.561 95.5337C114.746 95.8454 115.763 96.3212 116.612 96.961C119.062 98.8068 120.008 102.211 120.342 105.158C120.676 108.139 120.762 111.18 120.599 114.282C120.37 118.622 119.983 122.767 119.438 126.718C118.478 133.676 116.998 140.42 114.999 146.951C114.552 148.414 113.952 150.076 113.198 151.937C112.045 154.783 110.782 157.326 108.799 159.18C107.791 160.126 105.948 160.515 105.478 158.727C105.285 157.991 105.186 157.224 105.18 156.424C105.17 154.77 105.188 153.403 105.237 152.324C105.246 152.096 105.34 149.533 105.52 144.634C105.71 139.407 105.523 134.21 104.959 129.042C104.744 127.063 104.393 125.062 103.907 123.039C103.503 121.359 101.971 115.714 100.186 115.48C97.7152 115.154 96.0964 122.53 95.7711 124.237C94.9651 128.461 94.4971 132.783 94.3672 137.202C94.2989 139.548 94.1724 142.513 94.2628 145.501C94.3552 148.584 94.4864 151.866 94.6564 155.347C94.706 156.369 94.6123 157.316 94.3753 158.19C93.9515 159.75 92.397 160.573 90.9952 159.543C89.8082 158.674 88.7879 156.969 88.1714 155.772C86.8967 153.301 85.7767 150.531 84.8114 147.462C81.4212 136.697 79.7281 125.484 79.2301 114.348C79.1035 111.524 79.1517 109.329 79.3586 106.647C79.7482 101.645 81.3107 95.9521 87.1953 95.3778C87.2345 95.3738 87.2708 95.3551 87.2972 95.3256C87.3235 95.296 87.3381 95.2576 87.3379 95.2179V84.4163ZM99.9887 82.8823C104.933 82.8851 108.208 82.8878 109.814 82.8905C113.049 82.8946 116.329 82.8946 119.655 82.8905C120.682 82.8892 121.346 82.857 121.647 82.7941C123.553 82.3983 124.927 79.884 125.676 78.2373C128.774 71.4382 130.423 64.2782 130.623 56.7572C130.665 55.1507 130.543 53.3166 130.255 51.2549C129.803 48.0146 128.538 45.5885 126.003 43.7264C125.026 43.0073 123.834 42.4754 122.428 42.1309C120.057 41.5498 117.76 41.3366 115.538 41.491C111.874 41.7453 108.448 42.5841 105.04 43.1953C103.322 43.5042 101.644 43.6581 100.007 43.6567C98.3693 43.6567 96.6923 43.5015 94.9758 43.1912C91.5675 42.5759 88.1433 41.733 84.48 41.4746C82.2574 41.3188 79.9598 41.53 77.5872 42.1083C76.1813 42.4515 74.9897 42.982 74.0123 43.6998C71.4757 45.5598 70.2084 47.9839 69.7525 51.2241C69.4633 53.2859 69.3388 55.12 69.379 56.7264C69.5718 64.2474 71.2139 71.4088 74.3055 78.2106C75.0526 79.8594 76.4244 82.3737 78.3303 82.7716C78.6316 82.8358 79.2957 82.8686 80.3226 82.87C83.6485 82.8782 86.9289 82.8816 90.1637 82.8803C91.7691 82.8789 95.0441 82.8796 99.9887 82.8823ZM110.936 84.3856C110.936 84.3761 110.935 84.3668 110.931 84.3581C110.927 84.3494 110.922 84.3415 110.916 84.3348C110.909 84.3281 110.902 84.3228 110.893 84.3192C110.884 84.3156 110.875 84.3138 110.866 84.3138H88.9787C88.9601 84.3138 88.9422 84.3213 88.929 84.3348C88.9159 84.3483 88.9085 84.3665 88.9085 84.3856V95.021C88.9085 95.04 88.9159 95.0583 88.929 95.0717C88.9422 95.0852 88.9601 95.0928 88.9787 95.0928H110.866C110.875 95.0928 110.884 95.0909 110.893 95.0873C110.902 95.0837 110.909 95.0784 110.916 95.0717C110.922 95.0651 110.927 95.0572 110.931 95.0485C110.935 95.0397 110.936 95.0304 110.936 95.021V84.3856ZM107.249 158.536C107.582 158.408 107.897 158.176 108.193 157.841C110.489 155.243 111.708 152.033 112.931 148.487C114.205 144.79 115.282 140.916 116.16 136.865C117.361 131.323 118.229 125.761 118.763 120.18C119.285 114.75 119.53 109.713 118.815 104.383C118.343 100.882 116.668 97.5353 112.933 96.8565C112.19 96.7211 111.372 96.6268 110.577 96.6247C103.419 96.6056 96.1353 96.6049 88.7257 96.6227C84.0964 96.635 81.7847 99.6455 81.1119 103.993C80.8548 105.65 80.6855 107.205 80.6038 108.657C80.5261 110.036 80.5194 111.6 80.5837 113.347C80.9278 122.854 82.2547 132.188 84.5643 141.349C85.535 145.204 86.73 148.87 88.1493 152.347C88.962 154.339 89.9448 156.154 91.0976 157.792C91.1458 157.86 91.3219 158.018 91.6258 158.266C92.2404 158.766 92.8047 158.501 93.0718 157.771C93.2325 157.332 93.2727 156.237 93.2506 155.698C93.1046 152.121 92.9761 148.707 92.865 145.454C92.8194 144.124 92.8061 142.924 92.8248 141.853C92.9158 136.964 93.1716 132.713 93.592 129.099C93.9877 125.697 94.556 122.379 95.6847 119.13C96.3395 117.241 98.1129 112.922 100.848 114.208C102.626 115.045 103.799 117.625 104.401 119.503C105.61 123.289 106.221 127.134 106.554 131.203C106.772 133.857 106.912 136.198 106.974 138.225C107.074 141.455 106.869 144.999 106.775 148.528C106.689 151.762 106.512 154.445 106.671 157.39C106.691 157.762 106.766 158.095 106.896 158.389C106.925 158.454 106.978 158.506 107.043 158.533C107.109 158.561 107.182 158.562 107.249 158.536Z" fill="#787B83"/>
<path d="M79.2143 39.5124C82.0654 39.0633 85.0302 39.0983 88.1049 39.6101C89.5295 39.8474 91.0288 40.1528 92.5131 40.4441C94.0051 40.7369 95.4892 41.0161 96.9174 41.2117L97.9233 41.3269C100.294 41.5421 102.823 41.3906 105.515 40.866C109.597 40.07 111.646 39.5446 114.818 39.2917C117.555 39.0727 120.124 39.2562 122.517 39.8503L123.533 40.1296L124.214 40.3562C127.34 41.4766 129.638 43.5366 131.072 46.5105L131.365 47.1609C132.281 49.3335 132.565 51.7497 132.716 54.0359L132.775 55.0359C132.789 55.3086 132.797 55.5224 132.798 55.6745L132.788 57.2703C132.625 65.2573 130.763 73.3101 127.212 80.4499V80.4519C126.952 80.9729 126.496 81.6671 125.872 82.5144C124.657 84.1694 122.983 85.0331 120.921 85.0769C118.79 85.124 116.226 85.1325 113.23 85.1042V94.6374C113.433 94.6778 113.612 94.7182 113.765 94.7585C115.035 95.0927 116.15 95.6099 117.093 96.321C119.824 98.3786 120.799 102.083 121.136 105.067L121.251 106.206C121.459 108.486 121.524 110.8 121.447 113.147L121.398 114.323C121.168 118.683 120.778 122.852 120.23 126.827C119.264 133.825 117.775 140.611 115.763 147.184C115.307 148.675 114.699 150.359 113.939 152.235C112.78 155.097 111.464 157.782 109.347 159.762C108.731 160.34 107.827 160.789 106.927 160.778C106.461 160.772 105.975 160.641 105.558 160.313C105.141 159.985 104.855 159.509 104.703 158.928C104.492 158.125 104.386 157.291 104.38 156.428C104.37 154.767 104.388 153.385 104.437 152.288C104.447 152.046 104.541 149.487 104.72 144.604C104.909 139.416 104.723 134.257 104.163 129.128C103.952 127.185 103.607 125.217 103.128 123.225C102.93 122.401 102.456 120.611 101.82 119.012C101.5 118.21 101.155 117.491 100.802 116.973C100.416 116.407 100.159 116.283 100.081 116.272H100.08C99.9128 116.251 99.5984 116.336 99.1381 116.95C98.7024 117.531 98.2909 118.393 97.9233 119.376C97.1926 121.33 96.7157 123.549 96.5561 124.385C95.7583 128.567 95.2941 132.846 95.1654 137.223C95.0967 139.584 94.9725 142.518 95.0619 145.475C95.1542 148.553 95.2847 151.831 95.4545 155.307C95.5076 156.401 95.4074 157.433 95.1459 158.397C94.8802 159.376 94.243 160.186 93.3744 160.569C92.4799 160.964 91.4383 160.86 90.5209 160.186V160.188C89.1674 159.197 88.0767 157.334 87.4604 156.137C86.1619 153.621 85.0252 150.808 84.0483 147.702L83.4272 145.663C80.4247 135.448 78.9004 124.874 78.4311 114.382C78.3031 111.524 78.3508 109.297 78.56 106.585V106.583C78.7579 104.043 79.259 101.234 80.517 98.9636C81.7207 96.7914 83.6231 95.1137 86.5365 94.655V85.1081C84.4885 85.1114 82.1987 85.114 79.6674 85.114C78.9136 85.114 78.2631 85.0639 77.7377 84.946C76.8947 84.7569 76.2148 84.4629 75.6049 84.0144C75.1556 83.6839 74.7642 83.2842 74.3842 82.821L74.0072 82.3386C73.5614 81.7461 73.1556 81.1057 72.7885 80.4187L72.433 79.7156C68.8176 72.1131 67.0905 63.4855 67.2045 55.1062C67.249 51.8789 67.724 47.7501 69.8315 44.8601C72.2985 41.4772 75.3787 40.1174 79.2123 39.5124H79.2143ZM88.7279 97.4206C86.6025 97.4263 85.0845 98.1128 84.0131 99.2331C82.923 100.373 82.2229 102.039 81.9018 104.114C81.6481 105.749 81.4818 107.278 81.4018 108.7C81.3448 109.712 81.3277 110.83 81.349 112.055L81.3822 113.317L81.4584 115.087C81.8936 123.927 83.1871 132.615 85.3393 141.151C86.3013 144.972 87.4858 148.604 88.8901 152.044C89.6764 153.971 90.6239 155.721 91.7299 157.298C91.7435 157.311 91.7658 157.333 91.8002 157.364C91.8746 157.431 91.983 157.523 92.1303 157.643C92.1637 157.671 92.1938 157.684 92.2143 157.696C92.2428 157.658 92.2831 157.595 92.3197 157.495C92.3566 157.394 92.4035 157.115 92.4311 156.716C92.4566 156.346 92.4603 155.966 92.4506 155.729C92.3046 152.151 92.1751 148.735 92.0639 145.481C92.018 144.141 92.0058 142.926 92.0248 141.839V141.837C92.1162 136.93 92.3721 132.651 92.7963 129.005C93.1949 125.578 93.7729 122.194 94.9291 118.866C95.2607 117.909 95.8992 116.257 96.8451 114.997C97.3187 114.366 97.916 113.77 98.6498 113.438C99.4204 113.09 100.29 113.061 101.189 113.483L101.589 113.7C102.495 114.255 103.206 115.143 103.751 116.052C104.384 117.106 104.849 118.284 105.162 119.259H105.163C106.397 123.12 107.014 127.029 107.351 131.135L107.501 133.077C107.636 134.958 107.726 136.667 107.773 138.2C107.874 141.46 107.667 145.055 107.574 148.548C107.486 151.82 107.312 154.444 107.468 157.346C107.47 157.375 107.474 157.403 107.476 157.43C107.514 157.393 107.554 157.353 107.593 157.309C109.771 154.844 110.948 151.778 112.173 148.225L112.638 146.843C113.701 143.596 114.615 140.213 115.378 136.694C116.573 131.182 117.435 125.651 117.966 120.102C118.486 114.693 118.724 109.728 118.021 104.489L117.923 103.86C117.364 100.756 115.803 98.191 112.788 97.6433V97.6413C112.08 97.5123 111.31 97.4245 110.574 97.4226C103.418 97.4035 96.1357 97.4029 88.7279 97.4206ZM111.648 95.3894C111.607 95.4767 111.556 95.5596 111.488 95.6296C111.408 95.7112 111.311 95.7778 111.205 95.823C111.186 95.8308 111.165 95.8321 111.146 95.8386C111.416 95.8522 111.685 95.876 111.951 95.905C111.913 95.8725 111.877 95.8361 111.845 95.7976C111.745 95.6786 111.678 95.5382 111.648 95.3894ZM87.894 95.8542C88.1369 95.8349 88.3856 95.8255 88.6401 95.823C88.5344 95.7783 88.4379 95.7124 88.3569 95.6296C88.2465 95.5168 88.173 95.3779 88.1362 95.2292C88.1333 95.4595 88.0478 95.681 87.894 95.8542ZM89.7084 94.2917H110.136V85.112H89.7084V94.2917ZM87.8783 83.78L87.9897 83.9187C88.0553 84.0192 88.0987 84.1317 88.1205 84.2488C88.1483 84.0722 88.2283 83.9056 88.3569 83.7742L88.4721 83.6765C88.2328 83.6765 87.9932 83.6746 87.7533 83.6745L87.8783 83.78ZM111.488 83.7742L111.593 83.907C111.624 83.954 111.65 84.0036 111.671 84.0554C111.676 84.067 111.677 84.0808 111.681 84.0925C111.686 84.0776 111.691 84.0623 111.697 84.0476L111.779 83.8933C111.811 83.8445 111.848 83.7984 111.89 83.7566C111.915 83.7318 111.944 83.7119 111.972 83.6902C111.777 83.69 111.581 83.6903 111.386 83.6902L111.488 83.7742ZM84.4233 42.2722C82.2908 42.1227 80.0764 42.3231 77.7768 42.8835C76.4543 43.2064 75.3633 43.6982 74.4858 44.3425V44.3445C72.1517 46.056 70.9755 48.2702 70.5444 51.3347C70.2597 53.3641 70.1385 55.1523 70.1772 56.7038C70.3672 64.118 71.986 71.1745 75.0326 77.8777L75.0346 77.8796C75.3988 78.6834 75.8987 79.6601 76.519 80.4734C77.1536 81.3055 77.8238 81.8472 78.4936 81.987H78.4975C78.5994 82.0087 78.7937 82.0291 79.0932 82.0437L80.3237 82.0691L90.1635 82.0788C91.7698 82.0775 95.0447 82.0781 99.9877 82.0808C104.932 82.0835 108.208 82.0859 109.814 82.0886C113.048 82.0927 116.328 82.0927 119.654 82.0886C120.701 82.0872 121.278 82.0534 121.484 82.0105L121.736 81.9382C122.321 81.73 122.903 81.2257 123.458 80.4988C124.08 79.6858 124.581 78.7082 124.947 77.905C128 71.2044 129.625 64.1494 129.822 56.7351C129.863 55.1834 129.746 53.3941 129.462 51.364C129.062 48.4914 128.004 46.3644 125.953 44.698L125.529 44.3699C124.651 43.7241 123.56 43.2312 122.238 42.907C119.939 42.3438 117.726 42.1397 115.593 42.2878C111.988 42.5381 108.653 43.3587 105.181 43.9812C103.419 44.2981 101.694 44.4572 100.005 44.4558C98.3175 44.4557 96.5933 44.2955 94.8334 43.9773C91.7954 43.4289 88.8641 42.7281 85.7631 42.3913L84.4233 42.2722Z" fill="#787B83"/>
<path d="M100.006 43.6575C101.644 43.6588 103.321 43.505 105.039 43.196C108.447 42.5849 111.874 41.7461 115.537 41.4918C117.76 41.3373 120.057 41.5506 122.428 42.1317C123.834 42.4762 125.025 43.008 126.003 43.7272C128.537 45.5893 129.803 48.0154 130.254 51.2557C130.542 53.3174 130.665 55.1515 130.622 56.758C130.423 64.2789 128.774 71.4389 125.675 78.238C124.926 79.8848 123.553 82.3991 121.647 82.7949C121.345 82.8578 120.681 82.8899 119.654 82.8913C116.328 82.8954 113.048 82.8954 109.813 82.8913C108.208 82.8886 104.933 82.8858 99.9882 82.8831C95.0435 82.8804 91.7685 82.8797 90.1632 82.881C86.9283 82.8824 83.648 82.879 80.3221 82.8708C79.2952 82.8694 78.631 82.8366 78.3298 82.7723C76.4238 82.3745 75.0521 79.8602 74.305 78.2114C71.2134 71.4095 69.5712 64.2482 69.3784 56.7272C69.3383 55.1207 69.4628 53.2866 69.752 51.2249C70.2079 47.9846 71.4752 45.5606 74.0118 43.7005C74.9892 42.9828 76.1808 42.4523 77.5867 42.1091C79.9593 41.5308 82.2568 41.3196 84.4795 41.4754C88.1427 41.7338 91.567 42.5767 94.9753 43.1919C96.6918 43.5023 98.3687 43.6575 100.006 43.6575Z" fill="#FBFBFB"/>
<path d="M107.248 158.536C107.181 158.561 107.108 158.56 107.042 158.533C106.977 158.505 106.924 158.454 106.895 158.388C106.765 158.094 106.69 157.761 106.67 157.389C106.511 154.444 106.688 151.762 106.774 148.528C106.868 144.998 107.073 141.455 106.973 138.225C106.911 136.197 106.771 133.857 106.553 131.203C106.22 127.134 105.609 123.289 104.4 119.503C103.798 117.624 102.625 115.045 100.847 114.208C98.1119 112.922 96.3385 117.241 95.6837 119.13C94.555 122.378 93.9867 125.696 93.591 129.099C93.1706 132.712 92.9148 136.963 92.8238 141.853C92.8051 142.923 92.8184 144.123 92.864 145.454C92.9751 148.706 93.1036 152.121 93.2496 155.698C93.2717 156.237 93.2315 157.332 93.0708 157.771C92.8037 158.501 92.2394 158.765 91.6248 158.265C91.3209 158.018 91.1448 157.86 91.0966 157.791C89.9438 156.153 88.961 154.339 88.1483 152.347C86.729 148.87 85.534 145.204 84.5633 141.348C82.2537 132.188 80.9268 122.854 80.5827 113.346C80.5184 111.599 80.5251 110.036 80.6028 108.656C80.6845 107.204 80.8538 105.65 81.1109 103.993C81.7837 99.6451 84.0954 96.6345 88.7247 96.6222C96.1343 96.6044 103.418 96.6051 110.576 96.6243C111.371 96.6263 112.189 96.7206 112.932 96.856C116.667 97.5348 118.342 100.882 118.814 104.382C119.529 109.712 119.284 114.749 118.762 120.18C118.228 125.761 117.36 131.322 116.159 136.865C115.281 140.916 114.204 144.79 112.93 148.487C111.707 152.033 110.488 155.242 108.192 157.841C107.896 158.176 107.581 158.407 107.248 158.536Z" fill="url(#paint0_linear_177_22768)"/>
<path d="M110.938 85H88.9107L88.9102 94.5995H110.938L110.938 85Z" fill="#FBFBFB"/>
</g>
<defs>
<linearGradient id="paint0_linear_177_22768" x1="99.8989" y1="96.6094" x2="99.8989" y2="158.554" gradientUnits="userSpaceOnUse">
<stop stop-color="#959595"/>
<stop offset="1" stop-color="#D3D3D3"/>
</linearGradient>
</defs>
</svg>
