<svg width="200" height="200" viewBox="0 0 200 200" fill="none" xmlns="http://www.w3.org/2000/svg">
<path d="M200 100C200 155.228 155.228 200 100 200C44.7715 200 0 155.228 0 100C0 44.7715 44.7715 0 100 0C155.228 0 200 44.7715 200 100Z" fill="white"/>
<mask id="mask0_175_19556" style="mask-type:alpha" maskUnits="userSpaceOnUse" x="20" y="60" width="160" height="80">
<path d="M20 60H180V140H20V60Z" fill="#D9D9D9"/>
</mask>
<g mask="url(#mask0_175_19556)">
<mask id="mask1_175_19556" style="mask-type:alpha" maskUnits="userSpaceOnUse" x="20" y="60" width="160" height="80">
<path d="M20 60H180V140H20V60Z" fill="#D9D9D9"/>
</mask>
<g mask="url(#mask1_175_19556)">
<path d="M163.032 60.3117C154.5 59.0495 149.578 62.0012 145.997 62.421C142.419 62.001 137.497 59.0495 128.965 60.3117C119.183 61.7618 112.743 70.9879 114.205 86.4519C115.719 102.472 125.146 114.277 126.281 129.03C127.381 143.32 134.816 141.257 136.706 136.198C138.6 131.139 141.834 117.228 145.997 117.228C150.16 117.228 153.397 131.139 155.288 136.198C157.181 141.257 164.616 143.32 165.716 129.03C166.851 114.277 176.278 102.472 177.792 86.4519C179.252 70.9879 172.813 61.7618 163.032 60.3117Z" fill="white"/>
<path d="M128.964 60.3117C136.964 59.1284 141.789 61.6482 145.31 62.3137L145.998 62.4211C149.578 62.0009 154.5 59.0498 163.031 60.3117C172.812 61.7619 179.25 70.9868 177.791 86.4504C176.276 102.471 166.852 114.275 165.716 129.029L165.593 130.321C164.155 143.187 157.121 141.097 155.287 136.196C153.396 131.138 150.16 117.23 145.998 117.228C141.835 117.228 138.6 131.137 136.707 136.196L136.513 136.663C134.426 141.217 127.794 142.771 126.402 130.321L126.281 129.029C125.181 114.736 116.299 103.212 114.369 87.9406L114.205 86.4504C112.788 71.4706 118.788 62.3445 128.056 60.4699L128.964 60.3117ZM138.798 63.0734C136.431 62.5278 133.598 62.1555 130.037 62.5871L129.316 62.6848C125.14 63.3039 121.71 65.5525 119.427 69.3606C117.113 73.2218 115.895 78.8428 116.593 86.2258C117.314 93.8484 119.916 100.503 122.617 107.333C125.282 114.074 128.073 121.048 128.673 128.845C128.935 132.237 129.559 134.447 130.248 135.804C130.93 137.149 131.574 137.481 131.857 137.562C132.133 137.64 132.538 137.617 133.064 137.251C133.604 136.876 134.139 136.211 134.459 135.357L134.808 134.368C135.175 133.285 135.595 131.925 136.082 130.378C136.717 128.361 137.447 126.087 138.257 123.96C139.058 121.859 139.988 119.763 141.056 118.154C141.591 117.348 142.227 116.56 142.986 115.956C143.755 115.344 144.774 114.827 145.998 114.827L146.447 114.851C147.471 114.958 148.334 115.421 149.007 115.956C149.767 116.56 150.404 117.348 150.939 118.154C152.008 119.763 152.938 121.86 153.738 123.96C154.548 126.088 155.279 128.361 155.914 130.378C156.563 132.441 157.091 134.169 157.535 135.357L157.664 135.667C157.988 136.372 158.458 136.92 158.931 137.249C159.459 137.616 159.864 137.641 160.14 137.562C160.424 137.48 161.066 137.148 161.748 135.804C162.436 134.447 163.061 132.237 163.322 128.845C163.922 121.048 166.713 114.074 169.378 107.333C172.079 100.503 174.681 93.8483 175.402 86.2258C176.099 78.8428 174.882 73.2219 172.568 69.3606C170.285 65.5524 166.855 63.3038 162.679 62.6848C158.776 62.1075 155.722 62.4914 153.197 63.0734C151.905 63.3713 150.769 63.7153 149.632 64.0422C148.548 64.3542 147.393 64.673 146.277 64.8039L145.996 64.8371L145.716 64.8039C144.601 64.6729 143.445 64.3543 142.361 64.0422C141.225 63.7153 140.09 63.3712 138.798 63.0734Z" fill="#787B83"/>
<path d="M71.0319 60.3117C62.4996 59.0495 57.578 62.0012 53.9971 62.421C50.4185 62.001 45.4969 59.0495 36.9646 60.3117C27.1832 61.7618 20.7425 70.9879 22.2047 86.4519C23.7189 102.472 33.1457 114.277 34.2809 129.03C35.3813 143.32 42.8158 141.257 44.7065 136.198C46.5999 131.139 49.8338 117.228 53.9971 117.228C58.1604 117.228 61.3968 131.139 63.2877 136.198C65.1811 141.257 72.6156 143.32 73.7158 129.03C74.8508 114.277 84.2778 102.472 85.792 86.4519C87.2516 70.9879 80.8133 61.7618 71.0319 60.3117Z" fill="url(#paint0_linear_175_19556)"/>
<path d="M36.9644 60.3117C44.964 59.1284 49.7895 61.6482 53.3101 62.3137L53.9976 62.4211C57.5784 62.0009 62.4995 59.0498 71.0308 60.3117C80.812 61.7619 87.25 70.9868 85.7906 86.4504C84.2764 102.471 74.8516 114.275 73.7164 129.029L73.5933 130.321C72.1552 143.187 65.1209 141.097 63.2867 136.196C61.3959 131.138 58.1602 117.23 53.9976 117.228C49.8345 117.228 46.6 131.137 44.7066 136.196L44.5132 136.663C42.4264 141.217 35.7937 142.771 34.4019 130.321L34.2808 129.029C33.1809 114.736 24.2992 103.212 22.3687 87.9406L22.2047 86.4504C20.7885 71.4706 26.7878 62.3445 36.0562 60.4699L36.9644 60.3117ZM46.7984 63.0734C44.4312 62.5278 41.5984 62.1555 38.0367 62.5871L37.316 62.6848C33.1404 63.3039 29.7101 65.5525 27.4273 69.3606C25.1127 73.2218 23.8952 78.8428 24.5933 86.2258C25.3139 93.8484 27.9162 100.503 30.6168 107.333C33.2819 114.074 36.0734 121.048 36.6734 128.845C36.9346 132.237 37.5592 134.447 38.2476 135.804C38.9302 137.149 39.5739 137.481 39.857 137.562C40.1329 137.64 40.5376 137.617 41.064 137.251C41.6042 136.876 42.1393 136.211 42.4586 135.357L42.8082 134.368C43.1751 133.285 43.5945 131.925 44.0816 130.378C44.7166 128.361 45.4471 126.087 46.2574 123.96C47.0576 121.859 47.9878 119.763 49.0562 118.154C49.5912 117.348 50.2266 116.56 50.9859 115.956C51.7553 115.344 52.7739 114.827 53.9976 114.827L54.4468 114.851C55.4715 114.958 56.3344 115.421 57.0074 115.956C57.7668 116.56 58.404 117.348 58.939 118.154C60.0075 119.763 60.9375 121.86 61.7379 123.96C62.5484 126.088 63.2787 128.361 63.9136 130.378C64.5628 132.441 65.0909 134.169 65.5347 135.357L65.6636 135.667C65.9877 136.372 66.458 136.92 66.9312 137.249C67.4587 137.616 67.864 137.641 68.1402 137.562C68.4238 137.48 69.0657 137.148 69.7476 135.804C70.436 134.447 71.0607 132.237 71.3218 128.845C71.9217 121.048 74.7133 114.074 77.3785 107.333C80.079 100.503 82.6814 93.8483 83.4019 86.2258C84.0988 78.8428 82.8822 73.2219 80.5679 69.3606C78.2854 65.5524 74.8548 63.3038 70.6793 62.6848C66.7761 62.1075 63.7219 62.4914 61.1968 63.0734C59.9046 63.3713 58.7685 63.7153 57.6324 64.0422C56.548 64.3542 55.3928 64.673 54.2769 64.8039L53.9957 64.8371L53.7164 64.8039C52.6008 64.6729 51.445 64.3543 50.3609 64.0422C49.2255 63.7153 48.0901 63.3712 46.7984 63.0734Z" fill="#787B83"/>
<mask id="mask2_175_19556" style="mask-type:alpha" maskUnits="userSpaceOnUse" x="22" y="60" width="64" height="78">
<path d="M61.1992 63.0723C63.7243 62.4903 66.7785 62.1064 70.6816 62.6836C74.8571 63.3026 78.2877 65.5512 80.5703 69.3594C82.8846 73.2207 84.1012 78.8416 83.4043 86.2246C82.6837 93.8471 80.0814 100.502 77.3809 107.332C74.7157 114.072 71.9241 121.046 71.3242 128.844C71.063 132.236 70.4384 134.446 69.75 135.803C69.0681 137.146 68.4261 137.479 68.1426 137.561C67.8664 137.639 67.461 137.615 66.9336 137.248C66.4604 136.919 65.9901 136.371 65.666 135.666L65.5371 135.355C65.0933 134.168 64.5652 132.439 63.916 130.377C63.281 128.36 62.5507 126.086 61.7402 123.959C60.9399 121.858 60.0099 119.762 58.9414 118.152C58.4063 117.347 57.7691 116.559 57.0098 115.955C56.3368 115.42 55.4738 114.957 54.4492 114.85L54 114.826C52.7763 114.826 51.7576 115.343 50.9883 115.955C50.229 116.559 49.5935 117.347 49.0586 118.152C47.9902 119.762 47.06 121.858 46.2598 123.959C45.4495 126.086 44.719 128.36 44.084 130.377C43.5969 131.924 43.1775 133.284 42.8105 134.367L42.4609 135.355C42.1417 136.21 41.6066 136.874 41.0664 137.25C40.54 137.616 40.1352 137.639 39.8594 137.561C39.5763 137.48 38.9326 137.148 38.25 135.803C37.5616 134.446 36.937 132.236 36.6758 128.844C36.0758 121.046 33.2843 114.072 30.6191 107.332C27.9186 100.502 25.3162 93.8472 24.5957 86.2246C23.8976 78.8417 25.1151 73.2206 27.4297 69.3594C29.7125 65.5513 33.1428 63.3027 37.3184 62.6836L38.0391 62.5859C41.6007 62.1543 44.4335 62.5266 46.8008 63.0723C48.0925 63.37 49.2279 63.7142 50.3633 64.041C51.4474 64.3531 52.6032 64.6717 53.7188 64.8027L53.998 64.8359L54.2793 64.8027C55.3952 64.6718 56.5504 64.353 57.6348 64.041C58.7709 63.7141 59.9071 63.3701 61.1992 63.0723ZM34.5508 131.447C34.5766 131.622 34.6067 131.794 34.6348 131.963C34.6106 131.817 34.5831 131.67 34.5605 131.52L34.5508 131.447ZM33.7578 124.959C33.9188 125.862 34.0555 126.773 34.1582 127.695L34.2832 129.027C34.177 127.647 33.9959 126.293 33.7578 124.959ZM33.2207 122.373C33.281 122.628 33.3362 122.884 33.3926 123.141C33.3363 122.884 33.281 122.628 33.2207 122.373ZM32.9004 121.09C32.9706 121.357 33.0373 121.626 33.1035 121.895C33.0373 121.626 32.9706 121.357 32.9004 121.09ZM57.2832 120.021C57.4658 120.326 57.6431 120.652 57.8203 120.992C57.7524 120.862 57.6859 120.733 57.6172 120.607L57.2832 120.021ZM32.5684 119.881C32.5933 119.968 32.6181 120.055 32.6426 120.143C32.6181 120.055 32.5932 119.968 32.5684 119.881ZM32.1953 118.623C32.2367 118.758 32.2759 118.893 32.3164 119.027C32.2759 118.893 32.2366 118.758 32.1953 118.623ZM54.8984 117.441C55.1671 117.569 55.4275 117.756 55.6875 117.986C55.4275 117.756 55.1671 117.569 54.8984 117.441ZM31.7656 117.268C31.7971 117.363 31.8283 117.459 31.8594 117.555C31.8283 117.459 31.7971 117.363 31.7656 117.268ZM54.1953 117.236C54.2032 117.237 54.2109 117.239 54.2188 117.24C54.2102 117.239 54.2019 117.237 54.1934 117.236L54 117.227L54.1953 117.236ZM31.3223 115.955C31.4006 116.181 31.4763 116.408 31.5527 116.635C31.4763 116.408 31.4006 116.181 31.3223 115.955ZM30.9316 114.85C30.9889 115.009 31.0451 115.169 31.1016 115.328C31.0451 115.169 30.9889 115.009 30.9316 114.85ZM30.4844 113.629C30.5305 113.753 30.5753 113.878 30.6211 114.002C30.5753 113.878 30.5305 113.753 30.4844 113.629ZM28.9434 109.631C28.6423 108.867 28.3421 108.1 28.0391 107.332C28.3421 108.1 28.6422 108.867 28.9434 109.631ZM83.834 96.4316C83.5714 97.3393 83.2908 98.2363 82.998 99.125C83.2908 98.2363 83.5714 97.3393 83.834 96.4316ZM23.0918 92.1699C22.9978 91.7281 22.9077 91.2837 22.8242 90.8359C22.9077 91.2837 22.9978 91.7281 23.0918 92.1699ZM85.4199 89.4063H85.4219H85.4199ZM85.4785 76.0449C85.9608 78.7243 86.1204 81.7205 85.9082 85.0176H85.9062C86.0578 82.6629 86.0202 80.4619 85.8105 78.4199C85.7686 78.0112 85.7197 77.6088 85.6641 77.2129L85.4785 76.0449ZM84.9863 73.8262H84.9883H84.9863ZM83.9668 70.7949H83.9688H83.9668ZM67.291 60C68.4561 60.0172 69.7006 60.1115 71.0332 60.3086C74.3951 60.807 77.3629 62.2249 79.75 64.498C77.3629 62.225 74.3951 60.809 71.0332 60.3105C69.7006 60.1134 68.4561 60.0172 67.291 60ZM65.2754 60.0469V60.0488C65.0608 60.0621 64.8493 60.0778 64.6406 60.0957C59.8396 60.5087 56.5736 62.1179 54 62.4199L53.3125 62.3125C53.0794 62.2684 52.8408 62.215 52.5957 62.1563C53.0873 62.274 53.5544 62.3657 54 62.418C56.6854 62.1028 60.1248 60.3643 65.2754 60.0469ZM52.2559 62.0703C52.144 62.0416 52.0305 62.0133 51.916 61.9824C52.0305 62.0133 52.144 62.0416 52.2559 62.0703ZM38.3242 60.1406C37.8821 60.1854 37.4298 60.2421 36.9668 60.3105L36.0586 60.4688C35.634 60.5546 35.2172 60.6592 34.8066 60.7754C35.5065 60.5773 36.2267 60.4183 36.9668 60.3086C37.4297 60.2401 37.8822 60.1854 38.3242 60.1406ZM42.4043 60.0313C43.1041 60.0658 43.7722 60.1301 44.4121 60.2109C43.7722 60.1301 43.104 60.0657 42.4043 60.0313ZM73.4395 131.508C73.3958 131.799 73.3466 132.081 73.2969 132.355C73.3466 132.081 73.3958 131.799 73.4395 131.508ZM33.5098 123.67C33.5891 124.051 33.6626 124.434 33.7324 124.818C33.6626 124.434 33.5891 124.051 33.5098 123.67ZM29.4258 110.859C29.6312 111.386 29.8325 111.913 30.0332 112.439C29.8325 111.913 29.6312 111.386 29.4258 110.859ZM29.4258 110.859C29.2661 110.45 29.1048 110.041 28.9434 109.631C29.1049 110.041 29.2661 110.45 29.4258 110.859ZM23.2949 93.0723C23.226 92.7725 23.1561 92.4723 23.0918 92.1699C23.1561 92.4723 23.226 92.7725 23.2949 93.0723ZM22.0957 85.0625C22.0704 84.6756 22.0523 84.2927 22.0371 83.9141C22.0523 84.2927 22.0704 84.6756 22.0957 85.0625Z" fill="url(#paint1_linear_175_19556)"/>
</mask>
<g mask="url(#mask2_175_19556)">
<g filter="url(#filter0_ng_175_19556)">
<path d="M75.7409 169.628C75.2076 169.848 74.6674 169.963 74.1295 169.991C74.6673 169.963 75.2077 169.848 75.7409 169.628ZM77.4186 168.552C77.2607 168.693 77.1013 168.823 76.9401 168.942C77.1012 168.823 77.2607 168.693 77.4186 168.552ZM31.3698 59.6883C36.4452 59.0731 40.4827 59.604 43.8561 60.3816C45.6967 60.8059 47.3143 61.2967 48.9323 61.7625C50.4769 62.2071 52.1241 62.6598 53.7135 62.8465L54.112 62.8953L54.5123 62.8465C56.1022 62.6599 57.7487 62.207 59.2936 61.7625C60.9125 61.2966 62.5324 60.8061 64.3737 60.3816C67.9719 59.5523 72.3252 59.0043 77.8874 59.8269C83.8371 60.7092 88.7247 63.9144 91.9772 69.3406C95.2751 74.8431 97.0093 82.853 96.0163 93.3738C94.9895 104.236 91.2806 113.719 87.4323 123.452C83.6344 133.057 79.6562 142.995 78.8014 154.106C78.4293 158.94 77.54 162.089 76.5592 164.022C75.5874 165.937 74.6723 166.412 74.2682 166.528C73.8746 166.641 73.2971 166.605 72.5456 166.083C71.8714 165.614 71.2007 164.833 70.7389 163.829L70.5553 163.386C69.9229 161.694 69.1698 159.231 68.2448 156.292C67.3399 153.417 66.3001 150.177 65.1452 147.145C64.0048 144.152 62.6793 141.165 61.1569 138.872C60.3944 137.724 59.4851 136.6 58.403 135.739C57.4441 134.977 56.2141 134.318 54.7545 134.165L54.1159 134.132C52.3721 134.132 50.9192 134.867 49.8229 135.739C48.7408 136.6 47.8352 137.724 47.0729 138.872C45.5506 141.165 44.2248 144.152 43.0846 147.145C41.9299 150.177 40.8899 153.417 39.985 156.292C39.291 158.496 38.6934 160.433 38.1705 161.977L37.6725 163.386C37.2176 164.603 36.4539 165.549 35.6842 166.085C34.9341 166.606 34.3566 166.64 33.9635 166.528C33.5598 166.412 32.6427 165.938 31.6705 164.022C30.6897 162.089 29.8006 158.94 29.4284 154.106C28.5734 142.995 24.5954 133.057 20.7975 123.452C16.9492 113.719 13.2403 104.236 12.2135 93.3738C11.2187 82.853 12.9543 74.8429 16.2526 69.3406C19.5056 63.9142 24.3942 60.7091 30.3444 59.8269L31.3698 59.6883ZM28.4655 165.247C28.5635 165.452 28.6625 165.65 28.7643 165.841C28.6625 165.65 28.5635 165.452 28.4655 165.247ZM28.0202 164.233C28.1446 164.544 28.2728 164.841 28.4049 165.124C28.2728 164.841 28.1446 164.544 28.0202 164.233ZM66.4596 161.977C66.7062 162.734 66.9422 163.431 67.1647 164.054C66.9422 163.431 66.7062 162.734 66.4596 161.977ZM42.3756 160.079C41.992 161.294 41.6337 162.413 41.2995 163.386C41.6337 162.413 41.992 161.294 42.3756 160.079ZM81.8209 157.884C81.634 159.136 81.4033 160.275 81.1413 161.309C81.4033 160.275 81.634 159.136 81.8209 157.884ZM25.9362 153.417C25.966 153.733 25.9937 154.05 26.0182 154.368L26.1901 156.21C26.3704 157.822 26.6156 159.271 26.9088 160.565C26.5081 158.796 26.2008 156.741 26.0182 154.37L25.9362 153.417ZM82.2135 154.37C82.1646 155.006 82.1058 155.619 82.0397 156.21L82.2135 154.368C82.221 154.27 82.2309 154.173 82.2389 154.075C82.2309 154.173 82.2211 154.272 82.2135 154.37ZM25.7194 151.481C25.7784 151.94 25.8313 152.4 25.8795 152.862C25.8313 152.4 25.7784 151.94 25.7194 151.481ZM24.9225 146.764C25.006 147.167 25.0807 147.571 25.1569 147.975C25.0807 147.571 25.006 147.167 24.9225 146.764ZM47.7194 144.882C47.5513 145.254 47.3856 145.636 47.2213 146.024C47.3856 145.636 47.5513 145.254 47.7194 144.882ZM24.5123 144.913C24.5902 145.243 24.6598 145.575 24.733 145.907C24.6598 145.575 24.5902 145.243 24.5123 144.913ZM24.0475 143.053C24.1142 143.307 24.1767 143.562 24.2409 143.817C24.1767 143.562 24.1142 143.307 24.0475 143.053ZM23.5534 141.253C23.6547 141.606 23.7495 141.962 23.8463 142.317C23.7495 141.962 23.6547 141.606 23.5534 141.253ZM22.9948 139.382C23.1095 139.753 23.2205 140.125 23.3307 140.497C23.2205 140.125 23.1095 139.753 22.9948 139.382ZM56.4166 138.536C56.4986 138.605 56.5795 138.679 56.6608 138.755C56.5795 138.679 56.4986 138.605 56.4166 138.536ZM22.3991 137.518C22.5218 137.891 22.6418 138.264 22.7604 138.637C22.6418 138.264 22.5218 137.891 22.3991 137.518ZM54.9401 137.678C55.2481 137.773 55.5518 137.921 55.8522 138.114C55.6399 137.978 55.4258 137.864 55.2096 137.776L54.9401 137.678ZM21.8541 135.905C21.9576 136.205 22.0597 136.505 22.1608 136.805C22.0597 136.505 21.9576 136.205 21.8541 135.905ZM21.1881 134.018C21.2879 134.295 21.3869 134.572 21.485 134.848C21.3869 134.572 21.2879 134.295 21.1881 134.018ZM20.5495 132.278C20.6855 132.643 20.8202 133.008 20.9538 133.374C20.8202 133.008 20.6855 132.643 20.5495 132.278ZM19.1198 128.536C19.405 129.267 19.6847 130 19.9635 130.731C19.6847 130 19.405 129.267 19.1198 128.536ZM17.0475 123.268C17.5488 124.539 18.0482 125.807 18.5455 127.071C18.0482 125.807 17.5488 124.54 17.0475 123.268ZM99.0456 96.866C98.0074 104.179 95.871 110.896 93.4538 117.38C95.7555 111.205 97.8029 104.818 98.8893 97.907L99.0456 96.866ZM8.55922 89.9207C8.60533 91.1477 8.68743 92.4059 8.80922 93.6941L9.04359 95.8172C9.12016 96.4228 9.20604 97.0242 9.2975 97.6219C9.10005 96.3317 8.93481 95.0229 8.80922 93.6941C8.68741 92.4058 8.60534 91.1478 8.55922 89.9207ZM91.2682 62.864C97.4672 69.1086 100.755 79.5772 99.4225 93.6941C99.3888 94.0508 99.3523 94.4067 99.3131 94.7605L99.1862 95.8172C99.2749 95.1152 99.3531 94.4076 99.4206 93.6941C100.2 85.431 99.397 78.4178 97.3541 72.7703C97.269 72.5349 97.1819 72.3018 97.0924 72.0711C96.8241 71.3791 96.5371 70.7083 96.2311 70.0594C96.1292 69.8433 96.0246 69.63 95.9186 69.4187C95.0704 67.7277 94.0921 66.1913 92.9967 64.8133C92.8598 64.6409 92.7213 64.4708 92.5807 64.3035C92.2994 63.9687 92.0111 63.6437 91.7155 63.3289L91.2682 62.864ZM8.53383 86.2215C8.50515 87.3621 8.50989 88.5328 8.5514 89.7332C8.50989 88.5328 8.50514 87.3621 8.53383 86.2215ZM10.0182 75.4773C10.0765 75.2632 10.1383 75.0513 10.1998 74.8406C10.1383 75.0513 10.0765 75.2632 10.0182 75.4773ZM10.6745 73.3328C10.7504 73.1106 10.8292 72.8907 10.9088 72.6726C10.8292 72.8907 10.7504 73.1106 10.6745 73.3328ZM14.278 66.0984C13.8828 66.667 13.5055 67.2586 13.1471 67.8738C13.5055 67.2586 13.8828 66.667 14.278 66.0984ZM15.9948 63.8972C15.6889 64.2452 15.3916 64.6049 15.1022 64.9754C15.3916 64.6049 15.6889 64.2452 15.9948 63.8972ZM54.1139 59.45C59.2167 58.8515 66.2309 54.6455 78.3893 56.4441C82.7447 57.09 86.6349 58.8184 89.862 61.5613L90.3405 61.9812C89.7083 61.4122 89.0484 60.8847 88.3639 60.3972C88.1927 60.2753 88.0207 60.1547 87.8463 60.0379C85.0588 58.1708 81.8717 56.9627 78.3874 56.4461C66.2309 54.648 59.2184 58.8528 54.1159 59.4519L54.0221 59.4363C54.0528 59.4401 54.0834 59.4464 54.1139 59.45ZM51.1022 58.8172C51.8146 59.0097 52.4901 59.1776 53.1354 59.2996C52.4902 59.1776 51.8145 59.0097 51.1022 58.8172ZM41.9772 56.5222C42.4951 56.6084 42.9983 56.7052 43.4889 56.8054C42.9983 56.7052 42.495 56.6084 41.9772 56.5222ZM32.8776 56.1082C31.9028 56.1801 30.8918 56.2908 29.8424 56.4461L28.5709 56.6648C28.9899 56.5805 29.4142 56.5076 29.8424 56.4441C30.8917 56.2889 31.9029 56.1801 32.8776 56.1082ZM40.1002 56.2547C40.3501 56.2839 40.5966 56.317 40.8405 56.3504C40.5966 56.3171 40.3501 56.2839 40.1002 56.2547ZM76.2311 169.391C76.1748 169.422 76.1197 169.453 76.0631 169.481C76.1197 169.453 76.1748 169.422 76.2311 169.391ZM76.8053 169.038C76.7453 169.08 76.6861 169.122 76.6256 169.161C76.686 169.122 76.7453 169.08 76.8053 169.038ZM78.4694 167.403C78.4 167.494 78.3309 167.583 78.2604 167.669C78.3309 167.583 78.4 167.494 78.4694 167.403ZM78.2155 167.721C78.1412 167.81 78.0662 167.896 77.9909 167.979C78.0662 167.896 78.1413 167.81 78.2155 167.721ZM79.8893 164.979C79.8388 165.09 79.7866 165.199 79.735 165.305C79.7866 165.199 79.8388 165.09 79.8893 164.979ZM79.6764 165.429C79.6124 165.558 79.5467 165.684 79.4811 165.807C79.5467 165.684 79.6124 165.558 79.6764 165.429ZM25.5827 150.491C25.6235 150.771 25.6629 151.051 25.6998 151.333C25.6629 151.051 25.6235 150.771 25.5827 150.491ZM25.2799 148.618C25.3004 148.733 25.3187 148.848 25.3385 148.964C25.3187 148.848 25.3004 148.733 25.2799 148.618ZM9.86 76.075C9.91113 75.8743 9.9643 75.6752 10.0182 75.4773C9.96431 75.6752 9.91113 75.8743 9.86 76.075ZM10.5162 73.8133C10.5686 73.6523 10.6201 73.4917 10.6745 73.3328C10.6201 73.4917 10.5686 73.6523 10.5162 73.8133ZM11.6979 70.7156C11.6124 70.9087 11.5263 71.1028 11.444 71.2996C11.5263 71.1028 11.6124 70.9087 11.6979 70.7156ZM11.2936 71.6726C11.253 71.7732 11.2122 71.8739 11.1725 71.9754C11.2122 71.8739 11.253 71.7732 11.2936 71.6726ZM11.8971 70.2781C11.9389 70.1877 11.9777 70.0962 12.0202 70.0066C11.9777 70.0962 11.9389 70.1877 11.8971 70.2781ZM14.7643 65.4207C14.876 65.2708 14.9878 65.1217 15.1022 64.9754C14.9878 65.1217 14.876 65.2708 14.7643 65.4207ZM39.4166 56.1824C39.647 56.2051 39.8749 56.2283 40.1002 56.2547C39.8749 56.2283 39.647 56.2051 39.4166 56.1824Z" fill="url(#paint2_linear_175_19556)"/>
</g>
</g>
<path opacity="0.7" d="M87 97.7755H101V93.6016L115 105.002L101 117.602V113.428H87V97.7755Z" fill="#CF1039"/>
</g>
</g>
<defs>
<filter id="filter0_ng_175_19556" x="4.51562" y="52" width="99.2002" height="121.992" filterUnits="userSpaceOnUse" color-interpolation-filters="sRGB">
<feFlood flood-opacity="0" result="BackgroundImageFix"/>
<feBlend mode="normal" in="SourceGraphic" in2="BackgroundImageFix" result="shape"/>
<feTurbulence type="fractalNoise" baseFrequency="2 2" stitchTiles="stitch" numOctaves="3" result="noise" seed="6596" />
<feColorMatrix in="noise" type="luminanceToAlpha" result="alphaNoise" />
<feComponentTransfer in="alphaNoise" result="coloredNoise1">
<feFuncA type="discrete" tableValues="1 1 1 1 1 1 1 1 1 1 1 1 1 1 1 1 1 1 1 1 1 1 1 1 1 1 1 1 1 1 1 1 1 1 1 1 1 1 1 1 1 1 1 1 1 1 1 1 1 1 1 0 0 0 0 0 0 0 0 0 0 0 0 0 0 0 0 0 0 0 0 0 0 0 0 0 0 0 0 0 0 0 0 0 0 0 0 0 0 0 0 0 0 0 0 0 0 0 0 0 "/>
</feComponentTransfer>
<feComposite operator="in" in2="shape" in="coloredNoise1" result="noise1Clipped" />
<feFlood flood-color="rgba(0, 0, 0, 0.25)" result="color1Flood" />
<feComposite operator="in" in2="noise1Clipped" in="color1Flood" result="color1" />
<feMerge result="effect1_noise_175_19556">
<feMergeNode in="shape" />
<feMergeNode in="color1" />
</feMerge>
<feTurbulence type="fractalNoise" baseFrequency="2 2" numOctaves="3" seed="1366" />
<feDisplacementMap in="effect1_noise_175_19556" scale="8" xChannelSelector="R" yChannelSelector="G" result="displacedImage" width="100%" height="100%" />
<feMerge result="effect2_texture_175_19556">
<feMergeNode in="displacedImage"/>
</feMerge>
</filter>
<linearGradient id="paint0_linear_175_19556" x1="53.998" y1="63" x2="53.9981" y2="136" gradientUnits="userSpaceOnUse">
<stop offset="0.43128" stop-color="#A6A6A6"/>
<stop offset="0.764928" stop-color="#D2D2D2"/>
</linearGradient>
<linearGradient id="paint1_linear_175_19556" x1="54.5138" y1="62.9999" x2="54.5138" y2="135.998" gradientUnits="userSpaceOnUse">
<stop offset="0.43128" stop-color="#A6A6A6"/>
<stop offset="0.764928" stop-color="#D2D2D2"/>
</linearGradient>
<linearGradient id="paint2_linear_175_19556" x1="54.8218" y1="60.4069" x2="54.8218" y2="167.641" gradientUnits="userSpaceOnUse">
<stop offset="0.331731" stop-color="#D7D7D7"/>
<stop offset="0.600962" stop-color="white"/>
</linearGradient>
</defs>
</svg>
