<svg width="200" height="200" viewBox="0 0 200 200" fill="none" xmlns="http://www.w3.org/2000/svg">
<circle cx="100" cy="100" r="100" fill="white"/>
<mask id="mask0_177_21650" style="mask-type:alpha" maskUnits="userSpaceOnUse" x="20" y="46" width="160" height="108">
<rect x="20" y="46" width="160" height="108" fill="#D9D9D9"/>
</mask>
<g mask="url(#mask0_177_21650)">
<path d="M40 98L45 81L153 77L159 98V126L158 128L134 129L129 136L114 137H106L100 133L92 137L68 135L65 129H49L41 127L40 98Z" fill="white"/>
<path d="M34 77L39 71L59 67L86 69L99 71L113 70L130 68H148L159 70L165 76L163 92L159 100L155 92L149 88H140L135 94L132 100L126 91L118 88L110 90L103 97L101 106L95 92L85 88L73 91L68 100L62 90L54 88L47 89L40 99L36 91L34 77Z" fill="#FFDBDF"/>
<mask id="mask1_177_21650" style="mask-type:alpha" maskUnits="userSpaceOnUse" x="20" y="60" width="160" height="80">
<rect x="20" y="60" width="160" height="80" fill="#D9D9D9"/>
</mask>
<g mask="url(#mask1_177_21650)">
<mask id="mask2_177_21650" style="mask-type:alpha" maskUnits="userSpaceOnUse" x="40" y="77" width="119" height="60">
<path d="M40 98L45 81L153 77L159 98V126L158 128L134 129L129 136L114 137H106L100 133L92 137L68 135L65 129H49L41 127L40 98Z" fill="white"/>
</mask>
<g mask="url(#mask2_177_21650)">
<g filter="url(#filter0_ng_177_21650)">
<path d="M63 112.999C63 112.999 69.088 107.477 76.6491 110C84.6207 112.659 80.2528 119.86 86.215 123.6C92.5922 127.6 100.845 119.3 102 121.999C103.276 124.983 100 138.999 100 138.999H71L64 132.999L63 112.999Z" fill="#DEDFE1"/>
</g>
</g>
<path d="M100 114L123 113L122 133L120 135L101 134L100 114Z" fill="white"/>
<path d="M44 108L67 107L66 127L64 129L45 128L44 108Z" fill="white"/>
<path d="M99.9039 133.033C98.6546 135.194 96.6954 136.466 94.0265 136.85C92.4658 137.073 91.3727 137.186 90.7474 137.189C86.2382 137.203 81.3127 137.205 75.971 137.194C73.7767 137.189 71.2355 136.986 69.4682 136.014C66.9518 134.631 65.705 132.298 65.3771 129.427C65.3758 129.416 65.3722 129.405 65.3665 129.396C65.3609 129.386 65.3533 129.378 65.3443 129.372C65.3353 129.366 65.3251 129.361 65.3143 129.359C65.3036 129.357 65.2925 129.357 65.2818 129.36C63.4262 129.776 61.5274 129.985 59.5855 129.989C56.2404 129.994 53.1431 129.988 50.2937 129.97C49.5603 129.966 48.9204 129.935 48.3739 129.876C47.0013 129.731 45.154 129.547 43.7356 128.983C40.9313 127.866 39.7589 125.501 39.6941 122.556C39.5594 116.563 39.5085 110.566 39.5416 104.567C39.5492 103.208 39.675 101.836 39.919 100.449C39.9392 100.335 39.9334 100.218 39.9021 100.107C39.8707 99.9957 39.8146 99.8929 39.7379 99.8065C37.9396 97.7734 36.628 95.4871 35.8031 92.9476C34.4877 88.8897 34.3504 84.652 34.4095 79.9914C34.4299 78.397 34.5964 77.0355 34.909 75.9067C35.7192 72.9871 37.9593 70.8061 40.7293 69.5414C43.6708 68.1984 47.1138 67.6971 50.3756 67.4235C58.3387 66.7558 66.3398 66.5626 74.5392 67.2284C77.4166 67.4631 79.5505 67.7137 80.9409 67.9803C80.9486 67.9815 83.146 68.3534 87.5333 69.0957C94.4217 70.2602 101.311 70.4847 108.202 69.7691C111.661 69.4114 115.329 68.5753 118.661 68.0205C120.607 67.6965 122.786 67.4414 125.2 67.2552C134.393 66.5435 143.271 66.6678 151.834 67.6282C152.552 67.7086 153.223 67.8094 153.847 67.9305C157.666 68.669 160.449 69.4955 162.863 72.1817C166.071 75.7498 165.73 80.6878 165.383 85.1035C165.157 87.9886 164.765 90.3897 164.207 92.3067C163.364 95.1975 161.822 97.5718 159.957 99.8868C159.746 100.151 159.887 100.289 159.915 100.558C160.028 101.605 160.19 102.818 160.192 103.878C160.215 114.625 160.216 120.835 160.196 122.509C160.188 123.081 160.07 123.806 159.841 124.684C159.292 126.777 157.738 128.457 155.75 129.101C154.15 129.622 152.371 129.904 150.414 129.949C149.496 129.969 146.589 129.973 141.692 129.961C138.994 129.953 136.596 129.669 134.499 129.109C134.486 129.106 134.472 129.105 134.459 129.107C134.445 129.109 134.432 129.115 134.42 129.122C134.409 129.13 134.399 129.14 134.392 129.152C134.384 129.164 134.379 129.177 134.377 129.191C134.262 130.004 134.184 130.5 134.145 130.68C133.588 133.236 131.832 135.49 129.337 136.37C127.375 137.06 125.049 137.141 122.912 137.166C122.176 137.173 117.745 137.178 109.617 137.181C108.031 137.182 106.513 137.036 105.065 136.743C102.79 136.286 101.078 135.163 100.005 133.035C100 133.026 99.9931 133.018 99.9843 133.012C99.9755 133.007 99.9654 133.004 99.955 133.004C99.9446 133.003 99.9343 133.006 99.9253 133.011C99.9163 133.016 99.9089 133.024 99.9039 133.033ZM65.5144 129.249L65.5544 129.337C65.5582 129.344 65.5608 129.352 65.562 129.36C65.8111 130.691 65.9808 131.477 66.071 131.717C67.2263 134.786 69.5521 136.351 72.6939 136.75C73.6356 136.87 74.3785 136.936 74.9224 136.948C76.6611 136.987 81.8554 136.991 90.5053 136.959C91.503 136.955 92.5909 136.867 93.7691 136.693C96.3103 136.322 98.5618 135.203 99.7704 132.825C99.788 132.791 99.8146 132.762 99.8474 132.743C99.8801 132.723 99.9177 132.713 99.9558 132.714C99.9939 132.715 100.031 132.726 100.063 132.747C100.095 132.768 100.12 132.798 100.136 132.832C101.612 136.089 104.67 136.67 107.823 136.896C108.471 136.942 109.097 136.966 109.701 136.969C114.713 136.984 118.939 136.976 122.378 136.946C124.434 136.926 126.058 136.835 127.251 136.672C129.423 136.375 131.325 135.455 132.612 133.632C133.63 132.187 133.975 130.835 134.192 129.103C134.196 129.07 134.208 129.038 134.225 129.009C134.243 128.98 134.266 128.956 134.294 128.937C134.322 128.918 134.354 128.906 134.387 128.901C134.42 128.895 134.454 128.897 134.486 128.906C136.93 129.601 139.568 129.773 142.312 129.771C144.128 129.769 146.564 129.767 149.621 129.765C150.683 129.765 151.685 129.707 152.625 129.589C155.38 129.243 157.811 128.526 159.178 125.943C159.488 125.356 159.713 124.611 159.853 123.706C159.962 123 160.015 122.218 160.013 121.361C159.996 115.792 159.998 111.36 160.018 108.064C160.031 105.894 160.036 104.554 160.032 104.044C160.024 102.793 159.837 101.448 159.658 100.26C159.645 100.171 159.65 100.08 159.674 99.9933C159.698 99.9066 159.74 99.826 159.797 99.7567C161.854 97.237 163.469 94.6599 164.218 91.4611C164.494 90.2774 164.705 89.1474 164.851 88.0709C165.175 85.664 165.363 83.2585 165.413 80.8542C165.486 77.5157 164.647 74.1982 162.253 71.8392C160.809 70.4183 159.104 69.4356 157.138 68.891C153.521 67.8904 149.855 67.5345 146.043 67.2915C144.455 67.1908 142.093 67.1059 138.956 67.0371C135.163 66.9529 131.968 66.9943 129.373 67.1614C125.628 67.4012 122.839 67.6436 121.008 67.8884C118.786 68.1869 117.072 68.4624 115.864 68.7149C113.869 69.1346 111.886 69.486 109.914 69.7691C109.212 69.8699 108.511 69.9317 107.814 69.9547C107.611 69.9624 107.39 70.037 107.163 70.058C105.009 70.2532 102.558 70.3501 99.8086 70.3488C97.4434 70.3475 94.9943 70.2149 92.4613 69.9509C90.0669 69.7009 87.6019 69.345 85.0664 68.8833C81.408 68.2175 78.7657 67.7832 76.0663 67.5479C73.3185 67.3068 70.2085 67.1295 66.7364 67.016C61.2154 66.8362 55.5382 67.2303 50.4119 67.6321C46.8641 67.9095 43.6708 68.3495 40.5234 69.8571C36.8135 71.6345 34.7089 74.7894 34.6364 78.9353C34.604 80.7796 34.6612 82.5761 34.6764 84.2291C34.7069 87.8049 35.3094 91.6409 36.7068 94.8053C37.3702 96.3078 38.4295 97.9545 39.8847 99.7452C40.0512 99.9506 40.1179 100.188 40.0849 100.457C39.9705 101.414 39.8142 102.204 39.8142 103.076C39.8161 105.359 39.8695 106.929 39.8714 108.898C39.8739 112.482 39.8707 116.812 39.8618 121.887C39.8618 121.976 39.9019 122.509 39.9819 123.486C40.0341 124.137 40.1287 124.662 40.266 125.061C41.1963 127.768 43.2209 128.908 46.0748 129.369C47.5338 129.605 48.8721 129.733 50.0897 129.754C51.1395 129.77 54.13 129.773 59.0612 129.762C60.4579 129.758 61.4982 129.717 62.182 129.639C63.2724 129.517 64.3082 129.349 65.2894 129.136C65.3346 129.127 65.3814 129.133 65.4222 129.153C65.4631 129.174 65.4956 129.207 65.5144 129.249Z" fill="#787B83"/>
<path d="M65.5127 129.25C65.4939 129.209 65.4615 129.175 65.4206 129.155C65.3798 129.134 65.3329 129.128 65.2878 129.137C64.3066 129.35 63.2708 129.518 62.1803 129.64C61.4966 129.718 60.4563 129.759 59.0596 129.763C54.1284 129.774 51.1378 129.772 50.0881 129.755C48.8705 129.735 47.5322 129.607 46.0732 129.371C43.2193 128.91 41.1947 127.769 40.2644 125.062C40.1271 124.663 40.0324 124.138 39.9803 123.488C39.9003 122.511 39.8602 121.977 39.8602 121.888C39.8691 116.813 39.8723 112.483 39.8698 108.899C39.8678 106.931 39.8145 105.36 39.8126 103.078C39.8126 102.205 39.9689 101.415 40.0833 100.458C40.1163 100.189 40.0496 99.952 39.8831 99.7466C38.4279 97.9559 37.3686 96.3092 36.7051 94.8067C35.3077 91.6423 34.7053 87.8063 34.6748 84.2305C34.6596 82.5775 34.6024 80.781 34.6348 78.9367C34.7072 74.7908 36.8119 71.6359 40.5217 69.8585C43.6692 68.3509 46.8624 67.9109 50.4102 67.6334C55.5365 67.2317 61.2138 66.8376 66.7347 67.0174C70.2069 67.1309 73.3169 67.3082 76.0647 67.5493C78.7641 67.7846 81.4064 68.2189 85.0648 68.8847C87.6003 69.3464 90.0653 69.7023 92.4597 69.9523C94.9927 70.2163 97.4417 70.3489 99.8069 70.3502C102.556 70.3515 105.008 70.2545 107.162 70.0594C107.389 70.0383 107.61 69.9637 107.812 69.9561C108.51 69.9331 109.21 69.8713 109.913 69.7705C111.884 69.4873 113.867 69.1359 115.863 68.7163C117.07 68.4638 118.785 68.1883 121.006 67.8898C122.838 67.6449 125.626 67.4026 129.371 67.1628C131.967 66.9957 135.161 66.9543 138.955 67.0384C142.092 67.1073 144.454 67.1921 146.041 67.2929C149.854 67.5359 153.52 67.8917 157.136 68.8923C159.102 69.437 160.807 70.4197 162.251 71.8406C164.645 74.1996 165.484 77.5171 165.412 80.8556C165.361 83.2599 165.174 85.6654 164.849 88.0722C164.703 89.1487 164.492 90.2788 164.217 91.4624C163.467 94.6613 161.853 97.2384 159.796 99.7581C159.739 99.8274 159.697 99.908 159.673 99.9947C159.649 100.081 159.643 100.172 159.656 100.261C159.836 101.449 160.022 102.794 160.03 104.046C160.034 104.556 160.029 105.896 160.017 108.065C159.996 111.361 159.995 115.793 160.011 121.362C160.014 122.219 159.96 123.001 159.851 123.708C159.711 124.612 159.486 125.357 159.176 125.944C157.809 128.527 155.378 129.244 152.624 129.591C151.683 129.708 150.682 129.767 149.619 129.767C146.563 129.768 144.126 129.77 142.31 129.772C139.567 129.774 136.928 129.602 134.484 128.908C134.452 128.899 134.418 128.897 134.385 128.902C134.352 128.907 134.32 128.92 134.292 128.938C134.265 128.957 134.241 128.982 134.223 129.01C134.206 129.039 134.195 129.071 134.191 129.105C133.973 130.836 133.628 132.189 132.61 133.633C131.324 135.457 129.421 136.377 127.25 136.673C126.056 136.837 124.432 136.928 122.377 136.947C118.938 136.978 114.712 136.985 109.699 136.97C109.096 136.967 108.47 136.943 107.821 136.897C104.668 136.671 101.61 136.09 100.135 132.834C100.119 132.799 100.093 132.769 100.061 132.749C100.029 132.728 99.9923 132.716 99.9542 132.715C99.9161 132.715 99.8785 132.725 99.8458 132.744C99.813 132.764 99.7863 132.792 99.7688 132.826C98.5602 135.204 96.3087 136.323 93.7675 136.694C92.5893 136.868 91.5014 136.957 90.5037 136.96C81.8538 136.992 76.6595 136.988 74.9208 136.949C74.3769 136.937 73.634 136.872 72.6922 136.752C69.5505 136.352 67.2247 134.787 66.0694 131.718C65.9792 131.478 65.8095 130.693 65.5604 129.361C65.5591 129.354 65.5566 129.346 65.5528 129.338L65.5127 129.25ZM100.003 104.095C100.15 103.931 100.221 103.891 100.276 103.65C100.721 101.726 101.317 99.8907 102.066 98.1434C102.649 96.7799 103.233 95.6613 103.816 94.7876C106.481 90.7966 111.158 87.5978 116.097 87.6532C116.148 87.6532 116.815 87.6539 118.099 87.6552C118.847 87.6552 119.602 87.7559 120.362 87.9574C126.024 89.465 129.894 93.632 131.884 99.0713C131.904 99.1255 131.94 99.1722 131.987 99.205C132.034 99.2377 132.09 99.2549 132.148 99.254C132.205 99.2532 132.261 99.2344 132.307 99.2003C132.354 99.1661 132.388 99.1184 132.406 99.0636C134.172 93.7162 138.494 87.9919 144.375 87.0219C145.343 86.8624 146.024 86.7993 146.417 86.8325C147.558 86.9294 148.427 87.0576 149.024 87.217C154.259 88.6156 157.645 93.1728 159.123 98.1548C159.147 98.2344 159.186 98.3085 159.239 98.3729L159.332 98.4877C159.346 98.5044 159.362 98.5179 159.382 98.5274C159.401 98.5368 159.422 98.5419 159.443 98.5422C159.464 98.5426 159.485 98.5382 159.505 98.5295C159.524 98.5207 159.542 98.5078 159.555 98.4916C160.629 97.248 161.527 95.8373 162.247 94.2595C163.957 90.5116 164.228 85.9811 164.43 81.4812C164.552 78.797 164.081 76.0439 162.693 73.7481C161.33 71.4924 158.669 70.2737 156.238 69.6481C154.295 69.1468 152.237 68.7954 150.063 68.5939C147.503 68.3566 144.933 68.1927 142.356 68.1022C141.994 68.0907 141.279 67.9721 140.762 67.9587C139.142 67.9179 137.143 67.8987 134.767 67.9013C132.904 67.9032 131.074 68.0926 129.158 68.1883C124.247 68.4332 120.077 68.8847 116.648 69.5428C114.222 70.0071 112.6 70.3062 111.783 70.4401C109.217 70.8572 106.937 71.1238 104.943 71.2398C103.865 71.3023 102.801 71.3432 101.751 71.3623C99.0876 71.4095 96.4021 71.3023 93.695 71.0409C90.4275 70.7246 87.2806 70.2762 84.2545 69.6959C79.5165 68.7865 74.8541 68.2731 70.2673 68.1558C70.0741 68.1506 69.5556 68.0971 68.7117 67.995C68.2897 67.9427 67.7693 67.9147 67.1503 67.9109C66.5695 67.9058 64.3835 67.9211 60.5923 67.9568C59.7624 67.9644 58.9731 68.0008 58.2246 68.0658C57.6615 68.1156 56.8717 68.1609 55.8549 68.2017C54.9017 68.2412 53.0195 68.3853 50.2082 68.6341C48.5305 68.782 46.9851 68.9995 45.5718 69.2865C43.1278 69.7801 40.7753 70.5702 38.8556 72.1046C35.018 75.1715 35.4545 80.0559 35.485 84.4601C35.485 84.5211 35.4927 84.5821 35.5079 84.6419C35.5842 84.9505 35.6248 85.2158 35.6299 85.4377C35.7227 89.6965 36.8901 93.6333 39.132 97.248C39.4777 97.8028 39.8386 98.2333 40.2148 98.5394C40.239 98.5589 40.2676 98.5721 40.298 98.578C40.3285 98.5839 40.3599 98.5823 40.3896 98.5732C40.4192 98.5642 40.4463 98.548 40.4683 98.5261C40.4903 98.5042 40.5067 98.4772 40.516 98.4475C41.7876 94.4011 43.917 90.9172 47.665 88.6079C48.9207 87.835 50.2844 87.3044 51.7562 87.0161C55.2506 86.3312 58.9318 87.6896 61.5932 90.0237C64.0435 92.1729 65.88 94.7742 67.1027 97.8277C67.3238 98.3812 67.5125 98.8142 67.6689 99.1267C67.6772 99.1427 67.69 99.1558 67.7057 99.1645C67.7214 99.1732 67.7393 99.177 67.7572 99.1756C67.775 99.1742 67.7921 99.1675 67.8062 99.1565C67.8203 99.1454 67.8309 99.1304 67.8366 99.1133C68.5013 96.968 69.5587 95.0051 71.0089 93.2245C73.5406 90.1174 76.7783 88.2655 80.722 87.6685C81.7248 87.5174 82.7542 87.6819 83.6845 87.6418C88.5802 87.437 93.3919 90.4331 96.0094 94.5083C97.776 97.2594 99.0094 100.347 99.7097 103.77C99.7135 103.788 99.7193 103.806 99.7269 103.824L99.8394 104.07C99.8462 104.085 99.8567 104.099 99.8698 104.108C99.883 104.118 99.8984 104.125 99.9146 104.127C99.9309 104.13 99.9475 104.128 99.963 104.123C99.9785 104.117 99.9923 104.108 100.003 104.095ZM65.6672 127.781C65.8025 126.354 65.7548 124.438 65.934 122.586C65.9989 121.917 65.9569 121.274 65.9836 120.549C66.0726 118.15 66.2137 114.948 66.4068 110.943C66.5498 107.966 66.6146 104.985 67.0512 102.194C67.1789 101.369 67.1332 100.722 66.9235 100.013C65.772 96.1249 63.5205 92.5223 60.3502 90.1098C58.3968 88.6213 56.0869 87.8382 53.4204 87.7604C51.5674 87.7049 49.6706 88.451 48.1473 89.4823C45.5813 91.2195 43.6006 93.3948 42.39 96.2761C41.7304 97.8487 41.2322 99.5317 40.8954 101.325C40.7035 102.352 40.6037 103.631 40.5961 105.163C40.5821 108.176 40.5758 111.849 40.577 116.183C40.577 118.098 40.7086 119.847 40.7334 122.068C40.7543 123.912 41.3892 126.656 43.185 127.58C44.7616 128.389 46.8071 128.699 48.6602 128.762C51.7231 128.871 55.7424 128.897 60.7181 128.843C62.3144 128.825 63.8802 128.575 65.4155 128.095C65.4838 128.073 65.5442 128.032 65.5889 127.976C65.6337 127.92 65.6609 127.852 65.6672 127.781ZM134.442 127.888C135.305 128.156 136.346 128.403 137.565 128.63C138.367 128.78 139.438 128.857 140.777 128.862C143.111 128.872 144.931 128.857 146.237 128.816C148.094 128.758 149.955 128.827 151.51 128.781C152.72 128.744 154.003 128.532 155.358 128.144C157.409 127.559 158.366 125.908 158.922 123.958C159.099 123.338 159.19 122.261 159.195 120.727C159.207 116.962 159.194 111.717 159.157 104.993C159.148 103.531 159.046 102.275 158.852 101.224C157.945 96.3258 155.657 91.7398 151.335 89.1781C149.571 88.1322 147.802 87.6603 146.028 87.7623C143.143 87.9281 140.622 89.0269 138.467 91.0587C135.739 93.6288 133.897 96.7346 132.938 100.376C132.753 101.083 132.723 101.788 132.849 102.492C133.31 105.083 133.278 108.021 133.426 110.901C133.533 112.98 133.626 115.193 133.707 117.539C133.769 119.397 133.853 120.474 133.817 121.379C133.807 121.618 133.81 121.829 133.827 122.014C133.974 123.63 134.062 125.431 134.09 127.415C134.091 127.522 134.126 127.625 134.19 127.709C134.253 127.794 134.342 127.857 134.442 127.888ZM66.7157 122.236C66.6737 122.435 66.6706 122.858 66.7061 123.505C66.7265 123.867 66.7246 124.288 66.7004 124.768C66.6445 125.887 66.5994 126.821 66.5651 127.568C66.5015 128.908 66.5314 129.841 66.6547 130.367C67.2857 133.054 69.0567 134.967 71.7581 135.73C72.7418 136.008 73.6842 136.152 74.5853 136.163C79.078 136.207 83.9896 136.202 89.3199 136.147C91.1246 136.128 92.5684 136.045 93.6512 135.899C97.1056 135.428 99.561 133.17 99.521 129.541C99.4524 123.569 99.4492 116.857 99.5115 109.404C99.5216 108.329 99.4352 107.215 99.2522 106.062C98.686 102.496 97.6642 99.0292 95.895 95.9106C94.7359 93.8661 93.2172 92.1703 91.3387 90.8234C89.8085 89.7265 87.993 88.9663 85.8921 88.5429C84.5386 88.2712 83.2727 88.1354 81.9878 88.3037C81.0194 88.43 80.2098 88.5799 79.5591 88.7533C75.8009 89.7597 72.8918 91.8132 70.8316 94.9139C68.9176 97.7939 67.8246 101.174 67.5526 105.054C67.5157 105.59 67.4249 107.753 67.28 111.543C67.2507 112.32 67.2164 112.966 67.177 113.482C67.0989 114.53 67.1522 115.542 67.0684 116.59C66.9788 117.717 66.9502 118.186 66.9273 119.514C66.9069 120.754 66.8364 121.661 66.7157 122.236ZM116.328 88.3133C113.363 88.5276 110.682 89.5326 108.287 91.3285C106.035 93.016 104.343 95.1626 103.212 97.7684C101.699 101.25 100.748 104.85 100.358 108.566C100.303 109.089 100.283 109.556 100.297 109.967C100.335 111.149 100.379 112.429 100.377 113.472C100.373 119.256 100.374 123.55 100.381 126.354C100.382 126.822 100.369 127.384 100.341 128.041C100.263 129.899 100.51 131.781 101.406 133.333C101.683 133.815 101.986 134.171 102.314 134.401C104.251 135.757 106.578 136.134 108.948 136.151C113.726 136.184 118.449 136.187 123.118 136.159C124.346 136.151 125.316 136.019 126.67 135.883C127.924 135.757 129.299 135.392 130.306 134.607C131.667 133.546 132.579 132.21 133.043 130.599C133.225 129.969 133.302 129.153 133.274 128.15C133.223 126.345 133.161 124.849 133.087 123.662C133.035 122.81 133.079 121.559 132.978 120.534C132.901 119.753 132.863 118.754 132.864 117.538C132.866 116.248 132.706 115.077 132.683 113.702C132.65 111.823 132.458 109.858 132.471 107.954C132.477 107.08 132.372 106.286 132.324 105.285C132.202 102.798 131.516 100.284 130.519 97.9884C128.401 93.1097 124.514 89.4612 119.187 88.5467C118.673 88.4587 118.072 88.4223 117.556 88.3573C117.106 88.3012 116.696 88.2865 116.328 88.3133Z" fill="#787B83" stroke="#787B83" stroke-width="0.6"/>
<path d="M99.841 104.068L99.7285 103.821C99.7209 103.803 99.7152 103.785 99.7113 103.767C99.0111 100.344 97.7776 97.2568 96.011 94.5056C93.3935 90.4305 88.5818 87.4344 83.6862 87.6391C82.7558 87.6793 81.7264 87.5148 80.7236 87.6659C76.7799 88.2628 73.5422 90.1148 71.0105 93.2219C69.5604 95.0024 68.503 96.9654 67.8383 99.1107C67.8326 99.1278 67.822 99.1427 67.8078 99.1538C67.7937 99.1649 67.7767 99.1715 67.7588 99.173C67.7409 99.1744 67.723 99.1705 67.7073 99.1618C67.6916 99.1532 67.6788 99.14 67.6705 99.1241C67.5142 98.8116 67.3254 98.3786 67.1043 97.825C65.8817 94.7716 64.0452 92.1702 61.5948 90.0211C58.9335 87.687 55.2522 86.3286 51.7578 87.0135C50.286 87.3018 48.9223 87.8324 47.6666 88.6053C43.9187 90.9145 41.7892 94.3985 40.5177 98.4449C40.5084 98.4746 40.492 98.5016 40.4699 98.5235C40.4479 98.5454 40.4209 98.5616 40.3912 98.5706C40.3615 98.5797 40.3301 98.5813 40.2996 98.5754C40.2692 98.5695 40.2406 98.5562 40.2164 98.5367C39.8402 98.2306 39.4793 97.8002 39.1336 97.2453C36.8917 93.6306 35.7243 89.6939 35.6316 85.4351C35.6265 85.2132 35.5858 84.9479 35.5095 84.6392C35.4943 84.5795 35.4867 84.5184 35.4867 84.4575C35.4562 80.0533 35.0196 75.1688 38.8572 72.102C40.7769 70.5676 43.1294 69.7774 45.5734 69.2838C46.9867 68.9968 48.5322 68.7794 50.2098 68.6314C53.0211 68.3827 54.9033 68.2386 55.8565 68.199C56.8733 68.1582 57.6632 68.1129 58.2262 68.0632C58.9748 67.9981 59.764 67.9618 60.5939 67.9541C64.3851 67.9184 66.5711 67.9031 67.152 67.9082C67.7709 67.9121 68.2914 67.9401 68.7133 67.9924C69.5572 68.0944 70.0757 68.148 70.2689 68.1531C74.8557 68.2705 79.5181 68.7838 84.2562 69.6933C87.2823 70.2736 90.4291 70.7219 93.6967 71.0382C96.4037 71.2997 99.0892 71.4068 101.753 71.3597C102.803 71.3405 103.867 71.2997 104.944 71.2372C106.939 71.1211 109.219 70.8546 111.785 70.4375C112.602 70.3036 114.223 70.0045 116.65 69.5402C120.079 68.882 124.249 68.4305 129.16 68.1856C131.075 68.09 132.906 67.9006 134.768 67.8987C137.145 67.8961 139.143 67.9152 140.764 67.9561C141.28 67.9694 141.995 68.0881 142.357 68.0995C144.935 68.1901 147.504 68.354 150.065 68.5912C152.238 68.7928 154.297 69.1442 156.24 69.6454C158.671 70.271 161.332 71.4898 162.695 73.7454C164.083 76.0413 164.554 78.7944 164.432 81.4786C164.23 85.9785 163.959 90.5089 162.249 94.2569C161.528 95.8347 160.631 97.2453 159.557 98.4889C159.543 98.5051 159.526 98.5181 159.506 98.5269C159.487 98.5356 159.466 98.54 159.445 98.5396C159.423 98.5392 159.402 98.5342 159.383 98.5247C159.364 98.5153 159.347 98.5018 159.334 98.4851L159.241 98.3703C159.188 98.3059 159.148 98.2318 159.124 98.1522C157.647 93.1702 154.261 88.6129 149.026 87.2144C148.429 87.055 147.559 86.9268 146.418 86.8298C146.025 86.7967 145.345 86.8598 144.376 87.0192C138.495 87.9892 134.173 93.7136 132.408 99.061C132.39 99.1157 132.355 99.1635 132.309 99.1976C132.263 99.2318 132.207 99.2506 132.15 99.2514C132.092 99.2522 132.036 99.2351 131.988 99.2023C131.941 99.1696 131.905 99.1228 131.886 99.0686C129.895 93.6294 126.025 89.4624 120.363 87.9548C119.603 87.7533 118.849 87.6525 118.1 87.6525C116.817 87.6512 116.15 87.6506 116.099 87.6506C111.159 87.5951 106.483 90.794 103.818 94.785C103.234 95.6586 102.651 96.7772 102.068 98.1407C101.319 99.8881 100.722 101.724 100.278 103.647C100.222 103.888 100.152 103.928 100.005 104.093C99.994 104.105 99.9801 104.114 99.9646 104.12C99.9492 104.126 99.9325 104.127 99.9163 104.125C99.9 104.122 99.8846 104.116 99.8715 104.106C99.8583 104.096 99.8478 104.083 99.841 104.068ZM40.388 98.3225C40.8659 96.621 41.5776 95.0088 42.5232 93.4859C45.7202 88.3298 51.7082 85.1003 57.721 87.4382C62.0542 89.1238 65.3752 93.2046 67.1348 97.4137C67.4258 98.1075 67.6095 98.5718 67.6857 98.8065C67.6903 98.8222 67.7 98.8357 67.7134 98.8448C67.7268 98.8539 67.7429 98.858 67.7592 98.8565C67.7755 98.8549 67.7909 98.8477 67.8029 98.8362C67.8148 98.8247 67.8226 98.8095 67.8249 98.7931C67.8758 98.4283 67.9723 98.0795 68.1147 97.7466C70.2575 92.7282 73.9788 89.0128 79.3453 87.7271C80.2362 87.5141 80.8761 87.4153 81.265 87.4306C82.161 87.4676 83.0348 87.474 83.8863 87.4497C84.8294 87.4229 85.5868 87.4676 86.1588 87.5836C93.7367 89.1276 97.8393 95.3513 99.6256 102.468C99.7228 102.849 99.8658 103.27 99.8829 103.729C99.8839 103.75 99.8923 103.769 99.9065 103.784C99.9206 103.799 99.9396 103.808 99.9598 103.81C99.98 103.812 100 103.806 100.016 103.794C100.032 103.782 100.043 103.764 100.047 103.744C100.579 101.273 101.437 98.8582 102.621 96.5011C104.847 92.0663 108.799 88.7794 113.681 87.6621C114.964 87.3674 116.143 87.4861 117.675 87.4555C118.775 87.4325 119.852 87.5785 120.907 87.8936C126.37 89.5236 130.185 93.7308 132.057 99.0476C132.062 99.0613 132.072 99.0732 132.084 99.0815C132.096 99.0899 132.11 99.0943 132.125 99.0943C132.14 99.0943 132.154 99.0899 132.166 99.0815C132.178 99.0732 132.187 99.0613 132.193 99.0476C134.253 92.9923 139.235 86.7093 146.22 86.6749C150.559 86.6538 154.509 89.2462 156.833 92.7761C158.002 94.5528 158.848 96.3895 159.37 98.2861C159.373 98.2967 159.379 98.3063 159.387 98.3138C159.395 98.3214 159.405 98.3266 159.416 98.329C159.427 98.3313 159.438 98.3307 159.448 98.3272C159.459 98.3237 159.468 98.3174 159.475 98.3091C161.638 95.7033 162.992 92.6817 163.538 89.2443C163.985 86.4204 164.217 83.4626 164.233 80.3709C164.249 77.4245 163.303 73.8506 160.846 72.0063C159.546 71.0293 158.054 70.324 156.37 69.8903C154.299 69.3559 152.12 68.9783 149.832 68.7577C145.806 68.3712 141.707 68.2679 138.165 68.2048C133.754 68.127 129.237 68.2839 124.615 68.6754C121.299 68.956 117.618 69.5032 113.573 70.317C105.993 71.8399 97.8011 71.8858 89.9525 70.8278C88.9091 70.6875 86.8972 70.3584 83.9168 69.8406C80.8526 69.31 78.8388 68.9943 77.8755 68.8935C67.8071 67.8489 57.7992 67.9146 47.8516 69.0906C44.584 69.4771 40.693 70.4031 38.2986 72.85C36.3198 74.8723 35.6945 77.5699 35.6659 80.3689C35.643 82.5156 35.7313 84.7317 35.9309 87.0173C36.2143 90.2685 37.1408 93.3258 38.7104 96.1892C39.145 96.9826 39.6636 97.7032 40.266 98.3512C40.2749 98.3607 40.2861 98.3677 40.2985 98.3715C40.3109 98.3753 40.324 98.3758 40.3364 98.3728C40.3489 98.3699 40.3603 98.3637 40.3694 98.3548C40.3784 98.346 40.3849 98.3348 40.388 98.3225Z" fill="#787B83"/>
<path d="M65.6684 127.781C65.6622 127.852 65.635 127.92 65.5902 127.976C65.5454 128.032 65.485 128.073 65.4168 128.095C63.8815 128.576 62.3157 128.825 60.7194 128.843C55.7437 128.898 51.7244 128.871 48.6614 128.763C46.8084 128.7 44.7628 128.39 43.1862 127.58C41.3904 126.656 40.7556 123.913 40.7346 122.068C40.7098 119.847 40.5783 118.098 40.5783 116.183C40.577 111.849 40.5834 108.176 40.5973 105.163C40.605 103.631 40.7047 102.352 40.8967 101.325C41.2334 99.532 41.7317 97.8491 42.3913 96.2764C43.6018 93.3951 45.5826 91.2198 48.1486 89.4826C49.6718 88.4514 51.5687 87.7052 53.4217 87.7607C56.0881 87.8385 58.398 88.6217 60.3515 90.1101C63.5218 92.5227 65.7733 96.1253 66.9247 100.013C67.1344 100.723 67.1802 101.369 67.0525 102.194C66.6159 104.985 66.5511 107.966 66.4081 110.943C66.2149 114.948 66.0738 118.15 65.9849 120.549C65.9582 121.274 66.0001 121.917 65.9353 122.587C65.7561 124.439 65.8038 126.354 65.6684 127.781ZM65.4759 127.724C65.7173 121.683 66.0389 114.286 66.4405 105.532C66.4634 105.025 66.6076 103.88 66.8732 102.098C66.98 101.377 66.9609 100.79 66.7722 100.132C65.7517 96.5972 63.912 93.5954 61.2532 91.126C58.9553 88.9922 56.2489 87.9393 53.1338 87.9673C50.5182 87.9903 48.1486 89.4922 46.2403 91.2007C43.211 93.9174 41.827 97.4683 41.0835 101.431C40.9208 102.293 40.842 103.532 40.8471 105.148C40.8687 111.747 40.9011 117.325 40.9443 121.881C40.9532 122.747 41.0225 123.446 41.1521 123.98C41.581 125.74 42.3303 127.203 44.1337 127.772C46.5587 128.537 48.8692 128.617 51.4714 128.642C52.7564 128.655 55.8244 128.644 60.6755 128.61C62.4066 128.598 63.8402 128.401 65.3443 127.898C65.3814 127.885 65.4138 127.862 65.4373 127.831C65.4608 127.8 65.4743 127.763 65.4759 127.724Z" fill="#787B83"/>
<path d="M134.443 127.885C134.343 127.854 134.254 127.792 134.191 127.707C134.127 127.622 134.092 127.519 134.091 127.413C134.063 125.428 133.975 123.628 133.828 122.012C133.811 121.827 133.808 121.615 133.818 121.377C133.854 120.472 133.77 119.395 133.708 117.537C133.628 115.19 133.534 112.977 133.427 110.898C133.279 108.019 133.311 105.08 132.85 102.489C132.724 101.785 132.754 101.08 132.939 100.373C133.898 96.732 135.74 93.6262 138.468 91.0561C140.623 89.0243 143.144 87.9255 146.029 87.7597C147.803 87.6577 149.572 88.1296 151.336 89.1755C155.658 91.7373 157.946 96.3232 158.853 101.221C159.047 102.272 159.149 103.528 159.158 104.99C159.195 111.714 159.208 116.959 159.196 120.724C159.191 122.259 159.1 123.336 158.924 123.956C158.367 125.905 157.41 127.556 155.359 128.142C154.004 128.529 152.721 128.742 151.511 128.779C149.956 128.825 148.095 128.756 146.238 128.813C144.932 128.854 143.112 128.869 140.778 128.859C139.439 128.854 138.368 128.777 137.566 128.628C136.347 128.401 135.306 128.153 134.443 127.885ZM134.339 127.528C134.339 127.557 134.349 127.586 134.367 127.61C134.384 127.634 134.409 127.652 134.438 127.662C135.576 128.045 136.738 128.329 137.923 128.513C139.087 128.693 140.782 128.668 141.768 128.658C144.761 128.626 148.007 128.608 151.508 128.603C152.655 128.6 154.109 128.315 155.868 127.748C157.44 127.239 158.313 125.387 158.727 123.952C158.909 123.319 159 122.481 159 121.438C159.004 117.757 159.001 112.134 158.992 104.569C158.99 102.752 158.686 100.822 158.083 98.7817C156.924 94.8653 154.838 91.5058 151.372 89.4223C149.927 88.5524 148.543 88.0754 147.22 87.9912C144.039 87.7871 141.24 88.7833 138.822 90.9796C136.089 93.4642 134.222 96.5024 133.221 100.094C132.979 100.968 132.906 101.711 133.002 102.325C133.249 103.891 133.384 104.959 133.408 105.53C134.026 120.102 134.336 127.434 134.339 127.528Z" fill="#787B83"/>
<path d="M66.7182 122.233C66.8389 121.658 66.9095 120.75 66.9298 119.511C66.9527 118.183 66.9813 117.714 67.0709 116.587C67.1548 115.539 67.1014 114.527 67.1795 113.478C67.2189 112.963 67.2532 112.317 67.2825 111.54C67.4274 107.75 67.5182 105.586 67.5551 105.051C67.8271 101.171 68.9201 97.7906 70.8341 94.9106C72.8943 91.81 75.8034 89.7565 79.5616 88.7501C80.2123 88.5766 81.0219 88.4268 81.9903 88.3005C83.2753 88.1321 84.5411 88.268 85.8947 88.5397C87.9955 88.9631 89.811 89.7233 91.3412 90.8202C93.2197 92.1671 94.7384 93.8628 95.8975 95.9074C97.6667 99.0259 98.6885 102.493 99.2547 106.059C99.4377 107.212 99.5241 108.326 99.514 109.401C99.4517 116.854 99.4549 123.566 99.5235 129.538C99.5635 133.167 97.1081 135.425 93.6537 135.895C92.5709 136.042 91.1271 136.125 89.3224 136.144C83.9921 136.199 79.0805 136.204 74.5878 136.159C73.6867 136.149 72.7443 136.005 71.7606 135.727C69.0592 134.964 67.2882 133.05 66.6572 130.364C66.5339 129.837 66.504 128.904 66.5676 127.565C66.6019 126.818 66.647 125.884 66.7029 124.764C66.7271 124.285 66.729 123.864 66.7087 123.502C66.6731 122.855 66.6762 122.432 66.7182 122.233ZM68.0603 102.69C67.9802 103.287 67.8048 104.094 67.7762 104.764C67.5424 110.327 67.1999 118.225 66.7487 128.457C66.6368 130.983 67.5754 132.992 69.5644 134.483C70.6797 135.319 72.6109 135.863 73.8615 135.914C79.2089 136.134 84.7317 136.014 91.0877 135.882C92.7501 135.848 94.4773 135.721 96.0996 134.962C98.4616 133.856 99.4034 131.625 99.3691 129.107C99.3487 127.569 99.3424 121.584 99.35 111.152C99.3513 109.13 99.268 107.554 99.1003 106.424C98.2005 100.346 95.9109 93.7991 90.3804 90.4529C86.6038 88.1685 81.8378 87.8873 77.7295 89.5498C74.2879 90.9426 71.7199 93.3061 70.0258 96.6402C68.9824 98.6937 68.3272 100.71 68.0603 102.69Z" fill="#787B83"/>
<path d="M117.556 88.3539C118.073 88.4189 118.673 88.4553 119.188 88.5433C124.514 89.4578 128.401 93.1063 130.519 97.9849C131.516 100.281 132.203 102.795 132.325 105.282C132.372 106.283 132.477 107.076 132.472 107.951C132.458 109.854 132.651 111.819 132.683 113.698C132.706 115.074 132.866 116.245 132.864 117.534C132.863 118.751 132.901 119.75 132.979 120.53C133.08 121.556 133.036 122.807 133.087 123.658C133.161 124.846 133.223 126.342 133.274 128.147C133.302 129.149 133.225 129.965 133.043 130.596C132.58 132.206 131.667 133.543 130.306 134.604C129.299 135.388 127.925 135.754 126.67 135.88C125.317 136.016 124.346 136.148 123.119 136.155C118.449 136.183 113.726 136.181 108.948 136.148C106.579 136.13 104.251 135.754 102.314 134.397C101.986 134.168 101.684 133.812 101.407 133.33C100.511 131.778 100.263 129.895 100.341 128.038C100.369 127.381 100.382 126.818 100.381 126.35C100.375 123.547 100.373 119.253 100.377 113.469C100.379 112.426 100.335 111.146 100.297 109.964C100.283 109.553 100.304 109.086 100.358 108.563C100.748 104.846 101.7 101.247 103.212 97.7649C104.343 95.1591 106.035 93.0125 108.287 91.3251C110.683 89.5292 113.363 88.5241 116.328 88.3099C116.697 88.2831 117.106 88.2977 117.556 88.3539ZM101.485 133.117C102.476 135.174 105.994 135.887 107.995 135.91C114.683 135.99 119.753 136.004 123.206 135.954C124.393 135.937 125.558 135.847 126.701 135.687C127.951 135.511 129.16 135.237 130.163 134.468C131.584 133.377 132.5 131.999 132.91 130.333C133.069 129.691 133.113 128.581 133.042 127.004C132.734 120.082 132.438 112.988 132.153 105.722C131.795 96.5826 125.267 87.4393 115.106 88.6638C111.516 89.0943 108.26 91.1127 105.851 93.8428C104.985 94.8237 104.212 96.0628 103.53 97.5602C102.087 100.736 101.22 103.958 100.726 107.298C100.574 108.325 100.499 109.699 100.503 111.419C100.526 121.551 100.544 127.557 100.557 129.438C100.564 130.624 100.874 131.851 101.485 133.117Z" fill="#787B83"/>
</g>
<circle opacity="0.7" cx="83" cy="121" r="31.5" stroke="#CF1039" stroke-width="3"/>
</g>
<defs>
<filter id="filter0_ng_177_21650" x="61" y="107.34" width="43.2949" height="33.6602" filterUnits="userSpaceOnUse" color-interpolation-filters="sRGB">
<feFlood flood-opacity="0" result="BackgroundImageFix"/>
<feBlend mode="normal" in="SourceGraphic" in2="BackgroundImageFix" result="shape"/>
<feTurbulence type="fractalNoise" baseFrequency="2 2" stitchTiles="stitch" numOctaves="3" result="noise" seed="5228" />
<feColorMatrix in="noise" type="luminanceToAlpha" result="alphaNoise" />
<feComponentTransfer in="alphaNoise" result="coloredNoise1">
<feFuncA type="discrete" tableValues="1 1 1 1 1 1 1 1 1 1 1 1 1 1 1 1 1 1 1 1 1 1 1 1 1 1 1 1 1 1 1 1 1 1 1 1 1 1 1 1 1 1 1 1 1 1 1 1 1 1 1 0 0 0 0 0 0 0 0 0 0 0 0 0 0 0 0 0 0 0 0 0 0 0 0 0 0 0 0 0 0 0 0 0 0 0 0 0 0 0 0 0 0 0 0 0 0 0 0 0 "/>
</feComponentTransfer>
<feComposite operator="in" in2="shape" in="coloredNoise1" result="noise1Clipped" />
<feFlood flood-color="rgba(0, 0, 0, 0.25)" result="color1Flood" />
<feComposite operator="in" in2="noise1Clipped" in="color1Flood" result="color1" />
<feMerge result="effect1_noise_177_21650">
<feMergeNode in="shape" />
<feMergeNode in="color1" />
</feMerge>
<feTurbulence type="fractalNoise" baseFrequency="1 1" numOctaves="3" seed="714" />
<feDisplacementMap in="effect1_noise_177_21650" scale="4" xChannelSelector="R" yChannelSelector="G" result="displacedImage" width="100%" height="100%" />
<feMerge result="effect2_texture_177_21650">
<feMergeNode in="displacedImage"/>
</feMerge>
</filter>
</defs>
</svg>
