<svg width="200" height="200" viewBox="0 0 200 200" fill="none" xmlns="http://www.w3.org/2000/svg">
<path d="M200 100C200 155.228 155.228 200 100 200C44.7715 200 0 155.228 0 100C0 44.7715 44.7715 0 100 0C155.228 0 200 44.7715 200 100Z" fill="white"/>
<mask id="mask0_177_46523" style="mask-type:alpha" maskUnits="userSpaceOnUse" x="20" y="52" width="160" height="96">
<path d="M20 52H180V148H20V52Z" fill="#D9D9D9"/>
</mask>
<g mask="url(#mask0_177_46523)">
<path d="M32 85L34 74L43 69L66 68L99 72L138 67L158 69L164 73L168 79L166 97L160 103L99 112L37 102L32 85Z" fill="#FFCCD1"/>
<path d="M40 102L45 94L51 91L61 94L65 105L64 124L62 129L53 131L43 129L39 125L40 102Z" fill="white"/>
<path d="M136 100L140 94L148 90L157 96L161 111L160 127L153 130H141L135 125L136 100Z" fill="white"/>
<path d="M103 110L104 100L112 92L125 93L131 103L132 133L128 136H108L103 133V110Z" fill="white"/>
<path d="M72 96L81 91L92 95L96 105L97 133L92 136L81 137L71 135L67 131L68.5 109.5L72 96Z" fill="white"/>
<mask id="mask1_177_46523" style="mask-type:alpha" maskUnits="userSpaceOnUse" x="20" y="62" width="160" height="80">
<path d="M20 62H180V142H20V62Z" fill="#D9D9D9"/>
</mask>
<g mask="url(#mask1_177_46523)">
<path d="M97.8953 112.953C97.8516 113.115 97.8344 113.269 97.8436 113.417C97.9032 114.37 97.9377 115.377 97.9469 116.438C97.9727 119.24 98.0621 121.187 98.0462 123.585C98.0462 123.9 98.1197 124.304 98.1098 124.633C98.0899 125.4 98.0992 126.242 98.1376 127.158C98.2012 128.687 98.1456 130.048 97.9708 131.24C97.4463 134.815 93.6661 136.912 90.3408 137.042C89.4966 137.075 88.7258 137.189 87.8657 137.189C86.7785 137.189 83.5657 137.192 78.2275 137.197C77.7375 137.197 77.1628 137.172 76.5033 137.121C76.2887 137.104 75.716 137.078 74.785 137.044C70.3969 136.876 66.6505 134.347 66.579 129.599C66.5472 127.431 66.5823 125.356 66.6843 123.374C66.7545 122.029 66.8041 120.801 66.8332 119.69C66.9008 117.07 67.0564 114.483 67.3001 111.927C67.3094 111.83 67.2986 111.732 67.2684 111.639C67.2381 111.546 67.189 111.461 67.1242 111.388C67.0594 111.316 66.9803 111.258 66.8919 111.217C66.8036 111.177 66.7078 111.156 66.6108 111.154H66.5989C66.397 111.155 66.2033 111.234 66.0593 111.376C65.9152 111.518 65.8323 111.711 65.8281 111.913L65.7129 117.473C65.7116 117.528 65.7036 117.582 65.6891 117.635C65.5401 118.176 65.6533 118.76 65.6116 119.373C65.3037 123.832 65.3375 128.574 59.9363 129.96C58.0307 130.45 56.0588 130.692 54.0207 130.687C53.0963 130.684 51.0788 130.683 47.968 130.683C47.5244 130.683 46.4033 130.55 44.6049 130.284C41.8895 129.886 39.2555 128.229 38.6436 125.405C38.4609 124.566 38.3675 123.756 38.3635 122.976C38.3477 120.267 38.3218 117.744 38.4847 115.161C38.5417 114.262 38.586 113.449 38.6178 112.72C38.7476 109.732 39.0548 106.821 39.5395 103.985C39.5591 103.872 39.5453 103.756 39.4998 103.65C39.4542 103.545 39.379 103.455 39.2833 103.392C32.6922 99.0681 31.9275 90.5884 32.0049 83.4947C32.0341 80.8049 32.3108 78.4901 32.8353 76.5504C33.7133 73.3003 35.6838 71.0267 38.7469 69.7296C39.9229 69.2318 40.9506 68.868 41.8299 68.6383C44.5526 67.9307 47.3774 67.4759 50.3041 67.2741C53.0745 67.083 54.8106 66.9807 55.5125 66.9675C56.4726 66.9489 57.1467 66.9236 57.5347 66.8918C59.6026 66.7225 61.1798 66.8241 64.2529 66.8599C64.2582 66.8599 64.4568 66.8679 64.8488 66.8838C69.1766 67.0577 73.4806 67.4879 77.7607 68.1743C80.0451 68.5407 83.1002 69.0565 86.9261 69.7217C89.3721 70.1478 92.361 70.4638 95.8929 70.6696C99.5811 70.8847 103.353 70.7771 107.21 70.347C109.918 70.0443 112.186 69.733 114.015 69.413C121.321 68.1364 127.642 66.9973 134.734 66.9475C134.98 66.9455 135.262 66.8739 135.513 66.8719C137.038 66.8533 138.005 66.8373 138.413 66.8241C139.417 66.7882 140.33 66.7942 141.154 66.842C141.853 66.8805 143.349 66.9349 145.641 67.0053C147.758 67.0703 150.291 67.2808 153.242 67.6366C155.839 67.9499 158.359 68.5706 160.804 69.4986C164.241 70.8024 166.402 73.2618 167.288 76.877C167.586 78.0971 167.766 79.1121 167.828 79.922C168.051 82.8827 168.057 85.8659 167.848 88.8717C167.58 92.7252 166.535 96.3358 164.483 99.5878C163.696 100.835 162.554 102.123 161.259 102.939C161.001 103.101 160.719 103.305 160.413 103.551C160.343 103.607 160.29 103.68 160.258 103.763C160.227 103.846 160.217 103.937 160.232 104.025C160.714 106.902 161.036 109.75 161.199 112.57C161.414 116.305 161.525 119.842 161.533 123.181C161.534 123.664 161.467 124.325 161.332 125.164C161.08 126.724 160.307 128.068 159.058 128.855C156.913 130.209 154.437 130.657 151.901 130.675C147.552 130.707 143.691 130.866 139.839 129.902C139.319 129.772 138.672 129.504 137.9 129.1C135.05 127.598 134.569 123.798 134.402 120.992C134.189 117.41 134.088 114.398 134.1 111.957C134.101 111.742 134.017 111.536 133.867 111.383C133.717 111.23 133.512 111.143 133.298 111.14L133.262 111.138C133.157 111.138 133.052 111.159 132.956 111.202C132.86 111.245 132.774 111.308 132.704 111.387C132.634 111.466 132.582 111.559 132.551 111.66C132.52 111.76 132.511 111.866 132.525 111.971C132.676 113.147 132.906 117.053 133.214 123.689C133.295 125.42 133.33 126.662 133.32 127.415C133.302 128.671 133.272 129.554 133.228 130.063C133.145 131.039 132.947 131.894 132.634 132.628C131.486 135.321 128.735 136.713 125.894 136.974C124.404 137.109 122.675 137.181 120.706 137.189C120.365 137.19 118.003 137.192 113.618 137.195C112.691 137.195 111.831 137.169 111.038 137.117C110.094 137.055 108.803 137.048 107.609 136.793C105.826 136.412 104.329 135.481 103.118 134.001C102.037 132.68 101.813 131.505 101.793 129.691C101.735 124.923 101.749 120.851 101.797 116.623C101.811 115.484 101.922 114.349 101.92 113.162C101.92 113.064 101.883 112.97 101.817 112.898C101.75 112.826 101.66 112.781 101.562 112.773C100.463 112.679 99.3123 112.679 98.1098 112.773C98.0597 112.777 98.0122 112.797 97.9738 112.829C97.9353 112.861 97.9079 112.904 97.8953 112.953ZM38.3159 102.521L38.5562 102.583C38.6008 102.595 38.6427 102.616 38.6794 102.645L39.5236 103.322C39.6176 103.397 39.6899 103.497 39.7328 103.609C39.7758 103.722 39.7879 103.844 39.768 103.963C39.5137 105.463 39.2747 107.376 39.0509 109.701C39.0058 110.167 38.9827 110.496 38.9813 110.688C38.9754 111.592 38.7827 112.363 38.8304 113.17C38.837 113.287 38.79 114.152 38.6893 115.765C38.6191 116.877 38.5827 119.031 38.5801 122.227C38.5781 123.372 38.6973 124.649 38.9257 125.561C39.5197 127.919 41.818 129.49 44.1262 129.97C45.5723 130.271 47.1496 130.442 48.8579 130.484C49.4711 130.5 51.3668 130.495 54.5451 130.47C55.5205 130.462 56.8057 130.346 57.5546 130.237C60.4727 129.811 63.3371 128.932 64.4376 125.927C64.7726 125.015 64.9905 124.081 65.0911 123.125C65.3097 121.069 65.4202 118.729 65.4229 116.107C65.4229 116.022 65.4328 115.851 65.4527 115.593C65.5441 114.394 65.6156 113.107 65.6672 111.732C65.693 111.039 66.6366 110.889 67.1173 111.087C67.7331 111.342 67.5802 112.291 67.4391 112.841C67.418 112.928 67.408 113.018 67.4093 113.108C67.4252 113.804 67.4027 114.394 67.3418 114.88C67.1431 116.454 67.2365 117.386 67.0955 119.29C67.0134 120.402 66.9028 123.143 66.7637 127.512C66.7147 129.091 66.8048 130.371 67.0339 131.352C67.3742 132.802 68.1662 134.013 69.4097 134.986C70.5989 135.917 71.8848 136.474 73.2673 136.657C74.5148 136.823 75.6484 136.91 76.6681 136.918C81.9441 136.961 86.066 136.958 89.0337 136.91C91.3201 136.874 93.1576 136.552 94.9792 135.329C95.6009 134.909 96.2346 134.158 96.7352 133.678C96.8339 133.584 96.9183 133.475 96.9855 133.355C97.5549 132.341 97.8516 131.241 97.8754 130.055C97.8926 129.178 97.9092 128.267 97.9251 127.323C97.9277 127.199 97.9171 127.074 97.8933 126.951C97.7046 125.975 97.8714 125.119 97.8317 124.179C97.7344 121.904 97.8734 119.443 97.7423 116.979C97.6728 115.695 97.7225 115.048 97.639 114.05C97.6139 113.751 97.6251 113.423 97.6728 113.064C97.6887 112.943 97.7455 112.832 97.8336 112.748C97.9218 112.664 98.036 112.612 98.1575 112.602L99.7943 112.471C99.9728 112.457 100.151 112.457 100.329 112.471L101.701 112.576C101.792 112.583 101.877 112.623 101.942 112.687C102.006 112.752 102.046 112.837 102.055 112.929C102.141 113.915 102.142 114.81 102.059 115.613C101.995 116.233 101.967 117.706 101.975 120.03C101.977 120.376 101.961 120.65 101.928 120.855C101.83 121.452 101.924 122.004 101.916 122.677C101.9 123.778 101.836 124.965 101.884 126.067C101.945 127.479 101.976 128.878 101.977 130.263C101.977 130.292 101.979 130.321 101.983 130.35L102.208 131.788C102.21 131.799 102.213 131.809 102.216 131.818C102.973 134.224 105.106 135.968 107.534 136.54C108.163 136.688 108.723 136.775 109.216 136.801C110.265 136.854 111.59 136.94 112.766 136.942C118.203 136.946 121.45 136.942 122.505 136.93C123.716 136.914 124.812 136.864 125.795 136.779C127.289 136.649 129.247 136.09 130.459 135.058C131.066 134.542 131.47 134.159 131.673 133.909C132.38 133.037 133.02 131.348 132.956 130.022C132.935 129.566 132.953 129.186 133.012 128.88C133.175 128.038 133.083 127.174 133.097 126.156C133.098 126.106 133.093 126.028 133.081 125.928C133.069 125.827 133.052 125.707 133.029 125.575C132.999 125.389 132.979 125.02 132.968 124.469C132.932 122.773 132.902 121.63 132.877 121.042C132.865 120.771 132.781 120.468 132.777 120.237C132.736 117.311 132.58 114.566 132.308 112.001C132.295 111.877 132.307 111.751 132.343 111.632C132.379 111.513 132.438 111.402 132.518 111.306C132.597 111.21 132.695 111.131 132.805 111.073C132.916 111.016 133.037 110.981 133.161 110.971L133.264 110.963C133.393 110.953 133.523 110.968 133.646 111.01C133.768 111.052 133.881 111.118 133.977 111.205C134.074 111.292 134.151 111.397 134.205 111.516C134.259 111.634 134.288 111.761 134.291 111.891C134.373 115.713 134.508 118.993 134.696 121.729C134.811 123.382 135.081 125.228 135.874 126.686C136.25 127.379 136.621 127.884 136.987 128.201C138.637 129.641 141.293 130.135 143.611 130.308C144.75 130.392 145.449 130.498 146.396 130.492C149.241 130.476 151.103 130.47 151.984 130.476C152.375 130.478 152.751 130.454 153.112 130.402C153.156 130.397 153.531 130.355 154.237 130.276C155.615 130.126 156.932 129.741 158.188 129.121C159.833 128.311 160.778 127.098 161.068 125.354C161.161 124.796 161.237 124.224 161.297 123.637C161.36 123.022 161.35 121.721 161.267 119.734C161.229 118.816 161.225 118.411 161.241 117.386C161.246 117.064 161.222 116.478 161.169 115.625C161.086 114.285 161.022 112.52 160.834 110.806C160.795 110.447 160.764 110.074 160.738 109.687C160.623 107.86 160.376 105.994 159.997 104.091C159.984 104.028 159.987 103.963 160.005 103.901C160.18 103.296 161.058 102.818 161.622 102.45C162.118 102.126 162.633 101.646 163.168 101.01C164.156 99.8374 164.967 98.5417 165.601 97.1224C166.4 95.336 167.053 93.3605 167.325 91.3073C167.588 89.3145 167.717 88.0545 167.713 87.5275C167.702 86.1932 167.705 84.3345 167.721 81.9513C167.731 80.3515 167.541 78.7709 167.149 77.2096C166.701 75.4226 166.066 73.9974 165.244 72.9339C163.448 70.6099 160.691 69.5006 157.92 68.7837C154.795 67.9712 151.644 67.6067 148.43 67.3817C147.729 67.3339 147.217 67.3578 146.621 67.2662C146.233 67.2064 145.782 67.1726 145.268 67.1646C138.88 67.073 134.553 66.9216 129.41 67.4354C128.453 67.531 127.909 67.5669 127.779 67.543C127.736 67.5364 127.692 67.5364 127.65 67.543C126.349 67.776 124.831 67.8696 123.431 68.0767C122.492 68.2161 120.661 68.5108 117.938 68.9609C117.846 68.9755 117.753 68.9921 117.66 69.0107C114.555 69.6174 110.967 70.1518 106.896 70.6138C105.833 70.7333 105.148 70.7274 104.172 70.8309C103.696 70.8814 103.014 70.9192 102.128 70.9444C98.0323 71.0573 93.9264 70.8634 89.8104 70.3629C88.1922 70.1664 86.1143 69.8398 83.577 69.3831C80.694 68.864 78.6208 68.5135 77.3574 68.3316C73.3197 67.7501 70.4572 67.4255 68.77 67.3578C68.0655 67.3286 67.5874 67.2987 67.3358 67.2682C66.728 67.1912 66.2512 67.1533 65.9056 67.1547C65.0911 67.1586 64.382 67.081 63.504 67.0909C61.989 67.1082 60.5217 67.1055 59.102 67.083C58.4452 67.0723 58.0333 67.0723 57.8664 67.083C56.7898 67.1546 55.7727 67.1088 54.7875 67.1746C52.8937 67.3007 50.9179 67.4534 48.8599 67.6326C46.7251 67.8185 44.5242 68.1969 42.257 68.7677C41.1803 69.0386 40.0308 69.4309 38.8085 69.9447C34.3887 71.8067 32.8929 75.4631 32.4618 80.0116C32.3565 81.1169 32.2354 81.9234 32.2493 82.9331C32.2665 84.2462 32.2685 85.3129 32.2552 86.1334C32.2393 87.2347 32.3883 88.0253 32.4638 89.3178C32.6704 92.7949 33.6974 96.4851 35.6342 99.3847C36.2473 100.303 37.1161 101.292 38.2404 102.35C38.2459 102.355 38.25 102.361 38.2524 102.368C38.2549 102.375 38.2555 102.383 38.2543 102.39C38.253 102.404 38.2523 102.421 38.2523 102.44C38.2529 102.458 38.2594 102.477 38.2708 102.491C38.2823 102.506 38.2981 102.517 38.3159 102.521Z" fill="#787B83"/>
<path d="M38.2541 102.443C38.2541 102.425 38.2548 102.408 38.2561 102.393C38.2573 102.386 38.2567 102.379 38.2543 102.372C38.2518 102.365 38.2477 102.358 38.2422 102.354C37.1179 101.295 36.2491 100.307 35.636 99.3882C33.6992 96.4886 32.6722 92.7984 32.4656 89.3213C32.3901 88.0289 32.2412 87.2382 32.2571 86.1369C32.2703 85.3165 32.2683 84.2497 32.2511 82.9366C32.2372 81.927 32.3584 81.1204 32.4636 80.0152C32.8947 75.4666 34.3905 71.8103 38.8103 69.9482C40.0327 69.4344 41.1821 69.0421 42.2588 68.7713C44.526 68.2004 46.727 67.822 48.8617 67.6361C50.9197 67.4569 52.8955 67.3042 54.7893 67.1781C55.7746 67.1124 56.7916 67.1582 57.8683 67.0865C58.0351 67.0759 58.447 67.0759 59.1038 67.0865C60.5235 67.1091 61.9908 67.1117 63.5058 67.0945C64.3838 67.0845 65.093 67.1622 65.9074 67.1582C66.2531 67.1569 66.7298 67.1947 67.3376 67.2717C67.5893 67.3022 68.0673 67.3321 68.7719 67.3613C70.459 67.429 73.3215 67.7536 77.3593 68.3351C78.6226 68.517 80.6958 68.8675 83.5788 69.3866C86.1162 69.8434 88.194 70.17 89.8123 70.3664C93.9282 70.867 98.0342 71.0608 102.13 70.948C103.016 70.9227 103.698 70.8849 104.174 70.8344C105.15 70.7309 105.835 70.7369 106.898 70.6174C110.969 70.1554 114.557 69.621 117.662 69.0142C117.755 68.9956 117.848 68.979 117.94 68.9644C120.663 68.5144 122.494 68.2196 123.433 68.0802C124.833 67.8731 126.351 67.7795 127.652 67.5465C127.694 67.5399 127.738 67.5399 127.781 67.5465C127.911 67.5704 128.455 67.5346 129.412 67.439C134.555 66.9252 138.881 67.0765 145.27 67.1681C145.784 67.1761 146.235 67.21 146.623 67.2697C147.219 67.3613 147.731 67.3374 148.432 67.3852C151.646 67.6102 154.797 67.9747 157.921 68.7872C160.693 69.5041 163.45 70.6134 165.245 72.9374C166.068 74.0009 166.703 75.4261 167.15 77.2131C167.542 78.7745 167.733 80.355 167.723 81.9548C167.707 84.338 167.704 86.1967 167.715 87.531C167.719 88.0581 167.589 89.318 167.327 91.3108C167.055 93.364 166.402 95.3396 165.603 97.1259C164.969 98.5452 164.158 99.841 163.17 101.013C162.635 101.649 162.119 102.129 161.624 102.453C161.06 102.822 160.182 103.299 160.007 103.905C159.989 103.966 159.986 104.031 159.999 104.094C160.378 105.998 160.625 107.863 160.74 109.69C160.765 110.078 160.797 110.451 160.836 110.809C161.024 112.524 161.088 114.288 161.171 115.629C161.224 116.481 161.248 117.068 161.243 117.389C161.227 118.415 161.231 118.819 161.269 119.737C161.352 121.725 161.362 123.026 161.298 123.64C161.239 124.227 161.163 124.799 161.07 125.357C160.78 127.102 159.834 128.314 158.19 129.125C156.934 129.745 155.617 130.13 154.239 130.28C153.533 130.358 153.158 130.4 153.114 130.405C152.753 130.457 152.377 130.482 151.986 130.479C151.105 130.474 149.243 130.479 146.398 130.495C145.451 130.501 144.751 130.396 143.613 130.312C141.295 130.139 138.639 129.645 136.988 128.205C136.623 127.888 136.252 127.382 135.876 126.689C135.083 125.232 134.813 123.386 134.698 121.733C134.51 118.996 134.375 115.717 134.293 111.895C134.29 111.765 134.261 111.637 134.207 111.519C134.153 111.401 134.075 111.295 133.979 111.208C133.883 111.121 133.77 111.055 133.647 111.014C133.525 110.972 133.395 110.956 133.266 110.967L133.162 110.975C133.038 110.985 132.918 111.019 132.807 111.077C132.697 111.134 132.599 111.213 132.52 111.309C132.44 111.405 132.381 111.516 132.345 111.636C132.309 111.755 132.297 111.88 132.31 112.004C132.582 114.569 132.738 117.315 132.779 120.241C132.783 120.472 132.866 120.775 132.878 121.046C132.904 121.634 132.934 122.776 132.97 124.473C132.98 125.024 133.001 125.392 133.031 125.578C133.054 125.71 133.071 125.831 133.083 125.931C133.094 126.032 133.1 126.11 133.099 126.16C133.085 127.177 133.176 128.042 133.013 128.884C132.955 129.189 132.937 129.57 132.958 130.025C133.021 131.351 132.382 133.04 131.675 133.912C131.472 134.162 131.067 134.545 130.461 135.062C129.249 136.093 127.29 136.653 125.797 136.782C124.814 136.867 123.718 136.918 122.507 136.934C121.452 136.945 118.205 136.949 112.768 136.945C111.592 136.944 110.267 136.858 109.218 136.804C108.725 136.779 108.164 136.692 107.535 136.543C105.108 135.972 102.974 134.227 102.218 131.821C102.215 131.812 102.212 131.802 102.21 131.792L101.985 130.354C101.981 130.325 101.979 130.295 101.979 130.266C101.978 128.881 101.947 127.483 101.886 126.07C101.838 124.969 101.902 123.782 101.918 122.681C101.926 122.007 101.832 121.456 101.93 120.858C101.963 120.654 101.979 120.379 101.977 120.034C101.969 117.709 101.997 116.237 102.061 115.617C102.144 114.814 102.143 113.919 102.057 112.932C102.048 112.841 102.008 112.755 101.943 112.691C101.879 112.626 101.794 112.587 101.703 112.58L100.33 112.474C100.153 112.461 99.9747 112.461 99.7961 112.474L98.1593 112.606C98.0379 112.616 97.9236 112.667 97.8354 112.751C97.7473 112.835 97.6905 112.947 97.6746 113.068C97.6269 113.426 97.6157 113.755 97.6408 114.053C97.7243 115.051 97.6746 115.698 97.7441 116.983C97.8752 119.446 97.7362 121.908 97.8335 124.182C97.8733 125.122 97.7064 125.978 97.8951 126.954C97.9189 127.077 97.9295 127.202 97.9269 127.327C97.911 128.271 97.8945 129.181 97.8772 130.059C97.8534 131.245 97.5568 132.345 96.9873 133.359C96.9202 133.479 96.8358 133.588 96.737 133.681C96.2364 134.161 95.6028 134.912 94.981 135.332C93.1594 136.555 91.322 136.878 89.0356 136.914C86.0678 136.961 81.946 136.964 76.67 136.922C75.6503 136.914 74.5167 136.827 73.2692 136.661C71.8866 136.478 70.6007 135.921 69.4115 134.99C68.168 134.017 67.376 132.805 67.0357 131.355C66.8066 130.374 66.7166 129.094 66.7656 127.516C66.9046 123.147 67.0152 120.406 67.0973 119.293C67.2383 117.389 67.145 116.457 67.3436 114.884C67.4045 114.398 67.427 113.807 67.4111 113.112C67.4098 113.022 67.4198 112.932 67.4409 112.845C67.582 112.295 67.7349 111.345 67.1191 111.09C66.6384 110.893 65.6949 111.042 65.669 111.735C65.6174 113.111 65.5459 114.398 65.4545 115.597C65.4346 115.854 65.4247 116.026 65.4247 116.111C65.4221 118.733 65.3115 121.072 65.093 123.129C64.9923 124.085 64.7745 125.019 64.4394 125.931C63.3389 128.936 60.4745 129.814 57.5564 130.24C56.8075 130.35 55.5223 130.465 54.5469 130.473C51.3686 130.498 49.4729 130.503 48.8598 130.487C47.1514 130.446 45.5742 130.275 44.128 129.973C41.8198 129.493 39.5215 127.922 38.9275 125.564C38.6991 124.652 38.5799 123.376 38.5819 122.23C38.5845 119.035 38.621 116.881 38.6911 115.768C38.7918 114.155 38.8388 113.29 38.8322 113.173C38.7845 112.367 38.9772 111.596 38.9832 110.692C38.9845 110.499 39.0077 110.17 39.0527 109.704C39.2765 107.379 39.5155 105.467 39.7698 103.967C39.7897 103.848 39.7776 103.726 39.7346 103.613C39.6917 103.5 39.6195 103.401 39.5255 103.325L38.6812 102.648C38.6445 102.619 38.6026 102.598 38.5581 102.587L38.3177 102.525C38.2999 102.52 38.2841 102.51 38.2727 102.495C38.2612 102.48 38.2547 102.462 38.2541 102.443ZM39.8949 101.949L40.0697 101.872C40.0936 101.934 40.136 101.961 40.1969 101.951C40.2419 101.945 40.2843 101.913 40.324 101.858C40.4935 101.612 40.5995 101.422 40.6418 101.286C40.8166 100.731 41.1543 99.7613 41.6549 98.3766C42.3303 96.5086 43.2951 94.9459 44.5492 93.6886C45.986 92.2481 47.5421 91.2517 49.2173 90.6994C54.7893 88.8593 60.2639 92.2767 62.8582 97.2036C64.3613 100.057 65.2698 103.157 65.5836 106.506C65.7147 107.896 65.7743 108.729 65.7624 109.005C65.7576 109.118 65.7773 109.23 65.8201 109.334C65.8629 109.439 65.9277 109.532 66.0102 109.609C66.0927 109.686 66.1909 109.744 66.2979 109.779C66.405 109.815 66.5185 109.826 66.6305 109.814L66.7795 109.796C67.0548 109.765 67.3105 109.637 67.5018 109.436C67.6932 109.236 67.808 108.974 67.8263 108.696C67.8806 107.891 67.9753 107.121 68.1104 106.388C68.407 104.78 68.8136 103.161 69.33 101.529C69.9935 99.4314 70.6113 97.8847 71.1834 96.8889C73.6704 92.5595 78.0088 91.1853 82.9153 91.3586C86.2234 91.4754 89.0779 92.6378 91.4789 94.8457C92.4787 95.7657 93.3759 96.962 94.1705 98.4343C95.708 101.282 96.6874 104.275 97.1085 107.414C97.2449 108.439 97.3707 109.514 97.4859 110.638C97.5415 111.17 97.8368 111.447 98.3719 111.469C99.3836 111.51 100.329 111.519 101.207 111.496C101.878 111.479 102.241 111.143 102.297 110.487C102.404 109.244 102.53 108.144 102.674 107.187C103.094 104.401 103.907 101.747 105.112 99.2229C106.82 95.6462 109.516 92.8482 113.308 91.8545C114.228 91.6128 115.498 91.4336 117.118 91.3168C117.901 91.259 118.743 91.3805 119.601 91.4522C122.183 91.6673 125.276 92.8323 127.042 94.8477C129.577 97.7413 130.646 101.816 131.561 105.486C131.837 106.587 131.969 107.697 132.11 108.77C132.253 109.875 133.52 110.268 134.1 109.26C134.138 109.193 134.159 109.118 134.162 109.041C134.232 105.207 135.104 101.516 136.778 97.9683C137.829 95.7405 139.306 93.8811 141.208 92.3902C143.019 90.9683 145.629 90.2553 147.908 90.1876C151.023 90.092 154.137 92.0277 156.1 94.4036C157.858 96.5325 158.549 99.4918 159.479 101.694C159.597 101.973 159.798 102.127 160.083 102.156C160.155 102.163 160.227 102.145 160.289 102.107C162.141 100.94 163.542 99.4062 164.493 97.5063C165.398 95.6967 166.037 93.6037 166.408 91.2272C166.596 90.0243 166.704 88.9589 166.733 88.0308C166.755 87.3757 166.896 86.599 166.892 85.902C166.887 85.0775 166.883 84.2484 166.88 83.4146C166.88 83.2858 166.853 82.9028 166.799 82.2655C166.794 82.2018 166.77 81.8174 166.727 81.1125C166.632 79.5511 166.384 78.0828 165.984 76.7073C165.202 74.0108 163.605 72.0532 161.082 70.9201C158.847 69.9164 156.412 69.3329 153.945 68.9764C151.405 68.6113 148.839 68.3922 146.247 68.3192C146.178 68.3179 146.11 68.3099 146.043 68.2953C145.754 68.2382 145.492 68.207 145.258 68.2017C142.223 68.1313 138.811 68.1174 135.022 68.1599C132.536 68.1878 129.801 68.3531 126.816 68.6558C123.517 68.9903 120.26 69.4623 117.044 70.0717C115.143 70.4342 113.377 70.6911 111.415 71.0137C106.902 71.7605 102.253 72.0492 97.7143 71.9676C96.3636 71.9437 95.3544 71.8003 94.0037 71.7346C92.0636 71.6363 89.6745 71.3622 86.8366 70.9121C86.4843 70.855 83.7013 70.3678 78.4876 69.4504C76.4706 69.0959 74.2604 68.8204 71.8568 68.6239C69.5658 68.438 67.8111 68.3059 66.5927 68.2276C65.1598 68.1373 62.2616 68.1101 57.8981 68.146C55.2667 68.1672 52.5022 68.3099 49.6047 68.5741C46.8183 68.8277 44.3942 69.222 42.3323 69.7571C40.9458 70.1175 39.6546 70.6054 38.4548 71.2288C36.5067 72.2431 35.144 73.7984 34.3667 75.8948C33.8065 77.4063 33.59 78.7267 33.3397 80.4792C33.243 81.1629 33.1947 81.8161 33.1947 82.4388C33.192 84.4767 33.192 86.3056 33.1947 87.9253C33.1966 88.9111 33.3695 89.8112 33.4946 90.9125C33.8151 93.69 34.7295 96.2676 36.2379 98.6454C37.0623 99.9459 38.2263 101.2 39.595 102.041C39.7089 102.111 39.8088 102.081 39.8949 101.949ZM46.8376 92.8462C45.0617 94.1208 43.6294 95.8175 42.7336 97.8628C42.0105 99.513 41.447 101.252 41.0431 103.078C40.7147 104.557 40.3809 106.578 40.0419 109.14C39.9585 109.772 39.9843 110.469 39.8234 111.138C39.801 111.227 39.7896 111.318 39.7896 111.409C39.7718 112.741 39.5811 114.105 39.5692 115.222C39.5513 116.69 39.3904 118.12 39.3904 119.59C39.3877 122.355 39.391 123.832 39.4003 124.019C39.4586 125.192 39.787 126.136 40.3856 126.851C41.7403 128.468 43.5559 128.984 45.598 129.266C48.0466 129.605 50.4211 129.714 52.7214 129.593C54.8767 129.481 56.8552 129.422 58.7562 129.045C59.6422 128.869 60.3361 128.648 60.838 128.384C62.2186 127.655 63.48 126.355 63.8475 124.909C64.1958 123.54 64.4017 121.77 64.4652 119.6C64.4666 119.538 64.4746 119.475 64.4891 119.413C64.5579 119.109 64.5937 118.87 64.5964 118.698C64.6109 117.637 64.6202 116.805 64.6242 116.202C64.6261 115.738 64.7652 115.244 64.7731 114.838C64.8129 112.736 64.8308 111.664 64.8268 111.622C64.8189 111.539 64.8277 111.455 64.8526 111.375C65.0062 110.896 65.0208 110.352 64.8963 109.744C64.8818 109.678 64.8738 109.61 64.8725 109.541C64.8486 108.387 64.7592 107.19 64.6043 105.95C64.2573 103.169 63.5475 100.625 62.4748 98.3188C60.7784 94.6704 57.9894 92.0815 54.0027 91.3028C51.5971 90.8329 48.828 91.4183 46.8376 92.8462ZM147.862 91.1037C146.562 91.2803 145.758 91.4011 145.451 91.4661C143.469 91.887 141.774 92.8263 140.363 94.2841C140.263 94.3876 140.19 94.4746 140.145 94.545C139.978 94.7959 139.747 94.9751 139.581 95.2022C137.32 98.2943 135.926 101.615 135.399 105.164C135.314 105.734 135.246 106.169 135.193 106.466C135.177 106.555 135.167 106.645 135.165 106.737C135.149 107.723 135.114 108.357 135.059 108.639C134.955 109.172 134.927 109.74 134.976 110.341C135.09 111.735 135.212 114.586 135.344 118.893C135.353 119.202 135.384 119.591 135.437 120.06C135.486 120.486 135.526 120.874 135.556 121.223C135.69 122.773 135.818 123.782 135.941 124.248C136.903 127.878 139.626 129.039 143.051 129.324C144.839 129.474 146.716 129.574 148.683 129.623C150.654 129.671 152.62 129.562 154.58 129.298C156.694 129.013 159.181 127.787 159.952 125.638C160.211 124.914 160.348 124.243 160.363 123.625C160.434 120.701 160.392 117.666 160.236 114.519C160.058 110.939 159.661 107.537 159.044 104.313C158.75 102.781 158.303 101.09 157.703 99.2409C157.254 97.8575 156.681 96.6831 155.983 95.7179C155.225 94.6691 154.309 93.7324 153.235 92.908C152.969 92.7028 152.64 92.5654 152.33 92.3583C152.148 92.2362 151.912 92.1114 151.622 91.9839C150.517 91.494 149.285 91.1999 147.928 91.1017C147.905 91.1004 147.883 91.101 147.862 91.1037ZM91.2028 95.8912C89.3514 94.1128 87.212 92.9239 84.6396 92.4838C82.8134 92.1705 81.0189 92.1632 79.2563 92.4619C75.7403 93.0567 73.1977 94.9585 71.6284 98.1675C70.4524 100.573 69.6128 103.143 69.1096 105.878C68.8076 107.517 68.6355 108.604 68.5931 109.14C68.3772 111.897 68.2415 113.522 68.1859 114.016C68.1163 114.617 68.1799 115.36 68.025 116.085C68.0052 116.172 67.9965 116.262 67.9991 116.352C68.015 117.416 67.9899 118.378 67.9236 119.237C67.8972 119.592 67.8925 119.859 67.9097 120.04C67.9753 120.737 67.7806 121.416 67.7846 122.031C67.8005 124.672 67.578 127.4 67.6336 129.804C67.7171 133.417 70.6729 135.486 74.026 135.86C74.2114 135.881 74.6663 135.92 75.3907 135.976C75.9588 136.019 76.4144 136.042 76.7574 136.043C80.5753 136.055 84.3237 136.06 88.0026 136.057C89.2461 136.057 90.6128 135.956 91.6895 135.737C92.447 135.583 93.1157 135.338 93.6958 135.002C95.3306 134.058 96.4371 133.172 96.8046 131.286C96.9741 130.411 97.0721 129.302 97.0985 127.958C97.1065 127.524 97.0932 127.177 97.0588 126.918C96.9059 125.747 96.9655 124.094 96.9595 123.535C96.9516 122.575 97.0509 121.474 97.0012 120.518C96.9218 119.034 97.0926 117.728 96.9357 116.423C96.8535 115.756 96.8112 115.111 96.8085 114.49C96.7993 111.82 96.6185 109.494 96.2662 107.513C95.6445 104 94.6969 100.637 92.6966 97.6995C92.2039 96.9772 91.706 96.3745 91.2028 95.8912ZM128.711 99.3205C127.62 96.8431 126.218 94.8616 123.876 93.5691C122.732 92.9372 121.331 92.5296 119.674 92.3464C116.319 91.976 112.813 92.4081 110.112 94.5211C108.401 95.858 107.044 97.4353 106.042 99.2528C105.537 100.165 105.046 101.42 104.57 103.019C104.155 104.406 103.838 105.718 103.618 106.956C103.466 107.808 103.327 108.84 103.201 110.053C103.076 111.244 103.167 112.275 103.042 113.331C102.899 114.529 102.986 115.955 102.911 117.375C102.826 118.995 102.793 120.299 102.812 121.287C102.85 123.309 102.87 124.359 102.873 124.437C102.884 124.72 102.852 125.708 102.778 127.4C102.734 128.411 102.769 129.395 102.883 130.354C103.046 131.73 103.462 132.776 104.131 133.49C105.452 134.9 107.126 135.703 109.152 135.9C110.176 136 111.004 136.049 111.635 136.049C113.569 136.048 117.182 136.048 122.475 136.049C124.524 136.049 126.234 135.866 127.606 135.5C128.413 135.283 129.28 134.799 130.209 134.046C131.444 133.042 132.072 131.624 132.129 130.097C132.167 129.121 132.174 127.867 132.151 126.335C132.122 124.326 131.893 121.914 131.903 120.092C131.906 119.522 131.884 119.171 131.839 119.038C131.807 118.946 131.791 118.81 131.794 118.648C131.802 118.121 131.775 117.485 131.714 116.742C131.647 115.917 131.601 115.299 131.577 114.888C131.402 111.976 131.235 109.845 131.075 108.493C130.685 105.207 129.956 102.152 128.711 99.3205Z" fill="#787B83"/>
<path d="M129.351 66.8399C133.24 66.4514 136.67 66.4409 140.829 66.4981L145.278 66.5665L146.038 66.5997C146.277 66.6176 146.503 66.6415 146.714 66.6739L146.712 66.6759C146.977 66.7165 147.228 66.7311 147.511 66.7423C147.787 66.7532 148.11 66.7606 148.472 66.7852H148.474C151.703 67.0114 154.895 67.3793 158.071 68.2052L159.126 68.4981C161.59 69.2385 164.038 70.392 165.72 72.5684C166.608 73.7167 167.271 75.2256 167.732 77.0645L167.874 77.67C168.182 79.0833 168.331 80.5128 168.321 81.9571C168.306 84.3386 168.303 86.1936 168.314 87.5235V87.5255C168.318 88.1036 168.181 89.4093 167.921 91.3868C167.639 93.5124 166.965 95.546 166.15 97.3692C165.493 98.8388 164.653 100.183 163.628 101.399C163.07 102.062 162.512 102.587 161.952 102.953C161.636 103.16 161.323 103.341 161.036 103.563C160.771 103.768 160.643 103.928 160.597 104.035C160.974 105.942 161.223 107.813 161.339 109.649L161.431 110.742L161.554 112.045C161.657 113.343 161.707 114.601 161.769 115.59C161.822 116.44 161.847 117.048 161.841 117.397C161.825 118.412 161.829 118.806 161.866 119.711C161.949 121.688 161.963 123.035 161.894 123.701C161.833 124.299 161.756 124.883 161.661 125.453C161.337 127.403 160.259 128.773 158.454 129.662V129.66C157.136 130.311 155.751 130.715 154.302 130.873L154.304 130.875C153.599 130.953 153.23 130.995 153.187 131L153.185 130.998C152.796 131.053 152.395 131.081 151.982 131.078C151.105 131.073 149.246 131.078 146.402 131.094C145.423 131.1 144.658 130.988 143.568 130.908C141.243 130.735 138.407 130.236 136.595 128.656L136.267 128.332C135.946 127.974 135.64 127.514 135.347 126.973V126.971C134.49 125.394 134.215 123.438 134.099 121.772C133.91 119.023 133.775 115.734 133.693 111.906C133.691 111.858 133.679 111.809 133.659 111.766C133.639 111.722 133.611 111.684 133.575 111.652C133.54 111.62 133.499 111.595 133.454 111.58C133.409 111.565 133.361 111.559 133.314 111.563H133.312L133.208 111.568L133.21 111.57C133.166 111.574 133.122 111.587 133.083 111.607C133.044 111.628 133.01 111.656 132.982 111.69C132.953 111.724 132.932 111.764 132.919 111.807C132.906 111.85 132.901 111.895 132.905 111.94C133.179 114.524 133.337 117.287 133.378 120.229C133.379 120.291 133.392 120.379 133.417 120.529L133.478 121.018L133.569 124.459L133.591 125.127C133.6 125.293 133.611 125.408 133.622 125.477L133.679 125.859C133.691 125.963 133.698 126.073 133.696 126.164C133.689 126.679 133.711 127.092 133.712 127.584C133.713 128.046 133.695 128.517 133.603 128.994C133.556 129.237 133.536 129.567 133.556 129.994C133.592 130.755 133.428 131.587 133.171 132.332C132.978 132.891 132.724 133.428 132.437 133.875L132.14 134.289C131.898 134.586 131.454 135 130.849 135.516C129.505 136.66 127.406 137.244 125.847 137.379C124.847 137.465 123.736 137.515 122.515 137.531H122.513C121.453 137.543 118.2 137.547 112.765 137.543C111.57 137.541 110.223 137.454 109.187 137.4C108.649 137.373 108.05 137.28 107.396 137.125V137.123C104.794 136.51 102.473 134.636 101.644 132L101.64 131.984C101.635 131.968 101.63 131.951 101.626 131.936L101.62 131.908L101.616 131.883L101.392 130.443L101.39 130.432C101.382 130.377 101.378 130.321 101.378 130.266L101.355 128.19C101.339 127.495 101.317 126.796 101.286 126.094C101.238 124.97 101.302 123.737 101.318 122.67C101.321 122.352 101.301 122.083 101.29 121.76C101.28 121.451 101.279 121.117 101.337 120.76C101.363 120.602 101.377 120.365 101.376 120.035V120.033C101.368 117.719 101.395 116.211 101.462 115.553H101.464C101.538 114.842 101.538 114.045 101.47 113.16L100.284 113.07C100.138 113.059 99.9894 113.057 99.841 113.068L99.8429 113.07L98.2628 113.195C98.2254 113.499 98.2177 113.767 98.2374 114.002C98.281 114.522 98.2893 114.951 98.296 115.4C98.3028 115.849 98.3089 116.321 98.3429 116.949C98.4095 118.2 98.4077 119.448 98.4015 120.654C98.3953 121.867 98.3849 123.035 98.4328 124.154C98.4538 124.653 98.4196 125.149 98.4074 125.57C98.3947 126.009 98.4018 126.415 98.4835 126.838C98.515 127.001 98.5277 127.167 98.5246 127.332L98.5265 127.334C98.5106 128.278 98.493 129.19 98.4757 130.068C98.45 131.35 98.1272 132.547 97.5089 133.649C97.413 133.82 97.2919 133.976 97.1496 134.111C96.9008 134.35 96.6565 134.622 96.3292 134.951C96.0257 135.256 95.677 135.584 95.3156 135.828H95.3136C93.3567 137.142 91.3876 137.475 89.0441 137.512C86.0694 137.56 81.9423 137.562 76.6652 137.52C75.6156 137.511 74.4553 137.422 73.1886 137.254C71.6915 137.055 70.3063 136.452 69.0402 135.461C67.8641 134.541 67.0499 133.409 66.6144 132.074L66.4503 131.49C66.2047 130.438 66.1154 129.101 66.1652 127.496V127.494C66.3041 123.13 66.414 120.374 66.4972 119.246C66.5665 118.311 66.5795 117.618 66.5988 116.945C66.6181 116.271 66.6443 115.622 66.7472 114.807C66.8032 114.36 66.8252 113.8 66.8097 113.123V113.119C66.8077 112.979 66.8236 112.838 66.8566 112.701L66.8585 112.693C66.9247 112.435 66.9791 112.135 66.964 111.893C66.9567 111.775 66.9348 111.706 66.9171 111.672L66.8898 111.643C66.8518 111.627 66.7784 111.609 66.6808 111.607C66.5848 111.606 66.4893 111.621 66.4113 111.647C66.3322 111.673 66.2942 111.704 66.2804 111.719L66.2687 111.756C66.2427 112.447 66.2109 113.116 66.1749 113.764L66.0519 115.641C66.0317 115.902 66.0246 116.052 66.0246 116.109C66.0219 118.747 65.9098 121.108 65.6886 123.19C65.5828 124.195 65.3529 125.177 65.0011 126.135C63.7734 129.487 60.572 130.404 57.6417 130.832C56.8694 130.945 55.5576 131.062 54.5519 131.07H54.5499C51.3777 131.096 49.4689 131.102 48.8429 131.086V131.084C47.5392 131.053 46.3058 130.947 45.1437 130.766L44.005 130.559C41.7147 130.082 39.3317 128.573 38.4914 126.195L38.3449 125.709C38.1006 124.734 37.9795 123.403 37.9816 122.227C37.9842 119.034 38.0194 116.863 38.091 115.729L38.2023 113.875C38.214 113.66 38.2228 113.494 38.2277 113.375C38.2321 113.267 38.2313 113.218 38.2316 113.207L38.2238 112.867C38.2261 112.532 38.258 112.209 38.2902 111.904C38.3343 111.487 38.3792 111.101 38.382 110.686C38.3835 110.463 38.4093 110.11 38.4542 109.645L38.6261 107.971C38.8005 106.374 38.9838 105.005 39.1769 103.865L39.173 103.824C39.168 103.812 39.1602 103.8 39.1496 103.791L38.3507 103.15L38.1671 103.104H38.1632C38.017 103.065 37.8888 102.978 37.798 102.861C37.7484 102.798 37.713 102.726 37.6886 102.65C36.6111 101.622 35.7548 100.646 35.1359 99.7188C33.1281 96.7126 32.0779 92.9142 31.8664 89.3555V89.3536C31.8293 88.7202 31.7734 88.2169 31.7277 87.7091C31.6823 87.2045 31.6471 86.7079 31.6554 86.127V86.1251C31.6685 85.313 31.6667 84.2531 31.6496 82.9434C31.6351 81.8907 31.7644 81.0276 31.8664 79.9571C32.086 77.6395 32.5809 75.4926 33.6203 73.6739C34.6676 71.8417 36.2494 70.3734 38.5773 69.3927C39.8218 68.8695 40.9999 68.467 42.1105 68.1876L42.9699 67.9805C44.9645 67.5173 46.9117 67.2024 48.8097 67.0372C50.8711 66.8577 52.8513 66.7046 54.7492 66.5782C55.2611 66.5441 55.7785 66.539 56.2863 66.5333C56.7998 66.5275 57.308 66.521 57.8273 66.4864H57.8292C58.0253 66.4739 58.4644 66.474 59.1124 66.4845C60.526 66.5069 61.9876 66.5095 63.4972 66.4923C63.955 66.4871 64.368 66.5058 64.757 66.5235C65.1493 66.5413 65.5143 66.5586 65.9035 66.5567C66.2874 66.5552 66.7945 66.5958 67.4113 66.6739L67.4093 66.6759C67.634 66.7031 68.0893 66.7305 68.796 66.7598C70.5174 66.829 73.4075 67.1589 77.4445 67.7403C78.7193 67.9239 80.8018 68.2759 83.6847 68.795C86.2162 69.2506 88.2817 69.5751 89.8839 69.7696C93.9705 70.2666 98.0466 70.4578 102.112 70.3458L103.271 70.2989C103.604 70.2804 103.883 70.2604 104.11 70.2364C104.362 70.2097 104.595 70.1901 104.818 70.1739L106.114 70.088C106.338 70.0706 106.572 70.0485 106.829 70.0196L109.782 69.6602C112.643 69.2881 115.23 68.8759 117.544 68.4239L117.847 68.3692C120.565 67.9199 122.399 67.6247 123.343 67.4845H123.345C124.059 67.3789 124.802 67.3024 125.513 67.2247C126.231 67.1462 126.918 67.0657 127.546 66.9532L127.558 66.9512C127.61 66.943 127.664 66.9395 127.716 66.9395L127.87 66.9512L127.89 66.9552C127.856 66.9489 127.858 66.9528 127.944 66.9512C128.015 66.95 128.114 66.9462 128.245 66.9376C128.507 66.9203 128.875 66.8874 129.351 66.8399ZM84.5382 93.0723C82.7766 92.7701 81.0497 92.764 79.3566 93.0509H79.3546C76.03 93.6135 73.6516 95.3944 72.1671 98.4298C71.0162 100.784 70.1921 103.301 69.6984 105.984C69.4712 107.217 69.3209 108.12 69.2433 108.705L69.1906 109.186C68.9753 111.935 68.8375 113.573 68.7804 114.08V114.082C68.7493 114.351 68.7486 114.645 68.7355 115.024C68.7231 115.383 68.6994 115.793 68.6105 116.209L68.6085 116.215L68.5988 116.332V116.34C68.6149 117.419 68.5886 118.4 68.5206 119.281C68.5077 119.454 68.5012 119.597 68.4992 119.713L68.507 119.981V119.982C68.546 120.399 68.5065 120.797 68.466 121.135C68.4229 121.495 68.3823 121.766 68.3839 122.025C68.392 123.361 68.3387 124.717 68.2921 126.025C68.2454 127.34 68.2062 128.608 68.2335 129.789C68.3078 132.988 70.9091 134.906 74.091 135.262H74.0929C74.2647 135.281 74.7083 135.319 75.4367 135.375C75.9981 135.418 76.437 135.44 76.7589 135.441C80.5759 135.453 84.3233 135.458 88.0011 135.455C89.2193 135.455 90.5445 135.355 91.5695 135.147C92.2725 135.004 92.878 134.779 93.3937 134.481H93.3956C94.2011 134.015 94.82 133.595 95.2824 133.09C95.7318 132.599 96.0506 132.008 96.214 131.17C96.3746 130.341 96.4711 129.268 96.4972 127.943C96.5048 127.524 96.4926 127.212 96.464 126.996V126.994C96.3049 125.776 96.3639 124.047 96.3585 123.539V123.537C96.3545 123.041 96.3784 122.507 96.3957 122.002C96.4132 121.488 96.4247 120.998 96.4015 120.549L96.382 119.981C96.3719 119.421 96.3879 118.889 96.3976 118.391C96.4107 117.717 96.4119 117.101 96.339 116.494C96.2543 115.805 96.2109 115.137 96.2082 114.49C96.199 111.845 96.0195 109.555 95.6749 107.617V107.615C95.0589 104.135 94.1302 100.869 92.2003 98.0352C91.7255 97.3392 91.2532 96.7707 90.7863 96.3223C89.0101 94.6162 86.9773 93.4897 84.5382 93.0723ZM119.609 92.9415C116.334 92.5799 113.009 93.0142 110.48 94.9923C109.036 96.1206 107.859 97.4227 106.943 98.8985L106.566 99.5411C106.091 100.4 105.614 101.609 105.144 103.188V103.19C104.735 104.558 104.423 105.847 104.208 107.059C104.134 107.475 104.062 107.939 103.993 108.447L103.796 110.113C103.737 110.678 103.728 111.208 103.72 111.75C103.712 112.284 103.705 112.836 103.638 113.399V113.4C103.571 113.963 103.555 114.59 103.55 115.274C103.545 115.947 103.548 116.677 103.509 117.404C103.425 119.018 103.393 120.306 103.411 121.274C103.449 123.278 103.469 124.32 103.472 124.412C103.484 124.726 103.45 125.747 103.376 127.424C103.334 128.403 103.368 129.356 103.478 130.281L103.546 130.75C103.73 131.804 104.085 132.563 104.568 133.078L105.038 133.539C106.173 134.553 107.557 135.141 109.21 135.301C110.224 135.399 111.03 135.447 111.634 135.447C113.568 135.446 117.181 135.446 122.474 135.447C124.491 135.447 126.146 135.266 127.45 134.918L127.716 134.836C128.347 134.618 129.051 134.209 129.829 133.578L130.212 133.231C131.049 132.38 131.483 131.274 131.528 130.072C131.547 129.592 131.558 129.041 131.562 128.42L131.55 126.342C131.535 125.352 131.473 124.261 131.413 123.174C131.354 122.095 131.297 121.018 131.302 120.086C131.303 119.808 131.3 119.593 131.29 119.436C131.279 119.258 131.265 119.211 131.271 119.229V119.227C131.207 119.04 131.19 118.827 131.193 118.637L131.179 117.799C131.166 117.491 131.146 117.155 131.116 116.789C131.049 115.964 131.002 115.341 130.978 114.922L130.849 112.889C130.721 111.003 130.596 109.563 130.478 108.563C130.093 105.32 129.377 102.325 128.161 99.5606C127.101 97.1515 125.77 95.2979 123.585 94.0919C122.527 93.5073 121.207 93.1183 119.609 92.9415ZM53.8859 91.8907C51.6397 91.4521 49.04 92.0026 47.1867 93.3321C45.7041 94.3961 44.4769 95.764 43.6242 97.3887L43.2824 98.1016C42.5757 99.7145 42.0239 101.415 41.6281 103.205V103.207C41.3052 104.661 40.9739 106.662 40.6359 109.217C40.5973 109.509 40.5855 109.806 40.5597 110.166C40.5351 110.51 40.4977 110.891 40.4054 111.275L40.4035 111.283C40.3933 111.324 40.3879 111.365 40.3878 111.406V111.414C40.3786 112.103 40.3258 112.796 40.2746 113.441C40.2226 114.095 40.1748 114.693 40.1691 115.227V115.229C40.1599 115.979 40.1136 116.719 40.0714 117.44C40.0289 118.165 39.9894 118.873 39.9894 119.588L39.9992 123.986C40.0527 125.064 40.3501 125.872 40.8449 126.463C42.052 127.904 43.6776 128.393 45.6789 128.67C48.0924 129.004 50.4291 129.111 52.6886 128.992C54.8659 128.88 56.7905 128.821 58.6378 128.455L59.2394 128.32C59.7994 128.18 60.2353 128.021 60.5578 127.852L61.0285 127.574C62.1046 126.877 62.9906 125.838 63.2648 124.76C63.5981 123.45 63.8015 121.728 63.8644 119.58C63.8669 119.477 63.8801 119.374 63.9035 119.274C63.9685 118.986 63.9936 118.796 63.9953 118.686C64.0098 117.627 64.0186 116.798 64.0226 116.197L64.0499 115.781C64.0652 115.647 64.085 115.519 64.1027 115.404C64.1411 115.157 64.17 114.978 64.173 114.824C64.1928 113.774 64.207 112.981 64.216 112.445C64.2204 112.178 64.224 111.976 64.2257 111.838V111.645C64.2257 111.641 64.2259 111.656 64.2277 111.676C64.2124 111.514 64.2304 111.35 64.2785 111.195L64.2804 111.19C64.396 110.829 64.4163 110.392 64.3078 109.861V109.859C64.2973 109.81 64.2882 109.761 64.2824 109.711L64.2726 109.551C64.2492 108.42 64.1614 107.244 64.0089 106.024C63.6689 103.298 62.9745 100.814 61.9308 98.5704C60.2988 95.0606 57.6487 92.6256 53.8859 91.8907ZM147.909 91.6993C146.622 91.8743 145.855 91.9919 145.575 92.0509C143.711 92.4468 142.122 93.3274 140.794 94.6993L140.792 94.7012C140.703 94.7931 140.663 94.8469 140.65 94.8673L140.644 94.8751C140.529 95.0481 140.396 95.188 140.296 95.293L140.064 95.5548C137.857 98.5737 136.503 101.804 135.991 105.25C135.906 105.822 135.837 106.262 135.782 106.568V106.57C135.772 106.626 135.765 106.684 135.763 106.742L135.765 106.744C135.749 107.716 135.714 108.407 135.648 108.75V108.752C135.555 109.226 135.528 109.739 135.573 110.291C135.689 111.703 135.812 114.57 135.943 118.873C135.951 119.16 135.98 119.531 136.032 119.99L136.153 121.168V121.17C136.288 122.731 136.413 123.685 136.521 124.092L136.706 124.693C137.179 126.033 137.938 126.925 138.894 127.531C139.867 128.149 141.08 128.493 142.485 128.662L143.101 128.725L144.448 128.826C145.814 128.919 147.23 128.985 148.696 129.022L150.15 129.027C151.603 129.005 153.052 128.896 154.499 128.701C155.481 128.569 156.549 128.218 157.452 127.656C158.356 127.095 159.059 126.346 159.386 125.434C159.629 124.757 159.75 124.15 159.763 123.609V123.607C159.834 120.7 159.791 117.68 159.636 114.547C159.46 110.992 159.066 107.618 158.454 104.424C158.166 102.921 157.726 101.255 157.132 99.4239C156.698 98.0876 156.149 96.9731 155.495 96.0684V96.0665C154.774 95.0673 153.898 94.1734 152.868 93.3829V93.3809C152.775 93.3088 152.661 93.2422 152.507 93.1563C152.363 93.0762 152.176 92.9762 151.995 92.8555L151.993 92.8536C151.851 92.7582 151.65 92.65 151.38 92.5313H151.378C150.35 92.0758 149.196 91.795 147.909 91.6993ZM102.525 111.522C102.483 111.573 102.44 111.624 102.39 111.67C102.224 111.823 102.032 111.925 101.827 111.992C101.974 112.016 102.113 112.068 102.234 112.152L102.366 112.264L102.478 112.397C102.487 112.41 102.492 112.426 102.501 112.44C102.51 112.211 102.517 111.976 102.521 111.731C102.522 111.662 102.523 111.592 102.525 111.522ZM97.3605 112.381C97.3803 112.359 97.3995 112.335 97.421 112.315L97.5714 112.195C97.7052 112.106 97.8571 112.048 98.0167 112.022C97.7697 111.968 97.5335 111.866 97.3371 111.682C97.333 111.678 97.3293 111.674 97.3253 111.67C97.3383 111.904 97.3507 112.141 97.3605 112.381ZM131.794 109.637C131.836 110.082 131.879 110.576 131.921 111.119C131.961 111.051 132.005 110.985 132.056 110.924C132.186 110.767 132.347 110.637 132.528 110.543C132.648 110.481 132.776 110.435 132.907 110.406C132.866 110.399 132.823 110.396 132.782 110.385C132.375 110.274 132.026 110.007 131.794 109.637ZM67.9328 109.848C67.6447 110.15 67.2616 110.344 66.8468 110.391L66.8449 110.389L66.7023 110.408H66.6984C66.5003 110.431 66.2979 110.41 66.1085 110.348C65.9196 110.285 65.7464 110.183 65.6007 110.047C65.5782 110.026 65.5573 110.003 65.5363 109.981C65.5703 110.244 65.5851 110.501 65.5695 110.752C65.7164 110.64 65.8792 110.559 66.0343 110.508C66.4565 110.368 66.9617 110.375 67.3468 110.533L67.5617 110.647C67.6772 110.722 67.7702 110.813 67.8468 110.91C67.8732 110.582 67.9028 110.228 67.9328 109.848ZM57.9015 68.7442C55.2885 68.7653 52.5399 68.9072 49.6574 69.17C46.8945 69.4215 44.5037 69.8113 42.4816 70.336C41.1355 70.686 39.8862 71.157 38.7296 71.7579L38.7316 71.7598C36.9182 72.7041 35.6555 74.1421 34.9289 76.1016C34.3927 77.5482 34.1825 78.8136 33.9328 80.5626C33.8397 81.221 33.7941 81.8462 33.7941 82.4376V87.922C33.796 88.8634 33.9574 89.684 34.089 90.8419L34.2335 91.8399C34.6303 94.1484 35.4655 96.308 36.7433 98.3223C37.4825 99.4883 38.5065 100.6 39.6886 101.381L39.8253 101.322L39.9992 101.244C40.0397 101.172 40.0624 101.126 40.0695 101.104C40.2485 100.535 40.5887 99.5538 41.089 98.17C41.7907 96.2295 42.8012 94.5901 44.1242 93.2637C45.6172 91.7669 47.2511 90.713 49.0285 90.127L49.5851 89.961C55.324 88.3976 60.7898 91.9882 63.3878 96.922C64.929 99.8474 65.8599 103.024 66.1808 106.447C66.3099 107.816 66.3747 108.701 66.3605 109.029C66.3595 109.055 66.3644 109.082 66.3742 109.106C66.3841 109.129 66.4002 109.15 66.4191 109.168C66.4381 109.186 66.4608 109.199 66.4855 109.207C66.5101 109.215 66.5359 109.218 66.5617 109.215L66.7062 109.197H66.7121C66.8465 109.182 66.9715 109.12 67.0656 109.022C67.1599 108.922 67.2186 108.792 67.2277 108.654L67.2765 108.041C67.3339 107.434 67.414 106.846 67.5187 106.277C67.82 104.644 68.2334 103 68.757 101.346C69.4239 99.2373 70.0583 97.6409 70.6632 96.588C73.304 91.9914 77.9088 90.5806 82.9347 90.7579C86.3835 90.8797 89.3759 92.0961 91.8839 94.4024C92.9425 95.3765 93.8793 96.6289 94.6984 98.1466C96.2696 101.057 97.2713 104.12 97.7023 107.332C97.8395 108.363 97.9654 109.445 98.0812 110.574L98.1222 110.748C98.1377 110.784 98.1531 110.799 98.1593 110.805C98.172 110.817 98.2255 110.861 98.3957 110.867C99.396 110.908 100.328 110.917 101.191 110.895C101.431 110.888 101.531 110.828 101.573 110.789C101.613 110.752 101.679 110.663 101.698 110.434L101.874 108.66C101.938 108.104 102.008 107.582 102.081 107.096C102.51 104.252 103.339 101.541 104.569 98.963C106.33 95.278 109.144 92.3226 113.155 91.2716C114.128 91.0164 115.44 90.8348 117.073 90.7169L117.394 90.7012C118.148 90.6855 118.945 90.7928 119.65 90.8516C122.333 91.0751 125.594 92.2836 127.493 94.4512C130.139 97.4717 131.233 101.694 132.142 105.338C132.285 105.909 132.391 106.482 132.478 107.045L132.704 108.69V108.691C132.747 109.022 132.942 109.185 133.097 109.227C133.222 109.261 133.404 109.24 133.564 108.979C133.642 105.076 134.532 101.318 136.234 97.711C137.324 95.4005 138.86 93.4658 140.837 91.9161C142.776 90.3942 145.521 89.6566 147.888 89.586C151.248 89.4829 154.526 91.555 156.562 94.0196L156.9 94.4552C157.658 95.4905 158.205 96.6595 158.657 97.7989C158.916 98.4505 159.149 99.1041 159.37 99.7208C159.594 100.342 159.805 100.926 160.03 101.459L160.071 101.525C161.78 100.424 163.074 98.9991 163.956 97.2364C164.83 95.4916 165.451 93.4593 165.814 91.1329C165.999 89.9474 166.104 88.9069 166.132 88.0098L166.169 87.463C166.186 87.2785 166.208 87.0938 166.226 86.918C166.263 86.5547 166.294 86.2162 166.292 85.9044C166.287 85.0792 166.283 84.2485 166.28 83.4141V83.4122C166.28 83.3148 166.256 82.9637 166.2 82.3145V82.3126C166.194 82.2379 166.17 81.843 166.128 81.1466C166.035 79.6258 165.794 78.202 165.407 76.8731C164.669 74.3307 163.184 72.5198 160.835 71.4649C158.668 70.4917 156.292 69.92 153.859 69.5684C151.342 69.2066 148.799 68.9904 146.23 68.918V68.9161C146.127 68.9138 146.025 68.9001 145.925 68.879V68.8829C145.793 68.8569 145.671 68.8359 145.558 68.8223L145.243 68.7989C142.217 68.7287 138.812 68.7155 135.028 68.7579C132.564 68.7855 129.846 68.9489 126.876 69.2501C123.594 69.5829 120.354 70.0541 117.155 70.6602V70.6583C115.245 71.0225 113.461 71.2834 111.513 71.6036C106.96 72.357 102.273 72.6487 97.7023 72.5665C97.0083 72.5542 96.403 72.5103 95.8097 72.463C95.2141 72.4155 94.6369 72.3644 93.9738 72.3321H93.9718C92.0031 72.2324 89.5911 71.954 86.7414 71.502H86.7394C86.3801 71.4438 83.5897 70.9555 78.382 70.0391C76.3866 69.6885 74.1954 69.416 71.8078 69.2208C70.6627 69.1279 69.6521 69.0484 68.7765 68.9825L66.5539 68.8243C65.1458 68.7356 62.2685 68.7083 57.9015 68.7442ZM134.353 109.91C134.133 110.147 133.872 110.307 133.591 110.383C133.675 110.397 133.758 110.416 133.839 110.443C134.039 110.511 134.223 110.62 134.38 110.762C134.388 110.769 134.395 110.778 134.403 110.785C134.393 110.642 134.388 110.51 134.378 110.389C134.365 110.228 134.356 110.068 134.353 109.91ZM159.224 102.379C159.323 102.779 159.414 103.17 159.495 103.553C159.639 103.224 159.892 102.959 160.134 102.752H160.021C159.783 102.728 159.552 102.647 159.353 102.494C159.306 102.459 159.264 102.419 159.224 102.379ZM40.5773 102.426C40.4968 102.478 40.4015 102.524 40.2843 102.541L40.2863 102.543C40.2372 102.551 40.1832 102.549 40.1261 102.545C40.0683 102.583 40.0041 102.62 39.9289 102.643C39.8375 102.67 39.7498 102.675 39.6671 102.67L39.8996 102.856H39.9015C40.0781 102.998 40.2132 103.185 40.2941 103.397C40.311 103.441 40.3233 103.488 40.3351 103.533C40.3767 103.33 40.4147 103.134 40.4562 102.947C40.4948 102.773 40.5358 102.599 40.5773 102.426ZM38.8468 102.443L38.8527 102.445V102.441H38.8488L38.8468 102.443ZM38.8488 102.424H38.8527C38.8525 102.419 38.8491 102.413 38.8488 102.408C38.8486 102.414 38.8491 102.419 38.8488 102.424Z" fill="#787B83"/>
<path d="M40.0646 101.87C40.2579 101.588 40.4089 101.274 40.5175 100.926C40.9015 99.7071 41.2942 98.6085 41.6954 97.63C42.9959 94.4609 45.1624 92.2026 48.1951 90.855C49.5326 90.2602 50.7847 89.9582 51.9514 89.9489C54.5431 89.9289 56.9103 90.7315 59.053 92.3566C61.8956 94.5133 63.5523 97.5005 64.625 100.848C65.4685 103.477 65.9175 106.174 65.9718 108.94C65.9748 109.121 66.0477 109.293 66.1752 109.421C66.3026 109.549 66.4746 109.623 66.6551 109.627L66.7346 109.629C66.942 109.633 67.143 109.557 67.2964 109.417C67.4498 109.277 67.5437 109.083 67.5589 108.876C67.7854 105.787 68.582 102.909 69.6209 99.9361C70.3413 97.8743 71.1531 96.295 72.0562 95.1984C73.5249 93.414 75.4418 92.2245 77.807 91.6297C80.5774 90.9313 83.2393 90.8981 85.7925 91.5301C89.2383 92.3838 91.916 94.354 93.8257 97.4408C95.6519 100.392 96.8292 103.812 97.3576 107.699C97.5668 109.246 97.6853 110.273 97.7132 110.78C97.7189 110.893 97.7665 111 97.8465 111.08C97.9266 111.159 98.0334 111.207 98.1462 111.212C98.9712 111.253 99.9638 111.259 101.124 111.23C101.471 111.222 101.853 111.288 101.976 110.913C102.014 110.798 102.056 110.512 102.101 110.055C102.231 108.735 102.314 107.948 102.35 107.695C102.755 104.786 103.57 102.007 104.795 99.3566C106.678 95.284 109.709 92.2829 114.199 91.4146C119.439 90.4009 125.742 91.5799 128.592 96.6104C129.896 98.9125 130.615 101.191 131.334 103.76C131.816 105.486 132.149 107.19 132.335 108.872C132.357 109.074 132.454 109.261 132.605 109.396C132.757 109.532 132.953 109.606 133.155 109.605H133.203C133.302 109.604 133.4 109.584 133.492 109.545C133.583 109.506 133.666 109.45 133.736 109.379C133.805 109.308 133.86 109.223 133.897 109.131C133.933 109.038 133.951 108.94 133.95 108.84C133.904 105.887 134.651 102.852 135.666 99.9839C136.671 97.1481 138.423 94.2425 140.779 92.4143C143.233 90.5125 147.088 89.3873 150.209 90.2476C152.746 90.9466 155.066 92.6155 156.605 94.7005C157.336 95.6923 157.875 96.8633 158.339 98.0482C158.518 98.5009 158.949 99.6905 159.633 101.617C159.667 101.714 159.735 101.795 159.824 101.847C159.913 101.898 160.018 101.915 160.119 101.896C160.22 101.876 160.375 101.796 160.584 101.657C163.488 99.723 165.107 96.3813 165.832 92.9859C166.22 91.1683 166.456 89.3328 166.539 87.4794C166.582 86.5288 166.588 84.8666 166.557 82.4928C166.533 80.581 166.321 78.8942 165.892 77.1696C165.118 74.0575 163.219 71.9326 160.193 70.7948C158.397 70.1204 156.757 69.6617 155.272 69.4187C152.817 69.0165 150.34 68.7078 147.831 68.5803C144.802 68.4276 143.064 68.3506 142.617 68.3493C138.67 68.3374 136.336 68.3387 135.613 68.3533C131.351 68.4343 127.148 68.7562 123.003 69.3192C119.234 69.833 114.455 70.8028 110.645 71.3564C106.995 71.8888 103.402 72.1683 99.8645 72.1949C98.4197 72.2055 96.7934 72.1471 94.9858 72.0196C91.5671 71.7786 88.7622 71.5177 85.9494 71.0039C81.2813 70.1503 78.5261 69.661 77.6838 69.5362C74.4234 69.053 70.7167 68.6912 66.5637 68.4509C65.1785 68.3699 63.2053 68.3327 60.6441 68.3394C57.679 68.346 55.7038 68.3765 54.7186 68.431C50.7437 68.65 47.4144 68.893 43.8448 69.6139C39.8798 70.4165 35.8573 71.9658 34.4668 76.1937C33.9569 77.7444 33.6371 79.3994 33.5073 81.1585C33.3908 82.753 33.3762 85.0087 33.4636 87.9255C33.6086 92.7568 34.8164 97.1759 38.1735 100.723C38.5959 101.168 39.168 101.576 39.8898 101.948C39.8037 102.079 39.7037 102.109 39.5898 102.039C38.2211 101.199 37.0571 99.9441 36.2327 98.6437C34.7243 96.2658 33.8099 93.6882 33.4894 90.9108C33.3643 89.8095 33.1915 88.9093 33.1895 87.9235C33.1868 86.3038 33.1868 84.475 33.1895 82.437C33.1895 81.8143 33.2378 81.1611 33.3345 80.4774C33.5848 78.7249 33.8013 77.4046 34.3615 75.893C35.1388 73.7967 36.5015 72.2413 38.4496 71.227C39.6494 70.6037 40.9406 70.1157 42.3271 69.7553C44.3891 69.2202 46.8132 68.8259 49.5995 68.5724C52.4971 68.3082 55.2615 68.1654 57.8929 68.1442C62.2565 68.1083 65.1547 68.1356 66.5876 68.2258C67.8059 68.3042 69.5606 68.4363 71.8516 68.6221C74.2552 68.8186 76.4655 69.0941 78.4824 69.4486C83.6961 70.366 86.4791 70.8533 86.8314 70.9103C89.6694 71.3604 92.0584 71.6346 93.9985 71.7328C95.3493 71.7985 96.3584 71.9419 97.7092 71.9658C102.248 72.0475 106.896 71.7587 111.41 71.0119C113.372 70.6893 115.138 70.4324 117.039 70.0699C120.255 69.4606 123.512 68.9886 126.811 68.654C129.796 68.3513 132.531 68.186 135.017 68.1581C138.805 68.1156 142.217 68.1296 145.253 68.1999C145.487 68.2053 145.749 68.2365 146.037 68.2935C146.105 68.3081 146.173 68.3161 146.242 68.3174C148.834 68.3905 151.399 68.6095 153.939 68.9746C156.407 69.3311 158.842 69.9146 161.077 70.9183C163.6 72.0515 165.197 74.0091 165.979 76.7055C166.379 78.081 166.627 79.5494 166.722 81.1107C166.765 81.8157 166.788 82.2 166.794 82.2638C166.848 82.901 166.875 83.2841 166.875 83.4128C166.878 84.2466 166.882 85.0757 166.887 85.9002C166.891 86.5972 166.75 87.3739 166.728 88.0291C166.699 88.9571 166.59 90.0226 166.402 91.2254C166.032 93.6019 165.393 95.6949 164.487 97.5045C163.537 99.4044 162.136 100.938 160.284 102.105C160.222 102.144 160.15 102.161 160.078 102.155C159.793 102.125 159.592 101.971 159.474 101.693C158.544 99.49 157.853 96.5307 156.095 94.4018C154.132 92.026 151.017 90.0903 147.903 90.1859C145.624 90.2536 143.014 90.9665 141.202 92.3884C139.301 93.8794 137.824 95.7388 136.773 97.9666C135.099 101.514 134.227 105.205 134.156 109.039C134.154 109.116 134.133 109.192 134.095 109.258C133.515 110.266 132.247 109.874 132.104 108.768C131.963 107.695 131.832 106.586 131.556 105.484C130.64 101.814 129.572 97.7395 127.037 94.8459C125.271 92.8305 122.178 91.6655 119.596 91.4504C118.738 91.3787 117.895 91.2573 117.113 91.315C115.493 91.4319 114.223 91.6111 113.303 91.8527C109.511 92.8465 106.815 95.6445 105.107 99.2212C103.902 101.745 103.089 104.4 102.669 107.185C102.525 108.142 102.399 109.242 102.292 110.485C102.236 111.141 101.873 111.477 101.201 111.495C100.323 111.517 99.3785 111.508 98.3667 111.467C97.8317 111.446 97.5364 111.169 97.4807 110.636C97.3655 109.512 97.2397 108.437 97.1033 107.412C96.6822 104.274 95.7029 101.28 94.1654 98.4326C93.3708 96.9602 92.4736 95.764 91.4737 94.8439C89.0728 92.636 86.2183 91.4737 82.9102 91.3568C78.0037 91.1836 73.6653 92.5577 71.1782 96.8872C70.6061 97.8829 69.9883 99.4296 69.3249 101.527C68.8084 103.159 68.4018 104.779 68.1052 106.387C67.9701 107.119 67.8754 107.889 67.8211 108.695C67.8029 108.972 67.688 109.234 67.4967 109.435C67.3053 109.636 67.0496 109.763 66.7743 109.794L66.6253 109.812C66.5133 109.825 66.3998 109.813 66.2928 109.778C66.1857 109.742 66.0876 109.684 66.0051 109.607C65.9226 109.531 65.8577 109.437 65.8149 109.333C65.7721 109.228 65.7525 109.116 65.7572 109.003C65.7691 108.727 65.7096 107.894 65.5784 106.504C65.2646 103.156 64.3561 100.055 62.8531 97.2018C60.2588 92.2749 54.7841 88.8575 49.2121 90.6977C47.5369 91.25 45.9809 92.2464 44.544 93.6869C43.2899 94.9442 42.3251 96.5068 41.6497 98.3748C41.1492 99.7595 40.8115 100.729 40.6367 101.284C40.5943 101.42 40.4883 101.61 40.3188 101.856C40.2791 101.912 40.2367 101.943 40.1917 101.95C40.1308 101.959 40.0884 101.932 40.0646 101.87Z" fill="#787B83"/>
<path d="M46.8387 92.8434C48.8291 91.4155 51.5982 90.83 54.0038 91.3C57.9906 92.0787 60.7795 94.6676 62.476 98.316C63.5487 100.622 64.2585 103.166 64.6054 105.947C64.7604 107.187 64.8498 108.384 64.8736 109.538C64.8749 109.607 64.8829 109.675 64.8974 109.741C65.0219 110.349 65.0074 110.893 64.8537 111.372C64.8288 111.452 64.82 111.536 64.8279 111.619C64.8319 111.662 64.814 112.734 64.7743 114.835C64.7663 115.242 64.6273 115.735 64.6253 116.199C64.6213 116.802 64.6121 117.634 64.5975 118.695C64.5948 118.867 64.5591 119.106 64.4902 119.41C64.4757 119.472 64.4677 119.535 64.4664 119.597C64.4028 121.768 64.1969 123.537 63.8486 124.906C63.4811 126.352 62.2197 127.652 60.8391 128.381C60.3372 128.646 59.6433 128.866 58.7573 129.042C56.8563 129.419 54.8778 129.479 52.7225 129.59C50.4222 129.711 48.0478 129.602 45.5991 129.264C43.5571 128.981 41.7415 128.465 40.3867 126.848C39.7881 126.134 39.4597 125.19 39.4014 124.016C39.3922 123.829 39.3889 122.352 39.3915 119.587C39.3915 118.117 39.5524 116.687 39.5703 115.22C39.5822 114.102 39.7729 112.738 39.7908 111.406C39.7908 111.315 39.8021 111.224 39.8246 111.135C39.9855 110.466 39.9596 109.769 40.0431 109.138C40.3821 106.575 40.7158 104.555 41.0442 103.076C41.4481 101.249 42.0116 99.5102 42.7347 97.8599C43.6306 95.8147 45.0628 94.118 46.8387 92.8434ZM64.3154 118.993C64.334 118.091 64.4233 115.917 64.5836 112.471C64.7081 109.812 64.5889 107.282 64.226 104.882C63.4056 99.4531 60.5749 93.1621 54.7427 91.6943C49.4111 90.3521 44.6794 93.4628 42.7248 98.4096C41.8136 100.716 41.17 103.088 40.7939 105.527C40.2801 108.864 39.9537 112.046 39.8146 115.074C39.7193 117.171 39.6458 119.489 39.5941 122.03C39.5524 124.153 39.5465 125.99 41.1118 127.31C42.544 128.515 43.7637 128.746 45.7283 129.048C46.8738 129.225 48.0504 129.323 49.2582 129.343C51.6657 129.384 53.966 129.33 56.1591 129.18C57.2198 129.108 58.3005 128.938 59.401 128.668C61.3536 128.192 63.2169 126.671 63.6817 124.731C64.0088 123.358 64.1969 121.58 64.2459 119.396C64.2472 119.33 64.2572 119.263 64.2757 119.199C64.3008 119.107 64.3141 119.039 64.3154 118.993Z" fill="#787B83"/>
<path d="M147.928 91.0983C149.286 91.1966 150.517 91.4906 151.623 91.9805C151.913 92.108 152.149 92.2328 152.33 92.3549C152.64 92.5621 152.97 92.6995 153.236 92.9046C154.31 93.7291 155.226 94.6657 155.983 95.7146C156.681 96.6798 157.255 97.8541 157.703 99.2375C158.303 101.087 158.75 102.778 159.044 104.31C159.661 107.533 160.059 110.935 160.236 114.516C160.392 117.663 160.435 120.698 160.363 123.621C160.349 124.24 160.212 124.911 159.952 125.635C159.181 127.783 156.694 129.01 154.581 129.295C152.621 129.559 150.655 129.667 148.683 129.619C146.716 129.57 144.839 129.471 143.051 129.321C139.627 129.036 136.903 127.875 135.942 124.244C135.819 123.778 135.69 122.77 135.557 121.219C135.526 120.87 135.486 120.483 135.437 120.056C135.384 119.588 135.353 119.199 135.344 118.889C135.213 114.582 135.09 111.732 134.977 110.338C134.928 109.737 134.955 109.169 135.06 108.635C135.114 108.354 135.149 107.72 135.165 106.733C135.168 106.642 135.177 106.551 135.193 106.463C135.246 106.165 135.315 105.731 135.4 105.16C135.927 101.611 137.321 98.2909 139.581 95.1988C139.748 94.9717 139.978 94.7925 140.145 94.5416C140.19 94.4712 140.263 94.3843 140.364 94.2807C141.774 92.8229 143.47 91.8836 145.451 91.4628C145.758 91.3977 146.562 91.2769 147.863 91.1003C147.884 91.0977 147.906 91.097 147.928 91.0983ZM147.149 91.4189C143.861 91.6739 141.288 93.1237 139.43 95.7683C138.191 97.5341 137.231 99.3955 136.55 101.352C135.352 104.79 135.141 108.767 135.326 112.503C135.39 113.801 135.441 114.943 135.479 115.928C135.553 117.808 135.618 119.209 135.674 120.13C135.776 121.872 135.925 123.188 136.123 124.079C136.729 126.809 138.576 128.341 141.236 128.815C144.118 129.331 147.084 129.375 150.29 129.345C152.851 129.321 154.926 129.257 156.837 128.419C159.013 127.465 160.119 125.785 160.155 123.376C160.169 122.361 160.181 120.791 160.189 118.666C160.196 116.87 160.053 114.365 159.906 112.471C159.802 111.145 159.585 109.269 159.257 106.843C158.923 104.372 158.374 101.971 157.608 99.6398C156.579 96.5032 154.805 93.9939 151.913 92.4107C150.462 91.6168 148.874 91.2862 147.149 91.4189Z" fill="#787B83"/>
<path d="M92.6969 97.6985C94.6973 100.636 95.6448 103.999 96.2665 107.512C96.6188 109.493 96.7996 111.819 96.8088 114.489C96.8115 115.11 96.8539 115.755 96.936 116.422C97.0929 117.727 96.9221 119.033 97.0015 120.517C97.0512 121.473 96.9519 122.574 96.9598 123.534C96.9658 124.093 96.9062 125.746 97.0591 126.917C97.0936 127.176 97.1068 127.523 97.0989 127.957C97.0724 129.301 96.9744 130.41 96.8049 131.285C96.4374 133.171 95.3309 134.057 93.6961 135.001C93.116 135.337 92.4473 135.582 91.6898 135.736C90.6131 135.955 89.2465 136.056 88.0029 136.056C84.324 136.059 80.5756 136.054 76.7577 136.042C76.4147 136.041 75.9591 136.018 75.391 135.975C74.6666 135.919 74.2117 135.88 74.0263 135.859C70.6732 135.485 67.7174 133.416 67.6339 129.803C67.5783 127.399 67.8008 124.671 67.7849 122.03C67.7809 121.415 67.9756 120.736 67.9101 120.039C67.8928 119.858 67.8975 119.591 67.924 119.236C67.9902 118.377 68.0153 117.415 67.9995 116.351C67.9968 116.261 68.0055 116.171 68.0253 116.084C68.1802 115.359 68.1167 114.616 68.1862 114.015C68.2418 113.521 68.3775 111.896 68.5934 109.14C68.6358 108.603 68.8079 107.516 69.1099 105.877C69.6131 103.142 70.4527 100.572 71.6287 98.1665C73.198 94.9575 75.7406 93.0557 79.2566 92.4609C81.0193 92.1622 82.8137 92.1695 84.6399 92.4828C87.2123 92.9229 89.3517 94.1118 91.2031 95.8902C91.7063 96.3735 92.2043 96.9762 92.6969 97.6985ZM84.7869 92.7457C82.5329 92.3142 80.3373 92.3719 78.1998 92.9189C75.4493 93.6212 73.3867 95.2689 72.0121 97.8618C70.4448 100.815 69.5231 104.238 69.0443 107.55C68.7702 109.449 68.5272 112.297 68.3153 116.094C68.2398 117.43 68.1325 118.993 68.1564 120.561C68.1577 120.624 68.1537 120.688 68.1445 120.75L68.0511 121.415C68.0471 121.444 68.0458 121.473 68.0471 121.503C68.0736 121.898 68.0716 122.283 68.0412 122.658C67.9299 124.04 67.9577 125.424 67.8803 127.214C67.7611 129.954 67.6856 132.45 70.111 134.184C71.2685 135.013 72.5127 135.488 73.8436 135.61C75.2122 135.738 77.0358 135.873 78.6091 135.873C83.2163 135.872 86.3469 135.87 88.001 135.869C88.6485 135.869 89.4173 135.764 90.1344 135.718C91.8825 135.604 93.269 135.144 94.7747 134.063C96.5248 132.806 96.8168 130.843 96.8247 128.754C96.8274 127.747 96.7989 125.009 96.7393 120.539C96.7367 120.324 96.7327 120.008 96.7274 119.593C96.7009 117.654 96.6486 115.237 96.5705 112.34C96.5645 112.097 96.4851 111.816 96.4751 111.579C96.3175 107.923 95.5872 104.443 94.2841 101.14C92.6234 96.9337 89.2723 93.604 84.7869 92.7457Z" fill="#787B83"/>
<path d="M128.709 99.3198C129.955 102.152 130.684 105.207 131.073 108.493C131.233 109.844 131.401 111.976 131.575 114.887C131.599 115.299 131.645 115.917 131.713 116.741C131.773 117.485 131.8 118.12 131.792 118.647C131.789 118.809 131.805 118.945 131.838 119.037C131.883 119.17 131.904 119.521 131.901 120.091C131.891 121.913 132.12 124.325 132.15 126.334C132.172 127.866 132.165 129.12 132.128 130.096C132.07 131.624 131.442 133.041 130.207 134.045C129.278 134.798 128.411 135.283 127.605 135.499C126.233 135.865 124.522 136.049 122.474 136.049C117.18 136.047 113.567 136.047 111.634 136.049C111.002 136.049 110.174 135.999 109.15 135.899C107.124 135.703 105.45 134.9 104.129 133.49C103.46 132.775 103.044 131.73 102.881 130.353C102.767 129.394 102.732 128.41 102.776 127.4C102.85 125.707 102.882 124.719 102.871 124.436C102.869 124.358 102.848 123.308 102.81 121.286C102.791 120.298 102.824 118.994 102.909 117.375C102.985 115.955 102.897 114.529 103.04 113.33C103.165 112.274 103.074 111.243 103.199 110.052C103.325 108.84 103.464 107.807 103.616 106.955C103.836 105.718 104.153 104.405 104.568 103.018C105.045 101.419 105.535 100.164 106.04 99.2521C107.042 97.4345 108.399 95.8573 110.11 94.5203C112.811 92.4074 116.318 91.9752 119.673 92.3456C121.329 92.5288 122.73 92.9364 123.874 93.5684C126.216 94.8609 127.618 96.8424 128.709 99.3198ZM102.975 123.811C103.012 125.036 103.005 126.286 102.955 127.559C102.914 128.567 102.967 129.621 103.116 130.723C103.288 131.999 103.841 133.045 104.776 133.862C106.042 134.967 107.752 135.652 109.496 135.692C110.793 135.722 111.894 135.895 113.256 135.881C114.687 135.868 117.559 135.865 121.874 135.873C123.04 135.875 124.162 135.728 125.384 135.674C128.336 135.545 131.625 133.701 131.881 130.445C131.95 129.568 131.965 128.499 131.927 127.236C131.882 125.698 131.821 124.122 131.744 122.509C131.715 121.859 131.762 121.419 131.697 120.893C131.649 120.526 131.622 120.123 131.617 119.685C131.609 119.135 131.581 118.392 131.534 117.456C131.351 113.923 131.087 110.642 130.741 107.612C130.378 104.43 129.421 101.279 127.869 98.1607C126.437 95.287 123.836 93.2836 120.654 92.72C118.66 92.3669 116.708 92.3576 114.798 92.6922C110.326 93.4748 106.882 97.1431 105.372 101.263C104.337 104.093 103.693 107.04 103.441 110.106C103.395 110.662 103.317 112.108 103.207 114.443C103.082 117.084 103.094 118.898 102.981 121.296C102.947 122.011 102.945 122.85 102.975 123.811Z" fill="#787B83"/>
</g>
<path opacity="0.7" d="M122 120C122 107.85 112.15 98 100 98C87.8497 98 78 107.85 78 120C78 132.15 87.8497 142 100 142V148C84.536 148 72 135.464 72 120C72 104.536 84.536 92 100 92C115.464 92 128 104.536 128 120C128 135.464 115.464 148 100 148V142C112.15 142 122 132.15 122 120Z" fill="#CF1039"/>
</g>
</svg>
