<svg width="200" height="200" viewBox="0 0 200 200" fill="none" xmlns="http://www.w3.org/2000/svg">
<path d="M200 100C200 155.228 155.228 200 100 200C44.7715 200 0 155.228 0 100C0 44.7715 44.7715 0 100 0C155.228 0 200 44.7715 200 100Z" fill="white"/>
<path d="M30 88H52V110H30V88Z" fill="white"/>
<path d="M28 97L175 87L173 98V109L172 118L163 121L160 124H157L150 122L141 125L132 124L124 128H108L102 125L91.5 128H75L69 124H55L52 121L46 124L41 123L39 121L32 119L28 112V97Z" fill="white"/>
<path d="M28 80L35 75L49 72H64L100 76L130 72L160 73L173 78L175 88L173 100L171 94H168L165 96L164 101L162 94L158 93L154 96L150 104L147 95H142L137 97L131 105L128 95L122 91H113L105 97L101 111L94 94L82 90L75 93L70 105L65 97L58 94L54 96L51 102L45 94L40 93L38 100L36 95L32 94L28 98L27 88L28 80Z" fill="#FFCCD1"/>
<mask id="mask0_177_44452" style="mask-type:alpha" maskUnits="userSpaceOnUse" x="20" y="60" width="160" height="80">
<path d="M20 60H180V140H20V60Z" fill="#D9D9D9"/>
</mask>
<g mask="url(#mask0_177_44452)">
<mask id="mask1_177_44452" style="mask-type:alpha" maskUnits="userSpaceOnUse" x="68" y="89" width="32" height="39">
<path d="M70.4615 101.315L75.3846 92.4216L82.7692 89.9961L92.6154 92.4216L99.1795 104.549L100 119.102L99.1795 126.379L92.6154 127.996H83.5897L71.2821 126.379L68.8205 123.145L68 111.826L70.4615 101.315Z" fill="url(#paint0_linear_177_44452)"/>
</mask>
<g mask="url(#mask1_177_44452)">
<g filter="url(#filter0_ng_177_44452)">
<path d="M67.0769 99.6982L73.2308 88.9323L82.4615 85.9961L94.7692 88.9323L102.974 103.613L104 121.23L102.974 130.039L94.7692 131.996H83.4872L68.1026 130.039L65.0256 126.124L64 112.422L67.0769 99.6982Z" fill="url(#paint1_linear_177_44452)"/>
</g>
</g>
<path d="M100.756 125.004C100.76 124.939 100.789 124.896 100.843 124.876C100.861 124.869 100.88 124.869 100.898 124.875C100.916 124.882 100.932 124.894 100.942 124.91C101.316 125.519 101.528 126.021 102.201 126.549C103.047 127.212 104.02 127.661 105.12 127.895C106.741 128.24 107.981 128.413 108.842 128.415C109.211 128.415 109.75 128.446 110.458 128.508C111.866 128.631 114.261 128.626 117.645 128.494C117.847 128.486 118.047 128.48 118.245 128.478C120.056 128.455 121.621 128.399 122.94 128.311C125.336 128.151 127.864 127.684 129.854 126.319C130.72 125.728 131.403 125.044 131.903 124.269C131.954 124.188 132.032 124.127 132.122 124.097C132.213 124.067 132.312 124.069 132.402 124.102C133.303 124.441 134.204 124.674 135.107 124.803C138.303 125.256 141.387 125.19 144.358 124.604C146.334 124.216 148.207 123.424 149.502 121.865C149.791 121.516 150.054 121.254 150.411 121.65C150.84 122.123 151.359 122.634 151.929 122.971C153.526 123.913 155.257 124.378 157.121 124.366C158.27 124.359 159.173 124.231 159.83 123.982C161.327 123.416 162.263 122.226 162.782 120.774C162.802 120.72 162.833 120.67 162.874 120.628C162.914 120.586 162.963 120.553 163.017 120.531C163.07 120.51 163.128 120.5 163.186 120.503C163.244 120.506 163.3 120.521 163.352 120.547C164.437 121.105 165.768 121.191 166.946 120.878C169.69 120.149 171.839 117.863 172.749 115.215C173.364 113.427 173.685 111.543 173.712 109.563C173.739 107.685 173.769 105.75 173.597 103.892C173.465 102.452 173.301 101.014 173.104 99.5796C173.068 99.3142 173.096 99.0441 173.185 98.7919C173.825 96.9767 174.289 95.1298 174.577 93.251C174.721 92.3232 174.717 91.71 174.84 90.7151C174.908 90.1588 174.945 89.5226 174.951 88.8066C174.962 87.2771 174.849 85.6846 174.613 84.0292C174.073 80.2568 172.378 77.4157 169.528 75.5058C167.001 73.8125 163.505 72.8724 160.386 72.446C157.956 72.1131 155.439 71.8586 152.836 71.6826C152.502 71.6603 152.072 71.7131 151.826 71.6745C150.508 71.4694 148.835 71.5649 147.672 71.5263C143.339 71.3761 139.421 71.3767 135.919 71.5283C132.429 71.6813 129.058 71.9621 125.807 72.3709C122.285 72.8149 119.028 73.3022 116.036 73.8328C113.748 74.2388 111.825 74.5184 110.266 74.6713C108.231 74.873 106.292 75.0138 104.45 75.0936C102.622 75.1735 100.981 75.1613 99.5258 75.0571C98.3985 74.9772 97.3001 74.9258 96.2306 74.9028C95.2864 74.8825 94.188 74.7938 92.9353 74.6368C90.9338 74.385 88.7464 74.0514 86.3731 73.6358C78.0673 72.1821 69.7777 71.4593 61.3648 71.4309C60.0327 71.4255 57.3846 71.4458 53.4207 71.4918C52.8401 71.4985 52.1424 71.5324 51.3275 71.5933C51.0326 71.615 50.3362 71.6501 49.2385 71.6989C48.3683 71.7354 46.7749 71.8762 44.4582 72.1212C43.4103 72.2322 42.4641 72.3614 41.6196 72.509C40.2767 72.7445 39.3379 72.9245 38.8032 73.0491C36.4878 73.5891 33.9583 74.4236 32.0712 75.6581C28.4871 78.0051 27.2688 81.4872 26.7697 85.7367C26.5852 87.3109 26.5583 89.0543 26.6889 90.9669C26.8479 93.2598 27.1833 95.3606 27.6951 97.2691C27.7611 97.5127 27.9281 98.0129 28.1961 98.7695C28.3214 99.1248 28.3355 99.4213 28.279 99.7806C28.1025 100.927 27.982 101.918 27.9173 102.753C27.8796 103.23 27.8035 104.216 27.689 105.711C27.5099 108.031 27.6553 110.525 28.1254 113.193C28.4864 115.252 29.4798 117.151 31.1055 118.89C31.1498 118.937 31.1993 118.978 31.253 119.012C31.3015 119.043 31.5991 119.25 32.146 119.633C33.9778 120.918 35.9409 121.196 38.0354 120.468C38.1359 120.433 38.2455 120.437 38.3434 120.477C38.4413 120.518 38.5208 120.593 38.5668 120.689C38.8483 121.277 39.1049 121.752 39.3365 122.116C39.6194 122.563 39.9804 122.944 40.4195 123.26C41.1791 123.808 42.1489 124.104 43.3288 124.147C46.0375 124.246 48.3407 123.578 50.2385 122.145C50.481 121.961 50.7026 121.75 50.9033 121.513C50.9571 121.449 51.0022 121.423 51.0386 121.438C51.0777 121.453 51.1113 121.498 51.1396 121.572C50.2897 122.471 49.2021 123.17 47.8767 123.67C45.0987 124.715 41.0276 125.022 39.1729 122.326C38.8052 121.791 38.5297 121.256 38.3466 120.72C38.3394 120.698 38.3277 120.678 38.3123 120.662C38.2969 120.645 38.2781 120.632 38.2572 120.623C38.2363 120.615 38.2138 120.611 38.1912 120.612C38.1687 120.612 38.1465 120.618 38.1263 120.628C36.5727 121.406 34.5482 121.142 33.0269 120.427C29.0225 118.547 27.7072 114.16 27.487 110.074C27.295 106.489 27.6021 103.029 28.0689 99.4801C28.0901 99.316 28.0728 99.1491 28.0183 98.9929C26.8748 95.7727 26.3367 92.1242 26.4041 88.0472C26.4788 83.5257 27.4385 79.0629 30.9439 76.192C33.728 73.912 38.0152 72.8278 41.8519 72.2369C44.667 71.8024 47.3999 71.5317 50.0506 71.4248C56.691 71.1568 62.9535 71.1453 68.8382 71.3903C68.9109 71.393 69.1305 71.4058 69.4969 71.4288C74.0858 71.7077 78.466 72.1726 82.6374 72.8237C86.755 73.4666 89.632 73.914 91.2685 74.1658C93.4101 74.496 95.3625 74.6828 97.1256 74.7261C99.2996 74.7789 101.564 74.9231 103.791 74.8682C107.862 74.7708 111.624 74.3607 116.024 73.5912C120.572 72.7939 125.114 72.1706 129.652 71.7212C136.45 71.0492 143.199 71.1446 150.411 71.3557C152.242 71.4099 154.243 71.5425 156.416 71.7537C163.649 72.4603 172.328 73.7759 174.466 82.2384C175.832 87.6473 175.195 93.8033 173.32 99.0923C173.264 99.2494 173.269 99.5214 173.337 99.9085C173.843 102.867 174.062 106.052 173.993 109.461C173.949 111.635 173.555 113.686 172.813 115.615C171.99 117.749 170.65 119.335 168.793 120.374C167.1 121.323 164.865 121.682 163.134 120.669C163.122 120.662 163.108 120.658 163.095 120.657C163.081 120.656 163.067 120.658 163.054 120.663C163.042 120.668 163.03 120.675 163.021 120.685C163.011 120.695 163.004 120.707 163 120.72C162.119 123.495 160.152 124.602 157.293 124.624C154.727 124.644 151.767 123.731 150.076 121.723C150.066 121.711 150.053 121.701 150.039 121.695C150.025 121.688 150.01 121.685 149.994 121.685C149.979 121.686 149.963 121.69 149.949 121.697C149.936 121.704 149.924 121.714 149.914 121.727C148.909 123.032 147.546 123.941 145.825 124.455C142.364 125.493 138.576 125.527 135.02 125.018C133.98 124.869 133.068 124.625 132.282 124.285C132.253 124.272 132.221 124.27 132.191 124.279C132.161 124.288 132.134 124.307 132.117 124.334C130.179 127.148 127.187 128.106 123.918 128.471C123.733 128.492 122.707 128.553 120.839 128.654C118.406 128.788 116.081 128.746 113.337 128.79C110.527 128.837 107.708 128.715 104.997 128.098C103.201 127.69 101.552 126.729 100.756 125.004Z" fill="#787B83"/>
<path d="M100.758 125.004C100.724 124.971 100.68 124.962 100.625 124.977C100.503 124.947 100.426 124.966 100.392 125.034C99.6124 126.583 98.085 127.42 96.402 127.826C95.3918 128.071 94.3904 128.233 93.3977 128.311C91.6804 128.445 89.4943 128.568 86.8395 128.681C83.7578 128.797 80.6551 128.74 77.5316 128.51C75.6728 128.373 73.934 127.935 72.315 127.194C70.9923 126.589 69.9437 125.591 69.1692 124.2C69.1564 124.176 69.1353 124.159 69.1102 124.151C69.0851 124.142 69.0579 124.144 69.0339 124.155C68.0897 124.587 67.0424 124.863 65.8922 124.983C62.71 125.318 59.4855 125.377 56.3761 124.632C54.4103 124.161 52.6263 123.188 51.3636 121.495C51.2881 121.394 51.2141 121.419 51.1413 121.572C51.113 121.498 51.0794 121.453 51.0403 121.438C51.0039 121.423 50.9588 121.448 50.9049 121.513C50.7042 121.75 50.4827 121.961 50.2402 122.145C48.3424 123.578 46.0392 124.246 43.3305 124.147C42.1506 124.103 41.1808 123.808 40.4212 123.26C39.9821 122.944 39.6211 122.563 39.3382 122.116C39.1066 121.752 38.85 121.277 38.5685 120.689C38.5224 120.593 38.443 120.518 38.345 120.477C38.2471 120.436 38.1376 120.433 38.0371 120.468C35.9426 121.196 33.9795 120.918 32.1477 119.633C31.6008 119.25 31.3032 119.043 31.2547 119.012C31.201 118.978 31.1515 118.937 31.1072 118.89C29.4814 117.151 28.4881 115.252 28.1271 113.193C27.657 110.525 27.5116 108.031 27.6907 105.711C27.8052 104.216 27.8813 103.229 27.919 102.753C27.9837 101.918 28.1042 100.927 28.2807 99.7806C28.3372 99.4212 28.3231 99.1248 28.1978 98.7695C27.9298 98.0128 27.7628 97.5127 27.6968 97.269C27.1849 95.3605 26.8496 93.2598 26.6906 90.9668C26.56 89.0542 26.5869 87.3108 26.7714 85.7366C27.2705 81.4871 28.4888 78.0051 32.0729 75.658C33.96 74.4235 36.4895 73.5891 38.8048 73.049C39.3396 72.9245 40.2784 72.7444 41.6213 72.5089C42.4658 72.3614 43.412 72.2321 44.4599 72.1211C46.7766 71.8761 48.37 71.7354 49.2401 71.6988C50.3379 71.6501 51.0342 71.6149 51.3292 71.5932C52.1441 71.5323 52.8418 71.4985 53.4223 71.4917C57.3863 71.4457 60.0344 71.4254 61.3665 71.4308C69.7794 71.4592 78.069 72.182 86.3748 73.6358C88.7481 74.0513 90.9355 74.385 92.937 74.6367C94.1897 74.7937 95.2881 74.8824 96.2323 74.9027C97.3017 74.9257 98.4002 74.9772 99.5275 75.057C100.982 75.1612 102.623 75.1734 104.451 75.0936C106.294 75.0137 108.233 74.8729 110.268 74.6712C111.826 74.5183 113.75 74.2388 116.038 73.8327C119.03 73.3021 122.286 72.8148 125.809 72.3709C129.06 71.9621 132.431 71.6812 135.921 71.5283C139.423 71.3767 143.34 71.376 147.673 71.5262C148.837 71.5648 150.51 71.4694 151.827 71.6745C152.074 71.713 152.504 71.6602 152.837 71.6826C155.441 71.8585 157.958 72.113 160.388 72.446C163.507 72.8724 167.002 73.8124 169.53 75.5057C172.38 77.4156 174.075 80.2567 174.615 84.0291C174.851 85.6845 174.963 87.277 174.953 88.8065C174.947 89.5226 174.91 90.1587 174.841 90.7151C174.718 91.7099 174.722 92.3231 174.579 93.251C174.291 95.1297 173.827 96.9767 173.187 98.7918C173.098 99.044 173.07 99.3141 173.106 99.5796C173.303 101.014 173.467 102.452 173.599 103.892C173.771 105.75 173.74 107.685 173.714 109.563C173.687 111.543 173.366 113.427 172.75 115.215C171.841 117.863 169.691 120.149 166.948 120.878C165.77 121.191 164.438 121.105 163.354 120.547C163.302 120.521 163.246 120.506 163.188 120.503C163.13 120.5 163.072 120.51 163.018 120.531C162.964 120.553 162.916 120.586 162.875 120.628C162.835 120.669 162.804 120.719 162.784 120.774C162.265 122.226 161.329 123.416 159.832 123.982C159.175 124.231 158.272 124.359 157.123 124.366C155.259 124.378 153.528 123.913 151.93 122.971C151.361 122.634 150.841 122.123 150.413 121.649C150.055 121.254 149.793 121.515 149.504 121.865C148.209 123.424 146.336 124.216 144.36 124.604C141.389 125.19 138.305 125.256 135.109 124.803C134.206 124.674 133.304 124.441 132.403 124.102C132.313 124.069 132.215 124.067 132.124 124.097C132.033 124.127 131.956 124.188 131.904 124.269C131.405 125.044 130.722 125.728 129.856 126.319C127.865 127.684 125.338 128.151 122.942 128.311C121.623 128.399 120.058 128.455 118.246 128.478C118.048 128.48 117.848 128.486 117.646 128.494C114.263 128.626 111.867 128.631 110.46 128.508C109.751 128.446 109.213 128.415 108.844 128.415C107.983 128.413 106.742 128.24 105.122 127.895C104.022 127.661 103.048 127.212 102.203 126.549C101.53 126.021 101.318 125.519 100.944 124.91C100.933 124.894 100.918 124.882 100.9 124.875C100.882 124.869 100.862 124.869 100.845 124.876C100.791 124.896 100.762 124.939 100.758 125.004ZM62.9909 72.6917L56.7236 72.7018C56.9863 72.7194 57.1904 72.6802 57.3358 72.5841C57.344 72.5792 57.3503 72.5717 57.3537 72.5627C57.3571 72.5538 57.3574 72.544 57.3546 72.5349C57.3519 72.5258 57.3461 72.5178 57.3383 72.5124C57.3305 72.507 57.3211 72.5043 57.3116 72.5049C54.7187 72.5495 52.6431 72.5786 51.0847 72.5922C50.7857 72.5962 50.3615 72.6896 49.9857 72.6937C47.2945 72.7181 44.573 73.0409 42.086 73.4185C40.141 73.7123 38.1119 74.1867 35.9985 74.8418C32.3618 75.9686 29.6505 78.1939 28.4302 81.8445C27.952 83.2738 27.655 84.666 27.5392 86.0209C27.2321 89.5984 27.4483 93.2002 28.3675 96.735C28.3714 96.7499 28.3786 96.7636 28.3886 96.7752C28.3986 96.7868 28.4112 96.7958 28.4252 96.8017C28.4393 96.8076 28.4546 96.8102 28.4698 96.8092C28.485 96.8082 28.4998 96.8036 28.513 96.796C28.5521 96.7743 28.5743 96.7344 28.5797 96.6762L28.6969 96.8772C28.6993 96.8816 28.7028 96.8854 28.7071 96.8882C28.7113 96.891 28.7161 96.8928 28.7211 96.8934C28.7588 96.8975 28.7898 96.8799 28.814 96.8406C28.8666 96.8921 28.9292 96.8873 29.0019 96.8264C29.0348 96.8 29.0581 96.7645 29.0686 96.7249C29.8444 93.9616 31.5092 91.7688 34.5721 93.7789C35.8032 94.5869 36.7568 95.7111 37.433 97.1513C37.4413 97.1679 37.4546 97.1814 37.4711 97.1899C37.4875 97.1984 37.5062 97.2013 37.5245 97.1984C37.5427 97.1955 37.5596 97.1867 37.5725 97.1735C37.5855 97.1603 37.594 97.1433 37.5967 97.1249L37.6108 97.0071C37.6579 97.175 37.7273 97.2548 37.8189 97.2467C37.8348 97.2448 37.8497 97.2377 37.8617 97.2264C37.8736 97.2151 37.882 97.2002 37.8856 97.1838C38.1873 95.6745 38.6904 94.3589 39.3948 93.2368C40.5161 91.448 42.8678 91.4805 44.5306 92.4348C45.6688 93.0858 46.6709 93.9562 47.537 95.0458C48.9849 96.8718 50.2194 98.959 51.2403 101.307C51.2565 101.345 51.2794 101.368 51.309 101.374C51.3413 101.383 51.3777 101.38 51.4181 101.366C51.4127 101.408 51.4464 101.43 51.5191 101.431C51.5416 101.431 51.5635 101.424 51.5811 101.41C51.5987 101.396 51.6111 101.376 51.6161 101.354C51.9192 100.025 52.3509 98.7343 52.9112 97.4822C53.6224 95.8965 54.9194 94.5321 56.5539 94.0367C57.853 93.6428 59.6411 93.6225 60.9947 94.1585C62.2716 94.6648 63.3788 95.3246 64.3162 96.1381C65.3897 97.0694 66.2882 98.0013 67.0115 98.9339C68.1577 100.412 68.9389 102.094 69.3551 103.979C69.3577 103.99 69.3622 103.999 69.3685 104.008C69.3747 104.016 69.3825 104.023 69.3915 104.028C69.444 104.059 69.4958 104.046 69.547 103.989C69.5982 104.073 69.6635 104.087 69.743 104.03C69.743 104.073 69.7605 104.101 69.7955 104.113C69.8109 104.119 69.8273 104.121 69.8436 104.12C69.8598 104.118 69.8756 104.113 69.8898 104.105C69.904 104.097 69.9163 104.086 69.9259 104.073C69.9354 104.059 69.9419 104.044 69.945 104.028C70.2299 102.45 70.6764 101.131 71.2684 99.4923C72.0483 97.3381 73.2423 95.0438 74.8505 93.4093C77.4568 90.7591 80.7312 89.5402 84.6737 89.7527C87.6692 89.9137 90.3307 90.9039 92.6582 92.7231C93.2421 93.1799 93.6179 93.7159 94.0887 94.124C94.3675 94.3649 94.6456 94.6695 94.9231 95.0377C95.3137 95.5588 95.548 95.8816 95.6262 96.0062C97.788 99.476 99.1719 103.498 99.8892 107.494C100.059 108.436 100.245 109.516 100.449 110.734C100.46 110.801 100.499 110.826 100.568 110.811C100.625 110.798 100.639 110.757 100.61 110.688L100.697 110.805C100.703 110.813 100.71 110.82 100.718 110.825C100.726 110.83 100.736 110.833 100.745 110.834C100.755 110.835 100.764 110.834 100.773 110.831C100.783 110.829 100.791 110.824 100.798 110.818L100.845 110.777C100.896 110.816 100.933 110.832 100.956 110.824C101.026 110.802 101.066 110.751 101.077 110.671C101.458 107.635 102.178 104.648 103.237 101.709C103.993 99.6114 105.006 97.6507 106.278 95.8275C107.991 93.3728 110.286 91.6307 113.096 90.7191C114.03 90.4159 114.837 90.2102 115.519 90.1019C115.721 90.0694 116.302 89.999 117.262 89.8907C117.865 89.8231 118.445 89.8095 119.004 89.8501C123.336 90.1669 126.667 92.5769 128.736 96.2843C129.852 98.2849 130.742 100.608 131.407 103.254C131.448 103.42 131.469 103.553 131.472 103.654C131.475 103.848 131.595 103.962 131.833 103.996C131.978 104.016 132.073 103.939 132.12 103.764C132.595 101.953 133.634 100.172 134.702 98.8568C135.047 98.4317 135.727 97.715 136.741 96.7066C137.557 95.8945 138.711 95.1372 139.582 94.7148C141.152 93.9541 142.793 93.7443 144.503 94.0854C146.219 94.4286 147.496 95.4437 148.33 96.9097C148.994 98.0764 149.461 99.3413 149.732 100.704C149.751 100.792 149.808 100.826 149.904 100.806C149.932 100.8 149.951 100.781 149.96 100.747C150.001 100.866 150.071 100.937 150.171 100.96C150.146 100.92 150.142 100.937 150.158 101.013C150.163 101.033 150.173 101.051 150.188 101.064C150.203 101.078 150.221 101.087 150.241 101.089C150.261 101.092 150.282 101.088 150.299 101.078C150.317 101.068 150.331 101.053 150.34 101.035C151.198 99.3122 152.161 97.6968 153.229 96.1889C153.472 95.8464 153.776 95.4898 154.143 95.1189C155.357 93.8966 156.381 92.8754 158.056 92.4023C158.655 92.2317 159.2 92.181 159.691 92.25C160.31 92.3353 160.811 92.5546 161.192 92.9078C162.341 93.9697 162.889 95.7361 163.299 97.336C163.315 97.3956 163.356 97.4172 163.42 97.401C163.451 97.3942 163.481 97.3733 163.509 97.3381L163.566 97.4111C163.574 97.4221 163.586 97.4306 163.599 97.4358C163.611 97.4409 163.625 97.4426 163.639 97.4405C163.653 97.4384 163.666 97.4327 163.677 97.424C163.688 97.4153 163.696 97.4039 163.701 97.3908C164.199 96.0941 164.966 95.0404 166 94.2296C167.992 92.6662 170.318 92.1769 171.77 94.7169C172.123 95.3341 172.385 95.9655 172.554 96.6112C172.572 96.6748 172.599 96.7174 172.635 96.7391C172.676 96.7635 172.727 96.7784 172.791 96.7838C172.816 96.8217 172.847 96.8393 172.884 96.8366C172.967 96.8298 173.02 96.7878 173.041 96.7107C173.942 93.4351 174.305 90.152 174.128 86.8615C174.092 86.1657 174.005 85.4104 173.868 84.5956C173.482 82.283 172.793 80.2121 171.322 78.4071C169.96 76.7381 168.025 75.6661 165.992 74.9311C164.02 74.2164 161.983 73.7143 159.88 73.4246C157.038 73.0348 153.798 72.7641 150.16 72.6125C147.383 72.4974 143.354 72.4575 138.072 72.4927C135.498 72.5089 133.054 72.6267 130.74 72.846C126.917 73.2074 124.485 73.47 123.445 73.6337C120.123 74.1576 116.735 74.7044 113.28 75.2743C112.634 75.3812 111.986 75.4814 111.337 75.5748C110.806 75.6492 110.152 75.7081 109.375 75.7514C107.887 75.8353 106.398 75.9883 104.91 76.2103C103.28 76.4133 101.595 76.4282 99.8548 76.2549L99.8912 76.1798C99.8968 76.1678 99.8993 76.1546 99.8985 76.1414C99.8977 76.1282 99.8937 76.1153 99.8867 76.1039C99.8798 76.0925 99.8701 76.0829 99.8585 76.076C99.847 76.069 99.8339 76.0649 99.8205 76.0641C97.6358 75.968 95.7279 75.8624 94.0967 75.7473C92.2218 75.6147 89.8856 75.3101 87.088 74.8337C82.8506 74.1149 78.8031 73.5464 74.9455 73.1282C72.9675 72.913 71.6078 72.848 69.5046 72.6896C67.268 72.5211 65.1628 72.5556 63.001 72.4866C62.9877 72.4863 62.9744 72.4892 62.9625 72.495C62.9505 72.5008 62.9401 72.5093 62.9321 72.5199C62.9242 72.5305 62.919 72.5427 62.9169 72.5557C62.9148 72.5686 62.9159 72.5818 62.9202 72.5942C62.9296 72.624 62.9532 72.6565 62.9909 72.6917ZM83.3705 90.4227C83.0419 90.4795 82.7422 90.5195 82.4714 90.5425C80.0692 90.7455 77.7518 91.7769 75.9981 93.4479C75.322 94.0922 74.8808 94.5511 74.6748 94.8245C72.7695 97.3482 71.4644 100.493 70.7593 103.525C70.1976 105.941 69.803 108.346 69.5753 110.74C69.4204 112.375 69.3241 113.631 69.2864 114.507C69.2042 116.417 69.2649 118.441 69.4682 120.581C69.5625 121.567 69.6945 122.326 69.8642 122.858C70.7189 125.552 73.0241 126.776 75.6607 127.176C76.6911 127.332 78.0347 127.525 79.2328 127.509C79.5008 127.505 80.8632 127.527 83.32 127.574C83.9685 127.586 84.6575 127.706 85.205 127.712C87.3157 127.739 89.1892 127.74 90.8257 127.716C91.838 127.702 92.9431 127.519 93.7896 127.468C95.0975 127.391 96.3252 127.107 97.4728 126.616C98.8871 126.009 99.7255 125.17 99.9801 123.66C100.386 121.258 100.49 118.761 100.293 116.168C100.259 115.717 100.15 115.331 100.166 114.878C100.188 114.145 100.041 113.483 99.9579 112.718C99.7302 110.574 99.3006 108.191 98.6689 105.569C98.4749 104.766 98.2338 103.919 97.9456 103.027C97.6412 102.086 97.3469 101.255 97.0627 100.532C96.0262 97.8923 94.4927 95.2326 92.3127 93.4743C89.662 91.3363 86.9042 90.7069 83.5624 90.4146C83.4994 90.4092 83.4349 90.4119 83.3705 90.4227ZM125.518 93.2753C124.565 92.581 124.004 92.185 123.833 92.0876C121.86 90.9601 119.748 90.4714 117.499 90.6217C116.72 90.6745 115.811 90.8227 114.771 91.0663C111.112 91.9258 108.301 93.9582 106.34 97.1634C104.97 99.4009 103.906 101.831 103.146 104.452C102.24 107.586 101.648 110.713 101.37 113.833C101.169 116.103 101.097 118.387 101.152 120.687C101.175 121.658 101.275 122.657 101.453 123.686C101.664 124.908 102.32 125.814 103.421 126.405C104.63 127.054 105.963 127.424 107.419 127.513C108.502 127.578 109.702 127.736 110.725 127.732C112.854 127.724 114.836 127.722 116.671 127.724C118.027 127.727 120.333 127.626 123.59 127.422C125.013 127.332 126.265 127.105 127.346 126.74C129.536 125.998 131.395 124.354 131.692 122.072C131.886 120.596 131.995 119.694 132.019 119.363C132.161 117.485 132.174 115.187 132.058 112.47C132.029 111.804 131.886 111.163 131.858 110.426C131.848 110.179 131.786 109.67 131.672 108.899C131.42 107.207 131.26 106.188 131.193 105.841C130.65 103.077 129.905 100.604 128.958 98.4223C128.468 97.2947 127.775 96.1063 126.877 94.857C126.502 94.3352 125.984 93.8783 125.657 93.4175C125.62 93.3624 125.573 93.3143 125.518 93.2753ZM50.8463 119.753C50.4867 118.268 50.2712 116.785 50.1998 115.303C50.1533 114.32 50.0786 113.544 50.0927 112.46C50.1224 110.326 50.4322 107.342 51.0221 103.51C51.0598 103.265 50.9952 102.964 50.8282 102.607C49.9123 100.637 48.9586 98.8669 47.9673 97.2954C47.6238 96.7513 47.0635 96.0021 46.2863 95.0478C45.9025 94.5788 45.4762 94.3067 44.8418 93.8032C44.1804 93.278 43.3527 92.9572 42.3587 92.8408C41.3957 92.7298 40.6501 93.1082 40.1221 93.9758C39.7288 94.6215 39.4163 95.3294 39.1847 96.0995C38.6284 97.958 38.2526 99.8334 38.0573 101.726C37.8937 103.319 37.6896 104.698 37.6957 106.166C37.7091 109.151 37.7206 110.741 37.73 110.937C37.8418 113.364 38.1469 115.747 38.6452 118.084C39.2635 120.986 40.3161 123.389 43.7508 123.389C46.0904 123.389 49.3311 122.441 50.7332 120.372C50.7942 120.283 50.8358 120.182 50.8553 120.075C50.8748 119.968 50.8717 119.859 50.8463 119.753ZM163.418 110.943L163.442 105.244C163.57 104.094 163.531 102.812 163.323 101.399C162.945 98.8324 162.535 96.3087 161.268 94.2905C160.68 93.3525 159.895 92.9451 158.915 93.0682C157.47 93.2489 155.912 94.2134 154.9 95.3605C153.068 97.4335 151.611 100.103 150.367 102.743C150.315 102.851 150.299 102.973 150.32 103.09C150.684 105.073 150.954 107.029 151.132 108.958C151.208 109.778 151.254 111.502 151.272 114.131C151.278 115.114 151.104 116.113 151.027 117.166C150.957 118.114 150.784 119.118 150.508 120.179C150.483 120.276 150.482 120.377 150.507 120.474C150.532 120.57 150.581 120.659 150.649 120.732C152.17 122.342 154.045 123.274 156.274 123.528C157.038 123.615 157.662 123.767 158.222 123.556C158.301 123.526 158.384 123.508 158.47 123.501C159.463 123.431 160.33 123.01 161.073 122.24C161.385 121.917 161.69 121.377 161.988 120.62C162.303 119.82 162.506 119.22 162.598 118.821C163.029 116.953 163.36 114.987 163.592 112.921C163.673 112.202 163.615 111.543 163.418 110.943ZM35.1237 95.2062C34.9984 95.1399 34.7627 94.9612 34.4166 94.6702C34.1822 94.4726 33.7384 94.2438 33.0851 93.9839C32.3457 93.6875 31.4345 94.124 30.9617 94.7819C29.4686 96.8589 29.105 99.5329 28.6948 102.572C28.5507 103.644 28.4638 104.66 28.4342 105.62C28.3803 107.388 28.3568 108.408 28.3635 108.682C28.3985 110.009 28.5689 111.41 28.8747 112.882C29.6141 116.454 31.7214 119.503 35.5278 119.993C36.4316 120.109 37.2135 119.9 37.8734 119.365C37.9736 119.284 38.0458 119.173 38.0799 119.048C38.1139 118.923 38.1082 118.79 38.0634 118.669C37.965 118.401 37.8903 118.124 37.8391 117.838C37.4175 115.491 37.1326 113.141 36.9845 110.787C36.9212 109.766 36.9171 108.747 36.9724 107.727C37.0491 106.333 37.0969 105.411 37.1158 104.962C37.1805 103.349 37.3226 101.722 37.5421 100.081C37.6014 99.633 37.5866 99.298 37.4977 99.076C36.9441 97.694 36.1777 96.4244 35.1985 95.2671C35.1771 95.2429 35.1518 95.2223 35.1237 95.2062ZM163.317 119.382C163.317 119.438 163.33 119.493 163.356 119.543C163.381 119.593 163.418 119.636 163.463 119.67C164.004 120.072 164.477 120.218 165.164 120.188C165.185 120.188 165.418 120.186 165.863 120.184C167.794 120.177 169.797 118.689 170.807 117.183C171.712 115.83 172.328 114.265 172.655 112.486C173.038 110.41 173.154 108.186 173.003 105.813C172.836 103.192 172.571 101.001 172.209 99.2385C171.939 97.9282 171.619 96.8663 171.247 96.0528C170.928 95.3571 170.662 94.901 170.449 94.6844C169.336 93.5535 168.008 94.2032 166.829 94.9524C165.471 95.8153 164.473 97.7441 163.905 99.2324C163.831 99.4269 163.806 99.6363 163.832 99.8415C164.271 103.259 164.457 106.682 164.39 110.109C164.368 111.185 164.186 112.145 164.174 113.221C164.162 114.302 163.882 116.272 163.333 119.134C163.321 119.196 163.316 119.279 163.317 119.382ZM68.854 122.977C68.8959 122.945 68.9286 122.901 68.9488 122.852C68.969 122.802 68.976 122.748 68.9692 122.695C68.5611 119.54 68.5975 117.095 68.6338 113.459C68.6352 113.261 68.6837 112.597 68.7793 111.467C68.9308 109.67 69.2298 108.135 69.0379 106.501C68.8668 105.054 68.5975 103.808 68.2297 102.763C67.6169 101.024 66.6478 99.4787 65.3224 98.1279C65.2052 98.0087 64.8483 97.6304 64.2516 96.9929C64.1965 96.9321 64.1356 96.877 64.0698 96.8284C63.2064 96.176 62.6764 95.7916 62.4797 95.6752C60.827 94.7027 58.6673 94.1423 56.8974 94.6803C54.9679 95.2671 53.7597 97.1736 53.1112 98.9948C52.3879 101.029 51.8444 103.167 51.4807 105.407C51.4309 105.717 51.3413 106.28 51.212 107.096C51.0443 108.15 51.0282 109.096 50.9413 110.33C50.8133 112.141 50.808 113.969 50.9251 115.812C50.9602 116.375 51.0955 117.3 51.3312 118.586C51.4929 119.464 51.734 120.145 52.0545 120.628C52.5435 121.365 53.0216 121.906 53.489 122.252C54.51 123.013 55.667 123.522 56.96 123.779C57.8355 123.954 58.6639 124.058 59.4451 124.092C61.4116 124.179 63.3128 124.138 65.1487 123.97C65.9137 123.901 66.7569 123.756 67.6782 123.536C68.12 123.429 68.5119 123.243 68.854 122.977ZM132.985 117.897C133.147 118.567 133.108 119.207 132.868 119.816L132.357 122.78C132.343 122.863 132.356 122.947 132.395 123.021C132.434 123.095 132.496 123.154 132.571 123.188C133.265 123.511 133.995 123.733 134.761 123.854C137.848 124.348 140.796 124.407 143.604 124.029C144.644 123.89 145.582 123.633 146.419 123.26C148.279 122.429 149.55 121.006 150.011 118.957C150.423 117.122 150.47 115.717 150.625 113.642C150.659 113.199 150.649 112.701 150.597 112.147C150.488 110.984 150.441 109.754 150.383 109.063C150.314 108.257 150.075 106.45 149.665 103.644C149.564 102.942 149.385 102.165 149.128 101.313C148.732 100.006 148.497 99.2446 148.423 99.0293C148.128 98.1793 147.679 97.3232 147.075 96.4609C145.728 94.5382 143.182 94.3616 141.152 94.9889C138.287 95.8742 135.945 98.2253 134.345 100.731C133.191 102.54 132.615 104.361 132.375 106.45C132.301 107.1 132.326 108.032 132.452 109.246C132.744 112.08 132.922 114.964 132.985 117.897Z" fill="#787B83"/>
<path d="M137.233 70.8776C140.404 70.7775 143.89 70.7927 147.692 70.9245L149.696 70.9362C150.43 70.9428 151.215 70.9712 151.918 71.0807L152.28 71.0827C152.446 71.0775 152.672 71.0691 152.875 71.0827C155.492 71.2595 158.023 71.5153 160.467 71.8503C163.626 72.2819 167.225 73.2398 169.862 75.0065C172.87 77.0221 174.646 80.0224 175.207 83.942V83.944C175.447 85.6258 175.562 87.2477 175.551 88.8092C175.546 89.5424 175.508 90.2033 175.436 90.7878C175.376 91.2698 175.348 91.6575 175.315 92.0553C175.282 92.4525 175.245 92.8553 175.17 93.3405C174.876 95.2566 174.402 97.141 173.75 98.9909C173.694 99.1526 173.677 99.326 173.7 99.4967L173.971 101.665C174.054 102.387 174.129 103.111 174.196 103.835L174.25 104.549C174.361 106.221 174.336 107.932 174.313 109.569C174.289 111.354 174.032 113.069 173.541 114.71L173.317 115.409C172.353 118.214 170.067 120.667 167.1 121.456C165.865 121.784 164.465 121.715 163.27 121.165C162.693 122.653 161.676 123.924 160.043 124.542C159.29 124.827 158.306 124.958 157.125 124.965C155.4 124.977 153.778 124.599 152.266 123.837L151.623 123.487C151.015 123.127 150.481 122.605 150.055 122.143C150.029 122.173 149.999 122.206 149.965 122.247H149.963C148.546 123.953 146.522 124.788 144.475 125.19C141.433 125.79 138.28 125.857 135.022 125.395C134.119 125.266 133.22 125.036 132.325 124.71C131.785 125.511 131.071 126.21 130.192 126.811C128.067 128.268 125.409 128.746 122.981 128.909C121.648 128.998 120.071 129.054 118.252 129.077L117.668 129.092C114.285 129.225 111.856 129.231 110.407 129.104C109.703 129.042 109.184 129.012 108.842 129.012H108.84C107.916 129.011 106.625 128.828 104.995 128.481V128.479C103.81 128.227 102.751 127.742 101.83 127.02C101.262 126.574 100.959 126.118 100.705 125.69C99.8961 127.001 98.5969 127.781 97.2016 128.223L96.5414 128.407C95.5019 128.659 94.4693 128.826 93.4438 128.907V128.909C91.7167 129.044 89.5221 129.165 86.8637 129.278H86.8598C83.7559 129.395 80.6316 129.338 77.4868 129.106C75.5603 128.964 73.7498 128.51 72.0629 127.739C70.7406 127.134 69.6804 126.168 68.8735 124.872C67.9746 125.233 67.0008 125.469 65.9535 125.579C62.7419 125.917 59.4397 125.982 56.2348 125.214C54.2886 124.747 52.4743 123.804 51.1293 122.169C51.1248 122.169 51.1202 122.171 51.1157 122.171C51.1124 122.17 51.1091 122.169 51.1059 122.169C50.9465 122.33 50.7822 122.485 50.602 122.622H50.6C48.7033 124.054 46.4371 124.757 43.8325 124.755L43.3071 124.745C42.1982 124.704 41.2233 124.454 40.4086 123.967L40.0688 123.745C39.5692 123.386 39.1552 122.949 38.8305 122.436V122.438C38.5996 122.075 38.3538 121.618 38.0903 121.077C35.8634 121.808 33.7482 121.489 31.8012 120.124C31.5283 119.933 31.3183 119.785 31.1703 119.682C31.0964 119.631 31.0385 119.59 30.9965 119.561C30.9755 119.547 30.958 119.536 30.9457 119.528C30.9332 119.519 30.9282 119.516 30.9282 119.516V119.514C30.8326 119.454 30.7453 119.381 30.6684 119.299H30.6664C28.9726 117.487 27.9174 115.484 27.5336 113.296V113.294C27.0565 110.585 26.9067 108.04 27.0903 105.663C27.2047 104.168 27.281 103.181 27.3188 102.704C27.385 101.849 27.5082 100.844 27.686 99.6881V99.6862C27.7293 99.4112 27.7183 99.2169 27.6313 98.9694L27.3012 98.0163C27.2149 97.7577 27.1522 97.5594 27.1157 97.4245V97.4225C26.6578 95.7152 26.3389 93.8638 26.1586 91.8698L26.0903 91.0065C25.9576 89.0644 25.9846 87.2823 26.1743 85.6647C26.6819 81.3422 27.941 77.6445 31.7426 75.1549C33.7166 73.8636 36.3262 73.0094 38.6664 72.4635C39.2191 72.3348 40.1735 72.1521 41.516 71.9167C42.3764 71.7664 43.3367 71.6362 44.395 71.5241C46.7083 71.2794 48.3192 71.1378 49.2114 71.1003V71.0983C50.3118 71.0495 50.9991 71.0137 51.2836 70.9928L52.434 70.9225C52.7889 70.9053 53.1162 70.8947 53.4145 70.8913C57.3774 70.8453 60.0301 70.8233 61.3676 70.8288C69.8138 70.8573 78.1374 71.584 86.477 73.0436C88.8423 73.4578 91.02 73.7894 93.0102 74.0397L93.9086 74.1432C94.7771 74.234 95.556 74.2866 96.2446 74.3014C97.3241 74.3247 98.4324 74.3772 99.5688 74.4577L100.674 74.5163C101.816 74.5592 103.066 74.5522 104.424 74.4928C106.254 74.4135 108.182 74.2736 110.207 74.0729L111.43 73.9362C112.722 73.7757 114.222 73.5443 115.932 73.2409C118.935 72.7083 122.202 72.2191 125.733 71.7741C129.001 71.3632 132.388 71.082 135.893 70.9284L137.233 70.8776ZM117.538 91.2194C116.801 91.2694 115.925 91.4104 114.907 91.6491C111.403 92.472 108.727 94.4069 106.85 97.4753C105.677 99.3916 104.732 101.454 104.014 103.663L103.721 104.618C102.825 107.715 102.241 110.804 101.967 113.883C101.769 116.131 101.696 118.393 101.75 120.671V120.673C101.773 121.611 101.87 122.581 102.043 123.583C102.223 124.621 102.765 125.37 103.704 125.874C104.832 126.48 106.079 126.828 107.454 126.913C108.607 126.982 109.717 127.135 110.721 127.132C112.851 127.123 114.835 127.121 116.67 127.124C118.005 127.126 120.295 127.025 123.551 126.821L124.553 126.731C125.521 126.616 126.387 126.429 127.153 126.171C129.212 125.474 130.839 123.97 131.096 121.993L131.323 120.215C131.376 119.771 131.409 119.474 131.42 119.319V119.317C131.559 117.47 131.573 115.197 131.457 112.495C131.445 112.192 131.405 111.891 131.362 111.549C131.319 111.215 131.272 110.846 131.256 110.448C131.248 110.24 131.192 109.763 131.077 108.985C130.824 107.289 130.666 106.287 130.602 105.956L130.393 104.946C129.881 102.624 129.218 100.53 128.407 98.6608L128.016 97.8366C127.731 97.2789 127.395 96.7034 127.008 96.11L126.389 95.2057C126.225 94.9782 126.026 94.759 125.805 94.5182C125.595 94.2892 125.356 94.0311 125.166 93.7643L125.163 93.7585C124.678 93.4052 124.305 93.1359 124.036 92.946L123.534 92.6081C121.896 91.6724 120.165 91.2016 118.33 91.194L117.538 91.2194ZM83.4692 91.0104L83.4711 91.0124C83.1291 91.0715 82.8112 91.1146 82.52 91.1393C80.2526 91.3311 78.0641 92.3059 76.4106 93.8815C75.7313 94.5288 75.3251 94.9556 75.1528 95.1842C73.3087 97.627 72.0327 100.691 71.3422 103.659C70.7864 106.05 70.3954 108.429 70.1703 110.796C70.0157 112.428 69.9222 113.672 69.8852 114.532C69.8044 116.411 69.8639 118.407 70.0649 120.522L70.1391 121.202C70.2211 121.833 70.3212 122.321 70.434 122.674L70.5922 123.108C71.4496 125.202 73.3876 126.222 75.7485 126.581C76.7836 126.738 78.0813 126.922 79.2231 126.907L83.3305 126.973C83.6825 126.98 84.0401 127.016 84.3578 127.048C84.6874 127.081 84.968 127.107 85.2094 127.11H85.2114C87.3177 127.137 89.1853 127.138 90.8149 127.114C91.2916 127.107 91.7986 127.062 92.3051 127.008C92.8003 126.956 93.3111 126.894 93.7524 126.868C94.9944 126.795 96.1541 126.526 97.2348 126.063L97.6938 125.844C98.1215 125.618 98.4542 125.368 98.7094 125.079C99.0437 124.7 99.2758 124.219 99.3871 123.559C99.7343 121.503 99.8567 119.371 99.7524 117.163L99.6938 116.212C99.6786 116.012 99.6483 115.837 99.6157 115.606C99.5847 115.387 99.5549 115.136 99.5649 114.856C99.585 114.178 99.4517 113.631 99.3598 112.782V112.78C99.1355 110.668 98.7113 108.312 98.0844 105.71L97.7641 104.495C97.6456 104.078 97.5156 103.649 97.3735 103.21C97.072 102.278 96.7809 101.459 96.5024 100.751C95.4841 98.1575 93.9991 95.6057 91.934 93.9401C89.4178 91.9107 86.7989 91.2983 83.5082 91.0104C83.4975 91.0096 83.4841 91.008 83.4692 91.0104ZM100.715 122.799C100.672 123.121 100.624 123.441 100.571 123.758C100.535 123.972 100.486 124.175 100.428 124.37C100.46 124.366 100.492 124.364 100.522 124.364C100.558 124.343 100.595 124.327 100.631 124.313L100.637 124.311L100.75 124.28C100.824 124.267 100.898 124.265 100.971 124.276C100.927 124.118 100.889 123.956 100.86 123.788V123.786C100.803 123.455 100.757 123.125 100.715 122.799ZM69.3813 123.286C69.3351 123.346 69.2815 123.401 69.2211 123.448V123.45C69.1764 123.485 69.1265 123.513 69.0805 123.546C69.1098 123.546 69.1392 123.546 69.1684 123.549L69.2973 123.579L69.4184 123.633C69.472 123.663 69.519 123.702 69.5629 123.745C69.4972 123.597 69.4379 123.444 69.3813 123.286ZM146.582 96.8034C145.455 95.195 143.25 94.9669 141.327 95.5612C138.652 96.3879 136.41 98.6085 134.85 101.051C133.752 102.773 133.201 104.506 132.969 106.518C132.919 106.957 132.918 107.561 132.973 108.342L133.047 109.182L133.247 111.331C133.422 113.47 133.534 115.637 133.582 117.831C133.745 118.562 133.703 119.275 133.45 119.96L132.975 122.708C133.572 122.969 134.197 123.156 134.854 123.26L135.985 123.423C138.609 123.754 141.12 123.755 143.522 123.432H143.524C144.514 123.299 145.396 123.057 146.172 122.71C147.875 121.95 149.009 120.673 149.424 118.825C149.824 117.044 149.868 115.695 150.026 113.596V113.594C150.056 113.193 150.049 112.729 149.998 112.202C149.943 111.61 149.902 111.004 149.87 110.464C149.837 109.917 149.812 109.448 149.784 109.112C149.75 108.719 149.674 108.076 149.555 107.18L149.071 103.729C148.975 103.063 148.802 102.314 148.551 101.485V101.483C148.155 100.174 147.924 99.4292 147.854 99.2253L147.622 98.6296C147.36 98.0306 147.015 97.4217 146.582 96.8034ZM131.95 123.436C131.937 123.469 131.926 123.502 131.913 123.534C131.919 123.531 131.925 123.528 131.932 123.526C131.958 123.517 131.986 123.513 132.012 123.507C131.991 123.483 131.969 123.461 131.95 123.436ZM62.1723 96.1881C60.5993 95.2632 58.6186 94.7823 57.0707 95.2526C55.4216 95.7541 54.3039 97.4261 53.6742 99.194C53.0525 100.943 52.5653 102.771 52.2133 104.678L52.0707 105.501C52.021 105.81 51.9324 106.372 51.8032 107.188C51.641 108.207 51.6271 109.1 51.5375 110.372C51.4116 112.155 51.4065 113.955 51.5219 115.772V115.774C51.5545 116.298 51.685 117.191 51.9203 118.475C52.0744 119.313 52.2949 119.906 52.5532 120.296C53.021 121 53.4541 121.479 53.8442 121.768L53.8461 121.77C54.793 122.476 55.8679 122.95 57.0766 123.19C57.9257 123.359 58.723 123.459 59.4692 123.491C61.4104 123.576 63.2851 123.537 65.0922 123.372H65.0942C65.642 123.322 66.2368 123.231 66.8793 123.098L67.5375 122.95C67.8435 122.876 68.1119 122.754 68.352 122.592C67.9618 119.475 67.996 117.015 68.0317 113.452C68.0335 113.223 68.0859 112.528 68.1801 111.415C68.3386 109.536 68.6221 108.125 68.4399 106.571L68.2973 105.548C68.1368 104.567 67.9243 103.706 67.6625 102.962C67.1526 101.514 66.3837 100.208 65.352 99.0397L64.893 98.5475C64.7692 98.4217 64.4067 98.0355 63.8129 97.401L63.8051 97.3952C63.7766 97.3637 63.7452 97.3342 63.7114 97.3092L63.7075 97.3053C62.831 96.643 62.3325 96.2849 62.1723 96.1901V96.1881ZM158.989 93.6628H158.987C157.88 93.8015 156.645 94.4833 155.723 95.3659L155.348 95.7565C153.575 97.7624 152.148 100.367 150.911 102.991C151.185 104.487 151.407 105.969 151.577 107.436L151.729 108.901L151.782 109.708C151.828 110.682 151.856 112.158 151.87 114.126C151.873 114.651 151.829 115.173 151.776 115.682C151.722 116.201 151.661 116.695 151.623 117.21C151.551 118.196 151.369 119.233 151.086 120.321C152.419 121.731 154.034 122.581 155.952 122.878L156.34 122.93L157.366 123.053C157.647 123.073 157.844 123.055 158.008 122.993H158.01C158.143 122.943 158.282 122.912 158.422 122.901H158.426C159.259 122.842 159.991 122.495 160.639 121.823L160.819 121.602C161.005 121.34 161.212 120.949 161.428 120.399L161.807 119.376C161.904 119.091 161.972 118.861 162.012 118.684C162.437 116.841 162.765 114.896 162.995 112.852C163.067 112.207 163.012 111.636 162.846 111.13C162.826 111.069 162.817 111.004 162.817 110.94L162.84 105.241L162.844 105.176C162.965 104.087 162.93 102.858 162.729 101.485C162.348 98.8976 161.947 96.5021 160.758 94.6081C160.507 94.2076 160.237 93.9566 159.961 93.8131C159.69 93.6721 159.373 93.6146 158.989 93.6628ZM42.2875 93.4362C41.9046 93.3922 41.5996 93.4474 41.3481 93.5749C41.0944 93.7036 40.8516 93.9271 40.6332 94.2858C40.2683 94.8849 39.9761 95.5462 39.7582 96.2702C39.2808 97.8651 38.939 99.4719 38.7328 101.09L38.6528 101.786C38.4856 103.414 38.2875 104.737 38.2934 106.163L38.3285 110.907V110.909C38.4389 113.303 38.7395 115.653 39.2309 117.958C39.5368 119.393 39.9325 120.602 40.6098 121.45C41.2552 122.257 42.1973 122.788 43.7485 122.788C44.8456 122.788 46.1682 122.565 47.3754 122.096C48.5885 121.626 49.6267 120.931 50.2348 120.034H50.2367C50.2505 120.014 50.2596 119.99 50.2641 119.965C50.2684 119.942 50.2677 119.917 50.2621 119.893C49.8939 118.373 49.6714 116.852 49.5981 115.331V115.329C49.553 114.376 49.4763 113.559 49.4907 112.452V112.45C49.5209 110.274 49.8369 107.259 50.4282 103.419C50.44 103.342 50.4273 103.168 50.2836 102.86L50.2817 102.858C49.3749 100.908 48.433 99.1604 47.4575 97.6139C47.1336 97.101 46.5914 96.3732 45.8188 95.4245V95.4225C45.49 95.0219 45.1544 94.8175 44.4672 94.2721C43.9782 93.8838 43.3681 93.6149 42.6176 93.4831L42.2875 93.4362ZM51.227 120.706C51.1947 120.753 51.1573 120.798 51.1235 120.844C51.13 120.845 51.1364 120.847 51.143 120.848C51.2686 120.823 51.3913 120.837 51.5024 120.878C51.4364 120.772 51.3735 120.661 51.3149 120.544C51.2874 120.599 51.2618 120.655 51.227 120.706ZM149.936 120.86C149.96 120.857 149.985 120.852 150.01 120.85C149.999 120.828 149.989 120.805 149.979 120.782C149.965 120.808 149.95 120.834 149.936 120.86ZM162.873 119.95C162.883 119.947 162.893 119.943 162.903 119.94C162.897 119.932 162.891 119.923 162.885 119.915C162.881 119.926 162.878 119.938 162.873 119.95ZM38.4223 119.651C38.3703 119.715 38.315 119.776 38.2504 119.829V119.831C38.2439 119.836 38.2354 119.839 38.2289 119.844C38.3213 119.849 38.4117 119.87 38.5004 119.899C38.4735 119.817 38.4476 119.734 38.4223 119.651ZM170.02 95.1042C169.618 94.6959 169.216 94.6195 168.772 94.7018C168.401 94.7706 168.004 94.9525 167.581 95.196L167.149 95.4577C166.576 95.8219 166.044 96.4367 165.577 97.1764C165.114 97.9095 164.737 98.7255 164.463 99.444C164.424 99.5466 164.412 99.658 164.426 99.7643C164.814 102.78 165.006 105.8 165.002 108.823L164.989 110.12C164.977 110.685 164.923 111.217 164.873 111.721C164.824 112.232 164.778 112.718 164.772 113.227C164.759 114.368 164.468 116.389 163.92 119.245V119.247C163.92 119.247 163.919 119.248 163.918 119.251C164.304 119.516 164.627 119.609 165.135 119.587H165.215C165.247 119.586 165.292 119.585 165.35 119.585C165.466 119.584 165.636 119.584 165.858 119.583H165.86C166.677 119.58 167.549 119.261 168.354 118.741C169.055 118.288 169.673 117.701 170.123 117.104L170.307 116.846C171.161 115.57 171.749 114.082 172.063 112.376C172.435 110.354 172.551 108.179 172.403 105.85C172.237 103.246 171.974 101.084 171.62 99.3581C171.421 98.3935 171.197 97.5819 170.952 96.9167L170.7 96.3014C170.459 95.7765 170.27 95.4401 170.135 95.2487L170.02 95.1042ZM32.8598 94.5397C32.6692 94.4635 32.4223 94.4678 32.1489 94.5788C31.8745 94.6904 31.6183 94.8941 31.4477 95.1315C30.406 96.5808 29.9461 98.3546 29.6059 100.45L29.2875 102.651C29.1458 103.705 29.0606 104.701 29.0317 105.637C28.9775 107.414 28.9552 108.411 28.9614 108.665L29.0121 109.645C29.087 110.64 29.2369 111.677 29.4614 112.758V112.76C30.1731 116.196 32.1506 118.953 35.602 119.397C36.3563 119.494 36.972 119.32 37.4946 118.897C37.4966 118.895 37.4994 118.893 37.5004 118.889C37.5016 118.885 37.5 118.88 37.4985 118.876V118.874C37.3881 118.573 37.3037 118.263 37.2465 117.944L36.9535 116.165C36.6861 114.386 36.4954 112.605 36.3832 110.823C36.3185 109.779 36.3151 108.736 36.3715 107.694C36.4483 106.3 36.4954 105.381 36.5141 104.936L36.5785 103.71C36.657 102.481 36.7793 101.244 36.9457 100.001L36.9731 99.7233C36.986 99.4838 36.9621 99.3531 36.9399 99.2975C36.4164 97.9906 35.6919 96.7895 34.768 95.6901C34.5802 95.5756 34.324 95.375 34.0297 95.1276H34.0278C33.8743 94.9983 33.512 94.7984 32.8618 94.5397H32.8598ZM100.399 111.397C100.457 111.824 100.51 112.243 100.553 112.653L100.696 113.733C100.714 113.881 100.726 114.031 100.739 114.182C100.75 114.048 100.758 113.912 100.77 113.778H100.772C100.842 112.99 100.93 112.201 101.039 111.413C100.977 111.423 100.919 111.425 100.868 111.419C100.803 111.43 100.738 111.436 100.672 111.428C100.645 111.425 100.619 111.415 100.592 111.409C100.535 111.414 100.47 111.411 100.399 111.397ZM138.075 73.0905C135.516 73.1066 133.09 73.2246 130.795 73.442C126.967 73.8039 124.556 74.065 123.538 74.2253C120.218 74.7488 116.831 75.2963 113.377 75.8659C112.727 75.9735 112.074 76.0727 111.42 76.1667H111.418C110.866 76.2442 110.194 76.3044 109.407 76.3483C107.937 76.4312 106.467 76.5821 104.997 76.8014L104.983 76.8053V76.8034C103.306 77.0123 101.575 77.0277 99.7934 76.8503C99.6384 76.8347 99.4983 76.7592 99.3989 76.6432C97.3741 76.5517 95.5919 76.4529 94.0532 76.3444C92.1515 76.2099 89.793 75.9027 86.9848 75.4245V75.4225C82.7585 74.7057 78.7233 74.1401 74.8793 73.7233C72.9145 73.5095 71.576 73.4453 69.4575 73.2858C67.3862 73.1298 65.4611 73.1459 63.4262 73.0924C63.315 73.2132 63.1612 73.2893 62.9907 73.2897L56.9516 73.2995C56.8999 73.3023 56.8485 73.3004 56.7973 73.2995L56.7231 73.3014V73.2995C56.7094 73.2988 56.6957 73.3004 56.6821 73.2995C56.5285 73.2892 56.3932 73.2204 56.2934 73.1178C54.1736 73.1528 52.4391 73.1764 51.0903 73.1881L51.0922 73.1901C50.9853 73.1915 50.8447 73.2107 50.6391 73.237C50.4522 73.2609 50.2185 73.2892 49.9907 73.2917H49.9887C48.0014 73.3097 45.9917 73.4936 44.0668 73.7428L42.1742 74.0104C40.2625 74.2991 38.2623 74.7655 36.1743 75.4128C32.6838 76.4943 30.1458 78.6015 28.9985 82.0338C28.5338 83.4229 28.2466 84.7682 28.1352 86.071C27.857 89.3118 28.0168 92.5639 28.7465 95.7604C29.1528 94.6346 29.747 93.5933 30.6118 92.9733C31.1632 92.578 31.8162 92.3609 32.561 92.403C33.2947 92.4445 34.0739 92.7348 34.8989 93.276H34.9008C35.9813 93.9854 36.8546 94.9214 37.5317 96.0671C37.85 94.9019 38.2992 93.85 38.8852 92.9167L39.1547 92.5397C39.8216 91.7184 40.7439 91.3077 41.6977 91.2096C42.7733 91.0993 43.9021 91.3811 44.8285 91.9128H44.8266C46.0346 92.6038 47.094 93.5254 48.0043 94.6706L48.0063 94.6725C49.2779 96.2763 50.3832 98.0741 51.3285 100.061C51.6055 99.099 51.9495 98.1562 52.3617 97.235C53.1248 95.5338 54.5373 94.0197 56.3774 93.4616L56.9282 93.321C58.2611 93.0375 59.9018 93.081 61.2133 93.6003H61.2153C62.5479 94.1287 63.714 94.8222 64.7075 95.6842C65.8048 96.6362 66.7331 97.5959 67.4848 98.5651C68.4417 99.7991 69.149 101.17 69.6196 102.671C69.8993 101.549 70.2673 100.493 70.7035 99.2858C71.4992 97.0883 72.7292 94.7058 74.4203 92.987C77.1554 90.2058 80.6017 88.9321 84.7035 89.153C87.8196 89.3205 90.6 90.3528 93.0258 92.2487C93.3568 92.5077 93.6247 92.786 93.8539 93.0319C94.0921 93.2873 94.2763 93.4913 94.4809 93.6686H94.4789C94.7966 93.9431 95.1039 94.2806 95.4008 94.6745V94.6764C95.7848 95.1887 96.0387 95.5355 96.1332 95.6862V95.6881C98.3426 99.2343 99.751 103.33 100.479 107.385L100.735 108.876C101.154 106.385 101.797 103.928 102.67 101.505C103.444 99.3572 104.482 97.3496 105.784 95.4831C107.568 92.9264 109.969 91.101 112.909 90.1471C113.86 89.8381 114.7 89.6233 115.422 89.5085L117.194 89.2936L117.666 89.2506C118.137 89.2183 118.596 89.2181 119.045 89.2506C123.603 89.5839 127.104 92.1297 129.258 95.9909C130.333 97.9188 131.195 100.13 131.856 102.616C132.424 101.064 133.321 99.6026 134.235 98.4772L134.573 98.0846C134.972 97.6388 135.557 97.0353 136.317 96.2799L136.659 95.9596C137.487 95.221 138.514 94.5647 139.319 94.1745C140.796 93.4591 142.338 93.1945 143.932 93.3854L144.62 93.4948V93.4967C146.522 93.8773 147.938 95.0103 148.85 96.612C149.453 97.671 149.899 98.806 150.192 100.014C150.963 98.5452 151.81 97.1521 152.739 95.8405C153.004 95.4662 153.33 95.0844 153.713 94.696L153.715 94.694C154.92 93.4816 156.045 92.3443 157.891 91.8229L158.379 91.7057C158.863 91.6122 159.328 91.5926 159.772 91.6549H159.77C160.485 91.7534 161.108 92.0136 161.596 92.4655H161.598C162.627 93.4164 163.201 94.8359 163.598 96.1706C164.109 95.2229 164.786 94.4162 165.627 93.7565L166.028 93.4596C166.976 92.7949 168.033 92.3329 169.086 92.3327C170.348 92.3325 171.475 92.9939 172.289 94.4186C172.468 94.7316 172.624 95.0497 172.76 95.3717C173.423 92.5487 173.679 89.7232 173.528 86.8932V86.8913C173.502 86.3897 173.447 85.8528 173.366 85.2799L173.274 84.694C172.897 82.4384 172.237 80.4783 170.856 78.7838V78.7858C169.59 77.2343 167.767 76.2107 165.788 75.4948H165.786C164.095 74.8822 162.356 74.4274 160.567 74.1335L159.797 74.0182C156.978 73.6315 153.757 73.3626 150.133 73.2116C147.371 73.0972 143.353 73.0553 138.075 73.0905ZM69.3442 104.633C69.4423 105.123 69.5268 105.639 69.5961 106.18C69.6842 105.692 69.7815 105.203 69.8832 104.714C69.7834 104.721 69.6825 104.711 69.5883 104.676V104.674C69.5686 104.667 69.5493 104.658 69.5297 104.649C69.5237 104.648 69.5162 104.65 69.5102 104.649C69.5013 104.647 69.4934 104.641 69.4848 104.639C69.4363 104.642 69.3896 104.64 69.3442 104.633ZM131.528 104.534C131.615 104.925 131.701 105.321 131.78 105.723V105.725C131.793 105.795 131.806 105.892 131.827 106.012C131.894 105.519 131.979 105.038 132.088 104.567C131.972 104.597 131.856 104.604 131.748 104.589C131.678 104.579 131.604 104.559 131.528 104.534ZM51.3715 102.352H51.3696C51.3968 102.41 51.4179 102.471 51.4418 102.53C51.4821 102.361 51.5224 102.192 51.5649 102.024C51.5481 102.025 51.531 102.03 51.5141 102.03H51.5063C51.4495 102.029 51.3319 102.019 51.2035 101.962C51.1958 101.96 51.1879 101.959 51.1801 101.958C51.2424 102.089 51.3096 102.219 51.3715 102.352ZM149.813 101.528C149.874 101.743 149.926 101.954 149.977 102.161C150.053 102.002 150.13 101.843 150.207 101.684C150.194 101.683 150.18 101.686 150.166 101.684C150.035 101.668 149.914 101.611 149.813 101.528ZM163.418 98.0006C163.389 98.0022 163.359 98.003 163.327 98.0006C163.379 98.2276 163.429 98.4552 163.475 98.6842C163.563 98.4684 163.66 98.246 163.764 98.0202C163.751 98.0228 163.74 98.03 163.727 98.0319C163.623 98.0475 163.518 98.0331 163.418 98.0006ZM38.1157 97.7682C38.0458 97.8042 37.9703 97.8307 37.8891 97.8405L37.8696 97.8424C37.7659 97.8515 37.6716 97.8335 37.5844 97.8053C37.7102 98.0587 37.825 98.3175 37.936 98.5788C37.9921 98.3082 38.0522 98.0381 38.1157 97.7682ZM28.3637 97.3991C28.4467 97.6579 28.5733 98.0377 28.7524 98.5436C28.8376 98.1735 28.9299 97.8095 29.0375 97.4538C29.0075 97.4601 28.9767 97.4708 28.9438 97.4733C28.926 97.4746 28.9084 97.4694 28.891 97.4694C28.8118 97.4887 28.7319 97.4972 28.6547 97.4889L28.6469 97.487C28.5596 97.4763 28.4777 97.4454 28.4028 97.401C28.3897 97.3999 28.3766 97.4009 28.3637 97.3991ZM172.329 97.2546C172.445 97.6378 172.551 98.0499 172.653 98.4889C172.777 98.1327 172.894 97.7753 173.004 97.4167C172.979 97.4211 172.954 97.4323 172.93 97.4342H172.815C172.705 97.4251 172.609 97.3888 172.528 97.3405C172.462 97.3209 172.395 97.2937 172.329 97.2546ZM28.3657 96.4421C28.3514 96.4564 28.3408 96.4719 28.3305 96.485C28.3415 96.47 28.3534 96.4559 28.3657 96.4421ZM29.2328 96.4108C29.2137 96.392 29.1894 96.3737 29.1625 96.3561C29.1863 96.3734 29.2115 96.3899 29.2328 96.4108ZM100.534 75.7096C101.651 75.792 102.743 75.7906 103.809 75.7116C102.641 75.7492 101.549 75.7505 100.534 75.7096ZM63.4887 72.4108L62.9985 72.5651V72.5671L63.4887 72.4108ZM63.4301 72.2917L63.4282 72.2878L63.3989 72.2526C63.4111 72.2641 63.419 72.2794 63.4301 72.2917ZM61.3618 72.0299C60.5905 72.0268 59.3747 72.0314 57.7133 72.0456C57.7339 72.0621 57.7536 72.0795 57.7719 72.0983L62.5141 72.0905C62.5307 72.0738 62.5448 72.0546 62.5629 72.0397C62.1635 72.0352 61.7637 72.0313 61.3637 72.0299H61.3618Z" fill="#787B83"/>
<path d="M99.853 76.2527C95.2001 76.135 92.4422 75.9319 88.7106 75.3208C85.9252 74.8646 83.3081 74.4545 80.8594 74.0904C74.9316 73.2092 68.9748 72.7422 62.9891 72.6895C62.9514 72.6543 62.9278 72.6218 62.9184 72.592C62.9141 72.5796 62.913 72.5664 62.9151 72.5535C62.9172 72.5405 62.9224 72.5283 62.9303 72.5177C62.9383 72.5072 62.9487 72.4986 62.9606 72.4928C62.9726 72.487 62.9859 72.4841 62.9992 72.4844C65.161 72.5534 67.2662 72.5189 69.5028 72.6874C71.606 72.8458 72.9657 72.9108 74.9437 73.126C78.8013 73.5442 82.8488 74.1127 87.0862 74.8315C89.8838 75.3079 92.22 75.6125 94.0949 75.7451C95.7261 75.8602 97.634 75.9658 99.8187 76.0619C99.8321 76.0628 99.8452 76.0668 99.8567 76.0738C99.8683 76.0807 99.8779 76.0903 99.8849 76.1017C99.8919 76.1131 99.8959 76.126 99.8967 76.1392C99.8975 76.1524 99.895 76.1656 99.8894 76.1776L99.853 76.2527Z" fill="#787B83"/>
<path d="M172.787 96.7839C173.644 93.7452 174.03 90.6462 173.945 87.487C173.895 85.6339 173.591 83.8235 173.034 82.0558C172.094 79.0752 169.942 76.9088 167.063 75.6318C164.526 74.509 161.602 73.8308 159.095 73.5405C156.652 73.2583 153.371 72.9334 150.603 72.836C146.891 72.7047 143.274 72.6485 139.752 72.6674C133.804 72.7013 127.792 73.1892 121.716 74.1313C121.278 74.199 118.153 74.7188 112.341 75.6906C110.359 76.0209 107.88 76.1942 104.906 76.2104C106.395 75.9884 107.883 75.8355 109.371 75.7515C110.148 75.7082 110.802 75.6493 111.333 75.5749C111.982 75.4815 112.63 75.3813 113.277 75.2744C116.732 74.7046 120.12 74.1577 123.441 73.6339C124.481 73.4701 126.913 73.2075 130.737 72.8461C133.051 72.6268 135.495 72.5091 138.069 72.4928C143.35 72.4576 147.379 72.4976 150.157 72.6126C153.795 72.7642 157.035 73.0349 159.877 73.4248C161.979 73.7144 164.017 74.2166 165.989 74.9313C168.021 75.6663 169.957 76.7383 171.318 78.4072C172.789 80.2122 173.478 82.2832 173.864 84.5957C174.001 85.4106 174.088 86.1659 174.125 86.8616C174.301 90.1521 173.939 93.4352 173.038 96.7108C173.016 96.788 172.964 96.8299 172.88 96.8367C172.844 96.8394 172.813 96.8218 172.787 96.7839Z" fill="#787B83"/>
<path d="M56.7217 72.7009C54.1625 72.7442 51.6013 72.8227 49.0381 72.9364C44.6337 73.1334 39.904 73.777 35.8571 75.1049C31.5517 76.52 28.9777 79.3463 28.0968 83.8536C27.2624 88.1275 27.5574 92.7202 28.5777 96.6753C28.5723 96.7335 28.5501 96.7734 28.511 96.7951C28.4978 96.8028 28.483 96.8073 28.4678 96.8083C28.4526 96.8093 28.4373 96.8067 28.4233 96.8008C28.4092 96.795 28.3966 96.7859 28.3866 96.7743C28.3766 96.7627 28.3694 96.749 28.3655 96.7342C27.4463 93.1993 27.2301 89.5975 27.5372 86.02C27.653 84.6651 27.95 83.2729 28.4282 81.8436C29.6485 78.193 32.3598 75.9678 35.9965 74.8409C38.1099 74.1858 40.139 73.7114 42.084 73.4176C44.5711 73.04 47.2925 72.7172 49.9837 72.6928C50.3595 72.6887 50.7837 72.5953 51.0828 72.5913C52.6412 72.5777 54.7168 72.5486 57.3096 72.504C57.3191 72.5034 57.3285 72.5061 57.3363 72.5115C57.3441 72.517 57.3499 72.5249 57.3527 72.534C57.3555 72.5431 57.3551 72.5529 57.3517 72.5619C57.3483 72.5708 57.342 72.5783 57.3338 72.5832C57.1884 72.6793 56.9843 72.7185 56.7217 72.7009Z" fill="#787B83"/>
<path d="M100.61 110.687C100.638 110.756 100.624 110.797 100.567 110.811C100.499 110.825 100.459 110.8 100.448 110.733C100.245 109.515 100.058 108.435 99.8884 107.493C99.1711 103.497 97.7872 99.4751 95.6253 96.0052C95.5472 95.8807 95.3129 95.5579 94.9223 95.0368C94.6448 94.6686 94.3666 94.364 94.0878 94.1231C93.6171 93.715 93.2413 93.179 92.6574 92.7222C90.3299 90.903 87.6684 89.9128 84.6728 89.7518C80.7304 89.5393 77.456 90.7581 74.8497 93.4084C73.2415 95.0429 72.0474 97.3372 71.2676 99.4914C70.6756 101.13 70.2291 102.45 69.9442 104.027C69.9411 104.043 69.9346 104.059 69.925 104.072C69.9155 104.085 69.9032 104.096 69.889 104.104C69.8748 104.112 69.859 104.117 69.8427 104.119C69.8265 104.12 69.8101 104.118 69.7947 104.112C69.7597 104.1 69.7422 104.072 69.7422 104.029C70.3052 100.976 71.3161 98.2183 72.7748 95.7575C75.575 91.0309 80.4482 88.9031 85.8224 89.6442C89.4106 90.1382 92.3267 91.6718 94.5707 94.2449C95.721 95.562 96.7231 97.2174 97.577 99.2112C99.1502 102.878 100.161 106.703 100.61 110.687Z" fill="#787B83"/>
<path d="M149.959 100.746C149.95 100.78 149.931 100.799 149.903 100.805C149.807 100.825 149.75 100.791 149.731 100.703C149.46 99.3404 148.993 98.0754 148.329 96.9087C147.494 95.4428 146.218 94.4276 144.502 94.0845C142.792 93.7434 141.151 93.9532 139.581 94.7139C138.71 95.1362 137.556 95.8935 136.74 96.7056C135.726 97.714 135.046 98.4308 134.701 98.8558C133.633 100.171 132.594 101.952 132.119 103.763C132.072 103.938 131.977 104.015 131.832 103.995C131.594 103.961 131.473 103.847 131.471 103.653C131.468 103.552 131.447 103.419 131.406 103.254C130.741 100.607 129.85 98.2839 128.735 96.2833C126.666 92.5759 123.335 90.1659 119.003 89.8492C118.444 89.8085 117.863 89.8221 117.261 89.8898C116.301 89.998 115.72 90.0684 115.518 90.1009C114.836 90.2092 114.029 90.4149 113.095 90.7181C110.285 91.6298 107.99 93.3718 106.277 95.8265C105.005 97.6498 103.992 99.6104 103.236 101.708C102.177 104.647 101.457 107.634 101.076 110.67C101.065 110.75 101.025 110.801 100.955 110.823C100.932 110.831 100.895 110.815 100.844 110.776C101.225 107.429 102.023 104.185 103.238 101.044C104.258 98.405 105.816 95.5646 107.792 93.6439C109.818 91.6744 112.359 90.419 115.415 89.8776C116.28 89.7246 117.025 89.636 117.651 89.6116C122.834 89.4147 126.85 92.1292 129.188 96.6366C130.256 98.6981 131.067 100.913 131.62 103.28C131.658 103.444 131.685 103.618 131.701 103.802C131.703 103.82 131.711 103.837 131.724 103.85C131.736 103.863 131.753 103.871 131.771 103.873C131.789 103.875 131.808 103.87 131.823 103.86C131.838 103.85 131.849 103.835 131.855 103.818C132.617 101.296 133.974 99.0676 135.926 97.132C138.564 94.5169 141.73 92.8602 145.373 94.0804C148.113 95.0001 149.454 98.0822 149.959 100.746Z" fill="#787B83"/>
<path d="M83.5615 90.4128C86.9032 90.7052 89.6611 91.3346 92.3118 93.4726C94.4918 95.2309 96.0253 97.8906 97.0617 100.53C97.3459 101.253 97.6402 102.085 97.9446 103.025C98.2329 103.917 98.474 104.765 98.6679 105.567C99.2996 108.189 99.7293 110.572 99.9569 112.716C100.04 113.482 100.187 114.144 100.165 114.877C100.149 115.329 100.258 115.715 100.292 116.166C100.489 118.759 100.385 121.257 99.9792 123.658C99.7246 125.168 98.8861 126.007 97.4719 126.614C96.3243 127.105 95.0966 127.39 93.7887 127.467C92.9422 127.517 91.837 127.7 90.8248 127.714C89.1883 127.739 87.3147 127.737 85.2041 127.71C84.6566 127.704 83.9676 127.584 83.3191 127.572C80.8623 127.525 79.4999 127.503 79.2318 127.507C78.0337 127.524 76.6902 127.331 75.6598 127.174C73.0232 126.774 70.7179 125.55 69.8633 122.856C69.6936 122.324 69.5616 121.565 69.4673 120.58C69.2639 118.44 69.2033 116.415 69.2855 114.505C69.3232 113.629 69.4195 112.374 69.5744 110.739C69.802 108.344 70.1967 105.939 70.7583 103.523C71.4634 100.491 72.7686 97.3465 74.6738 94.8228C74.8799 94.5493 75.321 94.0905 75.9972 93.4462C77.7509 91.7752 80.0683 90.7438 82.4705 90.5408C82.7412 90.5177 83.0409 90.4778 83.3696 90.421C83.434 90.4102 83.4984 90.4075 83.5615 90.4128ZM70.1421 122.98C71.3766 126.843 75.9386 127.15 79.2601 127.276C82.4159 127.395 86.2325 127.448 90.7096 127.436C92.1818 127.432 93.6836 127.301 95.2151 127.042C97.1304 126.72 99.3488 125.926 99.7185 123.798C100.171 121.195 100.151 118.706 99.9893 115.849C99.7926 112.331 99.2639 108.849 98.4033 105.403C97.7392 102.743 96.76 100.205 95.4656 97.7891C93.5018 94.1223 90.0773 91.56 85.9678 90.9225C82.8645 90.4413 79.8985 90.8616 77.3912 92.5833C74.1566 94.8045 72.2372 98.8266 71.2372 102.579C70.4196 105.649 69.8997 108.91 69.6774 112.363C69.4835 115.357 69.4882 118.082 69.6916 120.539C69.7683 121.465 69.9185 122.278 70.1421 122.98Z" fill="#787B83"/>
<path d="M125.656 93.416C125.983 93.8769 126.5 94.3338 126.876 94.8556C127.773 96.1049 128.467 97.2933 128.957 98.4209C129.904 100.603 130.649 103.076 131.192 105.84C131.259 106.186 131.419 107.205 131.671 108.897C131.785 109.669 131.847 110.178 131.857 110.424C131.885 111.161 132.028 111.803 132.057 112.469C132.172 115.185 132.16 117.483 132.018 119.362C131.994 119.692 131.885 120.595 131.691 122.07C131.394 124.352 129.535 125.997 127.345 126.738C126.263 127.104 125.011 127.331 123.589 127.42C120.332 127.625 118.026 127.726 116.669 127.723C114.835 127.72 112.853 127.723 110.723 127.731C109.701 127.735 108.501 127.577 107.418 127.512C105.962 127.422 104.629 127.053 103.42 126.403C102.319 125.813 101.663 124.907 101.452 123.684C101.274 122.656 101.174 121.656 101.151 120.686C101.095 118.386 101.168 116.101 101.369 113.831C101.646 110.711 102.238 107.584 103.145 104.451C103.904 101.829 104.969 99.3995 106.339 97.162C108.3 93.9568 111.111 91.9244 114.77 91.0649C115.81 90.8213 116.719 90.673 117.498 90.6202C119.747 90.47 121.858 90.9586 123.832 92.0862C124.003 92.1836 124.564 92.5795 125.517 93.2739C125.571 93.3129 125.619 93.361 125.656 93.416ZM102.258 125.177C103.543 126.704 105.517 127.065 107.43 127.284C108.191 127.371 109.335 127.433 110.861 127.471C112.865 127.521 116.384 127.471 121.419 127.321C121.865 127.307 122.807 127.239 124.246 127.116C127.46 126.838 130.893 125.583 131.471 121.951C131.658 120.773 131.78 119.557 131.838 118.304C132.067 113.312 131.613 108.399 130.475 103.566C129.883 101.051 128.948 98.7092 127.668 96.5407C125.753 93.2983 122.969 91.2415 119.175 90.8558C117.894 90.7258 116.316 90.9715 115.049 91.2375C111.454 91.9941 108.677 93.9054 106.717 96.9712C103.583 101.872 102.215 107.663 101.634 113.63C101.374 116.29 101.298 118.793 101.407 121.14C101.444 121.94 101.524 124.304 102.258 125.177Z" fill="#787B83"/>
<path d="M163.509 97.3363C163.481 97.3715 163.451 97.3924 163.42 97.3992C163.355 97.4155 163.315 97.3938 163.299 97.3342C162.889 95.7343 162.341 93.9679 161.191 92.9061C160.81 92.5528 160.31 92.3335 159.69 92.2482C159.2 92.1792 158.655 92.2299 158.056 92.4005C156.381 92.8736 155.357 93.8948 154.142 95.1171C153.776 95.488 153.472 95.8446 153.229 96.1871C152.161 97.695 151.198 99.3104 150.34 101.034C150.331 101.052 150.317 101.067 150.299 101.076C150.281 101.086 150.261 101.09 150.241 101.087C150.221 101.085 150.202 101.076 150.188 101.063C150.173 101.049 150.162 101.031 150.158 101.011C150.142 100.935 150.146 100.918 150.17 100.958C151.125 98.8604 152.321 96.9295 153.758 95.1658C154.713 93.9936 155.791 93.1172 156.991 92.5365C158.797 91.6635 160.814 91.7427 162.016 93.4969C162.684 94.4742 163.182 95.754 163.509 97.3363Z" fill="#787B83"/>
<path d="M37.6093 97.0052L37.5951 97.1229C37.5924 97.1413 37.584 97.1583 37.571 97.1716C37.558 97.1848 37.5412 97.1935 37.5229 97.1964C37.5047 97.1994 37.486 97.1964 37.4695 97.1879C37.4531 97.1795 37.4397 97.1659 37.4315 97.1493C36.7553 95.7091 35.8017 94.585 34.5706 93.7769C31.5077 91.7669 29.8429 93.9596 29.0671 96.7229C29.0566 96.7625 29.0332 96.7981 29.0004 96.8245C28.9277 96.8854 28.865 96.8901 28.8125 96.8387C29.4267 94.2946 31.1642 91.5252 34.2312 93.3262C35.7384 94.2114 36.8644 95.4377 37.6093 97.0052Z" fill="#787B83"/>
<path d="M50.8461 119.751C50.8715 119.857 50.8746 119.967 50.8551 120.073C50.8356 120.18 50.794 120.281 50.733 120.371C49.3308 122.44 46.0901 123.388 43.7505 123.388C40.3159 123.388 39.2633 120.984 38.645 118.083C38.1467 115.745 37.8416 113.363 37.7298 110.936C37.7204 110.739 37.7089 109.149 37.6954 106.164C37.6894 104.696 37.8934 103.318 38.0571 101.724C38.2524 99.8317 38.6282 97.9564 39.1845 96.0979C39.4161 95.3277 39.7286 94.6198 40.1219 93.9742C40.6499 93.1065 41.3954 92.7282 42.3585 92.8392C43.3525 92.9556 44.1802 93.2764 44.8415 93.8016C45.4759 94.3051 45.9022 94.5772 46.2861 95.0462C47.0633 96.0005 47.6236 96.7496 47.9671 97.2938C48.9584 98.8653 49.912 100.636 50.8279 102.605C50.995 102.963 51.0596 103.264 51.0219 103.509C50.432 107.341 50.1222 110.324 50.0925 112.458C50.0784 113.543 50.1531 114.318 50.1996 115.301C50.271 116.783 50.4865 118.267 50.8461 119.751ZM50.8118 103.125C49.5645 100.281 48.0782 97.7493 46.3528 95.5294C45.2719 94.1406 41.815 91.6068 40.3199 94.0615C39.9024 94.7477 39.5764 95.5017 39.3421 96.3233C38.9016 97.8718 38.5763 99.4656 38.3662 101.105C37.6449 106.735 37.6752 112.836 38.944 118.348C39.4229 120.43 40.1482 122.494 42.3666 122.992C45.0759 123.597 48.7672 122.48 50.5592 120.267C50.5975 120.22 50.6244 120.164 50.6377 120.105C50.651 120.046 50.6504 119.985 50.636 119.926C50.0272 117.399 49.7753 114.774 49.8804 112.052C49.9275 110.826 50.0292 109.431 50.1855 107.866C50.335 106.366 50.5539 104.874 50.8421 103.391C50.8592 103.301 50.8486 103.208 50.8118 103.125Z" fill="#787B83"/>
<path d="M163.444 105.244C163.228 102.587 163.02 100.7 162.818 99.5837C162.516 97.9066 161.587 93.1637 159.256 93.2612C156.821 93.3627 154.732 95.6306 153.469 97.5676C152.388 99.2284 151.421 100.985 150.568 102.836C150.542 102.893 150.533 102.957 150.544 103.021C150.883 104.9 151.15 106.829 151.344 108.81C151.52 110.617 151.555 112.697 151.449 115.051C151.361 116.978 151.124 118.695 150.736 120.202C150.718 120.272 150.717 120.346 150.735 120.416C150.752 120.486 150.786 120.551 150.835 120.604C152.833 122.805 155.821 123.67 158.684 123.235C159.787 123.067 160.779 122.452 161.292 121.516C161.723 120.728 162.013 120.069 162.163 119.54C162.912 116.887 163.331 114.022 163.42 110.944C163.616 111.543 163.674 112.202 163.593 112.921C163.362 114.987 163.03 116.953 162.599 118.821C162.508 119.221 162.304 119.82 161.989 120.62C161.691 121.377 161.386 121.917 161.074 122.24C160.332 123.011 159.464 123.431 158.472 123.501C158.386 123.508 158.302 123.526 158.223 123.556C157.664 123.767 157.039 123.615 156.276 123.528C154.046 123.274 152.171 122.343 150.651 120.732C150.582 120.659 150.533 120.57 150.508 120.474C150.484 120.377 150.484 120.276 150.509 120.18C150.785 119.118 150.959 118.114 151.029 117.167C151.105 116.113 151.279 115.114 151.273 114.131C151.256 111.503 151.209 109.778 151.134 108.958C150.956 107.029 150.685 105.073 150.321 103.09C150.3 102.973 150.317 102.851 150.368 102.743C151.612 100.103 153.069 97.4336 154.902 95.3606C155.914 94.2134 157.472 93.249 158.916 93.0683C159.897 92.9451 160.681 93.3526 161.27 94.2906C162.537 96.3088 162.947 98.8325 163.325 101.399C163.532 102.812 163.572 104.094 163.444 105.244Z" fill="#787B83"/>
<path d="M69.5435 103.988C69.4924 104.044 69.4405 104.057 69.388 104.026C69.379 104.021 69.3712 104.014 69.365 104.006C69.3587 103.997 69.3542 103.988 69.3516 103.977C68.9354 102.092 68.1542 100.41 67.008 98.9321C66.2847 97.9995 65.3863 97.0675 64.3128 96.1363C63.3753 95.3228 62.2681 94.6629 60.9913 94.1567C59.6376 93.6207 57.8496 93.641 56.5504 94.0349C54.916 94.5303 53.6189 95.8947 52.9077 97.4804C52.3474 98.7324 51.9157 100.023 51.6126 101.352C51.6076 101.374 51.5952 101.394 51.5776 101.408C51.56 101.422 51.5381 101.43 51.5156 101.429C51.4429 101.428 51.4092 101.406 51.4146 101.364C51.7783 99.3679 52.439 97.6259 53.3966 96.1383C53.8047 95.5062 54.3967 94.9296 55.1725 94.4085C57.0454 93.1537 59.9083 93.2735 61.8095 94.2481C65.0744 95.9197 67.4336 98.4049 68.8869 101.703C69.163 102.33 69.3819 103.092 69.5435 103.988Z" fill="#787B83"/>
<path d="M35.1955 95.2646C36.1747 96.4219 36.9411 97.6915 37.4947 99.0735C37.5836 99.2955 37.5984 99.6305 37.5391 100.079C37.3196 101.719 37.1775 103.346 37.1128 104.959C37.0939 105.409 37.0461 106.331 36.9694 107.725C36.9141 108.744 36.9182 109.764 36.9815 110.785C37.1296 113.138 37.4145 115.489 37.8361 117.836C37.8873 118.122 37.962 118.398 38.0604 118.666C38.1052 118.788 38.1109 118.92 38.0769 119.045C38.0428 119.17 37.9706 119.281 37.8705 119.363C37.2105 119.897 36.4286 120.107 35.5248 119.99C31.7184 119.501 29.6111 116.451 28.8717 112.88C28.5659 111.407 28.3955 110.007 28.3605 108.679C28.3538 108.406 28.3773 107.385 28.4312 105.617C28.4608 104.658 28.5477 103.642 28.6918 102.57C29.102 99.5303 29.4656 96.8564 30.9587 94.7793C31.4315 94.1215 32.3427 93.685 33.0821 93.9814C33.7354 94.2413 34.1792 94.47 34.4136 94.6676C34.7597 94.9587 34.9954 95.1373 35.1207 95.2037C35.1488 95.2198 35.1741 95.2404 35.1955 95.2646ZM37.8401 118.904C37.0825 115.446 36.6643 111.702 36.733 108.054C36.7869 105.264 36.9882 102.507 37.3371 99.7821C37.3701 99.5243 37.3331 99.2619 37.23 99.0227C36.4138 97.1447 35.4318 95.4595 33.5852 94.4301C30.4819 92.7002 29.4515 98.972 29.1808 100.684C28.7269 103.567 28.5437 106.375 28.6312 109.11C28.6689 110.305 28.8299 111.599 29.1141 112.992C29.8051 116.374 32.0901 119.519 35.7026 119.789C36.4744 119.847 37.1458 119.663 37.7169 119.235C37.7668 119.197 37.805 119.146 37.8269 119.088C37.8487 119.029 37.8533 118.965 37.8401 118.904Z" fill="#787B83"/>
<path d="M163.313 119.382C163.311 119.279 163.317 119.196 163.329 119.134C163.877 116.273 164.157 114.302 164.169 113.222C164.181 112.146 164.363 111.185 164.386 110.109C164.453 106.682 164.267 103.259 163.828 99.8417C163.801 99.6365 163.826 99.4272 163.901 99.2326C164.468 97.7443 165.466 95.8155 166.824 94.9526C168.004 94.2034 169.331 93.5537 170.445 94.6846C170.657 94.9012 170.923 95.3573 171.243 96.0531C171.614 96.8666 171.935 97.9284 172.204 99.2387C172.567 101.001 172.831 103.192 172.998 105.813C173.149 108.186 173.033 110.41 172.651 112.487C172.324 114.265 171.707 115.831 170.802 117.183C169.792 118.689 167.79 120.178 165.858 120.184C165.414 120.186 165.181 120.188 165.159 120.188C164.472 120.218 164 120.072 163.458 119.67C163.413 119.637 163.376 119.593 163.351 119.543C163.326 119.493 163.313 119.438 163.313 119.382ZM163.503 119.307C163.493 119.349 163.497 119.393 163.514 119.432C163.531 119.472 163.561 119.506 163.598 119.528C164.375 120.004 165.233 120.154 166.174 119.977C170.887 119.081 172.495 114.087 172.746 109.825C172.858 107.895 172.82 105.962 172.633 104.026C172.362 101.216 172.059 98.6763 171.107 96.2865C170.598 95.0095 169.713 93.8156 168.162 94.4674C165.949 95.3952 165.099 97.0256 164.087 99.3077C164.044 99.4033 164.029 99.5087 164.042 99.6123C164.518 103.349 164.694 107.143 164.571 110.992C164.485 113.75 164.129 116.521 163.503 119.307Z" fill="#787B83"/>
<path d="M68.8489 122.975C68.5067 123.24 68.1148 123.426 67.673 123.533C66.7517 123.754 65.9085 123.899 65.1435 123.968C63.3076 124.136 61.4064 124.176 59.4399 124.09C58.6587 124.056 57.8304 123.951 56.9549 123.777C55.6618 123.52 54.5048 123.011 53.4838 122.25C53.0164 121.903 52.5383 121.362 52.0494 120.626C51.7288 120.142 51.4877 119.462 51.3261 118.583C51.0903 117.297 50.955 116.373 50.92 115.81C50.8028 113.966 50.8082 112.139 50.9361 110.328C51.023 109.093 51.0392 108.147 51.2069 107.093C51.3362 106.277 51.4257 105.714 51.4756 105.404C51.8392 103.164 52.3827 101.027 53.106 98.9924C53.7546 97.1711 54.9628 95.2646 56.8922 94.6779C58.6621 94.1398 60.8219 94.7002 62.4745 95.6727C62.6712 95.7891 63.2012 96.1736 64.0646 96.826C64.1304 96.8746 64.1913 96.9297 64.2464 96.9904C64.8431 97.628 65.2 98.0063 65.3172 98.1254C66.6426 99.4763 67.6117 101.021 68.2246 102.761C68.5923 103.806 68.8617 105.052 69.0327 106.499C69.2247 108.133 68.9256 109.668 68.7741 111.465C68.6785 112.595 68.63 113.259 68.6286 113.457C68.5923 117.093 68.5559 119.537 68.964 122.693C68.9708 122.746 68.9638 122.8 68.9436 122.849C68.9234 122.899 68.8908 122.942 68.8489 122.975ZM68.7418 122.5C68.5559 121.502 68.4502 120.549 68.4246 119.641C68.3256 116.216 68.3539 112.758 68.7175 109.451C68.7862 108.833 68.8913 108.304 68.8731 107.688C68.8064 105.341 68.2872 102.844 67.1113 100.852C65.6789 98.4259 63.1494 95.8595 60.4077 95.0251C56.9528 93.9733 54.7001 95.4799 53.4778 98.6492C51.8796 102.787 51.2715 107.349 51.0755 111.901C50.9907 113.884 51.1132 115.91 51.4432 117.978C51.6089 119.011 51.8372 119.787 52.1282 120.307C53.2555 122.317 55.3931 123.371 57.6398 123.671C60.2016 124.012 62.9453 124.003 65.8708 123.643C66.7234 123.539 67.5821 123.33 68.4468 123.017C68.5491 122.98 68.6349 122.907 68.6889 122.812C68.7429 122.718 68.7616 122.607 68.7418 122.5Z" fill="#787B83"/>
<path d="M132.87 119.816C132.892 120.846 132.793 121.822 132.573 122.744C132.56 122.8 132.566 122.86 132.593 122.913C132.619 122.965 132.663 123.006 132.717 123.03C133.463 123.348 134.227 123.563 135.01 123.675C137.663 124.06 140.426 124.113 143.297 123.836C145.419 123.631 147.54 122.786 148.851 121.073C149.447 120.291 149.746 119.349 149.894 118.439C150.081 117.279 150.182 116.604 150.197 116.415C150.437 113.346 150.344 110.166 149.918 106.872C149.51 103.721 149.007 101.015 147.902 98.3408C147.278 96.8342 146.152 95.413 144.483 95.0394C140.56 94.1643 136.85 97.3763 134.812 100.391C133.448 102.408 132.795 104.369 132.577 106.714C132.525 107.277 132.563 108.063 132.692 109.071C133.061 111.972 133.16 114.914 132.987 117.897C132.924 114.964 132.746 112.08 132.454 109.246C132.329 108.032 132.303 107.1 132.377 106.45C132.618 104.361 133.193 102.54 134.347 100.73C135.947 98.225 138.289 95.8739 141.154 94.9887C143.184 94.3613 145.73 94.5379 147.078 96.4607C147.681 97.3229 148.13 98.179 148.425 99.0291C148.499 99.2443 148.734 100.006 149.13 101.313C149.388 102.165 149.567 102.942 149.668 103.644C150.077 106.45 150.316 108.256 150.385 109.063C150.444 109.753 150.49 110.984 150.599 112.147C150.652 112.701 150.661 113.199 150.627 113.641C150.472 115.716 150.425 117.121 150.013 118.957C149.553 121.006 148.282 122.429 146.421 123.259C145.584 123.633 144.646 123.889 143.607 124.029C140.798 124.406 137.85 124.348 134.763 123.854C133.997 123.732 133.267 123.51 132.573 123.188C132.498 123.153 132.436 123.094 132.397 123.021C132.359 122.947 132.345 122.862 132.359 122.78L132.87 119.816Z" fill="#787B83"/>
<path d="M100.621 124.975C99.7644 127.261 96.7257 128.132 94.6003 128.42C92.033 128.767 89.4449 128.853 86.8359 128.678C89.4907 128.566 91.6768 128.442 93.3941 128.308C94.3868 128.23 95.3882 128.068 96.3984 127.823C98.0814 127.417 99.6088 126.581 100.389 125.031C100.422 124.964 100.5 124.945 100.621 124.975Z" fill="#787B83"/>
</g>
<path opacity="0.7" d="M112 109C112 94.0883 99.9117 82 85 82C70.0883 82 58 94.0883 58 109C58 123.912 70.0883 136 85 136V140C67.8792 140 54 126.121 54 109C54 91.8792 67.8792 78 85 78C102.121 78 116 91.8792 116 109C116 126.121 102.121 140 85 140V136C99.9117 136 112 123.912 112 109Z" fill="#CF1039"/>
<defs>
<filter id="filter0_ng_177_44452" x="62" y="83.9961" width="44" height="50" filterUnits="userSpaceOnUse" color-interpolation-filters="sRGB">
<feFlood flood-opacity="0" result="BackgroundImageFix"/>
<feBlend mode="normal" in="SourceGraphic" in2="BackgroundImageFix" result="shape"/>
<feTurbulence type="fractalNoise" baseFrequency="2 2" stitchTiles="stitch" numOctaves="3" result="noise" seed="454" />
<feColorMatrix in="noise" type="luminanceToAlpha" result="alphaNoise" />
<feComponentTransfer in="alphaNoise" result="coloredNoise1">
<feFuncA type="discrete" tableValues="1 1 1 1 1 1 1 1 1 1 1 1 1 1 1 1 1 1 1 1 1 1 1 1 1 1 1 1 1 1 1 1 1 1 1 1 1 1 1 1 1 1 1 1 1 1 1 1 1 1 1 0 0 0 0 0 0 0 0 0 0 0 0 0 0 0 0 0 0 0 0 0 0 0 0 0 0 0 0 0 0 0 0 0 0 0 0 0 0 0 0 0 0 0 0 0 0 0 0 0 "/>
</feComponentTransfer>
<feComposite operator="in" in2="shape" in="coloredNoise1" result="noise1Clipped" />
<feFlood flood-color="rgba(0, 0, 0, 0.25)" result="color1Flood" />
<feComposite operator="in" in2="noise1Clipped" in="color1Flood" result="color1" />
<feMerge result="effect1_noise_177_44452">
<feMergeNode in="shape" />
<feMergeNode in="color1" />
</feMerge>
<feTurbulence type="fractalNoise" baseFrequency="10 10" numOctaves="3" seed="6446" />
<feDisplacementMap in="effect1_noise_177_44452" scale="4" xChannelSelector="R" yChannelSelector="G" result="displacedImage" width="100%" height="100%" />
<feMerge result="effect2_texture_177_44452">
<feMergeNode in="displacedImage"/>
</feMerge>
</filter>
<linearGradient id="paint0_linear_177_44452" x1="84" y1="89.9961" x2="84" y2="127.996" gradientUnits="userSpaceOnUse">
<stop stop-color="#A9AAAB"/>
<stop offset="0.5" stop-color="#DEDFE1"/>
<stop offset="1" stop-color="#A9AAAB"/>
</linearGradient>
<linearGradient id="paint1_linear_177_44452" x1="84" y1="85.9961" x2="84" y2="131.996" gradientUnits="userSpaceOnUse">
<stop stop-color="#A9AAAB"/>
<stop offset="0.5" stop-color="#DEDFE1"/>
<stop offset="1" stop-color="#A9AAAB"/>
</linearGradient>
</defs>
</svg>
