<svg width="200" height="200" viewBox="0 0 200 200" fill="none" xmlns="http://www.w3.org/2000/svg">
<path d="M200 100C200 155.228 155.228 200 100 200C44.7715 200 0 155.228 0 100C0 44.7715 44.7715 0 100 0C155.228 0 200 44.7715 200 100Z" fill="white"/>
<mask id="mask0_177_26878" style="mask-type:alpha" maskUnits="userSpaceOnUse" x="20" y="54" width="160" height="92">
<path d="M20 54H180V146H20V54Z" fill="#D9D9D9"/>
</mask>
<g mask="url(#mask0_177_26878)">
<path d="M105 87L159 82L161 102L160 120L154 124L136 116L137 129L134 135L118 131L107 133L102 131L105 87Z" fill="white"/>
<path d="M54.0001 84H104L96.0001 106L98.0001 130L96.0001 134H92.0001L80.0001 130L68.0001 134L63.0001 131V120L56.0001 124L47.0001 127L39 123L37 109L40 101V86L54.0001 84Z" fill="white"/>
<path d="M31 75L37 69L48 66H72L100 69L134 66H158L168 72L169 81L167 94L162 101H160L156 89L149 86L141 93L134 105L129 91L119 89L113 91L107 96L102 111L98 110L93 97L85 89H77L70 93L66 106L56 89L48 88L43 91L40 101L36 99L31 88V75Z" fill="#FFDBDF"/>
<mask id="mask1_177_26878" style="mask-type:alpha" maskUnits="userSpaceOnUse" x="20" y="60" width="160" height="80">
<path d="M20 60H180V140H20V60Z" fill="#D9D9D9"/>
</mask>
<g mask="url(#mask1_177_26878)">
<path d="M136.684 117.088C136.695 116.98 136.778 116.941 136.933 116.972C137.329 117.048 137.737 117.15 138.109 117.331C139.889 118.188 141.674 119.181 143.466 120.31C145.489 121.586 147.48 122.674 149.437 123.577C152.832 125.14 156.84 124.994 158.864 121.439C159.568 120.203 160.114 118.894 160.504 117.51C161.177 115.122 161.525 112.692 161.549 110.221C161.573 107.715 161.383 105.296 160.977 102.963C160.967 102.914 160.964 102.863 160.968 102.811C161.077 101.546 162.87 100.273 164.042 99.372C164.442 99.0629 164.897 98.5844 165.406 97.9367C167.39 95.4152 168.47 91.9543 168.892 88.5436C169.215 85.9284 169.351 84.0728 169.302 82.9767C169.272 82.2822 169.428 81.2463 169.348 80.3088C169.332 80.1147 169.308 79.4496 169.276 78.3133C169.181 75.0692 167.903 71.6765 165.406 69.5546C164.261 68.5803 163.201 67.875 162.227 67.4387C160.991 66.8859 159.663 66.4543 158.243 66.1438C156.072 65.6687 154.059 65.383 152.203 65.2866C150.953 65.221 150.188 65.1776 149.91 65.1561C149.132 65.0946 148.367 65.0658 147.612 65.0698C142.595 65.0939 138.808 65.0979 136.25 65.0819C134.927 65.0738 133.579 65.2043 132.137 65.2505C131.171 65.2813 130.146 65.3435 129.062 65.4372C126.099 65.6921 124.853 65.7664 122.082 66.1599C120.814 66.3392 119.379 66.5641 117.776 66.8344C115.851 67.1569 113.592 67.5116 111.001 67.8984C108.164 68.3226 105.48 68.5829 102.951 68.6793C98.7672 68.8386 94.6032 68.6713 90.4586 68.1774C89.3639 68.0463 87.1871 67.707 83.9282 67.1596C78.431 66.2382 73.601 65.5878 68.7911 65.3248C64.3451 65.0799 59.5754 64.9982 54.4821 65.0799C52.9907 65.1039 51.6883 65.2445 50.219 65.2605C48.4321 65.2806 46.6975 65.4773 44.7358 65.7343C42.3372 66.0475 40.0901 66.6772 37.9943 67.6234C36.2778 68.3983 34.8005 69.483 33.5624 70.8775C32.15 72.4715 31.2589 74.3766 30.8891 76.5929C30.672 77.8964 30.5889 79.1036 30.6399 80.2144C30.7216 82.0051 30.7732 83.0744 30.7946 83.4224C30.9769 86.3908 31.6113 89.3894 32.6981 92.418C33.2448 93.9397 33.969 95.4748 34.8708 97.0233C35.8651 98.7283 37.1381 100.091 38.6898 101.111C38.7864 101.174 38.8618 101.265 38.9062 101.371C38.9506 101.478 38.9621 101.596 38.939 101.709C38.5384 103.675 38.2509 105.154 38.0768 106.147C37.782 107.814 37.5166 109.75 37.2808 111.957C37.1857 112.848 37.1475 113.602 37.1662 114.218C37.2004 115.312 37.0878 116.986 37.2949 118.309C37.5642 120.037 37.8536 121.268 38.8948 122.619C39.6372 123.583 40.149 124.179 40.4304 124.41C41.7436 125.487 43.235 126.102 44.9046 126.255C46.6962 126.416 48.5534 126.3 50.4763 125.905C53.6694 125.249 56.7742 124.27 59.7905 122.966C60.6809 122.583 61.3864 122.171 62.2306 121.691C62.2498 121.68 62.2726 121.677 62.294 121.683C62.3155 121.689 62.3338 121.703 62.3452 121.722C62.3626 121.754 62.3666 121.788 62.3572 121.824C61.4648 122.399 60.5221 122.897 59.5292 123.316C56.4713 124.604 53.2949 125.561 49.9999 126.184C46.3438 126.875 42.2334 126.853 39.6887 123.908C38.6637 122.723 37.8496 121.659 37.4697 120.228C37.0128 118.512 36.8239 116.666 36.9029 114.689C37.0798 110.215 37.8356 105.8 38.7742 101.524C38.779 101.503 38.7776 101.481 38.7701 101.461C38.7626 101.441 38.7493 101.424 38.732 101.412C36.5197 99.8619 34.834 97.8249 33.6749 95.3008C31.2549 90.0251 30.2077 84.2756 30.4268 78.771C30.6305 73.6613 32.9654 69.9588 37.4315 67.6635C39.0891 66.811 41.0046 66.1853 43.1781 65.7865C46.0135 65.2659 49.2254 64.9875 52.8139 64.9514C55.5247 64.9246 58.8907 64.9172 62.912 64.9293C68.8106 64.9494 74.8123 65.4526 80.9173 66.4389C83.1993 66.8083 85.4933 67.1891 87.7994 67.5812C90.1993 67.9887 92.9992 68.2557 95.2223 68.4003C98.9675 68.6412 102.686 68.5809 106.378 68.2196C111.722 67.6956 117.145 66.6377 122.069 65.9391C124.13 65.6473 126.67 65.3903 129.689 65.1682C135.398 64.7466 141.297 64.7707 147.053 64.841C149.843 64.8758 152.515 65.0471 155.067 65.3549C159.986 65.9471 165.509 67.6695 167.967 72.4554C168.618 73.7228 169.06 75.0344 169.292 76.3901C169.418 77.1222 169.512 78.3689 169.575 80.1301C169.619 81.3252 169.601 82.5752 169.519 83.8801C169.161 89.6156 168.444 96.4672 163.282 100.207C162.695 100.633 161.069 102.028 161.186 102.849C161.383 104.244 161.549 105.633 161.684 107.019C161.969 109.921 161.77 112.942 161.087 116.08C160.666 118.013 160.023 119.76 159.157 121.32C157.365 124.55 154.309 125.293 150.913 124.345C150.209 124.149 149.362 123.809 148.37 123.328C146.554 122.446 144.336 121.178 141.715 119.525C140.691 118.879 139.391 118.18 137.814 117.428C137.803 117.422 137.792 117.418 137.781 117.415L136.684 117.088Z" fill="#787B83"/>
<path d="M136.684 117.086C136.635 117.111 136.602 117.14 136.583 117.172C136.426 117.196 136.376 117.392 136.432 117.76C136.936 121.082 137.27 123.776 137.433 125.843C137.51 126.817 137.551 127.797 137.558 128.784C137.563 129.836 137.32 130.829 136.828 131.763C135.876 133.569 133.922 134.555 131.928 134.915C130.901 135.099 129.412 134.971 128.439 134.724C127.071 134.379 125.54 133.827 123.846 133.07C123.351 132.847 122.847 132.631 122.332 132.421C120.698 131.751 118.706 130.988 116.861 130.926C115.496 130.88 114.171 131.118 112.888 131.638C110.088 132.773 107.408 134.692 104.434 133.634C102.02 132.775 101.594 129.571 101.73 127.461C101.734 127.408 101.917 125.106 102.279 120.553C102.597 116.539 102.791 113.831 102.864 112.428C102.887 111.988 102.891 111.609 102.878 111.292C102.874 111.194 102.833 111.102 102.763 111.034C102.692 110.966 102.598 110.927 102.5 110.927C100.604 110.912 99.5347 110.907 99.2921 110.911C98.8271 110.919 98.4399 110.955 98.1304 111.019C97.3083 111.192 97.455 111.754 97.5213 112.483C97.8027 115.53 98.0345 118.246 98.2168 120.629C98.2865 121.55 98.3334 122.275 98.3575 122.803C98.3803 123.328 98.4238 124.052 98.4881 124.975C98.5712 126.177 98.525 127.785 98.3494 129.797C98.3173 130.175 98.2563 130.535 98.1665 130.879C97.9093 131.865 97.7625 132.566 97.0108 133.24C95.8718 134.261 94.5895 134.697 93.1637 134.547C92.4616 134.472 91.8277 134.325 91.2623 134.105C90.8429 133.942 89.6409 133.456 87.6564 132.646C85.3349 131.699 82.6636 131.07 80.0326 131.16C77.3392 131.251 75.2026 132.379 72.5977 133.439C70.7847 134.176 68.9958 134.591 67.1748 134.276C66.0733 134.085 65.0281 133.66 64.1819 132.811C63.0577 131.682 62.385 130.392 62.1639 128.94C61.9187 127.318 61.977 125.238 62.4091 123.323C62.5029 122.906 62.5867 122.455 62.6604 121.97C62.6627 121.954 62.6586 121.937 62.6488 121.923C62.6391 121.91 62.6245 121.901 62.6081 121.898C62.58 121.893 62.5532 121.899 62.5277 121.916C62.5277 121.885 62.5224 121.856 62.5116 121.828C62.4996 121.794 62.4775 121.777 62.4453 121.775C62.4091 121.773 62.3796 121.788 62.3569 121.822C62.3662 121.785 62.3622 121.751 62.3448 121.719C62.3335 121.7 62.3151 121.686 62.2937 121.681C62.2723 121.675 62.2495 121.678 62.2302 121.689C61.3861 122.169 60.6806 122.58 59.7901 122.964C56.7738 124.267 53.6691 125.247 50.4759 125.903C48.5531 126.298 46.6958 126.414 44.9043 126.252C43.2347 126.1 41.7433 125.485 40.4301 124.407C40.1487 124.177 39.6368 123.58 38.8945 122.617C37.8533 121.266 37.5639 120.035 37.2945 118.306C37.0875 116.984 37.2001 115.309 37.1659 114.215C37.1471 113.6 37.1853 112.846 37.2805 111.955C37.5163 109.748 37.7816 107.811 38.0764 106.145C38.2506 105.152 38.538 103.672 38.9387 101.706C38.9617 101.593 38.9503 101.476 38.9059 101.369C38.8614 101.263 38.7861 101.172 38.6895 101.108C37.1378 100.088 35.8648 98.7259 34.8705 97.0209C33.9687 95.4724 33.2444 93.9374 32.6977 92.4157C31.611 89.387 30.9765 86.3885 30.7943 83.42C30.7728 83.0721 30.7213 82.0028 30.6395 80.2121C30.5886 79.1012 30.6717 77.8941 30.8887 76.5905C31.2586 74.3742 32.1497 72.4691 33.562 70.8752C34.8002 69.4806 36.2775 68.3959 37.994 67.621C40.0897 66.6748 42.3369 66.0451 44.7354 65.7319C46.6972 65.475 48.4318 65.2782 50.2187 65.2582C51.6879 65.2421 52.9904 65.1016 54.4818 65.0775C59.5751 64.9959 64.3447 65.0775 68.7908 65.3224C73.6007 65.5854 78.4306 66.2358 83.9279 67.1573C87.1867 67.7046 89.3635 68.0439 90.4583 68.1751C94.6028 68.6689 98.7669 68.8362 102.95 68.6769C105.48 68.5806 108.163 68.3203 111 67.896C113.592 67.5092 115.85 67.1546 117.776 66.832C119.378 66.5617 120.814 66.3369 122.081 66.1575C124.853 65.7641 126.099 65.6898 129.062 65.4348C130.146 65.3411 131.171 65.2789 132.137 65.2481C133.578 65.202 134.927 65.0715 136.249 65.0795C138.807 65.0956 142.595 65.0915 147.612 65.0675C148.366 65.0634 149.132 65.0922 149.909 65.1538C150.188 65.1752 150.952 65.2187 152.203 65.2843C154.058 65.3806 156.072 65.6664 158.243 66.1415C159.663 66.452 160.991 66.8836 162.226 67.4363C163.201 67.8726 164.26 68.5779 165.406 69.5522C167.903 71.6741 169.181 75.0668 169.275 78.311C169.307 79.4472 169.332 80.1124 169.348 80.3064C169.428 81.2439 169.271 82.2798 169.301 82.9744C169.351 84.0705 169.214 85.9261 168.891 88.5412C168.469 91.9519 167.39 95.4129 165.406 97.9343C164.897 98.5821 164.442 99.0605 164.041 99.3697C162.87 100.271 161.077 101.544 160.968 102.809C160.964 102.86 160.967 102.912 160.976 102.961C161.382 105.294 161.573 107.713 161.549 110.218C161.525 112.69 161.176 115.12 160.504 117.507C160.114 118.891 159.567 120.201 158.864 121.436C156.84 124.991 152.832 125.138 149.437 123.574C147.479 122.672 145.489 121.583 143.465 120.308C141.674 119.178 139.888 118.185 138.109 117.329C137.737 117.148 137.329 117.046 136.933 116.969C136.777 116.939 136.694 116.977 136.684 117.086ZM65.3899 104.34C65.4623 104.376 65.5454 104.389 65.6392 104.378C65.6619 104.416 65.6887 104.434 65.7196 104.433C65.8 104.429 65.8482 104.386 65.8643 104.306C66.4592 101.311 67.1105 98.7413 68.3124 95.9951C68.9904 94.4453 69.8775 93.0935 70.9736 91.9399C73.1243 89.6794 76.2639 88.3706 79.4256 88.3645C80.5337 88.3619 81.2915 88.3913 81.6988 88.4529C86.7278 89.2137 90.6613 92.225 93.3768 96.4086C94.3476 97.9042 94.9767 99.6688 95.5234 101.387C96.4172 104.194 97.0148 106.967 97.3163 109.708C97.3217 109.758 97.3376 109.805 97.3629 109.848C97.3883 109.89 97.4226 109.927 97.4634 109.955C97.5042 109.983 97.5506 110.002 97.5994 110.011C97.6483 110.02 97.6984 110.018 97.7464 110.005C98.7816 109.74 99.6821 109.809 100.862 110.005C101.479 110.11 102.791 110.323 102.926 109.628C103.012 109.185 103.113 108.468 103.23 107.478C103.405 105.988 103.693 104.441 104.092 102.837C105.049 98.9943 106.916 95.702 109.613 92.8754C110.125 92.3387 110.957 91.6582 112.108 90.8338C112.617 90.4697 113.253 90.1278 114.015 89.8079C115.188 89.3141 115.858 89.0431 116.025 88.9949C117.29 88.6295 118.229 88.4308 118.841 88.3987C119.002 88.3906 119.616 88.3799 120.684 88.3665C123.273 88.3324 125.878 89.2478 127.81 90.8097C128.604 91.4521 129.308 92.2216 129.92 93.1183C130.487 93.9467 130.983 94.8622 131.409 95.8646C132.601 98.667 133.464 101.698 134.137 104.216C134.14 104.225 134.144 104.234 134.15 104.241C134.156 104.249 134.163 104.255 134.172 104.26C134.18 104.265 134.189 104.268 134.199 104.269C134.209 104.27 134.218 104.269 134.227 104.266C134.254 104.258 134.272 104.233 134.28 104.19C134.304 104.219 134.329 104.24 134.356 104.252C134.387 104.268 134.416 104.263 134.445 104.238C134.475 104.21 134.494 104.174 134.501 104.131C134.629 104.153 134.702 104.129 134.72 104.061C135.508 101.048 137.162 98.3458 138.84 95.6718C139.517 94.5945 140.549 93.2006 141.936 91.4902C143.243 89.8748 144.516 88.5686 145.755 87.5716C148.557 85.3151 152.466 84.9096 155.201 87.5595C155.901 88.2381 156.413 88.8303 156.737 89.3362C157.34 90.277 157.867 91.3557 158.317 92.5723C159.291 95.2088 159.956 97.8573 160.311 100.518C160.318 100.575 160.342 100.629 160.38 100.673C160.417 100.717 160.466 100.75 160.521 100.767C160.577 100.784 160.636 100.784 160.691 100.769C160.747 100.753 160.797 100.722 160.835 100.679C161.111 100.372 161.365 100.124 161.597 99.9338C162.869 98.8885 163.542 98.3365 163.615 98.2776C164.194 97.8078 164.705 97.1982 165.147 96.4488C166.648 93.9032 167.482 91.0124 167.941 88.0132C168.41 84.9444 168.551 81.8428 168.365 78.7084C168.226 76.3898 167.454 73.9306 166.303 72.0897C165.705 71.1341 164.977 70.3472 164.118 69.7289C162.822 68.7974 161.304 68.07 159.563 67.5467C156.519 66.6326 153.396 66.1549 150.195 66.1134C149.668 66.1073 149.071 66.0029 148.587 65.9949C142.936 65.9146 138.784 65.926 136.131 66.029C135.899 66.0371 135.694 66.0431 135.516 66.0471C134.366 66.0659 132.96 66.104 131.297 66.1615C130.459 66.1896 128.438 66.361 125.233 66.6755C123.305 66.8642 121.293 67.1285 119.199 67.4684C117.67 67.7174 114.772 68.1838 110.506 68.8677C109.541 69.0229 108.629 69.1367 107.77 69.2089C106.086 69.3535 105.169 69.4351 105.019 69.4539C104.04 69.5723 103.053 69.5181 102.207 69.6024C101.098 69.7135 99.9594 69.7496 98.7896 69.7108C97.3157 69.66 95.7412 69.5783 94.0662 69.4659C92.1433 69.3361 90.6573 69.1795 89.6081 68.9961C86.3774 68.4314 83.5581 67.9482 81.1501 67.5467C76.1051 66.7049 70.8919 66.2539 65.5105 66.1937C58.7007 66.1201 53.915 66.108 51.1533 66.1575C50.5503 66.1682 49.6116 66.2244 48.3373 66.3262C45.5636 66.547 43.0069 67.0335 40.6673 67.7856C38.8878 68.3571 37.3508 69.0999 36.0564 70.0139C33.4736 71.8388 31.9359 75.1792 31.6244 78.2608C31.3189 81.268 31.7209 84.3555 32.2254 87.3267C32.8136 90.7836 34.0277 93.9494 35.8674 96.8242C36.4276 97.6994 37.3917 98.7266 38.7598 99.9057C38.8087 99.9481 38.8729 99.9697 38.9387 99.9659C39.2027 99.9552 39.3568 99.8515 39.401 99.6547C39.7588 98.0675 40.2606 96.4119 40.9064 94.6882C42.2973 90.9783 44.5666 88.3164 48.3956 87.3949C51.8467 86.5638 54.8838 88.1176 57.2274 90.5065C58.2565 91.5558 59.1985 92.7556 60.0534 94.106C62.1257 97.3802 63.997 100.755 65.2512 104.388C65.2537 104.396 65.2579 104.403 65.2636 104.408C65.2692 104.413 65.276 104.417 65.2834 104.419C65.3316 104.431 65.3671 104.404 65.3899 104.34ZM135.425 106.362C135.356 106.439 135.268 106.505 135.162 106.559C135.174 106.541 135.178 106.52 135.174 106.496C135.173 106.49 135.17 106.485 135.167 106.48C135.163 106.475 135.158 106.471 135.153 106.469C135.147 106.466 135.141 106.465 135.135 106.465C135.129 106.466 135.123 106.467 135.118 106.47C134.983 106.555 134.913 106.658 134.909 106.779C134.881 107.564 134.962 108.434 135.154 109.389C135.336 110.299 135.62 111.84 136.004 114.01C136.103 114.566 136.231 115.731 136.82 115.855C137.62 116.024 138.345 116.286 138.995 116.642C140.07 117.234 141.433 117.949 142.486 118.585C145.027 120.123 146.6 121.056 147.206 121.384C150.146 122.982 154.627 124.979 157.256 121.735C157.936 120.895 158.466 120.058 158.844 119.224C159.815 117.087 160.392 114.778 160.574 112.298C160.609 111.838 160.655 111.276 160.711 110.612C160.767 109.956 160.778 109.395 160.743 108.929C160.582 106.769 160.271 104.732 159.8 102.483C159.432 100.713 159.209 99.6413 159.133 99.2693C158.76 97.4344 158.324 95.6852 157.825 94.0217C157.176 91.8629 156.183 90.0254 154.846 88.5091C154.734 88.3813 154.603 88.2697 154.458 88.1778C154.239 88.04 153.946 87.8412 153.577 87.5816C152.562 86.8689 150.96 86.4213 149.642 86.6722C149.583 86.6829 149.526 86.699 149.471 86.7204C148.735 87.0162 148.123 87.2758 147.634 87.4993C147.011 87.783 146.275 88.2996 145.425 89.0491C144.479 89.8855 143.635 90.7809 142.892 91.7351C141.358 93.7078 139.913 95.7629 138.557 97.9002C136.97 100.4 135.985 102.699 135.602 104.798C135.49 105.416 135.514 105.818 135.311 106.286C135.306 106.298 135.305 106.312 135.309 106.324C135.325 106.375 135.364 106.387 135.425 106.362ZM58.0053 92.775C56.7899 91.4514 55.7802 90.4784 54.9763 89.8561C53.6436 88.8222 51.4488 87.8627 49.6297 88.0514C49.0562 88.1116 48.6247 88.1912 48.3353 88.2903C47.3812 88.6128 46.4969 89.037 45.6821 89.563C44.8607 90.093 44.1814 90.7508 43.644 91.5364C41.9778 93.9755 41.009 96.9526 40.3135 99.8475C39.8767 101.662 39.4606 103.489 39.0653 105.328C38.7692 106.701 38.5494 108.021 38.406 109.289C38.2144 110.987 38.0891 112.321 38.0302 113.29C37.7729 117.463 38.1628 121.516 41.817 124.056C43.098 124.947 44.7026 125.365 46.6308 125.311C47.6827 125.28 48.7346 125.163 49.7865 124.961C53.1271 124.32 56.2224 123.397 59.0726 122.193C60.1982 121.718 61.112 121.226 61.8142 120.717C62.6316 120.125 63.1012 119.414 63.2232 118.585C63.5541 116.312 64.0459 113.502 64.6985 110.158C64.8419 109.426 64.9189 108.775 64.9296 108.207C64.939 107.67 64.8586 107.022 64.6884 106.263C64.123 103.745 63.0878 101.19 61.583 98.5988C59.8746 95.6558 58.9004 94.0217 58.6605 93.6965C58.6324 93.6577 58.6022 93.6201 58.5701 93.584C58.3409 93.3364 58.1741 93.0996 58.0696 92.8734C58.0536 92.8375 58.0319 92.8043 58.0053 92.775ZM94.438 101.789C94.0709 100.529 93.6709 99.4506 93.2381 98.5526C91.3621 94.6607 88.3927 91.9098 84.3299 90.2998L84.3419 90.1813C84.3452 90.1519 84.3381 90.1222 84.3219 90.0976C84.3057 90.0731 84.2815 90.0551 84.2535 90.0468C82.5852 89.5342 81.1153 89.2672 79.8436 89.2458C77.303 89.203 75.0083 89.9464 72.9595 91.4762C71.7334 92.3916 70.6768 93.6389 69.7897 95.2181C68.9214 96.7666 68.2582 98.2736 67.7999 99.739C67.1245 101.9 66.5838 104.223 66.1778 106.707C65.6251 110.088 65.0321 113.33 63.9568 119.25C63.6292 121.063 63.4624 122.526 63.1568 124.313C62.9451 125.556 62.8708 126.571 62.9337 127.358C63.2151 130.916 65.1146 133.806 69.0822 133.537C69.3904 133.516 69.7274 133.446 70.0933 133.329C71.0058 133.035 71.6088 132.863 72.5414 132.479C73.7675 131.975 74.9306 131.484 76.0307 131.006C79.5301 129.482 83.2666 130.103 86.7981 131.289C87.4226 131.499 88.9428 132.101 91.3588 133.096C92.0555 133.382 92.8314 133.527 93.6863 133.531C95.9757 133.539 97.4027 131.837 97.5032 129.653C97.5287 129.109 97.5414 128.837 97.5414 128.836C97.7156 126.925 97.7036 124.918 97.5052 122.817C97.459 122.309 97.4771 121.733 97.4188 121.215C97.0155 117.559 96.6939 113.978 96.454 110.471C96.4199 109.989 96.3053 109.574 96.2912 109.078C96.2859 108.912 96.235 108.565 96.1385 108.036C95.7526 105.921 95.2615 103.819 94.6652 101.728C94.6605 101.712 94.6519 101.697 94.6403 101.684C94.6286 101.672 94.6142 101.662 94.5981 101.656C94.582 101.651 94.5648 101.649 94.5478 101.651C94.5308 101.653 94.5146 101.659 94.5003 101.668C94.4816 101.682 94.4608 101.722 94.438 101.789ZM125.046 90.1452C122.021 88.9567 119.046 88.9126 116.025 89.9966C114.81 90.4329 113.775 90.9422 112.922 91.5243C110.874 92.9202 109.135 94.7297 107.704 96.9526C106.172 99.3335 105.154 101.892 104.649 104.627C104.14 107.394 103.847 109.795 103.77 111.83C103.718 113.27 103.608 114.753 103.555 115.976C103.51 117.01 103.463 117.82 103.415 118.405C103.369 118.95 103.312 119.684 103.244 120.609C103.236 120.723 103.228 120.837 103.222 120.95C103.16 122.06 103.038 123.683 102.856 125.819C102.795 126.517 102.756 127.096 102.737 127.555C102.683 128.936 102.592 130.197 103.157 131.207C103.755 132.273 104.679 132.845 105.929 132.923C107.081 132.994 108.178 132.778 109.217 132.275C110.461 131.672 111.544 131.166 112.465 130.755C115.613 129.352 118.801 130 121.908 131.253C124.19 132.174 126.429 133.359 128.75 133.863C129.775 134.085 130.71 134.134 131.554 134.011C132.587 133.859 133.455 133.526 134.157 133.013C135.639 131.932 136.479 130.453 136.678 128.575C136.711 128.267 136.674 127.717 136.567 126.925C136.469 126.194 136.432 125.568 136.364 124.967C136.075 122.418 135.805 120.202 135.554 118.321C135.476 117.73 135.494 117.261 135.417 116.735C135.353 116.308 135.303 115.912 135.269 115.548C135.121 114.016 134.985 112.926 134.861 112.28C134.589 110.864 134.002 108.105 133.1 104.003C132.608 101.765 131.978 99.5664 131.21 97.4063C130.683 95.9208 129.982 94.5624 129.11 93.3311C128.047 91.8335 126.606 90.7595 125.046 90.1452Z" fill="#787B83"/>
<path d="M54.4703 64.4802C59.5756 64.3983 64.3599 64.4785 68.8219 64.7243C73.6633 64.989 78.5179 65.645 84.025 66.568C87.2858 67.1158 89.4485 67.4525 90.5269 67.5817L92.0699 67.7497C95.6734 68.1077 99.2921 68.2181 102.925 68.0798C105.43 67.9843 108.092 67.7258 110.91 67.3044L114.543 66.7497C115.67 66.5727 116.713 66.4027 117.673 66.2419C118.477 66.1064 119.238 65.9817 119.959 65.8688L121.996 65.5641C124.787 65.168 126.052 65.0938 129.007 64.8395C130.101 64.7451 131.137 64.6813 132.115 64.6501C133.494 64.6059 134.925 64.4741 136.252 64.4821C138.806 64.4981 142.591 64.4925 147.607 64.4684C148.379 64.4644 149.161 64.4935 149.955 64.5563L149.953 64.5583C150.222 64.579 150.979 64.6214 152.232 64.6872C154.126 64.7856 156.172 65.0756 158.369 65.5563C159.826 65.8749 161.193 66.3197 162.468 66.8903L162.863 67.0778C163.789 67.5463 164.766 68.2245 165.793 69.0973C168.448 71.3545 169.774 74.9243 169.873 78.2946V78.2966C169.905 79.4399 169.929 80.0827 169.943 80.2575L169.964 80.6442C169.976 81.0319 169.96 81.417 169.941 81.7653C169.914 82.2506 169.885 82.6401 169.898 82.9489C169.95 84.1007 169.807 86.0017 169.484 88.6169C169.054 92.0876 167.951 95.6674 165.875 98.3063C165.352 98.9716 164.862 99.4931 164.406 99.8454L164.404 99.8473C163.801 100.311 163.098 100.828 162.521 101.386C161.923 101.966 161.598 102.465 161.564 102.861C161.977 105.231 162.171 107.687 162.146 110.226C162.121 112.751 161.767 115.233 161.08 117.672C160.677 119.102 160.11 120.456 159.382 121.734C158.277 123.675 156.611 124.703 154.763 125.017C152.936 125.328 150.961 124.94 149.183 124.121C147.199 123.207 145.185 122.106 143.142 120.818C141.369 119.7 139.603 118.717 137.845 117.871H137.843C137.597 117.751 137.32 117.673 137.021 117.607L137.017 117.615L137.023 117.672C137.528 121 137.864 123.71 138.029 125.797C138.106 126.785 138.149 127.781 138.156 128.781V128.783C138.162 129.933 137.894 131.024 137.357 132.045C136.285 134.078 134.123 135.131 132.033 135.507C130.9 135.711 129.32 135.568 128.289 135.306C126.879 134.95 125.315 134.386 123.599 133.619H123.597L122.103 132.978C120.459 132.304 118.562 131.585 116.839 131.527C115.559 131.484 114.318 131.706 113.111 132.195V132.197C112.43 132.473 111.756 132.796 111.056 133.123C110.364 133.446 109.65 133.77 108.923 134.025C107.464 134.538 105.897 134.794 104.23 134.201C102.786 133.687 101.979 132.48 101.554 131.209C101.131 129.939 101.057 128.527 101.129 127.424L101.13 127.416C101.136 127.348 101.319 125.044 101.679 120.507C101.997 116.494 102.189 113.793 102.261 112.4C102.278 112.068 102.283 111.777 102.279 111.527C100.514 111.514 99.5259 111.508 99.3004 111.511C98.8571 111.519 98.5097 111.555 98.2496 111.609L98.2476 111.607C98.1798 111.622 98.1347 111.64 98.107 111.652C98.0938 111.658 98.083 111.662 98.0777 111.666C98.0769 111.668 98.0769 111.673 98.0758 111.677C98.0664 111.718 98.0609 111.793 98.0699 111.933C98.0797 112.085 98.0973 112.215 98.1168 112.429L98.5015 116.756L98.8121 120.586L98.9 121.826C98.9236 122.191 98.9424 122.508 98.9547 122.777V122.779C98.9771 123.296 99.0194 124.014 99.0836 124.935C99.1698 126.182 99.1216 127.825 98.9449 129.851C98.91 130.26 98.8445 130.654 98.7457 131.033C98.4966 131.987 98.3172 132.875 97.4098 133.689C96.1542 134.815 94.7057 135.315 93.0992 135.146H93.0973C92.5375 135.086 92.0116 134.982 91.5211 134.832L91.0426 134.666L87.4273 133.203C85.3049 132.337 82.8992 131.752 80.525 131.754L80.0504 131.761C77.4952 131.847 75.4967 132.907 72.8219 133.996C70.9604 134.752 69.0485 135.211 67.0699 134.869C65.8828 134.663 64.712 134.196 63.7555 133.236C62.5494 132.026 61.81 130.622 61.568 129.033V129.031C61.3113 127.332 61.374 125.178 61.8219 123.193L61.9254 122.687V122.547C61.3162 122.89 60.7265 123.215 60.025 123.517V123.515C56.9714 124.835 53.827 125.828 50.5933 126.492C48.6185 126.897 46.702 127.019 44.8473 126.851C43.0564 126.688 41.4512 126.025 40.0465 124.873V124.871C39.7013 124.588 39.1477 123.932 38.4176 122.984C37.2819 121.51 36.9725 120.156 36.6988 118.4C36.588 117.692 36.5641 116.904 36.5621 116.177C36.56 115.426 36.5808 114.774 36.5641 114.236C36.5442 113.584 36.5844 112.8 36.6812 111.892C36.9181 109.676 37.1862 107.726 37.484 106.043L37.8316 104.177C37.9751 103.439 38.1462 102.58 38.3453 101.603C36.7169 100.53 35.3846 99.0994 34.3492 97.3239C33.4312 95.7476 32.6907 94.1799 32.1305 92.6208C31.0262 89.5431 30.379 86.4881 30.193 83.4587C30.1712 83.1047 30.1203 82.0295 30.0387 80.2419C29.9855 79.082 30.0718 77.8314 30.2945 76.4938C30.6818 74.1728 31.6197 72.1612 33.1109 70.4782C34.4057 69.0199 35.953 67.8851 37.7457 67.0759C39.8977 66.1044 42.2022 65.4587 44.6558 65.1384C46.62 64.8811 48.3842 64.6804 50.2086 64.6598H50.2105C50.9287 64.652 51.6081 64.6141 52.3043 64.5739C52.9978 64.5339 53.71 64.4924 54.4703 64.4802ZM124.824 90.7048C121.934 89.5694 119.109 89.5279 116.226 90.5622C115.342 90.8796 114.565 91.2347 113.894 91.6227L113.257 92.0212C111.528 93.2003 110.023 94.6878 108.742 96.488L108.207 97.279C106.716 99.5954 105.727 102.081 105.236 104.738C104.73 107.486 104.442 109.857 104.367 111.855C104.341 112.562 104.3 113.307 104.259 114.021L104.152 116.004C104.106 117.041 104.059 117.861 104.009 118.457C103.964 118.998 103.908 119.731 103.839 120.654C103.832 120.765 103.825 120.877 103.818 120.988C103.756 122.106 103.633 123.735 103.451 125.871V125.873C103.391 126.566 103.352 127.135 103.334 127.582C103.306 128.289 103.274 128.909 103.312 129.482C103.35 130.047 103.456 130.517 103.679 130.916C104.174 131.799 104.912 132.261 105.964 132.326C107.013 132.39 108.006 132.194 108.953 131.736C110.2 131.132 111.289 130.623 112.218 130.209C115.59 128.706 118.971 129.425 122.13 130.699L123.865 131.435C125.565 132.18 127.183 132.91 128.875 133.277C129.845 133.487 130.706 133.53 131.464 133.42L131.814 133.359C132.61 133.2 133.267 132.92 133.8 132.531C135.141 131.553 135.897 130.228 136.078 128.513L136.08 128.511C136.104 128.286 136.078 127.803 135.97 127.007V127.006C135.922 126.645 135.886 126.289 135.855 125.955L135.765 125.037C135.476 122.49 135.207 120.279 134.957 118.402C134.914 118.082 134.899 117.794 134.884 117.539C134.869 117.281 134.855 117.058 134.822 116.826L134.734 116.195L134.67 115.607C134.522 114.075 134.388 113.01 134.269 112.394C133.999 110.987 133.413 108.235 132.511 104.132C132.025 101.92 131.401 99.7453 130.642 97.6091C130.132 96.1731 129.458 94.8637 128.619 93.6794C127.75 92.456 126.611 91.5363 125.365 90.9411L124.824 90.7048ZM79.8316 89.8473C77.4247 89.8068 75.2591 90.5079 73.316 91.9587C72.3117 92.7085 71.418 93.7053 70.6383 94.9606L70.3101 95.5134C69.4593 97.0308 68.8148 98.4997 68.3707 99.9196C67.7046 102.051 67.1691 104.347 66.7672 106.806C66.2134 110.193 65.6194 113.442 64.5445 119.359C64.3826 120.255 64.2609 121.066 64.1402 121.881C64.0197 122.694 63.8998 123.514 63.7457 124.416C63.5381 125.635 63.4715 126.595 63.5289 127.312L63.5973 127.937C63.7981 129.369 64.2912 130.606 65.0719 131.486C65.9447 132.47 67.2253 133.064 69.0387 132.941L69.443 132.882C69.5874 132.853 69.7429 132.813 69.9078 132.759C70.8329 132.462 71.4057 132.297 72.3101 131.925C73.5329 131.422 74.6925 130.933 75.7887 130.457C79.4954 128.843 83.411 129.521 86.9859 130.722H86.9879C87.6357 130.94 89.1773 131.551 91.5855 132.543H91.5836C92.1995 132.796 92.8978 132.927 93.6851 132.931C94.6703 132.935 95.4392 132.577 95.9762 132.006C96.5195 131.427 96.8573 130.598 96.9019 129.627L96.9293 129.015C96.9325 128.947 96.9355 128.895 96.9371 128.861L96.939 128.838V128.81L96.941 128.783C97.1115 126.912 97.101 124.943 96.9058 122.875V122.873C96.8808 122.597 96.8731 122.305 96.8648 122.041C96.8562 121.767 96.8459 121.516 96.8199 121.285V121.283C96.4158 117.619 96.0936 114.03 95.8531 110.515L95.7691 109.873C95.7342 109.645 95.6974 109.386 95.689 109.099L95.6539 108.781C95.6308 108.624 95.5955 108.415 95.5465 108.146C95.2591 106.572 94.9126 105.003 94.5074 103.441L94.3922 103.783L93.859 101.959C93.4984 100.722 93.1097 99.6747 92.6949 98.8141C90.8852 95.0601 88.0312 92.4142 84.107 90.8591L83.6851 90.6911L83.7027 90.5114C82.2266 90.0834 80.9383 89.866 79.8316 89.8473ZM49.6891 88.6481L49.691 88.6501C49.1303 88.709 48.7514 88.7823 48.5269 88.8591L48.525 88.861C47.6163 89.1682 46.7768 89.5702 46.0055 90.068C45.3439 90.4949 44.7858 91.0102 44.3277 91.613L44.1363 91.8766C42.5324 94.2247 41.5842 97.1176 40.8941 99.9899C40.4586 101.799 40.0442 103.621 39.65 105.455V105.457C39.3578 106.812 39.1405 108.112 38.9996 109.357C38.904 110.204 38.8254 110.959 38.7633 111.621L38.6266 113.328C38.3707 117.478 38.7872 121.222 42.1578 123.564C43.3106 124.366 44.7804 124.765 46.6109 124.713C47.6301 124.683 48.6506 124.571 49.6715 124.375C52.9747 123.741 56.0298 122.829 58.8375 121.642C59.9359 121.179 60.8051 120.707 61.4586 120.234L61.7105 120.037C62.2603 119.57 62.5445 119.057 62.6266 118.5C62.9594 116.213 63.4535 113.394 64.107 110.045L64.1988 109.531C64.2779 109.035 64.3203 108.591 64.3277 108.197C64.3359 107.724 64.265 107.127 64.1012 106.396C63.5511 103.946 62.5409 101.448 61.0621 98.902C60.2083 97.4313 59.5396 96.2884 59.0543 95.4743C58.5601 94.6453 58.2736 94.1875 58.1754 94.0544L58.1715 94.0505C58.1575 94.0312 58.1425 94.0123 58.1266 93.9938L57.943 93.7829C57.7789 93.5822 57.6447 93.375 57.5426 93.1637C56.3437 91.8593 55.3676 90.9204 54.607 90.3317C53.9908 89.8536 53.1628 89.385 52.2769 89.0602C51.387 88.734 50.4782 88.5663 49.6891 88.6481ZM153.23 88.0739C152.327 87.44 150.887 87.0472 149.752 87.2634H149.748C149.728 87.2668 149.71 87.2729 149.693 87.279L148.691 87.6911L147.88 88.0466C147.335 88.295 146.65 88.7693 145.82 89.5016L145.818 89.4997C145.129 90.1092 144.498 90.7517 143.921 91.4235L143.363 92.1052C141.841 94.0621 140.408 96.1015 139.062 98.2223C137.502 100.681 136.556 102.909 136.191 104.908C136.137 105.205 136.121 105.405 136.082 105.683C136.046 105.936 135.992 106.204 135.869 106.498C135.905 106.4 135.918 106.276 135.877 106.144H135.879C135.848 106.047 135.753 105.874 135.535 105.802C135.357 105.744 135.221 105.798 135.195 105.808L135.242 105.877C135.297 105.886 135.351 105.902 135.402 105.925C135.448 105.947 135.491 105.974 135.531 106.006L135.638 106.113L135.691 106.199C135.699 106.213 135.71 106.227 135.716 106.242L135.761 106.386L135.763 106.4C135.767 106.423 135.766 106.446 135.767 106.47L135.865 106.507C135.862 106.513 135.861 106.519 135.859 106.525L135.769 106.486C135.771 106.528 135.77 106.571 135.763 106.615L135.869 106.763C135.763 106.881 135.639 106.972 135.505 107.049C135.502 107.714 135.576 108.455 135.74 109.273C135.924 110.19 136.209 111.737 136.593 113.908C136.649 114.224 136.696 114.589 136.798 114.916C136.849 115.075 136.9 115.183 136.945 115.246C136.955 115.26 136.963 115.269 136.968 115.275C137.809 115.455 138.582 115.734 139.281 116.117L139.283 116.119C140.34 116.701 141.728 117.429 142.795 118.074L145.875 119.924C146.657 120.387 147.195 120.697 147.49 120.857V120.859C148.954 121.654 150.733 122.509 152.441 122.785C154.124 123.057 155.651 122.76 156.787 121.359C157.441 120.551 157.941 119.758 158.295 118.978L158.63 118.193C159.37 116.346 159.819 114.367 159.974 112.256V112.254C160.009 111.791 160.055 111.227 160.111 110.562L160.16 109.689C160.165 109.425 160.158 109.188 160.142 108.976C159.984 106.847 159.677 104.835 159.211 102.607C158.842 100.838 158.619 99.7658 158.543 99.3923V99.3903C158.173 97.572 157.742 95.8397 157.248 94.195C156.621 92.1102 155.668 90.3519 154.394 88.9079L154.392 88.9059C154.319 88.822 154.232 88.7486 154.134 88.6872L153.23 88.0739ZM61.773 121.672C61.7606 121.719 61.7558 121.778 61.7633 121.841C61.7708 121.904 61.7889 121.961 61.8141 122.007L61.9254 121.947V121.918L61.9293 121.943L62.1305 121.834L61.773 121.672ZM61.8258 122.027C61.852 122.071 61.8881 122.108 61.9254 122.142V121.966L61.8258 122.027ZM62.0601 122L62.0426 122.006C62.0431 122.002 62.044 121.999 62.0445 121.996L62.0601 121.99C62.0603 121.993 62.0599 121.996 62.0601 122ZM62.0445 121.996C62.0503 121.959 62.0564 121.922 62.0621 121.884L61.9332 121.963C61.9367 121.989 61.9388 122.016 61.9488 122.043L61.9996 122.142C62.0041 122.149 62.0122 122.153 62.0172 122.16C62.0256 122.109 62.0344 122.057 62.0426 122.006L62.0601 122C62.0667 122.094 62.0978 122.186 62.1519 122.265C62.1577 122.267 62.1638 122.266 62.1695 122.267L62.4195 122.088H62.4176L62.1695 122.267C62.2905 122.291 62.415 122.272 62.523 122.211L62.525 122.213C62.4427 122.259 62.3595 122.303 62.2789 122.349C62.3204 122.363 62.3606 122.37 62.398 122.373H62.4176C62.4961 122.376 62.5852 122.363 62.6715 122.318C62.7612 122.271 62.8189 122.209 62.8512 122.162L62.3297 121.924L62.2769 121.916L62.2828 121.914L62.3219 121.922L62.2379 121.882L62.2301 121.906L62.2828 121.914L62.2769 121.916L62.0641 121.886C62.0592 121.921 62.0584 121.956 62.0601 121.99L62.0445 121.996ZM62.6012 121.918L62.5914 121.963H62.5933L62.6012 121.918ZM62.068 121.882L62.2301 121.906L62.2379 121.882L62.1422 121.838L62.068 121.882ZM63.1871 120.193C62.9536 120.517 62.6628 120.812 62.318 121.082C62.3598 121.085 62.4018 121.09 62.443 121.101C62.5354 121.126 62.6214 121.17 62.6949 121.228C62.7492 121.25 62.8039 121.28 62.8551 121.32C62.8834 121.342 62.9087 121.366 62.9312 121.39C62.9534 121.403 62.9732 121.42 62.9937 121.435C63.0543 121.029 63.1181 120.618 63.1871 120.193ZM135.902 115.84C135.931 116.093 135.965 116.362 136.007 116.646L136.009 116.65C136.018 116.711 136.022 116.772 136.029 116.832C136.034 116.825 136.041 116.818 136.046 116.812C136.094 116.762 136.147 116.722 136.203 116.687C136.269 116.586 136.366 116.495 136.498 116.433C136.525 116.421 136.553 116.413 136.58 116.404C136.301 116.312 136.099 116.13 135.966 115.943C135.943 115.91 135.923 115.874 135.902 115.84ZM102.494 111.308V111.31H102.496V111.306L102.494 111.308ZM97.0504 110.431L97.0914 110.986C97.1436 110.91 97.2046 110.836 97.2808 110.769C97.3555 110.704 97.4387 110.651 97.525 110.605C97.5141 110.604 97.5026 110.605 97.4918 110.603C97.3586 110.579 97.232 110.528 97.1207 110.451C97.0931 110.432 97.0698 110.406 97.0445 110.384L97.0504 110.431ZM103.261 110.252C103.184 110.34 103.094 110.409 103 110.468C103.01 110.475 103.021 110.48 103.031 110.486L103.177 110.603L103.232 110.67C103.242 110.532 103.25 110.392 103.261 110.252ZM148.574 66.5954C142.926 66.5151 138.788 66.5282 136.152 66.6305H136.15C135.916 66.6386 135.708 66.644 135.527 66.6481H135.523C134.378 66.6668 132.976 66.7059 131.316 66.7634H131.314C130.5 66.7907 128.5 66.96 125.289 67.2751C123.374 67.4624 121.375 67.7241 119.293 68.0622C117.763 68.3113 114.865 68.7788 110.599 69.4626C109.622 69.6198 108.695 69.7346 107.82 69.8083C106.129 69.9534 105.229 70.0334 105.091 70.0505H105.087C104.567 70.1134 104.05 70.1305 103.576 70.1423C103.09 70.1543 102.659 70.1615 102.263 70.2009C101.411 70.2862 100.543 70.3289 99.6578 70.3278L98.7672 70.3122C97.2859 70.2611 95.7036 70.1789 94.023 70.0661C92.0932 69.9358 90.5818 69.7783 89.5016 69.5895C86.2722 69.025 83.4542 68.5415 81.0484 68.1403C76.6619 67.4084 72.1457 66.973 67.4996 66.8356L65.5016 66.7946C58.6917 66.721 53.9138 66.7101 51.1617 66.7595C50.5784 66.7698 49.6548 66.8239 48.3824 66.9255C45.6491 67.1431 43.1392 67.6229 40.8492 68.3591C39.1176 68.9151 37.6366 69.6323 36.4 70.5055C33.9948 72.205 32.5175 75.3649 32.2183 78.322V78.3239C31.9217 81.245 32.3108 84.2647 32.8141 87.2282C33.3892 90.6077 34.5757 93.6967 36.3707 96.5016C36.8502 97.251 37.6818 98.1524 38.8883 99.2165C39.2469 97.6946 39.7289 96.115 40.3414 94.4802V94.4782C41.7781 90.6466 44.1726 87.7962 48.2535 86.8141C51.9874 85.9152 55.229 87.6158 57.6539 90.0876C58.7151 91.1695 59.6826 92.4038 60.5582 93.7868C62.4602 96.792 64.2073 99.905 65.4683 103.238C66.0202 100.616 66.6655 98.2594 67.7613 95.7555C68.4654 94.1464 69.39 92.736 70.5367 91.529V91.527C72.8046 89.1437 76.1027 87.7718 79.4215 87.7653C80.5257 87.7626 81.3278 87.7917 81.7867 87.861C87.018 88.6526 91.0896 91.7868 93.8785 96.0837C94.8966 97.6523 95.5454 99.4844 96.0933 101.207C96.9678 103.953 97.5592 106.672 97.8746 109.363C98.9159 109.146 99.8494 109.231 100.959 109.416H100.961C101.277 109.469 101.696 109.536 102.043 109.519C102.198 109.512 102.293 109.485 102.343 109.465C102.423 109.041 102.519 108.359 102.63 107.41C102.809 105.893 103.103 104.32 103.507 102.693C104.49 98.7453 106.411 95.3611 109.177 92.4626C109.729 91.8845 110.596 91.1774 111.755 90.3473L112.195 90.0563C112.503 89.8663 112.841 89.6852 113.209 89.5114L113.781 89.2555C114.368 89.0085 114.831 88.8164 115.17 88.6794C115.493 88.5486 115.736 88.4544 115.857 88.4196C117.127 88.0527 118.123 87.8364 118.808 87.8005C118.983 87.7917 119.614 87.7805 120.673 87.7673C123.401 87.7313 126.144 88.695 128.185 90.3454C129.028 91.0266 129.771 91.8394 130.414 92.7809C131.004 93.6444 131.518 94.5952 131.959 95.6305C132.998 98.0749 133.784 100.685 134.414 102.97C135.3 100.232 136.827 97.7487 138.33 95.3552C139.025 94.2481 140.074 92.8322 141.466 91.1149C142.793 89.476 144.097 88.1356 145.377 87.1052C148.348 84.7131 152.608 84.2155 155.617 87.1305L156.121 87.6384C156.593 88.1341 156.97 88.5925 157.24 89.0134C157.869 89.9956 158.414 91.1146 158.877 92.3649V92.3669C159.791 94.842 160.434 97.3306 160.812 99.8317C160.949 99.6979 161.084 99.5791 161.214 99.4723L163.238 97.8102C163.752 97.3927 164.218 96.8427 164.629 96.1462C166.079 93.6873 166.894 90.8753 167.345 87.9235C167.75 85.2755 167.908 82.6025 167.818 79.904L167.763 78.7458C167.63 76.5217 166.886 74.1609 165.791 72.4098C165.232 71.5163 164.557 70.7883 163.765 70.2184C162.53 69.3307 161.074 68.6295 159.388 68.1227C156.772 67.3371 154.096 66.8791 151.361 66.7497L150.185 66.7145C149.891 66.7111 149.584 66.6814 149.312 66.654C149.028 66.6253 148.785 66.6009 148.574 66.5973V66.5954ZM64.9605 104.927C65.0739 105.331 65.1808 105.732 65.2711 106.134C65.3613 106.537 65.4292 106.916 65.4723 107.271C65.5087 107.051 65.5476 106.831 65.5836 106.611C65.6716 106.072 65.7661 105.541 65.8668 105.017C65.8254 105.026 65.7854 105.031 65.7476 105.033H65.7437C65.6456 105.037 65.5594 105.02 65.484 104.992C65.3657 105.025 65.2481 105.027 65.1422 105.002V105.004C65.0769 104.988 65.0164 104.961 64.9605 104.927ZM134.691 106.851C134.746 106.922 134.817 106.978 134.898 107.015C134.979 107.053 135.067 107.07 135.156 107.066C135.227 107.063 135.296 107.042 135.361 107.013L135.324 106.972C135.273 106.969 135.218 106.961 135.162 106.943C135.052 106.907 134.969 106.845 134.904 106.779L134.642 106.771C134.657 106.799 134.672 106.827 134.691 106.851ZM134.785 106.775L134.904 106.779C134.886 106.76 134.866 106.744 134.851 106.724L134.785 106.775ZM134.582 106.611C134.592 106.668 134.615 106.721 134.642 106.771L134.785 106.775L134.851 106.724C134.813 106.675 134.785 106.624 134.763 106.576L134.582 106.611ZM135.029 104.597C134.968 104.641 134.904 104.68 134.834 104.703C134.827 104.705 134.819 104.705 134.812 104.707C134.736 104.768 134.632 104.833 134.494 104.855C134.434 104.865 134.376 104.863 134.322 104.857C134.259 104.868 134.196 104.874 134.132 104.867C134.044 104.857 133.958 104.83 133.88 104.787C134.033 105.484 134.173 106.14 134.306 106.752C134.322 106.384 134.543 106.128 134.781 105.974C134.833 105.835 134.869 105.696 134.894 105.515C134.921 105.322 134.951 105.013 135.009 104.693V104.691C135.015 104.66 135.023 104.629 135.029 104.597ZM134.668 106.218C134.626 106.278 134.597 106.346 134.584 106.418C134.57 106.488 134.572 106.55 134.58 106.597L134.759 106.566C134.75 106.545 134.74 106.525 134.734 106.506V106.504C134.708 106.421 134.699 106.339 134.705 106.261L134.668 106.218ZM65.816 104.195L65.818 104.201C65.8169 104.198 65.8152 104.194 65.8141 104.191L65.816 104.195ZM160.386 102.363C160.396 102.408 160.401 102.453 160.41 102.498C160.502 102.064 160.723 101.657 161 101.289C160.952 101.312 160.903 101.333 160.851 101.347C160.685 101.394 160.509 101.392 160.343 101.341C160.277 101.321 160.215 101.292 160.156 101.257C160.225 101.589 160.302 101.958 160.386 102.363ZM39.568 100.386C39.3741 100.512 39.1599 100.555 38.9683 100.564L38.9703 100.566C38.9677 100.566 38.9651 100.564 38.9625 100.564L38.9605 100.566L38.9586 100.564H38.9547C38.9758 100.578 38.996 100.595 39.0172 100.609C39.1859 100.72 39.3191 100.874 39.4117 101.052C39.4638 100.83 39.5153 100.608 39.568 100.386Z" fill="#787B83"/>
<path d="M134.498 104.135C134.976 102.083 135.913 100.234 137.019 98.2727C139.117 94.5448 141.806 90.8229 144.815 88.0545C147.878 85.24 152.047 84.3808 155.327 87.3981C157.104 89.0322 158.125 91.2083 158.859 93.4888C159.41 95.2032 159.854 96.8675 160.192 98.4815C160.335 99.1694 160.429 99.8794 160.475 100.611C160.476 100.63 160.482 100.648 160.494 100.663C160.505 100.677 160.521 100.688 160.539 100.694C160.557 100.699 160.576 100.699 160.593 100.693C160.611 100.688 160.627 100.677 160.638 100.662C161.765 99.2343 163.574 98.4172 164.567 96.9779C167.293 93.0211 167.952 87.645 168.227 82.9494C168.309 81.5776 168.274 80.0312 168.121 78.3101C167.953 76.423 167.408 74.5995 166.485 72.8396C165.07 70.1436 162.23 68.5757 159.382 67.7225C155.01 66.4136 150.654 66.2209 145.82 66.1948C140.364 66.168 135.768 66.235 132.034 66.3956C128.102 66.5642 124.054 66.9135 120.694 67.4555C114.774 68.4097 111.408 68.9484 110.598 69.0716C104.531 69.9856 98.3447 70.1342 92.0375 69.5172C89.1773 69.2382 86.2065 68.644 83.1333 68.0979C77.6541 67.1223 71.8017 66.5421 65.5762 66.3574C65.2706 66.3494 65.0522 66.344 64.9209 66.3413C59.6012 66.2771 55.6757 66.259 53.1445 66.2871C51.645 66.3032 50.3948 66.4056 48.7909 66.508C46.2623 66.6699 43.8008 67.0901 41.4062 67.7687C39.3735 68.3455 37.5833 69.1846 36.0356 70.2861C33.8106 71.868 32.4116 74.7327 31.9775 77.3364C31.7644 78.6226 31.6874 79.9656 31.7463 81.3655C31.8642 84.1292 32.2213 86.7403 32.8176 89.1988C33.7804 93.1676 35.706 97.3573 39.0285 99.8386C39.0421 99.8488 39.0582 99.8554 39.0752 99.8576C39.0921 99.8598 39.1093 99.8575 39.1252 99.8511C39.141 99.8446 39.1548 99.8341 39.1654 99.8206C39.1759 99.8072 39.1827 99.7912 39.1852 99.7743C39.3822 98.4634 39.9088 96.8695 40.5319 95.0988C41.7218 91.7162 43.5951 88.9258 47.0382 87.5868C52.7063 85.3865 57.08 89.267 59.9764 93.6273C62.0534 96.7524 63.7692 100.005 65.1239 103.386C65.2405 103.679 65.3068 104.028 65.3872 104.343C65.3644 104.408 65.3289 104.434 65.2807 104.422C65.2733 104.42 65.2665 104.416 65.2609 104.411C65.2552 104.406 65.251 104.399 65.2485 104.392C63.9943 100.758 62.123 97.3834 60.0507 94.1091C59.1958 92.7588 58.2538 91.5589 57.2247 90.5097C54.8811 88.1208 51.844 86.5669 48.3929 87.3981C44.5639 88.3195 42.2947 90.9814 40.9038 94.6913C40.2579 96.4151 39.7561 98.0706 39.3983 99.6579C39.3541 99.8546 39.2 99.9583 38.936 99.969C38.8702 99.9729 38.806 99.9513 38.7571 99.9088C37.389 98.7297 36.4249 97.7026 35.8648 96.8273C34.025 93.9526 32.8109 90.7867 32.2227 87.3298C31.7182 84.3587 31.3162 81.2712 31.6217 78.2639C31.9332 75.1824 33.4709 71.8419 36.0537 70.0171C37.3481 69.103 38.8851 68.3602 40.6646 67.7888C43.0042 67.0366 45.5609 66.5501 48.3346 66.3293C49.6089 66.2276 50.5476 66.1714 51.1506 66.1607C53.9123 66.1112 58.698 66.1232 65.5078 66.1968C70.8892 66.257 76.1024 66.7081 81.1474 67.5499C83.5554 67.9514 86.3747 68.4345 89.6054 68.9993C90.6546 69.1826 92.1406 69.3392 94.0635 69.469C95.7385 69.5815 97.313 69.6631 98.7869 69.714C99.9567 69.7528 101.096 69.7166 102.204 69.6056C103.05 69.5212 104.037 69.5754 105.016 69.457C105.166 69.4383 106.083 69.3566 107.767 69.2121C108.626 69.1398 109.538 69.0261 110.503 68.8708C114.77 68.1869 117.667 67.7205 119.196 67.4716C121.291 67.1316 123.302 66.8673 125.23 66.6786C128.435 66.3641 130.457 66.1928 131.294 66.1647C132.957 66.1071 134.363 66.069 135.513 66.0503C135.691 66.0462 135.896 66.0402 136.128 66.0322C138.781 65.9291 142.933 65.9178 148.584 65.9981C149.068 66.0061 149.665 66.1105 150.192 66.1165C153.393 66.158 156.516 66.6358 159.56 67.5499C161.301 68.0732 162.819 68.8005 164.115 69.732C164.974 70.3503 165.702 71.1373 166.3 72.0928C167.452 73.9337 168.223 76.3929 168.362 78.7116C168.548 81.846 168.407 84.9476 167.938 88.0164C167.48 91.0156 166.646 93.9064 165.144 96.4519C164.702 97.2014 164.191 97.811 163.613 98.2807C163.539 98.3396 162.866 98.8917 161.595 99.9369C161.363 100.127 161.109 100.375 160.833 100.682C160.794 100.725 160.744 100.756 160.689 100.772C160.633 100.788 160.574 100.787 160.519 100.77C160.463 100.753 160.414 100.721 160.377 100.676C160.34 100.632 160.316 100.578 160.308 100.521C159.953 97.8605 159.288 95.2119 158.314 92.5754C157.864 91.3589 157.337 90.2802 156.734 89.3393C156.41 88.8334 155.898 88.2412 155.199 87.5627C152.463 84.9128 148.554 85.3183 145.752 87.5747C144.514 88.5718 143.241 89.878 141.933 91.4934C140.546 93.2038 139.514 94.5976 138.838 95.675C137.159 98.349 135.505 101.051 134.717 104.064C134.7 104.133 134.627 104.156 134.498 104.135Z" fill="#787B83"/>
<path d="M135.165 106.558C135.086 106.772 135.056 106.991 135.076 107.213C135.135 107.899 135.227 108.576 135.352 109.242C135.691 111.052 136.033 112.9 136.379 114.787C136.449 115.163 136.53 115.412 136.624 115.534C136.68 115.605 136.759 115.653 136.845 115.668C137.586 115.798 138.287 116.039 138.948 116.391C140.449 117.188 142.419 118.282 144.547 119.585C146.859 120.996 148.861 122.167 151.142 122.873C152.37 123.255 154.435 123.441 155.653 122.799C156.245 122.487 156.732 122.092 157.114 121.615C159.144 119.081 160.052 115.69 160.362 112.388C160.611 109.721 160.487 107.11 159.99 104.555C159.352 101.274 158.833 98.7671 158.432 97.0326C157.598 93.4051 156.461 89.8699 153.556 87.8403C152.577 87.1557 150.901 86.5936 149.699 86.9028C149.231 87.0246 148.603 87.2715 147.814 87.6435C147.043 88.0076 146.249 88.5757 145.43 89.3479C142.757 91.8713 140.696 94.9207 138.668 98.1067C137.109 100.558 135.993 103.113 135.619 106.008C135.599 106.166 135.535 106.284 135.428 106.362C135.367 106.387 135.328 106.374 135.312 106.323C135.308 106.312 135.309 106.298 135.314 106.285C135.517 105.817 135.493 105.416 135.605 104.798C135.988 102.699 136.973 100.4 138.56 97.8999C139.916 95.7626 141.361 93.7075 142.895 91.7348C143.638 90.7806 144.482 89.8853 145.428 89.0488C146.277 88.2993 147.014 87.7827 147.637 87.499C148.126 87.2755 148.738 87.0159 149.474 86.7201C149.529 86.6987 149.586 86.6826 149.645 86.6719C150.963 86.421 152.565 86.8686 153.58 87.5813C153.949 87.8409 154.242 88.0397 154.461 88.1775C154.606 88.2694 154.737 88.381 154.849 88.5088C156.186 90.0251 157.179 91.8626 157.827 94.0214C158.327 95.6849 158.763 97.4341 159.136 99.269C159.212 99.6411 159.435 100.712 159.803 102.483C160.273 104.731 160.585 106.769 160.746 108.929C160.781 109.395 160.77 109.956 160.714 110.611C160.657 111.275 160.612 111.837 160.577 112.298C160.395 114.778 159.818 117.086 158.846 119.224C158.469 120.057 157.939 120.894 157.259 121.735C154.629 124.979 150.149 122.982 147.209 121.384C146.603 121.056 145.03 120.123 142.489 118.585C141.436 117.949 140.073 117.234 138.998 116.642C138.348 116.286 137.623 116.024 136.823 115.855C136.234 115.731 136.106 114.566 136.007 114.01C135.623 111.839 135.339 110.299 135.157 109.389C134.965 108.433 134.884 107.563 134.912 106.779C134.916 106.657 134.985 106.554 135.121 106.47C135.126 106.467 135.132 106.465 135.138 106.465C135.144 106.465 135.15 106.466 135.156 106.469C135.161 106.471 135.166 106.475 135.17 106.48C135.173 106.484 135.176 106.49 135.177 106.496C135.181 106.52 135.177 106.541 135.165 106.558Z" fill="#787B83"/>
<path d="M58.0714 92.8733C58.176 93.0994 58.3428 93.3363 58.5719 93.5839C58.604 93.62 58.6343 93.6576 58.6624 93.6963C58.9022 94.0216 59.8764 95.6557 61.5849 98.5987C63.0897 101.19 64.1248 103.745 64.6903 106.263C64.8605 107.022 64.9409 107.67 64.9315 108.207C64.9208 108.775 64.8437 109.426 64.7003 110.158C64.0478 113.502 63.556 116.312 63.225 118.585C63.1031 119.414 62.6334 120.124 61.816 120.717C61.1139 121.226 60.2 121.718 59.0744 122.193C56.2243 123.397 53.1289 124.32 49.7883 124.961C48.7365 125.163 47.6846 125.28 46.6327 125.31C44.7045 125.365 43.0998 124.947 41.8188 124.056C38.1647 121.516 37.7747 117.463 38.032 113.29C38.091 112.321 38.2163 110.987 38.4079 109.289C38.5513 108.021 38.771 106.701 39.0672 105.328C39.4624 103.489 39.8785 101.662 40.3153 99.8473C41.0108 96.9525 41.9796 93.9754 43.6459 91.5363C44.1832 90.7507 44.8626 90.0929 45.684 89.5629C46.4987 89.0369 47.3831 88.6127 48.3371 88.2901C48.6266 88.1911 49.0581 88.1115 49.6316 88.0512C51.4506 87.8625 53.6455 88.8221 54.9781 89.856C55.7821 90.4783 56.7918 91.4513 58.0071 92.7749C58.0337 92.8042 58.0555 92.8374 58.0714 92.8733ZM62.9275 118.965C63.4273 115.852 63.9627 112.775 64.5335 109.734C64.7278 108.698 64.7707 107.876 64.6621 107.267C64.169 104.479 63.2123 101.856 61.7919 99.3976C59.4262 95.3023 57.9187 92.3674 54.6444 89.9343C52.8535 88.6013 50.3773 87.8083 48.2326 88.5551C47.308 88.8763 46.4652 89.2852 45.7041 89.7817C44.1303 90.8095 43.0127 92.6785 42.3012 94.405C40.9686 97.629 40.4038 100.329 39.5093 104.24C38.7194 107.685 38.3476 111.14 38.1828 114.588C38.1238 115.834 38.2223 117.123 38.4782 118.453C38.765 119.948 39.2467 121.132 39.9234 122.004C41.861 124.505 44.6408 125.481 47.7583 125.058C50.8911 124.631 53.9691 123.871 56.9921 122.779C58.3334 122.295 59.5387 121.775 60.608 121.219C61.4013 120.807 61.9272 120.446 62.1859 120.135C62.6428 119.588 62.89 119.198 62.9275 118.965Z" fill="#787B83"/>
<path d="M134.281 104.189C134.273 104.232 134.256 104.258 134.229 104.266C134.22 104.269 134.21 104.269 134.2 104.268C134.191 104.267 134.182 104.264 134.173 104.26C134.165 104.255 134.157 104.249 134.151 104.241C134.145 104.234 134.141 104.225 134.138 104.216C133.465 101.698 132.603 98.6669 131.411 95.8644C130.985 94.862 130.488 93.9465 129.922 93.1181C129.309 92.2214 128.606 91.4519 127.811 90.8095C125.879 89.2476 123.275 88.3322 120.686 88.3664C119.618 88.3797 119.003 88.3904 118.843 88.3985C118.23 88.4306 117.292 88.6293 116.027 88.9947C115.859 89.0429 115.189 89.3139 114.017 89.8077C113.254 90.1276 112.618 90.4696 112.109 90.8336C110.958 91.658 110.127 92.3385 109.615 92.8752C106.917 95.7018 105.05 98.9941 104.093 102.836C103.694 104.441 103.407 105.988 103.231 107.478C103.115 108.468 103.013 109.185 102.928 109.628C102.793 110.322 101.48 110.11 100.863 110.005C99.6835 109.808 98.7831 109.74 97.7479 110.005C97.6999 110.018 97.6497 110.02 97.6009 110.011C97.552 110.002 97.5056 109.983 97.4648 109.955C97.424 109.927 97.3898 109.89 97.3644 109.848C97.339 109.805 97.3231 109.757 97.3178 109.708C97.0163 106.967 96.4187 104.194 95.5249 101.387C94.9782 99.6686 94.3491 97.904 93.3782 96.4084C90.6628 92.2248 86.7293 89.2135 81.7003 88.4527C81.2929 88.3911 80.5352 88.3617 79.427 88.3643C76.2653 88.3704 73.1258 89.6793 70.9751 91.9397C69.879 93.0934 68.9919 94.4451 68.3139 95.9949C67.1119 98.7411 66.4607 101.311 65.8657 104.306C65.8497 104.386 65.8014 104.428 65.721 104.432C65.6902 104.434 65.6634 104.416 65.6406 104.378C66.1893 101.495 66.8868 98.7331 68.0807 96.0109C68.949 94.0295 70.2354 92.0481 71.9318 90.7693C74.0838 89.1473 76.39 88.2673 78.8502 88.1295C83.8349 87.8524 88.293 90.0326 91.6215 93.7424C93.0446 95.3284 94.0697 96.9123 94.6968 98.4942C96.1788 102.239 97.1221 106.014 97.5268 109.821C97.5282 109.831 97.5318 109.841 97.5373 109.85C97.5429 109.859 97.5503 109.867 97.559 109.872C97.5677 109.878 97.5776 109.882 97.588 109.884C97.5984 109.886 97.6091 109.885 97.6193 109.883C98.4219 109.671 99.2011 109.614 99.9569 109.712C100.67 109.804 101.42 109.874 102.208 109.921C102.566 109.942 102.758 109.794 102.785 109.475C103.023 106.499 103.555 103.709 104.381 101.106C105.239 98.4059 106.807 95.7279 108.59 93.6561C110.743 91.1561 113.477 89.4538 116.79 88.549C118.5 88.082 120.257 87.9682 122.061 88.2078C126.125 88.7478 129.325 90.9922 131.119 94.7161C132.494 97.5667 133.355 100.504 134.219 103.75C134.256 103.893 134.277 104.04 134.281 104.189Z" fill="#787B83"/>
<path d="M84.3319 90.3018C82.7226 89.7491 81.1943 89.4727 79.7471 89.4727C75.7392 89.4713 72.6519 91.1469 70.4852 94.4995C68.4571 97.6372 67.4461 101.164 66.7748 104.649C66.1698 107.789 65.7437 110.65 65.0603 114.334C64.5537 117.066 64.064 119.934 63.591 122.936C63.2151 125.321 62.8794 127.168 63.4603 129.231C64.1095 131.534 65.5728 133.094 68.0431 133.361C68.6956 133.43 69.4976 133.311 70.449 133.003C72.7203 132.265 74.9312 131.159 76.7764 130.492C81.343 128.84 86.5469 130.781 90.7517 132.636C92.9145 133.59 95.4269 133.762 96.6892 131.733C97.059 131.137 97.2841 130.072 97.3645 128.539C97.4342 127.224 97.4503 126.122 97.4128 125.23C97.3505 123.727 97.2942 122.012 97.1153 120.286C96.8406 117.661 96.5626 114.608 96.2812 111.126C96.0306 108.017 95.4169 104.905 94.44 101.791C94.4628 101.724 94.4836 101.684 94.5023 101.67C94.5165 101.661 94.5328 101.655 94.5498 101.653C94.5668 101.651 94.584 101.653 94.6001 101.658C94.6162 101.664 94.6306 101.674 94.6423 101.686C94.6539 101.699 94.6625 101.714 94.6672 101.731C95.2634 103.821 95.7545 105.924 96.1405 108.038C96.2369 108.567 96.2879 108.914 96.2932 109.08C96.3073 109.576 96.4219 109.991 96.456 110.473C96.6959 113.98 97.0175 117.561 97.4208 121.217C97.4791 121.735 97.461 122.311 97.5072 122.819C97.7056 124.921 97.7176 126.927 97.5434 128.838C97.5434 128.839 97.5307 129.112 97.5052 129.655C97.4047 131.839 95.9776 133.541 93.6883 133.533C92.8334 133.529 92.0575 133.384 91.3607 133.098C88.9448 132.103 87.4246 131.501 86.8001 131.291C83.2686 130.105 79.5321 129.484 76.0327 131.008C74.9326 131.486 73.7695 131.977 72.5434 132.481C71.6108 132.865 71.0078 133.038 70.0952 133.331C69.7294 133.448 69.3924 133.518 69.0842 133.539C65.1165 133.808 63.2171 130.918 62.9357 127.36C62.8727 126.573 62.9471 125.558 63.1588 124.315C63.4643 122.528 63.6312 121.065 63.9588 119.252C65.0341 113.332 65.6271 110.09 66.1798 106.709C66.5858 104.225 67.1265 101.902 67.8019 99.7411C68.2601 98.2756 68.9234 96.7686 69.7917 95.2202C70.6788 93.6409 71.7354 92.3936 72.9615 91.4782C75.0103 89.9485 77.305 89.205 79.8456 89.2478C81.1173 89.2693 82.5872 89.5363 84.2555 90.0488C84.2835 90.0571 84.3077 90.0751 84.3239 90.0997C84.3401 90.1243 84.3472 90.1539 84.3439 90.1833L84.3319 90.3018Z" fill="#787B83"/>
<path d="M125.045 90.1467C126.604 90.761 128.046 91.8351 129.109 93.3327C129.981 94.5639 130.681 95.9223 131.209 97.4079C131.977 99.568 132.607 101.767 133.099 104.005C134 108.107 134.587 110.866 134.859 112.281C134.984 112.928 135.12 114.017 135.267 115.55C135.302 115.914 135.352 116.309 135.416 116.736C135.493 117.262 135.474 117.732 135.553 118.322C135.803 120.204 136.073 122.419 136.363 124.969C136.431 125.569 136.467 126.195 136.566 126.926C136.673 127.719 136.71 128.269 136.676 128.576C136.478 130.454 135.638 131.934 134.156 133.015C133.454 133.528 132.586 133.86 131.553 134.013C130.709 134.136 129.774 134.086 128.749 133.864C126.428 133.36 124.188 132.176 121.907 131.254C118.8 130.002 115.612 129.353 112.464 130.757C111.542 131.167 110.46 131.674 109.216 132.276C108.176 132.779 107.08 132.996 105.928 132.925C104.678 132.847 103.754 132.275 103.156 131.208C102.591 130.198 102.682 128.938 102.736 127.557C102.755 127.098 102.794 126.519 102.855 125.82C103.037 123.684 103.159 122.061 103.22 120.952C103.227 120.838 103.235 120.724 103.243 120.611C103.311 119.686 103.368 118.951 103.413 118.406C103.462 117.822 103.509 117.012 103.554 115.977C103.606 114.755 103.717 113.271 103.769 111.832C103.846 109.796 104.138 107.395 104.648 104.629C105.153 101.893 106.171 99.3351 107.703 96.9542C109.134 94.7312 110.873 92.9218 112.921 91.5259C113.774 90.9437 114.809 90.4345 116.024 89.9982C119.045 88.9141 122.02 88.9583 125.045 90.1467ZM136.379 127.464C136.299 126.517 136.214 125.507 136.108 124.688C135.659 121.22 135.267 117.814 134.934 114.47C134.827 113.398 134.618 112.077 134.467 111.376C134.422 111.169 133.956 108.974 133.071 104.793C132.374 101.505 131.473 98.5903 130.367 96.0488C129.736 94.5967 128.919 93.3708 127.917 92.3711C125.38 89.8456 121.503 88.9824 118.028 89.6609C110.876 91.0582 106.139 97.8897 104.857 104.645C104.518 106.433 104.29 108.076 104.173 109.573C104.038 111.293 103.856 114.174 103.628 118.216C103.552 119.551 103.31 122.893 102.901 128.241C102.841 129.033 102.902 129.778 103.084 130.475C103.552 132.258 105.333 132.945 107.029 132.704C108.78 132.453 110.068 131.666 112.109 130.67C117.081 128.239 121.911 131.096 126.474 132.957C129.891 134.35 133.947 134.418 135.887 130.68C136.391 129.709 136.471 128.546 136.379 127.464Z" fill="#787B83"/>
<path d="M136.584 117.173C137.03 120.018 137.386 122.865 137.651 125.713C137.847 127.803 137.854 129.251 137.674 130.057C136.703 134.409 132.249 135.909 128.203 134.895C126.717 134.522 125.324 133.98 123.652 133.227C120.87 131.974 117.948 130.794 115.011 131.245C111.57 131.777 108.306 135.134 104.384 133.857C102.053 133.096 101.448 130.119 101.518 128.009C101.554 126.891 101.601 126.016 101.659 125.386C101.932 122.364 102.255 118.233 102.628 112.995C102.68 112.259 102.709 111.658 102.716 111.19C102.716 111.177 102.714 111.164 102.708 111.152C102.702 111.139 102.694 111.128 102.684 111.12C102.674 111.111 102.662 111.104 102.649 111.101C102.636 111.097 102.623 111.096 102.61 111.098C101.06 111.361 99.5142 110.913 97.9605 111.237C97.8717 111.255 97.7928 111.306 97.7388 111.379C97.6847 111.452 97.6592 111.542 97.6671 111.632C98.0932 116.492 98.388 120.048 98.5515 122.302C98.6319 123.416 98.66 124.568 98.6781 125.392C98.7236 127.433 98.6982 128.853 98.6017 129.651C98.451 130.908 98.1615 132.456 97.1766 133.375C95.3516 135.078 93.0662 135.07 90.8191 134.176C88.8875 133.412 87.1449 132.629 85.0706 132.012C82.1219 131.135 78.8859 131.063 76.0217 132.255C73.0469 133.494 70.4118 134.871 67.427 134.538C65.5859 134.332 64.128 133.421 63.0533 131.806C61.2182 129.047 61.6102 124.92 62.5287 121.917C62.5542 121.899 62.581 121.893 62.6091 121.899C62.6255 121.901 62.6401 121.911 62.6499 121.924C62.6596 121.938 62.6637 121.954 62.6614 121.971C62.5877 122.455 62.5039 122.906 62.4101 123.324C61.978 125.239 61.9197 127.319 62.1649 128.941C62.386 130.393 63.0587 131.683 64.1829 132.811C65.0291 133.66 66.0743 134.086 67.1758 134.277C68.9968 134.592 70.7857 134.176 72.5987 133.44C75.2036 132.38 77.3402 131.251 80.0336 131.161C82.6646 131.071 85.3359 131.699 87.6574 132.647C89.6419 133.456 90.8439 133.943 91.2633 134.106C91.8288 134.326 92.4626 134.473 93.1647 134.548C94.5905 134.698 95.8728 134.262 97.0118 133.241C97.7635 132.566 97.9103 131.866 98.1675 130.88C98.2573 130.536 98.3183 130.175 98.3505 129.798C98.526 127.785 98.5722 126.178 98.4891 124.976C98.4248 124.053 98.3813 123.329 98.3585 122.804C98.3344 122.275 98.2875 121.551 98.2178 120.63C98.0356 118.246 97.8037 115.531 97.5224 112.483C97.456 111.755 97.3093 111.192 98.1314 111.02C98.4409 110.956 98.8282 110.919 99.2931 110.911C99.5357 110.907 100.605 110.913 102.501 110.928C102.599 110.928 102.693 110.966 102.764 111.034C102.834 111.102 102.875 111.195 102.879 111.293C102.892 111.61 102.888 111.989 102.865 112.429C102.792 113.832 102.598 116.54 102.28 120.553C101.918 125.107 101.735 127.409 101.731 127.461C101.595 129.571 102.021 132.775 104.435 133.634C107.409 134.692 110.089 132.773 112.889 131.639C114.172 131.118 115.497 130.881 116.862 130.926C118.707 130.988 120.699 131.751 122.333 132.422C122.848 132.632 123.352 132.848 123.847 133.07C125.541 133.828 127.072 134.379 128.44 134.724C129.413 134.971 130.902 135.1 131.929 134.915C133.923 134.556 135.877 133.57 136.829 131.763C137.321 130.829 137.564 129.836 137.559 128.784C137.552 127.798 137.511 126.818 137.434 125.843C137.271 123.777 136.937 121.083 136.433 117.761C136.377 117.393 136.427 117.197 136.584 117.173Z" fill="#787B83"/>
</g>
<path opacity="0.7" d="M141 140V146H59V140H141ZM164 117C164 104.297 153.703 94 141 94H59C46.2975 94 36 104.297 36 117C36 129.703 46.2975 140 59 140V146L58.252 145.99C42.5814 145.593 30 132.766 30 117C30 100.984 42.9837 88 59 88H141C157.016 88 170 100.984 170 117C170 132.766 157.419 145.593 141.748 145.99L141 146V140C153.703 140 164 129.703 164 117Z" fill="#CF1039"/>
</g>
</svg>
