<svg width="16" height="16" viewBox="0 0 16 16" fill="none" xmlns="http://www.w3.org/2000/svg">
<mask id="mask0_322_4024" style="mask-type:alpha" maskUnits="userSpaceOnUse" x="0" y="0" width="16" height="16">
<rect width="16" height="16" fill="#D9D9D9"/>
</mask>
<g mask="url(#mask0_322_4024)">
<path d="M15.2 14.4V3.2C15.2 2.3176 14.4824 1.6 13.6 1.6H12V0H10.4V1.6H5.59999V0H3.99999V1.6H2.39999C1.51759 1.6 0.799988 2.3176 0.799988 3.2V14.4C0.799988 15.2824 1.51759 16 2.39999 16H13.6C14.4824 16 15.2 15.2824 15.2 14.4ZM5.59999 12.8H3.99999V11.2H5.59999V12.8ZM5.59999 9.6H3.99999V8H5.59999V9.6ZM8.79999 12.8H7.19999V11.2H8.79999V12.8ZM8.79999 9.6H7.19999V8H8.79999V9.6ZM12 12.8H10.4V11.2H12V12.8ZM12 9.6H10.4V8H12V9.6ZM13.6 5.6H2.39999V4H13.6V5.6Z" fill="white"/>
</g>
</svg>
