<svg preserveAspectRatio="none" width="100%" height="100%" overflow="visible" style="display: block;" viewBox="0 0 20 20" fill="none" xmlns="http://www.w3.org/2000/svg">
<g id="calendar">
<mask id="mask0_529_16060" style="mask-type:alpha" maskUnits="userSpaceOnUse" x="0" y="0" width="20" height="20">
<rect id="Rectangle 353" width="20" height="20" fill="var(--fill-0, #D9D9D9)"/>
</mask>
<g mask="url(#mask0_529_16060)">
<path id="Vector" d="M19 18V4C19 2.897 18.103 2 17 2H15V0H13V2H7V0H5V2H3C1.897 2 1 2.897 1 4V18C1 19.103 1.897 20 3 20H17C18.103 20 19 19.103 19 18ZM7 16H5V14H7V16ZM7 12H5V10H7V12ZM11 16H9V14H11V16ZM11 12H9V10H11V12ZM15 16H13V14H15V16ZM15 12H13V10H15V12ZM17 7H3V5H17V7Z" fill="var(--fill-0, white)"/>
</g>
</g>
</svg>
