<svg preserveAspectRatio="none" width="100%" height="100%" overflow="visible" style="display: block;" viewBox="0 0 145 48" fill="none" xmlns="http://www.w3.org/2000/svg">
<g id="&#227;&#131;&#172;&#227;&#130;&#164;&#227;&#131;&#164;&#227;&#131;&#188; 1">
<path id="Vector" d="M119.009 47.7114H108.545C108.45 47.7114 108.397 47.6023 108.453 47.5284L116.021 37.437C116.119 37.3068 116.024 37.1202 115.862 37.1202H109.259V35.8355H118.397C118.594 35.8355 118.706 36.0572 118.59 36.2156L111.441 45.9198C111.382 46.0008 111.441 46.1099 111.54 46.1099H119.009V47.7114Z" fill="var(--fill-0, #231815)"/>
<path id="Vector_2" d="M53.6561 6.39909H68.003V8.52507C68.003 8.67642 67.8798 8.79961 67.7284 8.79961H56.2186V14.9171H66.412C66.5317 14.9171 66.6267 15.0121 66.6267 15.1318V17.1346C66.6267 17.2543 66.5317 17.3493 66.412 17.3493H56.2186V24.0757H68.2458C68.5943 24.0757 68.8794 24.3608 68.8794 24.7093V26.529H53.6596V6.39909H53.6561Z" fill="var(--fill-0, #231815)"/>
<path id="Vector_3" d="M72.3573 26.1875V5.75489L87.13 20.9043V6.68412C87.13 6.52573 87.2567 6.39902 87.4151 6.39902H89.2278C89.3862 6.39902 89.5129 6.52573 89.5129 6.68412V26.9548L74.9162 12.0836V26.1875C74.9162 26.3952 74.7472 26.5677 74.5361 26.5677H72.7339C72.5262 26.5677 72.3538 26.3987 72.3538 26.1875H72.3573Z" fill="var(--fill-0, #231815)"/>
<path id="Vector_4" d="M92.8498 8.52503V6.64192C92.8498 6.49057 92.973 6.36738 93.1244 6.36738H108.862C109.013 6.36738 109.136 6.49057 109.136 6.64192V8.52503C109.136 8.67639 109.013 8.79958 108.862 8.79958H102.322V25.9553C102.322 26.2826 102.058 26.5501 101.727 26.5501H100.136C99.9493 26.5501 99.798 26.3988 99.798 26.2122V8.79958H93.1244C92.973 8.79958 92.8498 8.67639 92.8498 8.52503Z" fill="var(--fill-0, #231815)"/>
<path id="Vector_5" d="M129.304 6.40607H131.371C131.515 6.40607 131.631 6.52222 131.631 6.66653V23.8257C131.631 23.9771 131.754 24.0968 131.902 24.0968H143.215C143.472 24.0968 143.676 24.3044 143.676 24.5578V26.0432C143.676 26.3002 143.468 26.5043 143.215 26.5043H129.361C129.185 26.5043 129.044 26.3635 129.044 26.1875V6.66653C129.044 6.52222 129.16 6.40607 129.304 6.40607Z" fill="var(--fill-0, #231815)"/>
<path id="Vector_6" d="M35.8496 37.3982C34.6493 36.2578 33.1358 35.6805 31.3582 35.6805C30.2601 35.6805 29.2217 35.9445 28.2784 36.469C27.3316 36.9934 26.5748 37.7291 26.0292 38.6548C25.4801 39.5805 25.2056 40.5977 25.2056 41.6819C25.2056 43.308 25.8145 44.716 27.0183 45.8599C28.2186 47.0038 29.711 47.5846 31.4568 47.5846C33.2026 47.5846 34.6598 47.0003 35.8601 45.8529C37.0604 44.7019 37.6693 43.2799 37.6693 41.6291C37.6693 39.9783 37.0604 38.5386 35.8566 37.3982H35.8496ZM36.2227 41.6255C36.2227 42.4844 36.0115 43.2799 35.5961 43.9803C35.1808 44.6843 34.593 45.2439 33.8503 45.6522C33.1041 46.057 32.284 46.2647 31.4075 46.2647C30.0981 46.2647 28.9648 45.8177 28.0355 44.9342C27.1098 44.0542 26.6381 42.9596 26.6381 41.6783C26.6381 40.8125 26.8493 40.017 27.2682 39.3165C27.6871 38.6126 28.2784 38.0459 29.0246 37.6305C29.7708 37.2152 30.5733 37.004 31.404 37.004C32.2347 37.004 33.0689 37.2152 33.8256 37.6305C34.5824 38.0459 35.1773 38.6055 35.5926 39.2989C36.0079 39.9888 36.2191 40.7737 36.2191 41.6291L36.2227 41.6255Z" fill="var(--fill-0, #231815)"/>
<path id="Vector_7" d="M40.5132 35.8846H41.006C41.2418 35.8846 41.4284 36.0747 41.4284 36.307V40.7737C41.4284 40.8793 41.5551 40.9321 41.629 40.8547L46.5533 35.8037H48.5068L42.9102 41.1679L49.4536 47.4121C49.5381 47.4931 49.4818 47.6303 49.3656 47.6303H48.1161C47.6972 47.6303 47.2924 47.4649 46.9968 47.1657L41.8332 42.0092C41.7241 41.9 41.541 41.9775 41.541 42.1324V47.6303H40.566C40.302 47.6303 40.0909 47.4156 40.0909 47.1552V36.3105C40.0909 36.0747 40.2809 35.8882 40.5132 35.8882V35.8846Z" fill="var(--fill-0, #231815)"/>
<path id="Vector_8" d="M49.3653 35.8037H50.9176C51.1112 35.8037 51.2942 35.8952 51.4104 36.0501L54.5536 40.207L57.7742 35.9902C57.8657 35.8741 58.003 35.8037 58.1508 35.8037H59.0238C59.242 35.8037 59.3687 36.0571 59.2314 36.2296L55.1308 41.5023V47.2713C55.1308 47.4684 54.9724 47.6268 54.7753 47.6268H54.0889C53.8918 47.6268 53.7334 47.4684 53.7334 47.2713V41.5023L49.3618 35.8037H49.3653Z" fill="var(--fill-0, #231815)"/>
<path id="Vector_9" d="M19.0669 14.1392C17.2472 12.2314 14.5792 11.2248 11.355 11.2248C8.65175 11.2248 6.58561 12.2138 5.14248 13.2803V2.73491H20.2003V0H2.40757V14.6531L5.35015 16.7826C6.16675 15.8217 8.16601 13.9561 11.355 13.9561C13.8118 13.9561 15.797 14.6707 17.0888 16.0258C18.3383 17.3317 18.9402 19.2324 18.8346 21.5203C18.6551 25.4167 14.6495 27.8243 11.0452 27.8243C6.2477 27.8243 3.58671 25.8321 2.67155 21.5519L0 22.1222C0.820121 25.9693 3.40368 30.5557 11.0452 30.5557C15.9061 30.5557 21.3126 27.1485 21.566 21.6435C21.7068 18.5918 20.8445 15.9976 19.0669 14.1357V14.1392Z" fill="var(--fill-0, #231815)"/>
<path id="Vector_10" d="M39.2216 26.6134H31.8863V6.27932H39.9784C43.5475 6.27932 50.2105 9.26062 50.2105 16.4481C50.2105 24.0545 42.6675 26.6169 39.2251 26.6169L39.2216 26.6134ZM34.3924 24.1073H39.2216C40.9041 24.1073 47.6973 22.7451 47.6973 16.4481C47.6973 11.1015 42.583 8.78896 39.9748 8.78896H34.3924V24.1073Z" fill="var(--fill-0, #231815)"/>
<path id="Vector_11" d="M126.728 26.2615L116.707 5.7866L106.813 25.8954C106.704 26.1172 106.866 26.3776 107.116 26.3776H108.9C109.115 26.3776 109.312 26.2544 109.403 26.0608L111.906 20.8972H121.297L124.064 26.5431H126.549C126.696 26.5431 126.791 26.3882 126.728 26.258V26.2615ZM112.994 18.6516L116.573 11.2635L120.192 18.6516H112.994Z" fill="var(--fill-0, #231815)"/>
<path id="Vector_12" d="M25.4346 11.795C24.991 11.6119 24.8537 10.8798 24.8537 8.0006V0.894051C24.8537 0.735659 24.9241 0.2816 25.1424 0.2816C25.3606 0.2816 25.4311 0.732139 25.4311 0.894051V11.795H25.4346Z" fill="var(--fill-0, #231815)"/>
<path id="Vector_13" d="M27.1097 5.6775V5.7127C27.1097 5.92037 26.9407 6.0858 26.7366 6.0858H23.8573C23.5546 6.0858 23.3082 5.83941 23.3082 5.53671H26.9689C27.0463 5.53671 27.1097 5.60007 27.1097 5.6775Z" fill="var(--fill-0, #231815)"/>
<path id="Vector_14" d="M24.2554 35.8037H14.7026V37.194H18.5146L18.5286 47.6127H19.5459C19.7324 47.6127 19.8803 47.4614 19.8803 47.2784L19.8662 37.1975H24.2519V35.8072L24.2554 35.8037Z" fill="var(--fill-0, #231815)"/>
<path id="Vector_15" d="M70.2313 37.3982C69.0311 36.2578 67.5176 35.6805 65.74 35.6805C64.6419 35.6805 63.6035 35.9445 62.6602 36.469C61.7134 36.9934 60.9566 37.7291 60.411 38.6548C59.8619 39.5805 59.5874 40.5977 59.5874 41.6819C59.5874 43.308 60.1963 44.716 61.4001 45.8599C62.6004 47.0038 64.0928 47.5846 65.8386 47.5846C67.5844 47.5846 69.0416 47.0003 70.2419 45.8529C71.4422 44.7019 72.0511 43.2799 72.0511 41.6291C72.0511 39.9783 71.4422 38.5386 70.2384 37.3982H70.2313ZM70.6045 41.6255C70.6045 42.4844 70.3933 43.2799 69.9779 43.9803C69.5626 44.6843 68.9748 45.2439 68.2321 45.6522C67.4859 46.057 66.6658 46.2647 65.7893 46.2647C64.4799 46.2647 63.3466 45.8177 62.4173 44.9342C61.4916 44.0542 61.0199 42.9596 61.0199 41.6783C61.0199 40.8125 61.2311 40.017 61.65 39.3165C62.0689 38.6126 62.6602 38.0459 63.4064 37.6305C64.1526 37.2152 64.9551 37.004 65.7858 37.004C66.6165 37.004 67.4507 37.2152 68.2074 37.6305C68.9642 38.0459 69.5591 38.6055 69.9744 39.2989C70.3897 39.9888 70.6009 40.7737 70.6009 41.6291L70.6045 41.6255Z" fill="var(--fill-0, #231815)"/>
<path id="Vector_16" d="M84.3809 47.6656C82.8075 47.6656 81.1708 46.9757 79.9917 45.8141C78.8477 44.6843 78.2388 43.2376 78.2388 41.6326C78.2388 38.0142 81.5404 35.5855 84.6238 35.5855C87.3763 35.5855 88.6047 36.8034 88.668 36.8562L88.0521 38.074C88.0063 38.0353 86.8131 37.0322 84.6273 37.0322C82.6069 37.0322 79.689 38.6689 79.689 41.6326C79.689 43.1602 80.407 44.188 81.0089 44.7828C81.9205 45.6839 83.2299 46.24 84.4302 46.2189C86.4224 46.1943 87.3305 45.6522 87.7423 45.3073V42.4738L84.6097 42.4597V41.9564C84.6132 41.4355 85.0356 41.0096 85.56 41.006L89.1925 40.9779V45.9197L88.9813 46.1309C87.9746 47.1376 86.4928 47.6374 84.4513 47.6656C84.4302 47.6656 84.4055 47.6656 84.3844 47.6656H84.3809Z" fill="var(--fill-0, #231815)"/>
<path id="Vector_17" d="M93.2232 35.8531H92.5508C92.3622 35.8531 92.2093 36.0059 92.2093 36.1945V47.3242C92.2093 47.5128 92.3622 47.6656 92.5508 47.6656H93.2232C93.4119 47.6656 93.5648 47.5128 93.5648 47.3242V36.1945C93.5648 36.0059 93.4119 35.8531 93.2232 35.8531Z" fill="var(--fill-0, #231815)"/>
<path id="Vector_18" d="M96.5806 47.5424V35.3216L105.415 44.3816V35.8777C105.415 35.7827 105.493 35.7087 105.584 35.7087H106.668C106.764 35.7087 106.837 35.7862 106.837 35.8777V48L98.1082 39.1089V47.5424C98.1082 47.6691 98.0062 47.7677 97.883 47.7677H96.8059C96.6792 47.7677 96.5806 47.6656 96.5806 47.5424Z" fill="var(--fill-0, #231815)"/>
<path id="Vector_19" d="M131.117 47.4367L125.609 35.5361L119.847 47.3522C119.784 47.486 119.879 47.6373 120.023 47.6373H121.265C121.389 47.6373 121.501 47.5634 121.558 47.4508L123.314 43.9556C123.377 43.8289 123.507 43.7479 123.648 43.7479H127.524C127.668 43.7479 127.802 43.8324 127.862 43.9626L129.453 47.3241C129.533 47.4965 129.706 47.6056 129.896 47.6056H131.019C131.103 47.6056 131.16 47.5141 131.121 47.4367H131.117ZM123.859 42.5265L125.475 39.1475L127.217 42.5265H123.859Z" fill="var(--fill-0, #231815)"/>
<path id="Vector_20" d="M144.672 41.4179H130.966V41.9001H144.672V41.4179Z" fill="var(--fill-0, #231815)"/>
<path id="Vector_21" d="M13.9105 41.4179H0.204273V41.9001H13.9105V41.4179Z" fill="var(--fill-0, #231815)"/>
</g>
</svg>
