<svg width="193" height="64" viewBox="0 0 193 64" fill="none" xmlns="http://www.w3.org/2000/svg">
<mask id="mask0_469_5990" style="mask-type:alpha" maskUnits="userSpaceOnUse" x="0" y="0" width="193" height="64">
<rect width="193" height="63.9073" fill="#D9D9D9"/>
</mask>
<g mask="url(#mask0_469_5990)">
<path d="M158.641 63.523H144.708C144.582 63.523 144.511 63.3778 144.586 63.2794L154.662 49.8437C154.793 49.6703 154.667 49.4219 154.451 49.4219H145.66V47.7114H157.825C158.088 47.7114 158.238 48.0067 158.083 48.2175L148.565 61.1377C148.485 61.2455 148.565 61.3908 148.696 61.3908H158.641V63.523Z" fill="#231815"/>
<path d="M71.6296 8.51975H90.7311V11.3503C90.7311 11.5518 90.567 11.7158 90.3655 11.7158H75.0413V19.8606H88.6128C88.7722 19.8606 88.8987 19.9872 88.8987 20.1465V22.813C88.8987 22.9723 88.7722 23.0989 88.6128 23.0989H75.0413V32.0544H91.0544C91.5183 32.0544 91.8979 32.434 91.8979 32.898V35.3208H71.6343V8.51975H71.6296Z" fill="#231815"/>
<path d="M96.5284 34.8661V7.66207L116.197 27.832V8.89925C116.197 8.68837 116.366 8.51966 116.576 8.51966H118.99C119.201 8.51966 119.369 8.68837 119.369 8.89925V35.8877L99.9353 16.0881V34.8661C99.9353 35.1426 99.7104 35.3722 99.4292 35.3722H97.0298C96.7533 35.3722 96.5237 35.1473 96.5237 34.8661H96.5284Z" fill="#231815"/>
<path d="M123.812 11.3502V8.84307C123.812 8.64156 123.976 8.47754 124.178 8.47754H145.13C145.332 8.47754 145.496 8.64156 145.496 8.84307V11.3502C145.496 11.5518 145.332 11.7158 145.13 11.7158H136.423V34.5569C136.423 34.9927 136.072 35.3489 135.631 35.3489H133.513C133.265 35.3489 133.063 35.1473 133.063 34.899V11.7158H124.178C123.976 11.7158 123.812 11.5518 123.812 11.3502Z" fill="#231815"/>
<path d="M172.348 8.52905H175.099C175.291 8.52905 175.446 8.6837 175.446 8.87584V31.7216C175.446 31.9231 175.61 32.0825 175.806 32.0825H190.868C191.21 32.0825 191.482 32.3589 191.482 32.6964V34.674C191.482 35.0161 191.206 35.2879 190.868 35.2879H172.423C172.189 35.2879 172.001 35.1004 172.001 34.8661V8.87584C172.001 8.6837 172.156 8.52905 172.348 8.52905Z" fill="#231815"/>
<path d="M47.9219 49.7921C46.3239 48.2737 44.3087 47.5051 41.9422 47.5051C40.48 47.5051 39.0976 47.8566 37.8416 48.5549C36.581 49.2531 35.5735 50.2326 34.8471 51.4651C34.116 52.6976 33.7505 54.0519 33.7505 55.4953C33.7505 57.6604 34.5612 59.5349 36.1639 61.0579C37.762 62.581 39.749 63.3542 42.0734 63.3542C44.3978 63.3542 46.3379 62.5763 47.936 61.0486C49.534 59.5162 50.3447 57.6229 50.3447 55.425C50.3447 53.2271 49.534 51.3104 47.9313 49.7921H47.9219ZM48.4186 55.4203C48.4186 56.5638 48.1375 57.6229 47.5845 58.5555C47.0315 59.4927 46.2489 60.2378 45.2601 60.7815C44.2666 61.3204 43.1747 61.5969 42.0078 61.5969C40.2645 61.5969 38.7555 61.0017 37.5183 59.8255C36.2858 58.6539 35.6578 57.1964 35.6578 55.4906C35.6578 54.3378 35.939 53.2787 36.4967 52.3461C37.0543 51.4088 37.8416 50.6543 38.8351 50.1014C39.8286 49.5484 40.8971 49.2672 42.0031 49.2672C43.1091 49.2672 44.2197 49.5484 45.2273 50.1014C46.2348 50.6543 47.0268 51.3995 47.5798 52.3227C48.1328 53.2412 48.414 54.2862 48.414 55.425L48.4186 55.4203Z" fill="#231815"/>
<path d="M54.1312 47.7769H54.7873C55.1013 47.7769 55.3496 48.0299 55.3496 48.3392V54.2862C55.3496 54.4268 55.5184 54.4971 55.6168 54.394L62.1729 47.6691H64.7738L57.3226 54.811L66.0344 63.1246C66.1469 63.2323 66.0719 63.4151 65.9173 63.4151H64.2536C63.696 63.4151 63.157 63.1949 62.7634 62.7965L55.8886 55.9311C55.7433 55.7858 55.4996 55.8889 55.4996 56.0951V63.4151H54.2015C53.85 63.4151 53.5688 63.1292 53.5688 62.7825V48.3439C53.5688 48.0299 53.8219 47.7816 54.1312 47.7816V47.7769Z" fill="#231815"/>
<path d="M65.9169 47.6691H67.9836C68.2413 47.6691 68.485 47.7909 68.6397 47.9971L72.8245 53.5317L77.1125 47.9175C77.2344 47.7628 77.4171 47.6691 77.614 47.6691H78.7762C79.0667 47.6691 79.2354 48.0065 79.0526 48.2361L73.5931 55.2562V62.9371C73.5931 63.1995 73.3822 63.4104 73.1198 63.4104H72.2059C71.9435 63.4104 71.7326 63.1995 71.7326 62.9371V55.2562L65.9122 47.6691H65.9169Z" fill="#231815"/>
<path d="M25.5775 18.8249C23.1547 16.2849 19.6025 14.9447 15.3098 14.9447C11.7107 14.9447 8.95986 16.2615 7.03848 17.6815V3.64127H27.0865V0H3.39721V19.5091L7.31497 22.3443C8.40219 21.065 11.064 18.5812 15.3098 18.5812C18.5809 18.5812 21.2239 19.5326 22.9438 21.3368C24.6075 23.0754 25.4088 25.606 25.2682 28.6521C25.0292 33.8399 19.6962 37.0453 14.8974 37.0453C8.50998 37.0453 4.96713 34.3929 3.74868 28.6943L0.191772 29.4535C1.28368 34.5756 4.72344 40.6819 14.8974 40.6819C21.3692 40.6819 28.5674 36.1455 28.9048 28.8161C29.0923 24.7531 27.9441 21.2993 25.5775 18.8202V18.8249Z" fill="#231815"/>
<path d="M52.4114 35.4331H42.6451V8.36029H53.419C58.1709 8.36029 67.0421 12.3296 67.0421 21.899C67.0421 32.0262 56.9993 35.4378 52.4161 35.4378L52.4114 35.4331ZM45.9818 32.0965H52.4114C54.6515 32.0965 63.6961 30.2829 63.6961 21.899C63.6961 14.7805 56.8868 11.7016 53.4143 11.7016H45.9818V32.0965Z" fill="#231815"/>
<path d="M168.918 34.9646L155.576 7.70429L142.403 34.4772C142.257 34.7724 142.473 35.1192 142.806 35.1192H145.182C145.468 35.1192 145.73 34.9552 145.852 34.6975L149.184 27.8226H161.687L165.37 35.3395H168.679C168.876 35.3395 169.002 35.1333 168.918 34.9599V34.9646ZM150.632 24.8328L155.398 14.9962L160.215 24.8328H150.632Z" fill="#231815"/>
<path d="M34.0554 15.7039C33.4648 15.4602 33.282 14.4854 33.282 10.652V1.19034C33.282 0.979458 33.3757 0.374924 33.6664 0.374924C33.957 0.374924 34.0508 0.974772 34.0508 1.19034V15.7039H34.0554Z" fill="#231815"/>
<path d="M36.2856 7.55904V7.6059C36.2856 7.88239 36.0607 8.10265 35.7889 8.10265H31.9555C31.5525 8.10265 31.2244 7.7746 31.2244 7.37158H36.0982C36.2013 7.37158 36.2856 7.45594 36.2856 7.55904Z" fill="#231815"/>
<path d="M32.4855 47.6691H19.7668V49.5202H24.8421L24.8609 63.3917H26.2152C26.4636 63.3917 26.6604 63.1902 26.6604 62.9465L26.6417 49.5249H32.4808V47.6738L32.4855 47.6691Z" fill="#231815"/>
<path d="M93.6979 49.7921C92.0999 48.2737 90.0847 47.5051 87.7182 47.5051C86.256 47.5051 84.8736 47.8566 83.6176 48.5549C82.357 49.2531 81.3495 50.2326 80.6231 51.4651C79.892 52.6976 79.5265 54.0519 79.5265 55.4953C79.5265 57.6604 80.3372 59.5349 81.9399 61.0579C83.538 62.581 85.525 63.3542 87.8494 63.3542C90.1738 63.3542 92.1139 62.5763 93.712 61.0486C95.31 59.5162 96.1207 57.6229 96.1207 55.425C96.1207 53.2271 95.31 51.3104 93.7073 49.7921H93.6979ZM94.1946 55.4203C94.1946 56.5638 93.9135 57.6229 93.3605 58.5555C92.8075 59.4927 92.0249 60.2378 91.0361 60.7815C90.0426 61.3204 88.9507 61.5969 87.7838 61.5969C86.0405 61.5969 84.5315 61.0017 83.2943 59.8255C82.0618 58.6539 81.4338 57.1964 81.4338 55.4906C81.4338 54.3378 81.715 53.2787 82.2727 52.3461C82.8303 51.4088 83.6176 50.6543 84.6111 50.1014C85.6046 49.5484 86.6731 49.2672 87.7791 49.2672C88.8851 49.2672 89.9957 49.5484 91.0033 50.1014C92.0108 50.6543 92.8028 51.3995 93.3558 52.3227C93.9088 53.2412 94.19 54.2862 94.19 55.425L94.1946 55.4203Z" fill="#231815"/>
<path d="M112.537 63.462C110.442 63.462 108.263 62.5435 106.693 60.997C105.17 59.4927 104.359 57.5666 104.359 55.4297C104.359 50.6121 108.755 47.3786 112.86 47.3786C116.525 47.3786 118.16 49.0001 118.245 49.0704L117.424 50.6918C117.364 50.6403 115.775 49.3047 112.865 49.3047C110.175 49.3047 106.29 51.4838 106.29 55.4297C106.29 57.4635 107.246 58.8319 108.047 59.6239C109.261 60.8236 111.004 61.5641 112.602 61.5359C115.255 61.5031 116.464 60.7815 117.012 60.3222V56.5497L112.841 56.531V55.8608C112.846 55.1672 113.408 54.6002 114.107 54.5955L118.943 54.558V61.1376L118.662 61.4188C117.321 62.7591 115.348 63.4245 112.63 63.462C112.602 63.462 112.569 63.462 112.541 63.462H112.537Z" fill="#231815"/>
<path d="M124.309 47.7348H123.414C123.163 47.7348 122.959 47.9383 122.959 48.1894V63.0075C122.959 63.2586 123.163 63.4621 123.414 63.4621H124.309C124.56 63.4621 124.764 63.2586 124.764 63.0075V48.1894C124.764 47.9383 124.56 47.7348 124.309 47.7348Z" fill="#231815"/>
<path d="M128.779 63.2981V47.0272L140.542 59.0898V47.7676C140.542 47.6411 140.645 47.5427 140.767 47.5427H142.21C142.337 47.5427 142.435 47.6458 142.435 47.7676V63.9073L130.813 52.0697V63.2981C130.813 63.4668 130.677 63.598 130.513 63.598H129.079C128.911 63.598 128.779 63.4621 128.779 63.2981Z" fill="#231815"/>
<path d="M174.762 63.1573L167.428 47.3129L159.756 63.0448C159.672 63.2229 159.798 63.4244 159.99 63.4244H161.645C161.809 63.4244 161.959 63.326 162.034 63.176L164.372 58.5225C164.456 58.3538 164.63 58.246 164.817 58.246H169.977C170.169 58.246 170.347 58.3585 170.427 58.5319L172.545 63.0073C172.653 63.237 172.882 63.3822 173.136 63.3822H174.63C174.743 63.3822 174.818 63.2604 174.766 63.1573H174.762ZM165.098 56.6199L167.25 52.121L169.569 56.6199H165.098Z" fill="#231815"/>
<path d="M192.809 55.1438H174.56V55.7858H192.809V55.1438Z" fill="#231815"/>
<path d="M18.7122 55.1438H0.463745V55.7858H18.7122V55.1438Z" fill="#231815"/>
</g>
</svg>
