<svg preserveAspectRatio="none" width="100%" height="100%" overflow="visible" style="display: block;" viewBox="0 0 20 20" fill="none" xmlns="http://www.w3.org/2000/svg">
<g id="map">
<mask id="mask0_529_16066" style="mask-type:alpha" maskUnits="userSpaceOnUse" x="0" y="0" width="20" height="20">
<rect id="Rectangle 332" width="20" height="20" fill="var(--fill-0, #D9D9D9)"/>
</mask>
<g mask="url(#mask0_529_16066)">
<path id="Vector" d="M10.0001 0C5.58908 0 2.00008 3.589 2.00008 7.995C1.97108 14.44 9.69608 19.784 10.0001 20C10.0001 20 18.0291 14.44 18.0001 8C18.0001 3.589 14.4111 0 10.0001 0ZM10.0001 12C7.79008 12 6.00008 10.21 6.00008 8C6.00008 5.79 7.79008 4 10.0001 4C12.2101 4 14.0001 5.79 14.0001 8C14.0001 10.21 12.2101 12 10.0001 12Z" fill="var(--fill-0, #595A5D)"/>
</g>
</g>
</svg>
