<svg width="34" height="34" viewBox="0 0 34 34" fill="none" xmlns="http://www.w3.org/2000/svg">
<circle cx="17" cy="17" r="17" fill="white"/>
<mask id="mask0_99_8829" style="mask-type:alpha" maskUnits="userSpaceOnUse" x="7" y="7" width="20" height="20">
<rect x="7" y="7" width="20" height="20" fill="#D9D9D9"/>
</mask>
<g mask="url(#mask0_99_8829)">
<path d="M17.0001 7C12.5891 7 9.00008 10.589 9.00008 14.995C8.97108 21.44 16.6961 26.784 17.0001 27C17.0001 27 25.0291 21.44 25.0001 15C25.0001 10.589 21.4111 7 17.0001 7ZM17.0001 19C14.7901 19 13.0001 17.21 13.0001 15C13.0001 12.79 14.7901 11 17.0001 11C19.2101 11 21.0001 12.79 21.0001 15C21.0001 17.21 19.2101 19 17.0001 19Z" fill="#787B83"/>
</g>
</svg>
