<svg preserveAspectRatio="none" width="100%" height="100%" overflow="visible" style="display: block;" viewBox="0 0 40 40" fill="none" xmlns="http://www.w3.org/2000/svg">
<g id="tab-filled">
<circle id="Ellipse 389" cx="20" cy="20" r="20" fill="var(--fill-0, white)"/>
<path id="tab" d="M17.2 24.2C16.815 24.2 16.4855 24.063 16.2116 23.7891C15.9377 23.5152 15.8005 23.1855 15.8 22.8V14.4C15.8 14.015 15.9372 13.6855 16.2116 13.4116C16.486 13.1377 16.8155 13.0005 17.2 13H25.6C25.985 13 26.3147 13.1372 26.5891 13.4116C26.8635 13.686 27.0005 14.0155 27 14.4V22.8C27 23.185 26.863 23.5147 26.5891 23.7891C26.3152 24.0635 25.9855 24.2005 25.6 24.2H17.2ZM14.4 27C14.015 27 13.6855 26.863 13.4116 26.5891C13.1377 26.3152 13.0005 25.9855 13 25.6V15.8H14.4V25.6H24.2V27H14.4Z" fill="var(--fill-0, #787B83)"/>
</g>
</svg>
