<svg width="16" height="16" viewBox="0 0 16 16" fill="none" xmlns="http://www.w3.org/2000/svg">
<mask id="mask0_322_3332" style="mask-type:alpha" maskUnits="userSpaceOnUse" x="0" y="0" width="16" height="16">
<rect width="16" height="16" fill="#D9D9D9"/>
</mask>
<g mask="url(#mask0_322_3332)">
<path d="M3.69599 7.0318C4.84799 9.2958 6.70399 11.1438 8.96799 12.3038L10.728 10.5438C10.944 10.3278 11.264 10.2558 11.544 10.3518C12.44 10.6478 13.408 10.8078 14.4 10.8078C14.84 10.8078 15.2 11.1678 15.2 11.6078V14.3998C15.2 14.8398 14.84 15.1998 14.4 15.1998C6.88799 15.1998 0.799988 9.1118 0.799988 1.5998C0.799988 1.1598 1.15999 0.799805 1.59999 0.799805H4.39999C4.83999 0.799805 5.19999 1.1598 5.19999 1.5998C5.19999 2.5998 5.35999 3.5598 5.65599 4.4558C5.74399 4.7358 5.67999 5.0478 5.45599 5.2718L3.69599 7.0318Z" fill="white"/>
</g>
</svg>
