<svg width="34" height="34" viewBox="0 0 34 34" fill="none" xmlns="http://www.w3.org/2000/svg">
<circle cx="17" cy="17" r="17" fill="white"/>
<mask id="mask0_99_8836" style="mask-type:alpha" maskUnits="userSpaceOnUse" x="7" y="7" width="20" height="20">
<rect x="7" y="7" width="20" height="20" fill="#D9D9D9"/>
</mask>
<g mask="url(#mask0_99_8836)">
<path d="M8.5 21.2105V11.2105C8.5 10.2807 8.74367 9.5393 9.231 8.98632C9.71833 8.43334 10.3601 8.01229 11.1563 7.72316C11.9524 7.43404 12.8601 7.24106 13.8794 7.14422C14.8987 7.04738 15.9389 6.99931 17 7.00001C18.1687 7.00001 19.2713 7.04843 20.3076 7.14527C21.3439 7.24211 22.247 7.43509 23.0169 7.72422C23.7869 8.01334 24.3932 8.43439 24.8359 8.98737C25.2786 9.54036 25.5 10.2814 25.5 11.2105V21.2105C25.5 22.2456 25.1416 23.1186 24.4248 23.8295C23.7079 24.5403 22.8267 24.8954 21.7812 24.8947L22.3125 25.421C22.6135 25.7193 22.6844 26.0572 22.525 26.4347C22.3656 26.8123 22.0734 27.0007 21.6484 27C21.5245 27 21.4051 26.9782 21.2904 26.9347C21.1756 26.8912 21.0736 26.8252 20.9844 26.7368L19.125 24.8947H14.875L13.0156 26.7368C12.9271 26.8245 12.8251 26.8905 12.7096 26.9347C12.5942 26.9789 12.4752 27.0007 12.3526 27C11.9453 27 11.6578 26.8116 11.4899 26.4347C11.322 26.0579 11.3879 25.72 11.6875 25.421L12.2188 24.8947C11.174 24.8947 10.2928 24.5396 9.57525 23.8295C8.85771 23.1193 8.49929 22.2463 8.5 21.2105ZM10.625 15.4211H15.9375V12.2632H10.625V15.4211ZM18.0625 15.4211H23.375V12.2632H18.0625V15.4211ZM13.2813 21.7368C13.7417 21.7368 14.1224 21.5877 14.4234 21.2895C14.7245 20.9912 14.875 20.614 14.875 20.1579C14.875 19.7017 14.7245 19.3246 14.4234 19.0263C14.1224 18.7281 13.7417 18.5789 13.2813 18.5789C12.8208 18.5789 12.4401 18.7281 12.1391 19.0263C11.838 19.3246 11.6875 19.7017 11.6875 20.1579C11.6875 20.614 11.838 20.9912 12.1391 21.2895C12.4401 21.5877 12.8208 21.7368 13.2813 21.7368ZM20.7188 21.7368C21.1792 21.7368 21.5599 21.5877 21.8609 21.2895C22.162 20.9912 22.3125 20.614 22.3125 20.1579C22.3125 19.7017 22.162 19.3246 21.8609 19.0263C21.5599 18.7281 21.1792 18.5789 20.7188 18.5789C20.2583 18.5789 19.8776 18.7281 19.5766 19.0263C19.2755 19.3246 19.125 19.7017 19.125 20.1579C19.125 20.614 19.2755 20.9912 19.5766 21.2895C19.8776 21.5877 20.2583 21.7368 20.7188 21.7368Z" fill="#787B83"/>
</g>
</svg>
