<svg width="100" height="100" viewBox="0 0 100 100" fill="none" xmlns="http://www.w3.org/2000/svg">
<circle cx="50" cy="50" r="50" fill="white"/>
<path d="M34.5 30.5L63.5 33L76 34V69H32L28 67L27 65L25.5 52L23 42L23.5 37.5L25.5 33.5L28.5 31L34.5 30.5Z" fill="#FFDBDF"/>
<path d="M18.5 49.5L24 41.5L27.5 38L30 38.5L31.5 42L34.5 39H37L39.5 40.5L40 45L44 39L47 40L49 43L51 40.5L53 40L55.5 40.5L57 43.5L59 41.5L61.5 40.5L66 42L67 44L69.5 41.5L72.5 41L76 42V60L72.5 61L68.5 58L65 61L61.5 60.5L58 58L55.6706 60.5L52 60L49.5 58.5L47.5 60.5L44 61L41 58.5L39.5 60.5H35L32 58L30.5 61.5L27.5 61L25.5 56V51.5L22 50H20.5L18.5 49.5Z" fill="white"/>
<mask id="mask0_500_5539" style="mask-type:alpha" maskUnits="userSpaceOnUse" x="10" y="30" width="80" height="40">
<rect x="10" y="30" width="80" height="40" fill="#D9D9D9"/>
</mask>
<g mask="url(#mask0_500_5539)">
<mask id="mask1_500_5539" style="mask-type:alpha" maskUnits="userSpaceOnUse" x="18" y="42" width="6" height="9">
<path d="M22.7999 42.3999L23.1999 42.7999L21.9999 48.7999L20.7999 50.3999L18.3999 49.1999L22.7999 42.3999Z" fill="#DEDFE1"/>
</mask>
<g mask="url(#mask1_500_5539)">
<g opacity="0.7" filter="url(#filter0_g_500_5539)">
<path d="M25.1667 38L26 38.7L23.5 49.2L21 52L16 49.9L25.1667 38Z" fill="#CF1039"/>
</g>
</g>
<mask id="mask2_500_5539" style="mask-type:alpha" maskUnits="userSpaceOnUse" x="40" y="39" width="8" height="15">
<path d="M47.5999 40.8002L47.9999 42.8002V46.8002L47.5999 50.0002L43.5999 53.2002L41.5999 52.4002L40.3999 49.2002V43.2002L41.1999 41.6002L43.5999 39.2002H45.9999L47.5999 40.8002Z" fill="#DEDFE1"/>
</mask>
<g mask="url(#mask2_500_5539)">
<path opacity="0.7" d="M48.4737 39.8286L49 42.1143V46.6857L48.4737 50.3429L47.5 54.5L43.2105 54L40.5789 53.0857L39 49.4286V42.5714L40.0526 40.7429L43.2105 38H46.3684L48.4737 39.8286Z" fill="#CF1039"/>
</g>
<path d="M76.3981 68.5142V68.0441C74.5423 68.2744 71.1295 68.2811 67.3332 68.2886C63.4626 68.2962 59.0759 68.3056 54.4165 68.5114C53.2536 68.5624 52.0944 68.618 50.9446 68.6719C44.0702 68.9985 37.5757 69.3062 32.528 68.7427C30.753 68.5444 29.3748 67.8431 28.4328 66.6565C26.9501 64.7894 26.8627 62.135 26.9398 60.7407C27.5876 61.5053 28.3754 61.9877 29.245 61.9877C30.7342 61.9877 32.0439 60.5434 32.5619 58.5744C33.4278 60.2857 35.0655 61.3675 37.0727 61.3675C39.2031 61.3675 40.6518 60.4972 41.2423 58.9312C42.1213 60.416 43.6923 61.3241 45.6403 61.3241C47.8205 61.3241 49.257 60.5123 49.8239 59.0057C50.7396 60.0696 52.1621 60.703 53.875 60.703C56.1417 60.703 57.6008 59.9072 58.1198 58.4384C59.1163 60.1526 61.0295 61.3685 63.1195 61.3685C65.2094 61.3685 67.5814 60.1253 68.3016 58.2336C69.2605 60.0545 71.2424 61.3685 73.4141 61.3685C74.4285 61.3685 75.4881 61.0862 76.3981 60.5869V59.4815C75.5877 60.0583 74.5244 60.4264 73.4141 60.4264C70.9904 60.4264 69.111 58.5281 68.7115 56.5892C68.6786 56.4287 68.656 56.2692 68.6438 56.1097C68.6372 56.0191 68.6325 55.9294 68.6325 55.8397V51.8977C68.6325 51.5617 68.9785 51.288 69.4185 51.288C69.4363 51.288 71.216 51.2285 72.9835 51.2285H73.4226C73.5485 51.2266 73.6839 51.2266 73.8259 51.2266C74.6109 51.2266 75.6046 51.2408 76.3991 51.3531V49.8012C75.5144 50.1486 73.5655 50.142 72.5069 50.1392H72.0687C70.3022 50.1382 68.5206 50.0806 68.4877 50.0797C68.0703 50.0797 67.7177 49.8135 67.7177 49.4982V45.6582C67.7177 43.5551 69.7626 41.2027 72.4993 41.2027C74.1051 41.2027 75.6112 41.9475 76.3991 42.9802V41.6322C75.3423 40.7704 73.8795 40.2607 72.4993 40.2607C70.3257 40.2607 68.3429 41.5444 67.3849 43.3247C66.6629 41.4727 64.3342 40.2607 62.2057 40.2607C60.0772 40.2607 58.1442 41.484 57.1618 43.1982C56.8553 40.9422 55.1028 39.2072 52.9922 39.2072C51.1627 39.2072 49.6368 40.5514 48.8001 42.2666C48.4165 40.0181 46.7675 38.4247 44.6682 38.4247C42.8142 38.4247 41.1623 39.8312 40.3388 41.838C40.0323 39.5678 38.466 38.2821 35.9285 38.2821C33.9984 38.2821 32.4105 39.3224 31.5211 40.9847C31.13 39.2686 30.1137 37.9508 28.743 37.6676C27.7323 37.4599 26.6474 37.8243 25.6255 38.7003C24.9956 39.0854 24.3036 39.7462 23.653 40.4749C23.5863 38.8598 24.0959 35.9024 25.8605 33.6813C27.0592 32.1719 28.6104 31.3016 30.471 31.0939C31.413 30.9891 32.4246 30.9438 33.4945 30.9438C36.5425 30.9438 40.0549 31.3091 43.7167 31.6895C46.7797 32.0076 49.9471 32.3371 53.0458 32.474C65.326 33.0167 74.5404 33.9446 76.4 34.8121V33.8125C72.4843 32.4853 57.787 31.7405 53.0872 31.5328C50.0167 31.3969 46.8634 31.0693 43.8136 30.7522C38.8129 30.2311 34.0915 29.7403 30.3657 30.1556C28.2485 30.3916 26.4848 31.3799 25.1253 33.0913C23.0401 35.7174 22.5597 39.3054 22.7467 40.9497C22.7655 41.1168 22.7975 41.2782 22.8408 41.4359C22.2203 42.2146 21.6947 42.9679 21.3798 43.4597L18.5621 47.8661C18.3393 48.2144 18.1663 48.5722 18.0752 48.8733C17.8984 49.4548 18.0648 49.7389 18.251 49.8767C18.3403 49.9523 18.7455 50.2892 19.1949 50.579C19.6057 50.8443 20.0664 50.9047 20.4011 50.9047C20.623 50.9047 20.7903 50.8783 20.8523 50.8669C20.8806 50.8622 20.9088 50.8547 20.9398 50.8452H20.9426C21.1551 50.7744 21.4446 50.6187 21.7699 50.2789C21.7737 50.2874 21.7765 50.2959 21.7803 50.3043C21.9692 50.731 22.3058 51.0246 22.7063 51.1124C22.8285 51.1445 23.9398 51.4324 25.1441 51.692V55.3564C25.1441 56.7884 25.5117 58.2978 26.135 59.5145C26.1059 59.659 26.0814 59.8109 26.0626 59.9724C25.9066 61.343 25.7533 64.795 27.6994 67.2465C28.8022 68.636 30.392 69.4553 32.4246 69.6819C34.4948 69.9132 36.7944 70 39.2567 70C42.8866 70 46.87 69.8112 50.9888 69.6158C52.1376 69.5611 53.2959 69.5063 54.4579 69.4553C59.0975 69.2505 63.4739 69.242 67.3351 69.2335C71.64 69.225 74.5987 69.2042 76.3981 68.9881V68.5161V68.5142ZM53.875 59.76C52.1273 59.76 50.7518 58.9642 50.0853 57.6946C49.8258 57.2009 49.6763 56.6345 49.6528 56.0143C49.6509 55.9568 49.6444 55.9011 49.6444 55.8425V51.5759C49.6444 51.3134 49.7797 51.0869 49.9762 50.967C50.5196 50.9859 51.5754 51.017 52.6284 51.017C53.4012 51.017 53.9728 50.9415 54.3912 50.85C55.2335 50.9255 55.6782 51.0954 55.8973 51.1785C55.9725 51.2068 56.0308 51.2285 56.075 51.2408L56.0956 51.2474C56.42 51.3654 56.8073 51.5976 56.8073 52.0299L57.1571 55.076L57.2107 55.5414L57.2652 56.0172L57.394 57.1348C57.3818 58.8764 56.1981 59.759 53.8731 59.759L53.875 59.76ZM56.3279 50.3336C56.3579 50.3421 56.388 50.3515 56.4181 50.3629C56.6165 50.4356 56.7961 50.5243 56.9531 50.6281C56.7961 50.5243 56.6174 50.4356 56.4181 50.3629C56.3871 50.3515 56.3579 50.3421 56.3279 50.3336C56.3156 50.3298 56.3025 50.3251 56.2865 50.3195C56.3025 50.3251 56.3156 50.3308 56.3279 50.3336ZM57.5519 51.2587C57.4983 51.1615 57.4335 51.068 57.3583 50.9812C57.283 50.8943 57.1984 50.8122 57.1035 50.7367C57.1984 50.8122 57.284 50.8934 57.3583 50.9812C57.4335 51.068 57.4983 51.1615 57.5519 51.2587C57.5783 51.2068 57.6074 51.1558 57.6394 51.1077C57.6074 51.1567 57.5783 51.2068 57.5519 51.2587ZM67.6124 55.5518C67.6115 55.7179 67.6096 55.8756 67.6077 56.0219C67.6049 56.1984 67.603 56.3579 67.6002 56.4948C67.5946 56.8025 67.5889 56.997 67.5889 57.0083C67.5889 58.7962 65.4595 60.4245 63.1204 60.4245C60.4692 60.4245 58.4667 58.1515 58.3445 56.0408C58.3407 55.9728 58.3388 55.9048 58.3388 55.8378V51.8959C58.3388 51.5598 58.6848 51.2861 59.1248 51.2861C59.1427 51.2861 60.9224 51.2266 62.6898 51.2266H63.1289C63.2549 51.2247 63.3902 51.2247 63.5322 51.2247C65.0449 51.2247 67.3351 51.2776 67.4714 51.9836C67.6077 52.6888 67.6228 54.335 67.6134 55.5527L67.6124 55.5518ZM67.1151 50.614C67.2843 50.6687 67.4413 50.7329 67.5842 50.8075C67.4423 50.7329 67.2853 50.6687 67.1151 50.614ZM67.7412 50.866C67.6472 50.8254 67.557 50.7763 67.4733 50.7206C67.557 50.7763 67.6472 50.8245 67.7412 50.866ZM66.9111 50.4195C66.8631 50.4535 66.8124 50.4846 66.7597 50.5149C66.8124 50.4846 66.8631 50.4526 66.9111 50.4195ZM57.4222 47.5159V45.6563C57.4222 43.5532 59.467 41.2008 62.2038 41.2008C64.5419 41.2008 66.6723 42.781 66.6723 44.5292C66.6723 44.5453 66.693 45.2353 66.6977 46.1075C66.6977 46.2604 66.6986 46.419 66.6986 46.5814C66.6986 46.7362 66.6977 46.8938 66.6958 47.0515C66.6864 47.9794 66.6507 48.9215 66.5548 49.4057C66.4072 50.1505 63.5726 50.1401 62.2113 50.1363H61.7732C60.0067 50.1354 58.2251 50.0778 58.1922 50.0769C57.7747 50.0769 57.4222 49.8107 57.4222 49.4954V47.5159ZM56.1389 50.0731C56.09 50.1193 56.0374 50.1646 55.9809 50.2071C56.0364 50.1646 56.09 50.1203 56.1389 50.0731C56.1878 50.0268 56.2338 49.9777 56.2771 49.9268C56.2348 49.9777 56.1887 50.0259 56.1389 50.0731ZM49.0474 47.5565V45.1447C49.0474 42.8329 50.7706 40.1464 52.9913 40.1464C54.7606 40.1464 56.2573 41.8512 56.2696 43.8751L55.9678 46.6069L55.9151 47.0826L55.8634 47.548L55.7215 48.8346L55.7186 48.8865C55.7186 49.3094 55.3633 49.5341 55.0643 49.6483L55.0455 49.6549C55.0032 49.6672 54.9477 49.6889 54.8753 49.7172C54.7635 49.7625 54.5867 49.8324 54.3216 49.8984C53.954 49.99 53.4153 50.075 52.6293 50.075C51.4231 50.075 50.2103 50.0334 49.792 50.0174C49.6961 50.0136 49.6425 50.0117 49.6397 50.0117H49.6199C49.304 50.0117 49.0474 49.7078 49.0474 49.334V47.5565ZM48.5735 51.6693L48.7061 52.9588V55.8416C48.7061 55.9058 48.708 55.969 48.7108 56.0313C48.7333 56.7091 48.8772 57.3359 49.1254 57.8956C48.9233 59.5429 47.7547 60.3792 45.6393 60.3792C43.524 60.3792 41.9887 59.0926 41.5403 57.1329C41.482 56.879 41.4435 56.6138 41.4237 56.3381C41.4143 56.206 41.4087 56.0729 41.4087 55.9369V52.64C41.8107 52.8905 42.4974 53.76 43.5043 53.76C45.4693 53.76 47.6447 50.6555 47.6447 50.6555C47.7208 50.6885 47.781 50.7121 47.8252 50.7263L47.8459 50.7338C48.1777 50.8698 48.5726 51.1416 48.5726 51.6684L48.5735 51.6693ZM48.1467 49.6889C48.1364 49.7106 48.1241 49.7323 48.111 49.7531C48.1232 49.7323 48.1354 49.7106 48.1467 49.6889ZM48.0724 49.8154C48.0846 49.8201 48.0969 49.8258 48.1063 49.8286C48.0959 49.8258 48.0846 49.8201 48.0724 49.8154ZM40.7233 47.2525V44.6736C40.7233 41.8446 42.566 39.3629 44.6672 39.3629C46.5296 39.3629 47.9361 41.0356 47.9455 43.2577L47.6165 46.5908L47.5694 47.0647L47.5234 47.5282L47.3965 48.8176C47.3965 48.8176 46.7887 50.1369 46.56 50.4C46.101 50.9281 44.6753 52.8 43.36 52.8C41.76 52.4 40.8982 49.9456 40.8982 49.9456C40.8982 49.9456 40.7242 49.5954 40.7224 49.3736C40.7224 49.3708 40.7224 49.3679 40.7224 49.3651V47.2535L40.7233 47.2525ZM40.4967 50.8518C40.4807 50.9519 40.4713 51.0548 40.4713 51.1596V55.9369C40.4713 56.0946 40.4779 56.2494 40.4883 56.4023C40.508 56.6902 40.5456 56.9687 40.6001 57.2377C40.5456 59.8657 38.6597 60.4236 37.0718 60.4236C35.0852 60.4236 33.5772 59.1728 33.0423 57.2387C33.0009 57.0895 32.9652 56.9356 32.9361 56.778C32.9079 56.626 32.8844 56.4703 32.8674 56.3117C32.843 56.087 32.8298 55.8567 32.8298 55.6198V51.472C32.8618 51.473 32.8966 51.4749 32.9304 51.4758C33.55 51.4994 34.5465 51.5305 35.5412 51.5305C37.414 51.5305 38.906 51.0491 39.1852 50.9528C39.2181 50.9415 39.2482 50.9292 39.2802 50.9151C39.5895 50.7754 39.8499 50.5894 40.0539 50.3638C40.1705 50.5592 40.3209 50.7244 40.4948 50.8509L40.4967 50.8518ZM31.6875 49.2924V44.2545C31.6875 41.2915 33.4315 39.2214 35.9285 39.2214C37.539 39.2214 39.4588 39.8227 39.4597 42.7008L39.5641 46.235L39.5782 46.7098L39.5923 47.1799L39.6449 48.9715C39.6449 48.9781 39.6431 48.9838 39.6431 48.9904C39.6402 49.1697 39.6026 49.3207 39.5434 49.451C39.4654 49.6228 39.3507 49.7569 39.2219 49.8597C39.1175 49.9438 39.0056 50.0089 38.8985 50.057L39.0903 50.4865L38.8816 50.0636C38.7255 50.1174 37.3021 50.5904 35.5421 50.5904C34.5014 50.5904 33.4569 50.5564 32.8599 50.5328C32.8514 50.5328 32.842 50.5328 32.8336 50.5318C32.5675 50.5215 32.3983 50.513 32.3645 50.5111C32.3616 50.5111 32.356 50.5111 32.356 50.5111H32.3541H32.3306C32.1736 50.5111 32.0288 50.4157 31.9151 50.2675C31.8248 50.1486 31.7562 49.9938 31.7195 49.8182C31.7007 49.7276 31.6875 49.6332 31.6875 49.5341V49.2934V49.2924ZM27.5603 38.1603C27.3469 38.2142 27.1335 38.2934 26.9219 38.3954C27.1325 38.2925 27.3459 38.2132 27.5603 38.1603ZM24.1419 41.333C24.0771 41.4519 24.0141 41.5718 23.9539 41.6945C24.0141 41.5728 24.0771 41.4519 24.1419 41.333ZM21.7107 48.7581L21.4907 49.1102C21.0893 49.738 20.7753 49.9022 20.6681 49.9419C20.5694 49.957 20.0701 50.0221 19.7025 49.7852C19.3942 49.5869 19.1018 49.3566 18.9495 49.233C18.9843 49.0791 19.099 48.7695 19.3519 48.374L22.1695 43.9676C22.4506 43.5286 22.7355 43.1152 23.0184 42.731C22.8925 43.1048 22.7872 43.4843 22.7101 43.8647L21.7107 48.7572V48.7581ZM25.6133 50.8264C25.4553 50.7933 25.2983 50.7603 25.1441 50.7263C23.9746 50.4695 22.9451 50.1996 22.9329 50.1967L22.9085 50.1911C22.7646 50.1618 22.6772 50.0089 22.6377 49.9202C22.5474 49.7172 22.5268 49.4491 22.5813 49.1839L22.5954 49.114L23.1341 46.4785L23.6295 44.0544C23.6907 43.7533 23.7762 43.4512 23.873 43.1501C23.9276 42.9811 23.9877 42.8141 24.0526 42.6479C24.1175 42.4818 24.1861 42.3175 24.2604 42.1552C24.628 41.35 25.1037 40.5958 25.6499 39.9869C25.8389 39.7764 26.0307 39.5895 26.2243 39.4234C26.5966 39.1043 26.9755 38.8693 27.3459 38.7239C27.6355 38.6106 27.9204 38.5502 28.1921 38.5502C28.3152 38.5502 28.4356 38.5625 28.5531 38.5861C30.1692 38.9193 31.1338 41.4274 30.6148 43.9666L30.4193 45.0739L30.3375 45.5393L30.2557 46.0046L29.7499 48.8658L29.6672 49.3311L29.5844 49.7974L29.5374 50.0636C29.419 50.6461 29.0147 50.8641 28.6969 50.9444L28.6875 50.9462C28.554 50.967 27.4381 51.1246 26.0814 50.9113C25.9555 50.8915 25.8276 50.8698 25.6969 50.8424C25.6687 50.8367 25.6405 50.8301 25.6123 50.8245L25.6133 50.8264ZM26.6202 58.3063C26.2855 57.4152 26.0824 56.3891 26.0824 55.3545V51.8666C26.6136 51.9421 27.1062 51.9676 27.5236 51.9676C28.2015 51.9676 28.6857 51.9015 28.8304 51.8798C28.8633 51.8751 28.8944 51.8685 28.9273 51.86C29.733 51.6551 30.2905 51.0708 30.4597 50.242L30.5133 49.9409C30.6158 49.9626 30.7117 49.9862 30.8 50.0089C30.9392 50.6659 31.3576 51.1879 31.8925 51.3757V55.43L31.8662 56.4618L31.8596 56.7166C31.8596 56.7912 31.8577 56.8648 31.8558 56.9385C31.8502 57.1008 31.837 57.2613 31.8192 57.4199C31.5963 59.3918 30.4701 61.0456 29.245 61.0456C28.476 61.0456 27.7154 60.3905 27.1316 59.3918C27.0319 59.221 26.937 59.0416 26.8486 58.8528C26.7668 58.6772 26.6907 58.4941 26.6202 58.3053V58.3063Z" fill="#787B83"/>
</g>
<circle opacity="0.7" cx="44" cy="46" r="12" stroke="#CF1039" stroke-width="2"/>
<circle opacity="0.7" cx="19" cy="47" r="8" stroke="#CF1039" stroke-width="2"/>
<defs>
<filter id="filter0_g_500_5539" x="14" y="36" width="14" height="18" filterUnits="userSpaceOnUse" color-interpolation-filters="sRGB">
<feFlood flood-opacity="0" result="BackgroundImageFix"/>
<feBlend mode="normal" in="SourceGraphic" in2="BackgroundImageFix" result="shape"/>
<feTurbulence type="fractalNoise" baseFrequency="3.3333332538604736 3.3333332538604736" numOctaves="3" seed="1745" />
<feDisplacementMap in="shape" scale="4" xChannelSelector="R" yChannelSelector="G" result="displacedImage" width="100%" height="100%" />
<feMerge result="effect1_texture_500_5539">
<feMergeNode in="displacedImage"/>
</feMerge>
</filter>
</defs>
</svg>
