<svg width="100" height="100" viewBox="0 0 100 100" fill="none" xmlns="http://www.w3.org/2000/svg">
<circle cx="50" cy="50" r="50" fill="white"/>
<mask id="mask0_500_2892" style="mask-type:alpha" maskUnits="userSpaceOnUse" x="10" y="26" width="80" height="48">
<rect x="10" y="26" width="80" height="48" fill="#D9D9D9"/>
</mask>
<g mask="url(#mask0_500_2892)">
<path d="M16 42.5L17 37L21.5 34.5L33 34L49.5 36L69 33.5L79 34.5L82 36.5L84 39.5L83 48.5L80 51.5L49.5 56L18.5 51L16 42.5Z" fill="#FFCCD1"/>
<path d="M20 51L22.5 47L25.5 45.5L30.5 47L32.5 52.5L32 62L31 64.5L26.5 65.5L21.5 64.5L19.5 62.5L20 51Z" fill="white"/>
<path d="M68 50L70 47L74 45L78.5 48L80.5 55.5L80 63.5L76.5 65H70.5L67.5 62.5L68 50Z" fill="white"/>
<path d="M51.5 55L52 50L56 46L62.5 46.5L65.5 51.5L66 66.5L64 68H54L51.5 66.5V55Z" fill="white"/>
<path d="M36 48L40.5 45.5L46 47.5L48 52.5L48.5 66.5L46 68L40.5 68.5L35.5 67.5L33.5 65.5L34.25 54.75L36 48Z" fill="white"/>
<mask id="mask1_500_2892" style="mask-type:alpha" maskUnits="userSpaceOnUse" x="10" y="31" width="80" height="40">
<rect x="10" y="31" width="80" height="40" fill="#D9D9D9"/>
</mask>
<g mask="url(#mask1_500_2892)">
<path d="M48.9476 56.4778C48.9258 56.5588 48.9172 56.6361 48.9218 56.7098C48.9516 57.1864 48.9688 57.6899 48.9735 58.2203C48.9864 59.6213 49.0311 60.5952 49.0231 61.794C49.0231 61.9514 49.0599 62.1535 49.0549 62.3178C49.045 62.7015 49.0496 63.1223 49.0688 63.5804C49.1006 64.3451 49.0728 65.0255 48.9854 65.6217C48.7232 67.409 46.8331 68.4575 45.1704 68.5222C44.7483 68.5392 44.3629 68.5959 43.9329 68.5959C43.3892 68.5959 41.7829 68.5972 39.1137 68.5999C38.8688 68.5999 38.5814 68.5873 38.2516 68.5621C38.1444 68.5534 37.858 68.5405 37.3925 68.5232C35.1985 68.4396 33.3252 67.175 33.2895 64.8012C33.2736 63.7171 33.2911 62.6796 33.3421 61.6885C33.3772 61.016 33.4021 60.402 33.4166 59.8464C33.4504 58.5366 33.5282 57.2428 33.65 55.965C33.6547 55.9164 33.6493 55.8674 33.6342 55.8211C33.619 55.7747 33.5945 55.732 33.5621 55.6957C33.5297 55.6594 33.4902 55.6302 33.446 55.6101C33.4018 55.5899 33.3539 55.5792 33.3054 55.5786H33.2994C33.1985 55.5789 33.1017 55.6187 33.0296 55.6896C32.9576 55.7605 32.9161 55.8568 32.9141 55.958L32.8564 58.7381C32.8558 58.7652 32.8518 58.7923 32.8445 58.8188C32.77 59.0896 32.8267 59.3814 32.8058 59.688C32.6518 61.9175 32.6687 64.2884 29.9682 64.9814C29.0153 65.2263 28.0294 65.3475 27.0103 65.3448C26.5482 65.3435 25.5394 65.3428 23.984 65.3428C23.7622 65.3428 23.2017 65.2765 22.3025 65.1437C20.9447 64.9446 19.6277 64.1161 19.3218 62.7041C19.2304 62.2846 19.1838 61.8797 19.1818 61.4893C19.1738 60.1351 19.1609 58.8735 19.2424 57.5821C19.2708 57.1327 19.293 56.7257 19.3089 56.3613C19.3738 54.8677 19.5274 53.4119 19.7698 51.994C19.7795 51.9375 19.7726 51.8793 19.7499 51.8266C19.7271 51.7739 19.6895 51.729 19.6416 51.6972C16.3461 49.5355 15.9637 45.2956 16.0025 41.7488C16.017 40.4039 16.1554 39.2465 16.4176 38.2767C16.8566 36.6516 17.8419 35.5148 19.3735 34.8663C19.9615 34.6173 20.4753 34.4355 20.9149 34.3206C22.2763 33.9668 23.6887 33.7394 25.152 33.6385C26.5372 33.5429 27.4053 33.4918 27.7563 33.4852C28.2363 33.4759 28.5733 33.4633 28.7674 33.4474C29.8013 33.3627 30.5899 33.4135 32.1264 33.4314C32.1291 33.4314 32.2284 33.4354 32.4244 33.4434C34.5883 33.5303 36.7403 33.7454 38.8803 34.0886C40.0225 34.2718 41.5501 34.5297 43.4631 34.8623C44.6861 35.0754 46.1805 35.2334 47.9465 35.3363C49.7906 35.4438 51.6767 35.39 53.6049 35.175C54.9589 35.0236 56.0932 34.8679 57.0076 34.708C60.6607 34.0697 63.8211 33.5001 67.3669 33.4752C67.4901 33.4742 67.6311 33.4384 67.7563 33.4374C68.5191 33.4281 69.0024 33.4201 69.2064 33.4135C69.7083 33.3956 70.1652 33.3986 70.577 33.4225C70.9266 33.4417 71.6745 33.4689 72.8207 33.5041C73.8788 33.5366 75.1455 33.6419 76.6208 33.8198C77.9193 33.9764 79.1796 34.2868 80.402 34.7508C82.1202 35.4027 83.2009 36.6324 83.6439 38.44C83.7928 39.05 83.8829 39.5575 83.914 39.9625C84.0252 41.4428 84.0286 42.9344 83.9239 44.4373C83.7899 46.3641 83.2674 48.1693 82.2414 49.7954C81.8481 50.4187 81.277 51.063 80.6294 51.4712C80.5003 51.5522 80.3593 51.6541 80.2063 51.7769C80.1717 51.8047 80.1451 51.8414 80.1292 51.883C80.1133 51.9246 80.1087 51.9698 80.1159 52.0139C80.3569 53.4524 80.5182 54.8766 80.5996 56.2866C80.7069 58.1539 80.7625 59.9224 80.7665 61.5919C80.7672 61.8335 80.7337 62.1641 80.6662 62.5837C80.54 63.3633 80.1537 64.0354 79.5289 64.4288C78.4563 65.1059 77.2187 65.3299 75.9504 65.3389C73.7762 65.3548 71.8454 65.4345 69.9195 64.9525C69.6593 64.8875 69.3362 64.7537 68.9501 64.5512C67.5249 63.8004 67.2845 61.9006 67.2011 60.4976C67.0945 58.7066 67.0441 57.2007 67.0501 55.9799C67.0506 55.8725 67.0087 55.7693 66.9335 55.6928C66.8583 55.6163 66.756 55.5727 66.6488 55.5717L66.631 55.5707C66.5783 55.5702 66.5261 55.5811 66.478 55.6026C66.4299 55.624 66.3869 55.6555 66.352 55.6949C66.3171 55.7344 66.291 55.7809 66.2756 55.8312C66.2601 55.8816 66.2557 55.9347 66.2625 55.9869C66.338 56.575 66.4528 58.528 66.6071 61.8458C66.6475 62.7114 66.6651 63.3324 66.6598 63.7088C66.6512 64.3368 66.6359 64.7783 66.6141 65.0332C66.5724 65.5211 66.4734 65.9486 66.3171 66.3157C65.743 67.6619 64.3674 68.3579 62.9471 68.4884C62.2022 68.5561 61.3374 68.5919 60.3528 68.5959C60.1826 68.5966 59.0014 68.5976 56.809 68.5989C56.3455 68.5989 55.9154 68.586 55.5188 68.5601C55.047 68.5292 54.4014 68.5252 53.8045 68.3978C52.9132 68.2073 52.1647 67.7419 51.5588 67.0017C51.0185 66.3416 50.9063 65.7541 50.8963 64.847C50.8675 62.4632 50.8745 60.4269 50.8983 58.3129C50.9053 57.7434 50.9609 57.1758 50.9599 56.5823C50.9598 56.5334 50.9414 56.4863 50.9083 56.4503C50.8752 56.4143 50.8298 56.3922 50.7811 56.3882C50.2315 56.341 49.6561 56.341 49.0549 56.3882C49.0299 56.3902 49.0061 56.3999 48.9869 56.416C48.9677 56.432 48.954 56.4536 48.9476 56.4778ZM19.1579 51.2621L19.2781 51.293C19.3004 51.2989 19.3214 51.3094 19.3397 51.3238L19.7618 51.6624C19.8088 51.7002 19.8449 51.7498 19.8664 51.8062C19.8879 51.8626 19.8939 51.9236 19.884 51.983C19.7568 52.7331 19.6373 53.6894 19.5254 54.8517C19.5029 55.0848 19.4913 55.2494 19.4907 55.3456C19.4877 55.7977 19.3913 56.183 19.4152 56.5863C19.4185 56.6447 19.395 57.0772 19.3447 57.8838C19.3096 58.4401 19.2914 59.5171 19.29 61.1149C19.289 61.6875 19.3486 62.3258 19.4629 62.7818C19.7598 63.9608 20.909 64.7464 22.0631 64.9864C22.7862 65.1371 23.5748 65.2227 24.429 65.2433C24.7355 65.2512 25.6834 65.2489 27.2726 65.2363C27.7602 65.2323 28.4028 65.1746 28.7773 65.1198C30.2363 64.9067 31.6686 64.4676 32.2188 62.965C32.3863 62.509 32.4952 62.042 32.5456 61.564C32.6548 60.5358 32.7101 59.3661 32.7114 58.055C32.7114 58.0126 32.7164 57.9269 32.7263 57.7981C32.772 57.1987 32.8078 56.5551 32.8336 55.8674C32.8465 55.5209 33.3183 55.4462 33.5587 55.5448C33.8666 55.6722 33.7901 56.1472 33.7196 56.422C33.709 56.4657 33.704 56.5105 33.7047 56.5555C33.7126 56.9033 33.7013 57.1987 33.6709 57.4417C33.5716 58.2283 33.6182 58.6943 33.5477 59.6462C33.5067 60.2025 33.4514 61.573 33.3819 63.7576C33.3574 64.5469 33.4024 65.1868 33.5169 65.6774C33.6871 66.4023 34.0831 67.0081 34.7048 67.4946C35.2994 67.96 35.9424 68.2385 36.6337 68.3301C37.2574 68.413 37.8242 68.4565 38.3341 68.4605C40.9721 68.4817 43.033 68.4804 44.5169 68.4565C45.6601 68.4386 46.5788 68.2773 47.4896 67.6659C47.8005 67.4558 48.1173 67.0804 48.3676 66.8404C48.417 66.7936 48.4592 66.7392 48.4927 66.6791C48.7775 66.172 48.9258 65.622 48.9377 65.0292C48.9463 64.5904 48.9546 64.135 48.9625 63.663C48.9639 63.6008 48.9585 63.5384 48.9466 63.4768C48.8523 62.9889 48.9357 62.5608 48.9159 62.0908C48.8672 60.9536 48.9367 59.7229 48.8712 58.4912C48.8364 57.8489 48.8612 57.5253 48.8195 57.0264C48.8069 56.8771 48.8126 56.7128 48.8364 56.5335C48.8444 56.4732 48.8727 56.4174 48.9168 56.3754C48.9609 56.3334 49.018 56.3077 49.0787 56.3025L49.8972 56.2368C49.9864 56.2302 50.0757 56.2302 50.1643 56.2368L50.8507 56.2896C50.8959 56.2932 50.9384 56.3128 50.9708 56.3451C51.0031 56.3773 51.0232 56.4201 51.0274 56.4658C51.0705 56.9591 51.0711 57.4065 51.0294 57.8081C50.9976 58.1181 50.9837 58.8543 50.9877 60.0166C50.9884 60.1892 50.9804 60.3266 50.9639 60.4289C50.9152 60.7276 50.9619 61.0034 50.9579 61.34C50.95 61.8906 50.9182 62.4841 50.942 63.0347C50.9725 63.741 50.988 64.4404 50.9887 65.1327C50.9887 65.1473 50.9897 65.162 50.9917 65.1766L51.1039 65.8955C51.1052 65.9008 51.1066 65.9058 51.1079 65.9104C51.4863 67.1133 52.553 67.9855 53.7668 68.2713C54.0813 68.3457 54.3617 68.3891 54.608 68.4018C55.1324 68.4286 55.7949 68.4715 56.3829 68.4725C59.1017 68.4744 60.7249 68.4725 61.2527 68.4665C61.8579 68.4585 62.4061 68.4333 62.8974 68.3908C63.6443 68.3261 64.6237 68.0463 65.2295 67.5305C65.5328 67.2723 65.7351 67.0807 65.8364 66.9559C66.19 66.5198 66.5098 65.6754 66.478 65.0123C66.4674 64.7846 66.4767 64.5944 66.5058 64.4417C66.5873 64.0205 66.5416 63.5884 66.5485 63.0795C66.549 63.0546 66.5463 63.0156 66.5405 62.9653C66.5346 62.915 66.5258 62.8548 66.5147 62.7888C66.4995 62.6958 66.4893 62.5116 66.484 62.2361C66.4661 61.3878 66.4509 60.8165 66.4383 60.5225C66.4323 60.3871 66.3906 60.2357 66.3886 60.1202C66.3681 58.6571 66.2899 57.2843 66.1542 56.0018C66.1476 55.9398 66.1535 55.8771 66.1715 55.8175C66.1895 55.7578 66.2192 55.7023 66.2589 55.6543C66.2987 55.6063 66.3476 55.5668 66.4027 55.5381C66.4579 55.5094 66.5183 55.492 66.5803 55.487L66.6319 55.483C66.6965 55.4777 66.7614 55.4857 66.8228 55.5065C66.8841 55.5273 66.9406 55.5604 66.9887 55.6039C67.0368 55.6473 67.0755 55.7002 67.1024 55.7592C67.1294 55.8182 67.144 55.8822 67.1454 55.9471C67.1865 57.8582 67.254 59.4979 67.3481 60.866C67.4057 61.6925 67.5407 62.6155 67.937 63.3444C68.1251 63.6909 68.3105 63.9435 68.4933 64.1022C69.3186 64.8221 70.6466 65.069 71.8056 65.1556C72.3748 65.1975 72.7244 65.2502 73.1981 65.2473C74.6204 65.2393 75.5517 65.2366 75.9921 65.2393C76.1874 65.2406 76.3755 65.2283 76.5562 65.2024C76.5781 65.1998 76.7655 65.1789 77.1184 65.1397C77.8077 65.0647 78.4662 64.8722 79.0939 64.5622C79.9163 64.1569 80.3891 63.5505 80.5341 62.6782C80.5804 62.3994 80.6185 62.1133 80.6483 61.8199C80.6801 61.5126 80.6751 60.862 80.6334 59.8683C80.6145 59.4092 80.6125 59.2071 80.6205 58.6943C80.6231 58.5337 80.6112 58.2402 80.5847 57.8141C80.543 57.1439 80.5112 56.2617 80.4169 55.4044C80.3977 55.2251 80.3818 55.0386 80.3692 54.8448C80.3116 53.9314 80.1881 52.9987 79.9987 52.0468C79.9922 52.0154 79.9936 51.9829 80.0027 51.9522C80.0901 51.6495 80.5291 51.4105 80.8112 51.2263C81.0588 51.0643 81.3164 50.8243 81.5839 50.5063C82.0779 49.9202 82.4834 49.2723 82.8006 48.5627C83.1999 47.6695 83.5266 46.6817 83.6627 45.6551C83.7938 44.6587 83.8584 44.0287 83.8564 43.7652C83.8511 43.098 83.8524 42.1687 83.8604 40.9771C83.8657 40.1772 83.7703 39.3869 83.5743 38.6063C83.3505 37.7128 83.033 37.0001 82.6218 36.4684C81.724 35.3064 80.3454 34.7518 78.9598 34.3933C77.3975 33.987 75.8222 33.8048 74.2152 33.6923C73.8646 33.6684 73.6083 33.6804 73.3104 33.6346C73.1164 33.6047 72.8909 33.5878 72.634 33.5838C69.4398 33.538 67.2766 33.4623 64.7051 33.7192C64.2264 33.767 63.9546 33.7849 63.8897 33.773C63.8679 33.7697 63.8462 33.7697 63.8251 33.773C63.1745 33.8895 62.4157 33.9363 61.7155 34.0398C61.246 34.1095 60.3306 34.2569 58.9692 34.4819C58.9229 34.4892 58.8765 34.4975 58.8302 34.5068C57.2775 34.8102 55.4834 35.0774 53.4479 35.3084C52.9165 35.3681 52.5739 35.3651 52.0862 35.4169C51.8478 35.4421 51.5072 35.4611 51.0642 35.4737C49.0162 35.5301 46.9632 35.4332 44.9052 35.1829C44.0961 35.0847 43.0572 34.9214 41.7885 34.693C40.347 34.4335 39.3104 34.2582 38.6787 34.1673C36.6598 33.8765 35.2286 33.7142 34.385 33.6804C34.0328 33.6658 33.7937 33.6508 33.6679 33.6355C33.364 33.597 33.1256 33.5781 32.9528 33.5788C32.5456 33.5808 32.191 33.5419 31.752 33.5469C30.9945 33.5556 30.2608 33.5542 29.551 33.5429C29.2226 33.5376 29.0167 33.5376 28.9332 33.5429C28.3949 33.5788 27.8864 33.5559 27.3937 33.5887C26.4469 33.6518 25.4589 33.7282 24.43 33.8178C23.3626 33.9107 22.2621 34.0999 21.1285 34.3853C20.5902 34.5208 20.0154 34.7169 19.4043 34.9738C17.1943 35.9048 16.4464 37.733 16.2309 40.0073C16.1783 40.5599 16.1177 40.9632 16.1246 41.468C16.1332 42.1245 16.1342 42.6579 16.1276 43.0682C16.1197 43.6188 16.1942 44.0141 16.2319 44.6604C16.3352 46.3989 16.8487 48.244 17.8171 49.6938C18.1237 50.1532 18.558 50.6474 19.1202 51.1765C19.1229 51.1789 19.125 51.1821 19.1262 51.1855C19.1274 51.189 19.1278 51.1928 19.1271 51.1964C19.1265 51.2037 19.1262 51.212 19.1262 51.2213C19.1264 51.2307 19.1297 51.2398 19.1354 51.2471C19.1411 51.2545 19.149 51.2597 19.1579 51.2621Z" fill="#787B83"/>
<path d="M19.1263 51.2213C19.1263 51.212 19.1267 51.2037 19.1273 51.1964C19.1279 51.1928 19.1276 51.1891 19.1264 51.1856C19.1252 51.1821 19.1231 51.179 19.1204 51.1765C18.5582 50.6475 18.1238 50.1532 17.8173 49.6939C16.8489 48.2441 16.3354 46.399 16.2321 44.6604C16.1943 44.0142 16.1198 43.6189 16.1278 43.0682C16.1344 42.658 16.1334 42.1246 16.1248 41.4681C16.1179 40.9632 16.1784 40.56 16.2311 40.0073C16.4466 37.7331 17.1945 35.9049 19.4044 34.9739C20.0156 34.717 20.5903 34.5208 21.1287 34.3854C22.2623 34.0999 23.3628 33.9108 24.4301 33.8178C25.4591 33.7282 26.447 33.6519 27.3939 33.5888C27.8865 33.5559 28.3951 33.5788 28.9334 33.543C29.0168 33.5377 29.2228 33.5377 29.5512 33.543C30.261 33.5543 30.9947 33.5556 31.7522 33.547C32.1912 33.542 32.5458 33.5808 32.953 33.5788C33.1258 33.5782 33.3642 33.5971 33.6681 33.6356C33.7939 33.6509 34.0329 33.6658 34.3852 33.6804C35.2288 33.7143 36.66 33.8766 38.6789 34.1673C39.3106 34.2583 40.3472 34.4335 41.7887 34.6931C43.0573 34.9214 44.0963 35.0847 44.9054 35.183C46.9634 35.4332 49.0163 35.5302 51.0644 35.4737C51.5073 35.4611 51.848 35.4422 52.0864 35.417C52.5741 35.3652 52.9167 35.3682 53.4481 35.3084C55.4835 35.0774 57.2776 34.8102 58.8304 34.5069C58.8767 34.4976 58.9231 34.4893 58.9694 34.482C60.3308 34.2569 61.2462 34.1096 61.7157 34.0399C62.4159 33.9363 63.1747 33.8895 63.8253 33.773C63.8464 33.7697 63.8681 33.7697 63.8898 33.773C63.9547 33.785 64.2265 33.767 64.7053 33.7192C67.2767 33.4623 69.44 33.538 72.6342 33.5838C72.8911 33.5878 73.1165 33.6047 73.3106 33.6346C73.6085 33.6804 73.8648 33.6685 74.2154 33.6924C75.8224 33.8049 77.3977 33.9871 78.96 34.3934C80.3456 34.7518 81.7241 35.3065 82.622 36.4685C83.0332 37.0002 83.3507 37.7128 83.5745 38.6063C83.7705 39.387 83.8659 40.1773 83.8606 40.9772C83.8526 42.1687 83.8513 43.0981 83.8566 43.7652C83.8586 44.0288 83.794 44.6588 83.6629 45.6552C83.5268 46.6818 83.2001 47.6695 82.8008 48.5627C82.4836 49.2723 82.0781 49.9202 81.5841 50.5064C81.3166 50.8244 81.059 51.0643 80.8114 51.2263C80.5293 51.4105 80.0903 51.6495 80.0029 51.9522C79.9938 51.9829 79.9924 52.0154 79.9989 52.0468C80.1883 52.9987 80.3118 53.9314 80.3694 54.8448C80.382 55.0387 80.3979 55.2252 80.4171 55.4044C80.5114 56.2618 80.5432 57.144 80.5849 57.8141C80.6114 58.2403 80.6233 58.5337 80.6207 58.6944C80.6127 59.2072 80.6147 59.4093 80.6336 59.8683C80.6753 60.8621 80.6803 61.5126 80.6485 61.82C80.6187 62.1134 80.5806 62.3995 80.5343 62.6783C80.3892 63.5506 79.9165 64.157 79.0941 64.5622C78.4664 64.8722 77.8079 65.0648 77.1186 65.1398C76.7656 65.1789 76.5783 65.1998 76.5564 65.2025C76.3756 65.2284 76.1876 65.2407 75.9923 65.2393C75.5519 65.2367 74.6206 65.2393 73.1983 65.2473C72.7246 65.2503 72.3749 65.1975 71.8058 65.1557C70.6467 65.0691 69.3188 64.8221 68.4934 64.1022C68.3107 63.9436 68.1253 63.691 67.9372 63.3445C67.5409 62.6156 67.4058 61.6925 67.3482 60.8661C67.2542 59.4979 67.1867 57.8583 67.1456 55.9471C67.1442 55.8822 67.1296 55.8183 67.1026 55.7593C67.0757 55.7003 67.0369 55.6474 66.9888 55.6039C66.9407 55.5605 66.8843 55.5273 66.8229 55.5065C66.7616 55.4858 66.6967 55.4778 66.6321 55.4831L66.5805 55.4871C66.5185 55.492 66.4581 55.5094 66.4029 55.5381C66.3477 55.5669 66.2988 55.6064 66.2591 55.6544C66.2194 55.7024 66.1897 55.7578 66.1717 55.8175C66.1537 55.8772 66.1478 55.9399 66.1544 56.0019C66.2901 57.2844 66.3683 58.6572 66.3888 60.1203C66.3908 60.2358 66.4325 60.3871 66.4385 60.5225C66.451 60.8166 66.4663 61.3878 66.4841 62.2362C66.4894 62.5117 66.4997 62.6959 66.5149 62.7888C66.526 62.8548 66.5348 62.9151 66.5406 62.9654C66.5465 63.0156 66.5492 63.0546 66.5487 63.0796C66.5417 63.5884 66.5874 64.0206 66.506 64.4418C66.4769 64.5944 66.4676 64.7846 66.4782 65.0123C66.51 65.6755 66.1901 66.5199 65.8366 66.956C65.7353 67.0808 65.533 67.2723 65.2297 67.5305C64.6238 68.0463 63.6445 68.3261 62.8976 68.3909C62.4063 68.4333 61.858 68.4586 61.2528 68.4665C60.7251 68.4725 59.1018 68.4745 56.3831 68.4725C55.7951 68.4715 55.1326 68.4287 54.6082 68.4018C54.3619 68.3892 54.0814 68.3457 53.7669 68.2714C52.5532 67.9856 51.4865 67.1133 51.1081 65.9105C51.1068 65.9058 51.1054 65.9008 51.1041 65.8955L50.9919 65.1766C50.9899 65.162 50.9889 65.1474 50.9889 65.1328C50.9882 64.4404 50.9727 63.7411 50.9422 63.0348C50.9184 62.4841 50.9501 61.8907 50.9581 61.34C50.9621 61.0035 50.9154 60.7276 50.9641 60.4289C50.9806 60.3267 50.9886 60.1893 50.9879 60.0167C50.9839 58.8543 50.9978 58.1182 51.0296 57.8081C51.0713 57.4065 51.0707 56.9591 51.0276 56.4659C51.0234 56.4201 51.0033 56.3774 50.9709 56.3451C50.9386 56.3129 50.8961 56.2932 50.8508 56.2896L50.1645 56.2369C50.0759 56.2302 49.9866 56.2302 49.8973 56.2369L49.0789 56.3026C49.0182 56.3077 48.9611 56.3334 48.917 56.3754C48.8729 56.4174 48.8445 56.4733 48.8366 56.5336C48.8127 56.7128 48.8071 56.8771 48.8197 57.0265C48.8614 57.5254 48.8366 57.849 48.8713 58.4912C48.9369 59.723 48.8674 60.9537 48.916 62.0908C48.9359 62.5608 48.8525 62.989 48.9468 63.4769C48.9587 63.5384 48.964 63.6009 48.9627 63.6631C48.9548 64.1351 48.9465 64.5905 48.9379 65.0292C48.926 65.622 48.7776 66.172 48.4929 66.6792C48.4593 66.7392 48.4172 66.7936 48.3678 66.8405C48.1175 67.0805 47.8006 67.4559 47.4898 67.666C46.579 68.2773 45.6603 68.4386 44.5171 68.4566C43.0332 68.4805 40.9722 68.4818 38.3342 68.4606C37.8244 68.4566 37.2576 68.4131 36.6339 68.3301C35.9426 68.2385 35.2996 67.96 34.705 67.4947C34.0833 67.0081 33.6873 66.4024 33.5171 65.6775C33.4026 65.1869 33.3575 64.547 33.382 63.7577C33.4516 61.573 33.5069 60.2026 33.5479 59.6463C33.6184 58.6944 33.5717 58.2283 33.6711 57.4417C33.7015 57.1988 33.7128 56.9034 33.7048 56.5555C33.7042 56.5105 33.7092 56.4657 33.7197 56.4221C33.7903 56.1473 33.8667 55.6723 33.5588 55.5448C33.3185 55.4463 32.8467 55.5209 32.8338 55.8674C32.808 56.5552 32.7722 57.1988 32.7265 57.7982C32.7166 57.927 32.7116 58.0126 32.7116 58.0551C32.7103 59.3661 32.655 60.5358 32.5457 61.5641C32.4954 62.042 32.3865 62.509 32.219 62.9651C31.6687 64.4676 30.2365 64.9068 28.7775 65.1199C28.403 65.1746 27.7604 65.2324 27.2727 65.2364C25.6836 65.249 24.7357 65.2513 24.4291 65.2433C23.575 65.2227 22.7864 65.1371 22.0633 64.9864C20.9092 64.7465 19.76 63.9608 19.463 62.7819C19.3488 62.3258 19.2892 61.6875 19.2902 61.115C19.2915 59.5172 19.3097 58.4401 19.3448 57.8838C19.3952 57.0773 19.4187 56.6448 19.4154 56.5864C19.3915 56.1831 19.4879 55.7977 19.4908 55.3457C19.4915 55.2494 19.5031 55.0848 19.5256 54.8518C19.6375 53.6894 19.757 52.7332 19.8842 51.9831C19.8941 51.9237 19.8881 51.8626 19.8666 51.8062C19.8451 51.7499 19.809 51.7002 19.762 51.6624L19.3399 51.3239C19.3215 51.3095 19.3006 51.299 19.2783 51.293L19.1581 51.2622C19.1492 51.2598 19.1413 51.2545 19.1356 51.2472C19.1299 51.2398 19.1266 51.2308 19.1263 51.2213ZM19.9467 50.9744L20.0341 50.9356C20.0461 50.9668 20.0672 50.98 20.0977 50.9754C20.1202 50.9721 20.1414 50.9565 20.1613 50.9286C20.246 50.8058 20.299 50.7105 20.3202 50.6428C20.4076 50.3653 20.5764 49.8804 20.8267 49.188C21.1644 48.254 21.6468 47.4727 22.2739 46.8441C22.9923 46.1238 23.7703 45.6256 24.6079 45.3495C27.3939 44.4294 30.1312 46.1381 31.4284 48.6016C32.1799 50.0281 32.6341 51.5785 32.7911 53.2526C32.8566 53.9477 32.8864 54.3642 32.8805 54.5023C32.8781 54.5586 32.8879 54.6148 32.9093 54.6669C32.9307 54.7191 32.9631 54.766 33.0044 54.8044C33.0456 54.8428 33.0947 54.8718 33.1482 54.8895C33.2018 54.9071 33.2585 54.9129 33.3145 54.9066L33.389 54.8976C33.5267 54.882 33.6545 54.8185 33.7502 54.718C33.8459 54.6175 33.9033 54.4866 33.9124 54.348C33.9396 53.945 33.9869 53.5603 34.0545 53.1939C34.2028 52.39 34.4061 51.5801 34.6643 50.7643C34.996 49.7154 35.3049 48.9421 35.591 48.4442C36.8345 46.2795 39.0037 45.5924 41.4569 45.6791C43.111 45.7375 44.5382 46.3187 45.7387 47.4226C46.2386 47.8826 46.6872 48.4807 47.0845 49.2169C47.8533 50.6408 48.3429 52.1374 48.5535 53.7067C48.6217 54.2192 48.6846 54.7565 48.7422 55.3188C48.77 55.585 48.9177 55.7234 49.1852 55.734C49.6911 55.7546 50.1635 55.7593 50.6025 55.748C50.9382 55.7393 51.12 55.5711 51.1478 55.2431C51.2014 54.6218 51.2643 54.0718 51.3365 53.5932C51.5464 52.2005 51.9526 50.8732 52.5552 49.6112C53.4094 47.8229 54.7572 46.4239 56.6532 45.927C57.1134 45.8062 57.7484 45.7166 58.5582 45.6581C58.9496 45.6293 59.3707 45.69 59.7998 45.7259C61.0909 45.8334 62.6374 46.4159 63.5204 47.4236C64.7877 48.8704 65.3221 50.9077 65.7799 52.7428C65.918 53.2935 65.9836 53.8481 66.0541 54.3848C66.1256 54.9374 66.7593 55.1336 67.0493 54.6297C67.0682 54.5964 67.0788 54.5588 67.0801 54.5202C67.1152 52.6031 67.5512 50.7577 68.3881 48.9839C68.9139 47.87 69.6522 46.9403 70.603 46.1948C71.5089 45.4839 72.8139 45.1274 73.9532 45.0936C75.5105 45.0458 77.0679 46.0136 78.0492 47.2015C78.9282 48.266 79.2739 49.7457 79.7387 50.8469C79.7976 50.9863 79.8983 51.0633 80.0406 51.078C80.0767 51.0812 80.113 51.0724 80.1439 51.0531C81.0696 50.4696 81.7702 49.7028 82.2456 48.7529C82.6985 47.8481 83.0176 46.8016 83.203 45.6133C83.2971 45.0119 83.3514 44.4792 83.3659 44.0152C83.3769 43.6876 83.4474 43.2992 83.4454 42.9507C83.4427 42.5385 83.4408 42.1239 83.4394 41.7071C83.4394 41.6427 83.4258 41.4512 83.3987 41.1325C83.3961 41.1007 83.3841 40.9085 83.363 40.556C83.3153 39.7753 83.1915 39.0411 82.9915 38.3534C82.6002 37.0052 81.8016 36.0264 80.5402 35.4598C79.4228 34.9579 78.2052 34.6662 76.9716 34.488C75.7016 34.3054 74.4187 34.1959 73.1228 34.1594C73.0885 34.1587 73.0542 34.1547 73.0205 34.1474C72.8762 34.1189 72.7454 34.1033 72.6282 34.1006C71.1106 34.0654 69.4045 34.0585 67.5101 34.0797C66.2673 34.0936 64.8996 34.1763 63.4071 34.3276C61.7577 34.4949 60.1292 34.7309 58.5215 35.0356C57.571 35.2168 56.688 35.3453 55.7067 35.5066C53.4501 35.88 51.1259 36.0244 48.8564 35.9836C48.181 35.9716 47.6765 35.8999 47.0011 35.8671C46.0311 35.8179 44.8365 35.6808 43.4176 35.4558C43.2414 35.4273 41.8499 35.1836 39.243 34.7249C38.2346 34.5477 37.1295 34.41 35.9277 34.3117C34.7822 34.2188 33.9048 34.1527 33.2956 34.1136C32.5792 34.0684 31.1301 34.0548 28.9483 34.0727C27.6326 34.0834 26.2504 34.1547 24.8016 34.2868C23.4084 34.4136 22.1964 34.6108 21.1654 34.8783C20.4721 35.0585 19.8266 35.3025 19.2266 35.6141C18.2526 36.1213 17.5713 36.899 17.1826 37.9471C16.9025 38.7029 16.7942 39.3631 16.6691 40.2393C16.6208 40.5812 16.5966 40.9078 16.5966 41.2191C16.5953 42.2381 16.5953 43.1525 16.5966 43.9624C16.5976 44.4553 16.684 44.9054 16.7466 45.456C16.9068 46.8447 17.364 48.1336 18.1182 49.3225C18.5304 49.9727 19.1124 50.6 19.7968 51.0202C19.8537 51.0554 19.9037 51.0401 19.9467 50.9744ZM23.418 46.4229C22.5301 47.0601 21.814 47.9085 21.366 48.9311C21.0045 49.7563 20.7228 50.6256 20.5208 51.539C20.3566 52.2785 20.1897 53.2888 20.0202 54.57C19.9785 54.8857 19.9914 55.2342 19.911 55.5687C19.8998 55.613 19.8941 55.6585 19.8941 55.7042C19.8852 56.3703 19.7898 57.0524 19.7838 57.611C19.7749 58.3448 19.6945 59.0598 19.6945 59.7946C19.6931 61.1774 19.6948 61.9156 19.6994 62.0092C19.7286 62.596 19.8928 63.068 20.1921 63.4251C20.8694 64.2336 21.7772 64.4915 22.7983 64.6329C24.0226 64.8022 25.2098 64.8566 26.36 64.7962C27.4376 64.7405 28.4269 64.7106 29.3774 64.5224C29.8204 64.4341 30.1673 64.3239 30.4183 64.1918C31.1086 63.8274 31.7393 63.1772 31.923 62.4543C32.0971 61.7699 32.2001 60.885 32.2319 59.7996C32.2326 59.7685 32.2365 59.7371 32.2438 59.706C32.2782 59.554 32.2961 59.4349 32.2974 59.3486C32.3047 58.8182 32.3094 58.4023 32.3113 58.1009C32.3123 57.8689 32.3819 57.6219 32.3858 57.4188C32.4057 56.368 32.4146 55.8319 32.4127 55.8107C32.4087 55.7693 32.4131 55.7273 32.4256 55.6872C32.5024 55.4476 32.5097 55.1757 32.4474 54.8717C32.4402 54.8386 32.4362 54.8046 32.4355 54.7701C32.4236 54.1933 32.3789 53.5948 32.3014 52.9748C32.1279 51.5841 31.773 50.3122 31.2367 49.1592C30.3885 47.335 28.994 46.0405 27.0006 45.6512C25.7978 45.4162 24.4133 45.7089 23.418 46.4229ZM73.9303 45.5516C73.2801 45.6399 72.8782 45.7003 72.7246 45.7328C71.734 45.9433 70.8861 46.4129 70.1809 47.1418C70.1306 47.1936 70.0942 47.2371 70.0717 47.2722C69.9882 47.3977 69.873 47.4873 69.7896 47.6008C68.6593 49.1469 67.9624 50.8071 67.6989 52.5815C67.6565 52.867 67.622 53.084 67.5956 53.2327C67.5876 53.2771 67.583 53.3224 67.5816 53.3681C67.5737 53.8614 67.5562 54.1783 67.529 54.3191C67.4767 54.5859 67.4628 54.8697 67.4873 55.1704C67.5442 55.8674 67.6055 57.2927 67.671 59.4461C67.6757 59.6008 67.6912 59.7953 67.7177 60.0296C67.7422 60.2427 67.7621 60.4366 67.7773 60.6111C67.8442 61.3865 67.9084 61.8907 67.97 62.1237C68.4507 63.9389 69.8124 64.5194 71.5247 64.6618C72.4186 64.7368 73.3572 64.7866 74.3405 64.8112C75.3265 64.8351 76.3094 64.781 77.2894 64.6489C78.3462 64.5065 79.5897 63.8931 79.9751 62.8187C80.1049 62.4569 80.1734 62.1214 80.1807 61.812C80.2164 60.3503 80.1952 58.8328 80.1171 57.2595C80.0284 55.4692 79.8297 53.7681 79.5212 52.1563C79.3742 51.3903 79.1507 50.5449 78.8507 49.6202C78.6263 48.9285 78.3396 48.3413 77.9906 47.8587C77.6119 47.3343 77.154 46.866 76.617 46.4537C76.4839 46.3512 76.319 46.2825 76.1641 46.1789C76.0734 46.1178 75.9555 46.0554 75.8105 45.9917C75.2576 45.7468 74.6418 45.5997 73.9631 45.5506C73.9519 45.5499 73.9409 45.5503 73.9303 45.5516ZM45.6007 47.9454C44.675 47.0562 43.6053 46.4617 42.3191 46.2416C41.406 46.085 40.5087 46.0813 39.6274 46.2307C37.8694 46.5281 36.5981 47.479 35.8134 49.0835C35.2255 50.2863 34.8057 51.5715 34.554 52.939C34.4031 53.7581 34.317 54.3018 34.2958 54.57C34.1879 55.9481 34.12 56.7606 34.0922 57.0076C34.0574 57.3083 34.0892 57.6797 34.0117 58.0421C34.0019 58.0858 33.9975 58.1306 33.9988 58.1756C34.0068 58.708 33.9942 59.1889 33.9611 59.6184C33.9478 59.7956 33.9455 59.9294 33.9541 60.0197C33.9869 60.3682 33.8896 60.7077 33.8916 61.0154C33.8995 62.3358 33.7883 63.6999 33.8161 64.9018C33.8578 66.7081 35.3357 67.7426 37.0123 67.9298C37.105 67.9404 37.3324 67.9597 37.6946 67.9876C37.9787 68.0095 38.2065 68.0208 38.3779 68.0214C40.2869 68.0274 42.1611 68.0297 44.0006 68.0284C44.6223 68.0284 45.3057 67.9776 45.844 67.8681C46.2227 67.7911 46.5571 67.6686 46.8471 67.5007C47.6646 67.0287 48.2178 66.5856 48.4015 65.6426C48.4863 65.2052 48.5353 64.6505 48.5485 63.9787C48.5525 63.7617 48.5459 63.5884 48.5287 63.459C48.4522 62.8735 48.482 62.047 48.479 61.7672C48.475 61.2873 48.5247 60.7366 48.4999 60.2587C48.4601 59.5168 48.5456 58.8636 48.4671 58.2114C48.426 57.8775 48.4049 57.5552 48.4035 57.2446C48.3989 55.9096 48.3085 54.7469 48.1324 53.7565C47.8215 52 47.3477 50.3182 46.3476 48.8495C46.1012 48.4884 45.8523 48.187 45.6007 47.9454ZM64.3547 49.66C63.8094 48.4213 63.1082 47.4306 61.9372 46.7843C61.3651 46.4683 60.6649 46.2646 59.8365 46.1729C58.159 45.9877 56.4059 46.2038 55.0551 47.2603C54.1996 47.9288 53.5213 48.7174 53.02 49.6262C52.7677 50.0822 52.5224 50.7099 52.284 51.5091C52.0768 52.2028 51.9182 52.859 51.8083 53.4777C51.7321 53.9039 51.6626 54.42 51.5997 55.0261C51.5371 55.6215 51.5828 56.1373 51.5203 56.665C51.4487 57.2645 51.4924 57.9774 51.4547 58.6874C51.4123 59.4972 51.3958 60.1491 51.405 60.643C51.4242 61.654 51.4345 62.1791 51.4358 62.2183C51.4411 62.3597 51.4252 62.8536 51.3882 63.6999C51.3663 64.2051 51.3839 64.6973 51.4408 65.1766C51.5222 65.865 51.7302 66.3878 52.0645 66.7449C52.7254 67.4499 53.5623 67.8515 54.5754 67.9497C55.0872 67.9995 55.5011 68.0244 55.8169 68.0244C56.7837 68.0238 58.5903 68.0238 61.2369 68.0244C62.2613 68.0244 63.1165 67.9328 63.8024 67.7496C64.2057 67.6414 64.6394 67.3991 65.1036 67.0227C65.7213 66.5209 66.0352 65.8119 66.064 65.0482C66.0825 64.5602 66.0862 63.9333 66.0749 63.1672C66.06 62.1625 65.9458 60.9567 65.9508 60.0456C65.9521 59.7608 65.9415 59.5852 65.919 59.5188C65.9028 59.4726 65.8949 59.4046 65.8962 59.3237C65.9001 59.0601 65.8869 58.7425 65.8564 58.3707C65.8227 57.9585 65.7998 57.6495 65.7879 57.4437C65.7005 55.9879 65.6167 54.9222 65.5366 54.2464C65.3419 52.6034 64.9774 51.076 64.3547 49.66Z" fill="#787B83" stroke="#787B83" stroke-width="0.6"/>
<path d="M20.0339 50.9354C20.1305 50.7947 20.206 50.6374 20.2603 50.4634C20.4523 49.854 20.6487 49.3047 20.8493 48.8155C21.4995 47.2309 22.5828 46.1018 24.0991 45.428C24.7679 45.1306 25.394 44.9796 25.9773 44.9749C27.2731 44.965 28.4567 45.3662 29.5281 46.1788C30.9494 47.2572 31.7777 48.7508 32.3141 50.4246C32.7359 51.739 32.9603 53.0875 32.9875 54.4703C32.989 54.5607 33.0254 54.6471 33.0892 54.7112C33.1529 54.7752 33.2389 54.812 33.3291 54.8138L33.3689 54.8148C33.4726 54.8169 33.5731 54.779 33.6498 54.709C33.7265 54.639 33.7734 54.5421 33.7811 54.4384C33.8943 52.894 34.2926 51.4552 34.812 49.9685C35.1722 48.9376 35.5781 48.148 36.0297 47.5997C36.764 46.7075 37.7225 46.1127 38.9051 45.8153C40.2903 45.4662 41.6212 45.4496 42.8978 45.7655C44.6207 46.1924 45.9596 47.1775 46.9144 48.7209C47.8275 50.1966 48.4162 51.9063 48.6804 53.8499C48.785 54.6233 48.8443 55.1368 48.8582 55.3903C48.8611 55.4469 48.8848 55.5003 48.9249 55.5403C48.9649 55.5802 49.0183 55.6038 49.0747 55.6064C49.4872 55.627 49.9835 55.63 50.5635 55.6154C50.7373 55.6114 50.928 55.6443 50.9896 55.4571C51.0088 55.3993 51.0297 55.2563 51.0522 55.0279C51.1171 54.3681 51.1585 53.9747 51.1763 53.8479C51.379 52.3935 51.7865 51.0038 52.399 49.6788C53.3406 47.6425 54.8562 46.1419 57.1009 45.7078C59.721 45.201 62.8725 45.7904 64.2978 48.3057C64.9493 49.4567 65.3089 50.5959 65.6684 51.8804C65.9095 52.7433 66.0763 53.5954 66.169 54.4364C66.1803 54.5376 66.2285 54.631 66.3042 54.6987C66.3799 54.7664 66.4779 54.8035 66.5792 54.8029H66.6031C66.6527 54.8026 66.7018 54.7925 66.7475 54.7731C66.7932 54.7537 66.8346 54.7254 66.8694 54.6898C66.9041 54.6542 66.9315 54.6121 66.9498 54.5659C66.9682 54.5197 66.9773 54.4703 66.9765 54.4205C66.9537 52.9438 67.3271 51.4263 67.8347 49.9924C68.3372 48.5745 69.2133 47.1217 70.3912 46.2076C71.6178 45.2567 73.5457 44.6941 75.106 45.1243C76.3744 45.4738 77.5345 46.3082 78.3042 47.3508C78.6697 47.8466 78.9389 48.4321 79.1713 49.0246C79.2607 49.251 79.4762 49.8457 79.8179 50.809C79.835 50.8574 79.8689 50.8982 79.9136 50.9237C79.9582 50.9493 80.0106 50.958 80.0612 50.9484C80.1115 50.9384 80.189 50.8986 80.2936 50.8289C81.7457 49.862 82.5552 48.1912 82.9177 46.4934C83.1117 45.5846 83.2296 44.6669 83.2713 43.7402C83.2925 43.2649 83.2955 42.4338 83.2803 41.2469C83.2683 40.291 83.1621 39.4476 82.9475 38.5853C82.5608 37.0293 81.611 35.9668 80.098 35.3979C79.2001 35.0607 78.38 34.8313 77.6378 34.7099C76.4101 34.5087 75.1716 34.3544 73.9171 34.2906C72.4028 34.2143 71.5337 34.1758 71.3099 34.1751C69.3367 34.1692 68.1694 34.1698 67.8078 34.1771C65.6771 34.2176 63.5754 34.3786 61.5029 34.6601C59.6187 34.917 57.229 35.4019 55.324 35.6787C53.4992 35.9449 51.7024 36.0846 49.9338 36.0979C49.2114 36.1032 48.3983 36.074 47.4945 36.0103C45.7851 35.8898 44.3827 35.7594 42.9763 35.5025C40.6422 35.0756 39.2646 34.831 38.8435 34.7686C37.2133 34.527 35.3599 34.3461 33.2834 34.2259C32.5908 34.1854 31.6042 34.1668 30.3236 34.1702C28.8411 34.1735 27.8535 34.1888 27.3609 34.216C25.3734 34.3255 23.7088 34.447 21.924 34.8074C19.9415 35.2087 17.9302 35.9834 17.235 38.0974C16.98 38.8727 16.8201 39.7002 16.7552 40.5797C16.697 41.377 16.6897 42.5048 16.7334 43.9633C16.8059 46.3789 17.4098 48.5885 19.0883 50.3619C19.2995 50.5842 19.5856 50.7884 19.9465 50.9742C19.9034 51.04 19.8534 51.0552 19.7965 51.02C19.1122 50.5998 18.5301 49.9725 18.1179 49.3223C17.3638 48.1334 16.9065 46.8446 16.7463 45.4559C16.6837 44.9052 16.5973 44.4551 16.5963 43.9623C16.595 43.1524 16.595 42.238 16.5963 41.219C16.5963 40.9077 16.6205 40.5811 16.6688 40.2392C16.794 39.3629 16.9022 38.7028 17.1823 37.947C17.571 36.8988 18.2524 36.1211 19.2264 35.614C19.8263 35.3023 20.4719 35.0584 21.1652 34.8781C22.1961 34.6106 23.4082 34.4135 24.8013 34.2867C26.2501 34.1546 27.6323 34.0832 28.948 34.0726C31.1298 34.0547 32.5789 34.0683 33.2954 34.1134C33.9045 34.1526 34.7819 34.2186 35.9274 34.3116C37.1292 34.4098 38.2343 34.5475 39.2428 34.7248C41.8497 35.1835 43.2412 35.4271 43.4173 35.4557C44.8363 35.6807 46.0308 35.8178 47.0008 35.8669C47.6762 35.8998 48.1808 35.9715 48.8562 35.9834C51.1257 36.0242 53.4498 35.8798 55.7064 35.5064C56.6877 35.3451 57.5707 35.2167 58.5212 35.0355C60.1289 34.7308 61.7575 34.4948 63.4069 34.3275C64.8994 34.1761 66.267 34.0935 67.5099 34.0796C69.4043 34.0583 71.1103 34.0653 72.6279 34.1005C72.7451 34.1031 72.8759 34.1187 73.0203 34.1473C73.054 34.1545 73.0882 34.1585 73.1226 34.1592C74.4184 34.1957 75.7013 34.3053 76.9713 34.4878C78.2049 34.666 79.4226 34.9578 80.54 35.4596C81.8013 36.0262 82.5999 37.005 82.9912 38.3533C83.1912 39.041 83.315 39.7752 83.3627 40.5558C83.3839 40.9083 83.3958 41.1005 83.3984 41.1324C83.4256 41.451 83.4392 41.6425 83.4392 41.7069C83.4405 42.1238 83.4425 42.5384 83.4451 42.9506C83.4471 43.2991 83.3766 43.6874 83.3657 44.015C83.3511 44.479 83.2968 45.0118 83.2028 45.6132C83.0174 46.8014 82.6982 47.848 82.2453 48.7528C81.7699 49.7027 81.0693 50.4694 80.1437 51.0529C80.1127 51.0723 80.0764 51.081 80.0404 51.0778C79.898 51.0632 79.7974 50.9862 79.7384 50.8468C79.2736 49.7455 78.928 48.2658 78.049 47.2014C77.0676 46.0135 75.5103 45.0456 73.9529 45.0934C72.8137 45.1273 71.5086 45.4837 70.6028 46.1947C69.6519 46.9402 68.9136 47.8699 68.3879 48.9838C67.5509 50.7575 67.1149 52.6029 67.0798 54.5201C67.0785 54.5587 67.068 54.5962 67.049 54.6296C66.759 55.1334 66.1253 54.9373 66.0538 54.3846C65.9833 53.8479 65.9177 53.2933 65.7797 52.7427C65.3218 50.9075 64.7875 48.8702 63.5201 47.4234C62.6371 46.4158 61.0907 45.8332 59.7995 45.7257C59.3704 45.6899 58.9493 45.6291 58.558 45.658C57.7482 45.7164 57.1132 45.806 56.653 45.9268C54.7569 46.4237 53.4091 47.8227 52.5549 49.6111C51.9524 50.873 51.5461 52.2003 51.3362 53.593C51.2641 54.0717 51.2012 54.6216 51.1475 55.243C51.1197 55.5709 50.938 55.7392 50.6023 55.7478C50.1633 55.7591 49.6908 55.7545 49.1849 55.7339C48.9174 55.7233 48.7698 55.5848 48.742 55.3187C48.6843 54.7564 48.6214 54.219 48.5532 53.7066C48.3427 52.1373 47.853 50.6407 47.0843 49.2168C46.687 48.4806 46.2384 47.8825 45.7385 47.4224C44.538 46.3185 43.1107 45.7373 41.4567 45.6789C39.0034 45.5923 36.8342 46.2793 35.5907 48.4441C35.3047 48.9419 34.9958 49.7153 34.664 50.7641C34.4058 51.58 34.2025 52.3899 34.0542 53.1937C33.9867 53.5602 33.9393 53.9449 33.9122 54.3478C33.903 54.4864 33.8456 54.6174 33.7499 54.7178C33.6542 54.8183 33.5264 54.8819 33.3887 54.8975L33.3142 54.9064C33.2582 54.9128 33.2015 54.907 33.148 54.8893C33.0944 54.8717 33.0454 54.8427 33.0041 54.8042C32.9629 54.7658 32.9304 54.7189 32.909 54.6668C32.8877 54.6146 32.8778 54.5585 32.8802 54.5021C32.8862 54.3641 32.8564 53.9475 32.7908 53.2525C32.6339 51.5783 32.1797 50.028 31.4281 48.6014C30.131 46.1379 27.3936 44.4293 24.6077 45.3493C23.77 45.6255 22.992 46.1237 22.2736 46.8439C21.6465 47.4726 21.1642 48.2539 20.8265 49.1879C20.5762 49.8803 20.4073 50.3652 20.3199 50.6427C20.2987 50.7104 20.2458 50.8056 20.161 50.9284C20.1411 50.9563 20.1199 50.9719 20.0974 50.9752C20.067 50.9799 20.0458 50.9666 20.0339 50.9354Z" fill="#787B83"/>
<path d="M23.4178 46.4227C24.413 45.7087 25.7975 45.416 27.0003 45.651C28.9937 46.0403 30.3882 47.3348 31.2364 49.159C31.7727 50.312 32.1276 51.5839 32.3011 52.9746C32.3786 53.5947 32.4233 54.1931 32.4352 54.77C32.4359 54.8044 32.4399 54.8384 32.4471 54.8715C32.5094 55.1756 32.5021 55.4474 32.4253 55.687C32.4128 55.7271 32.4084 55.7691 32.4124 55.8105C32.4144 55.8317 32.4054 56.3678 32.3856 57.4186C32.3816 57.6218 32.3121 57.8687 32.3111 58.1007C32.3091 58.4021 32.3044 58.818 32.2972 59.3484C32.2958 59.4347 32.278 59.5538 32.2435 59.7058C32.2363 59.7369 32.2323 59.7683 32.2316 59.7994C32.1998 60.8848 32.0969 61.7697 31.9227 62.4541C31.739 63.177 31.1083 63.8272 30.418 64.1916C30.167 64.3237 29.8201 64.4339 29.3771 64.5222C28.4266 64.7104 27.4373 64.7403 26.3597 64.796C25.2095 64.8565 24.0223 64.802 22.798 64.6327C21.777 64.4914 20.8691 64.2335 20.1918 63.4249C19.8925 63.0678 19.7283 62.5958 19.6991 62.009C19.6945 61.9154 19.6928 61.1772 19.6942 59.7945C19.6942 59.0596 19.7746 58.3447 19.7836 57.6108C19.7895 57.0522 19.8849 56.3701 19.8938 55.704C19.8938 55.6583 19.8995 55.6128 19.9107 55.5685C19.9911 55.234 19.9782 54.8855 20.0199 54.5698C20.1895 53.2886 20.3563 52.2783 20.5205 51.5388C20.7225 50.6254 21.0042 49.7561 21.3658 48.9309C21.8137 47.9083 22.5298 47.06 23.4178 46.4227ZM32.1561 59.4977C32.1654 59.0463 32.2101 57.9593 32.2902 56.2367C32.3524 54.907 32.2929 53.6421 32.1114 52.4419C31.7012 49.7275 30.2859 46.582 27.3698 45.8481C24.704 45.177 22.3381 46.7324 21.3608 49.2058C20.9052 50.3588 20.5834 51.5451 20.3954 52.7645C20.1385 54.4327 19.9752 56.0239 19.9057 57.5381C19.858 58.5863 19.8213 59.7457 19.7955 61.0162C19.7746 62.0777 19.7716 62.9958 20.5543 63.6559C21.2704 64.2584 21.8802 64.3739 22.8625 64.5252C23.4353 64.6135 24.0236 64.6626 24.6275 64.6726C25.8313 64.6932 26.9814 64.6659 28.078 64.5909C28.6083 64.5551 29.1486 64.4698 29.6989 64.335C30.6752 64.097 31.6069 63.3363 31.8393 62.3664C32.0028 61.68 32.0969 60.7909 32.1214 59.6989C32.122 59.6658 32.127 59.6327 32.1363 59.6003C32.1488 59.5545 32.1555 59.5203 32.1561 59.4977Z" fill="#787B83"/>
<path d="M73.9625 45.5506C74.6412 45.5997 75.257 45.7468 75.8099 45.9917C75.9549 46.0555 76.0728 46.1179 76.1635 46.1789C76.3184 46.2825 76.4833 46.3512 76.6164 46.4538C77.1534 46.866 77.6113 47.3343 77.99 47.8587C78.339 48.3413 78.6257 48.9285 78.8501 49.6202C79.1501 50.5449 79.3736 51.3903 79.5206 52.1564C79.8291 53.7681 80.0278 55.4692 80.1165 57.2595C80.1946 58.8328 80.2158 60.3503 80.1801 61.812C80.1728 62.1214 80.1043 62.4569 79.9745 62.8187C79.5891 63.8931 78.3456 64.5065 77.2888 64.6489C76.3088 64.781 75.3259 64.8351 74.3399 64.8112C73.3566 64.7866 72.418 64.7368 71.5241 64.6618C69.8118 64.5194 68.4501 63.9389 67.9694 62.1237C67.9078 61.8907 67.8436 61.3865 67.7767 60.6112C67.7615 60.4366 67.7416 60.2427 67.7171 60.0297C67.6906 59.7953 67.6751 59.6008 67.6704 59.4462C67.6049 57.2927 67.5436 55.8675 67.4867 55.1705C67.4622 54.8697 67.4761 54.586 67.5284 54.3191C67.5556 54.1784 67.5731 53.8614 67.581 53.3682C67.5824 53.3224 67.587 53.2772 67.595 53.2327C67.6214 53.084 67.6559 52.867 67.6983 52.5815C67.9618 50.8071 68.6587 49.1469 69.789 47.6008C69.8724 47.4873 69.9876 47.3977 70.0711 47.2723C70.0936 47.2371 70.13 47.1936 70.1803 47.1418C70.8855 46.4129 71.7334 45.9433 72.724 45.7328C72.8776 45.7003 73.2795 45.6399 73.9297 45.5516C73.9403 45.5503 73.9513 45.55 73.9625 45.5506ZM73.5732 45.7109C71.929 45.8384 70.6425 46.5633 69.7135 47.8856C69.0937 48.7685 68.6137 49.6992 68.2733 50.6777C67.6744 52.3963 67.5691 54.3848 67.6615 56.2528C67.6933 56.902 67.7188 57.4729 67.738 57.9655C67.7751 58.9055 67.8075 59.6058 67.8353 60.0665C67.8863 60.9374 67.9611 61.5956 68.0598 62.041C68.3627 63.4062 69.2864 64.1719 70.6163 64.4089C72.0575 64.6668 73.5404 64.6887 75.1434 64.6738C76.4237 64.6618 77.4616 64.63 78.4171 64.2108C79.505 63.7341 80.0579 62.8937 80.0758 61.6896C80.0831 61.1817 80.0887 60.3968 80.0927 59.3346C80.0966 58.4365 80.0251 57.1838 79.9516 56.2369C79.8993 55.5737 79.7911 54.6357 79.6268 53.4229C79.46 52.1876 79.1852 50.987 78.8025 49.8213C78.288 48.2531 77.401 46.9984 75.9549 46.2068C75.2292 45.8098 74.4353 45.6446 73.5732 45.7109Z" fill="#787B83"/>
<path d="M46.3477 48.8495C47.3479 50.3182 47.8217 52 48.1325 53.7565C48.3087 54.7469 48.3991 55.9096 48.4037 57.2445C48.405 57.5552 48.4262 57.8775 48.4673 58.2114C48.5457 58.8636 48.4603 59.5168 48.5 60.2586C48.5249 60.7366 48.4752 61.2872 48.4792 61.7672C48.4822 62.047 48.4524 62.8735 48.5288 63.459C48.5461 63.5884 48.5527 63.7617 48.5487 63.9787C48.5355 64.6505 48.4865 65.2051 48.4017 65.6426C48.218 66.5856 47.6647 67.0287 46.8473 67.5007C46.5573 67.6686 46.2229 67.7911 45.8442 67.8681C45.3058 67.9776 44.6225 68.0284 44.0007 68.0284C42.1613 68.0297 40.2871 68.0274 38.3781 68.0214C38.2066 68.0208 37.9788 68.0095 37.6948 67.9876C37.3326 67.9597 37.1051 67.9404 37.0124 67.9298C35.3359 67.7426 33.858 66.708 33.8162 64.9018C33.7884 63.6999 33.8997 62.3358 33.8917 61.0154C33.8897 60.7077 33.9871 60.3682 33.9543 60.0197C33.9457 59.9294 33.948 59.7956 33.9613 59.6184C33.9944 59.1889 34.0069 58.7079 33.999 58.1756C33.9977 58.1306 34.002 58.0858 34.0119 58.0421C34.0894 57.6797 34.0576 57.3083 34.0924 57.0076C34.1202 56.7606 34.188 55.9481 34.296 54.57C34.3172 54.3018 34.4032 53.7581 34.5542 52.939C34.8058 51.5715 35.2256 50.2863 35.8136 49.0835C36.5983 47.479 37.8696 46.5281 39.6276 46.2307C40.5089 46.0813 41.4061 46.085 42.3192 46.2416C43.6054 46.4617 44.6751 47.0562 45.6008 47.9453C45.8524 48.187 46.1014 48.4884 46.3477 48.8495ZM42.3927 46.3731C41.2657 46.1573 40.1679 46.1862 39.0992 46.4597C37.7239 46.8109 36.6926 47.6347 36.0053 48.9311C35.2216 50.4078 34.7608 52.1195 34.5214 53.7754C34.3844 54.7247 34.2629 56.1486 34.1569 58.0471C34.1192 58.7153 34.0655 59.4969 34.0775 60.2806C34.0781 60.3124 34.0761 60.344 34.0715 60.3751L34.0248 60.7077C34.0228 60.7223 34.0222 60.737 34.0228 60.7515C34.0361 60.9494 34.0351 61.1419 34.0199 61.3291C33.9642 62.0201 33.9781 62.7121 33.9394 63.6073C33.8798 64.9775 33.8421 66.2251 35.0548 67.0924C35.6335 67.5066 36.2556 67.7443 36.9211 67.8053C37.6054 67.8691 38.5172 67.9368 39.3038 67.9368C41.6074 67.9361 43.1727 67.9355 43.9997 67.9348C44.3235 67.9348 44.7079 67.882 45.0665 67.8591C45.9405 67.8024 46.6338 67.5723 47.3866 67.0317C48.2617 66.4033 48.4077 65.4216 48.4116 64.377C48.413 63.8738 48.3987 62.5047 48.3689 60.2696C48.3676 60.1621 48.3656 60.0044 48.363 59.7966C48.3497 58.8274 48.3236 57.6186 48.2845 56.1701C48.2815 56.0487 48.2418 55.9083 48.2368 55.7898C48.158 53.9616 47.7929 52.2217 47.1413 50.5701C46.311 48.4671 44.6354 46.8022 42.3927 46.3731Z" fill="#787B83"/>
<path d="M64.3545 49.6599C64.9773 51.0758 65.3418 52.6033 65.5364 54.2463C65.6166 54.922 65.7003 55.9878 65.7877 57.4436C65.7996 57.6494 65.8225 57.9584 65.8563 58.3706C65.8867 58.7424 65.9 59.06 65.896 59.3235C65.8947 59.4045 65.9027 59.4725 65.9188 59.5187C65.9413 59.5851 65.9519 59.7607 65.9506 60.0454C65.9456 60.9565 66.0599 62.1624 66.0748 63.1671C66.086 63.9331 66.0824 64.5601 66.0638 65.048C66.035 65.8118 65.7212 66.5207 65.1034 67.0226C64.6392 67.399 64.2055 67.6413 63.8023 67.7495C63.1163 67.9327 62.2611 68.0243 61.2368 68.0243C58.5902 68.0236 56.7835 68.0236 55.8168 68.0243C55.5009 68.0243 55.0871 67.9994 54.5752 67.9496C53.5622 67.8514 52.7252 67.4498 52.0644 66.7448C51.73 66.3876 51.5221 65.8649 51.4406 65.1765C51.3837 64.6972 51.3661 64.205 51.388 63.6998C51.4251 62.8534 51.441 62.3595 51.4357 62.2181C51.4343 62.179 51.4241 61.6539 51.4049 60.6429C51.3956 60.149 51.4122 59.4971 51.4545 58.6873C51.4923 57.9773 51.4486 57.2643 51.5201 56.6649C51.5827 56.1372 51.537 55.6214 51.5996 55.0259C51.6625 54.4199 51.732 53.9037 51.8081 53.4776C51.918 52.8589 52.0766 52.2027 52.2839 51.509C52.5223 50.7097 52.7676 50.0821 53.0199 49.626C53.5211 48.7173 54.1995 47.9286 55.055 47.2602C56.4058 46.2037 58.1588 45.9876 59.8363 46.1728C60.6647 46.2644 61.3649 46.4682 61.937 46.7842C63.108 47.4304 63.8092 48.4212 64.3545 49.6599ZM51.4873 61.9055C51.5059 62.5182 51.5025 63.1429 51.4774 63.7795C51.4569 64.2833 51.4837 64.8107 51.5578 65.3617C51.6439 65.9996 51.9207 66.5227 52.3882 66.931C53.0209 67.4836 53.876 67.8261 54.7481 67.8461C55.3966 67.861 55.9469 67.9476 56.6282 67.9407C57.3434 67.934 58.7796 67.9327 60.9368 67.9367C61.5199 67.9377 62.081 67.864 62.6919 67.8371C64.1678 67.7724 65.8126 66.8503 65.9407 65.2223C65.9751 64.7842 65.9827 64.2495 65.9635 63.6182C65.941 62.8488 65.9106 62.0608 65.8722 61.2543C65.8573 60.9297 65.8811 60.7096 65.8483 60.4467C65.8245 60.2628 65.8112 60.0614 65.8086 59.8423C65.8046 59.5675 65.7907 59.1961 65.7669 58.7281C65.6755 56.9616 65.5434 55.321 65.3706 53.8061C65.1891 52.215 64.7104 50.6397 63.9344 49.0804C63.2183 47.6435 61.9181 46.6418 60.327 46.36C59.3298 46.1834 58.3538 46.1788 57.399 46.3461C55.1632 46.7374 53.441 48.5716 52.6861 50.6317C52.1683 52.0463 51.8465 53.52 51.7207 55.0528C51.6976 55.331 51.6585 56.0539 51.6035 57.2215C51.5409 58.5419 51.5469 59.449 51.4903 60.6479C51.4737 61.0057 51.4727 61.4249 51.4873 61.9055Z" fill="#787B83"/>
</g>
<circle opacity="0.7" cx="50" cy="60" r="12.5" stroke="#CF1039" stroke-width="3"/>
</g>
</svg>
