<svg width="100" height="100" viewBox="0 0 100 100" fill="none" xmlns="http://www.w3.org/2000/svg">
<circle cx="50" cy="50" r="50" fill="white"/>
<path d="M19 36H49L81 37.5V44L80 50V61L69.5 64H54.5L44.5 65.5L31.5 63.5L21.5 62.5L19 59.5L20.5 49.5L19 44V36Z" fill="white"/>
<path d="M18.5 35.5L22 32L32 31L48.5 32.5L65.5 31L73 31.5L79.5 33L81.5 37L81 41.5L79 39L76.5 41L75.5 39.5L73.5 39L71 42.5L70 40.5L67.5 39.5L66 40.5L62.5 43.5L60.5 39L56 38.5L53 39.5L50 45L46.5 39.5L42.5 38L39.5 39.5L37.5 43H36.5L34.625 40.0625L31 40L28.5 42L25 39L23.5 40.5L22 39.5H20.5L19 42L18.5 35.5Z" fill="#FFCCD1"/>
<path d="M19.5 64L23.5 67L31.5 68.5L48.5 69L66 68.5H73L78.5 66L81 62.5V60.5L80.5 58.5L77.5 59.5L76.5 61H75.5H73.5L71 59.5L70.5 62.5H67.5L65.5 60L62.5 63.5L60.5 63L58 59L56 63.5L51.5 63L50 57L49 60.5L47.5 63.5L45 64L43.5 62L42 59L39.5 62.5L38.5 63.5L37 63L36 62.5L34.5 60.5L32 62.5H29.5L28.5 60L25 61.5L22.5 59.5L20.5 59L19.5 58.5L19 60L19.5 64Z" fill="#FFCCD1"/>
<mask id="mask0_500_6761" style="mask-type:alpha" maskUnits="userSpaceOnUse" x="10" y="30" width="80" height="40">
<rect x="10" y="30" width="80" height="40" fill="#D9D9D9"/>
</mask>
<g mask="url(#mask0_500_6761)">
<g filter="url(#filter0_g_500_6761)">
<path d="M19.5998 42.8C19.5998 42.8 30.0256 46.8 49.9998 46.8C69.9741 46.8 80.3998 42.8 80.3998 42.8L80.7998 47.2L79.5998 50L80.3998 55.6C80.3998 55.6 70.0188 60.4 49.9998 60.4C29.9808 60.4 19.5998 55.6 19.5998 55.6L20.3998 49.6L19.1998 46.4L19.5998 42.8Z" fill="url(#paint0_linear_500_6761)"/>
</g>
<path d="M20.6085 50.101C20.126 52.2064 19.8939 54.3227 19.9121 56.4499C19.915 56.7423 19.9561 57.1215 20.0355 57.5873C20.194 58.5161 20.7464 59.2269 21.7126 59.1479C22.1897 59.1093 22.5384 58.7359 22.7037 58.3238C22.7161 58.2921 22.7219 58.2582 22.7208 58.2242C22.6643 56.5835 22.7993 54.9456 23.126 53.3106C23.2467 52.7097 23.4857 51.9028 23.8472 51.3491C23.8506 51.3439 23.8525 51.3378 23.8528 51.3314C23.8531 51.3251 23.8518 51.3188 23.8489 51.3131L23.4069 50.4452C23.4049 50.4415 23.4022 50.4383 23.399 50.4358C23.3957 50.4332 23.392 50.4314 23.388 50.4304C23.384 50.4295 23.3799 50.4293 23.3759 50.4301C23.372 50.4309 23.3682 50.4325 23.3649 50.4349C22.9715 50.7142 22.5558 50.7974 22.1178 50.6847C21.6541 50.5651 21.2004 50.3159 20.7567 49.937C20.8881 49.9542 21.03 50.0231 21.1824 50.1439C21.1956 50.1542 21.3677 50.2486 21.6989 50.4272C22.1469 50.6701 22.7405 50.7147 23.2108 50.4461C23.2622 50.4169 23.3321 50.388 23.4206 50.3594C23.4378 50.3539 23.4564 50.3553 23.4726 50.3633C23.4887 50.3713 23.5011 50.3853 23.5071 50.4023C23.6162 50.717 23.7493 50.9786 23.9063 51.1869C23.9303 51.2187 23.9439 51.2573 23.9452 51.2971C23.9464 51.337 23.9352 51.3761 23.9131 51.4092C23.8166 51.5551 23.7316 51.7217 23.6579 51.9088C23.1722 53.145 23.036 54.2403 22.8776 55.7872C22.7996 56.5452 22.8424 57.4328 22.8245 58.1942C22.8239 58.2368 22.8155 58.2787 22.7996 58.3178C22.6432 58.7184 22.3853 59.0054 22.0261 59.1788C21.9978 59.1925 21.9671 59.2012 21.9353 59.2046C21.5784 59.2412 21.2878 59.2298 21.0634 59.1702C20.4818 59.0166 20.0672 58.2543 19.9695 57.7556C19.9181 57.4937 19.8419 57.0894 19.8333 56.7649C19.8156 56.0461 19.8176 55.3268 19.8393 54.6068C19.8496 54.2575 19.9104 53.8643 19.943 53.3819C20.0098 52.405 20.2316 51.3114 20.6085 50.101Z" fill="#787B83"/>
<path d="M81.5797 38.6358C81.5808 38.6633 81.5777 38.6787 81.5702 38.6821C81.5646 38.6848 81.5583 38.6859 81.5521 38.6854C81.5458 38.685 81.5398 38.6829 81.5346 38.6795C81.5294 38.6761 81.5251 38.6713 81.5222 38.6658C81.5193 38.6603 81.5178 38.6541 81.518 38.6478C81.5237 37.9313 81.4929 37.2366 81.4255 36.5635C81.255 34.857 80.4687 33.3831 78.98 32.5281C78.0549 31.997 77.0693 31.6385 76.0231 31.4525C75.0604 31.2814 74.1938 31.1683 73.4235 31.1134C72.8381 31.0716 72.4949 31.0424 72.3939 31.0258C71.9459 30.952 71.4345 31.0061 70.9634 30.9503C70.548 30.9014 70.267 30.9349 69.8807 30.91C69.6968 30.8979 69.4253 30.8928 69.0661 30.8945C67.4998 30.9025 66.4136 30.9105 65.8078 30.9185C65.7153 30.9197 65.446 30.9326 65 30.9572C64.7471 30.9709 64.4775 30.9801 64.1914 30.9846C63.8394 30.9898 63.4839 31.0525 63.2201 31.0628C62.5845 31.0885 61.8233 31.1435 60.9365 31.2276C60.5588 31.2636 60.2067 31.3383 59.8144 31.3718C59.542 31.3953 59.2619 31.4304 58.9741 31.4774C57.0434 31.7904 56.0261 31.9544 55.9222 31.9693C55.2569 32.0643 54.7844 32.1261 54.5046 32.1547C53.8621 32.2211 53.2554 32.2866 52.6844 32.3513C52.6404 32.3564 52.2881 32.3799 51.6274 32.4216C50.7134 32.48 49.4072 32.4371 48.8521 32.4448C48.353 32.4517 47.782 32.4262 47.139 32.3684C46.4058 32.302 45.7268 32.2314 45.1021 32.1564C44.8662 32.1278 44.6324 32.0846 44.4005 32.0268C44.3635 32.0176 44.326 32.0119 44.2883 32.0096C44.1033 31.9999 43.8175 31.9581 43.4309 31.8843C42.9301 31.7893 42.6717 31.7403 42.6557 31.7375C41.9608 31.6087 40.9886 31.4616 39.7391 31.2962C39.1498 31.2184 38.6133 31.162 38.1297 31.1271C37.2314 31.0613 36.6935 31.0196 36.5159 31.0018C36.3663 30.9869 35.8375 30.9775 34.9295 30.9735C34.7274 30.9726 34.4524 30.922 34.2194 30.9203C33.2127 30.9111 31.9227 30.9034 30.3495 30.8971C29.9098 30.8954 29.638 30.9002 29.534 30.9117C28.9516 30.9778 28.346 30.952 27.7481 31.0104C27.3558 31.0493 27.13 31.0693 27.0706 31.0705C26.7576 31.0768 26.5318 31.0914 26.393 31.1143C26.3645 31.1194 25.9485 31.1649 25.145 31.2508C24.7207 31.296 24.1808 31.3878 23.5253 31.5263C22.8354 31.6722 22.1545 31.9166 21.4824 32.2594C20.8822 32.5661 20.3985 32.9112 20.0313 33.2947C19.0352 34.3334 18.606 35.7017 18.5418 37.0803C18.5081 37.7997 18.5144 38.6401 18.5606 39.6015C18.5675 39.7337 18.6052 39.8419 18.6274 39.9655C18.6331 39.9963 18.636 40.0276 18.636 40.0591C18.6351 40.3389 18.6831 40.5707 18.7148 40.793C18.7965 41.3745 18.9158 41.9204 19.0728 42.4309C19.1057 42.5366 19.1205 42.6469 19.1165 42.7571C19.0788 43.869 19.1028 45.0024 19.1885 46.1573C19.2456 46.9276 19.3575 47.5789 19.5243 48.1111C19.6327 48.4556 19.7455 48.7088 19.8626 48.8708C19.8797 48.8937 20.0225 49.0848 20.2909 49.4442C20.3035 49.4611 20.3121 49.4807 20.3163 49.5015C20.3204 49.5222 20.32 49.5437 20.3149 49.5644C19.926 51.125 19.6602 52.6908 19.5174 54.2617C19.4923 54.5358 19.4814 55.39 19.4849 56.8241C19.4848 56.8588 19.4797 56.8935 19.4694 56.9271C19.2524 57.6368 19.1114 58.209 19.0463 58.644C19.0451 58.6531 19.0057 58.9622 18.9281 59.5711C18.8159 60.4458 18.8878 61.439 19.0266 62.2631C19.2167 63.3945 19.7641 64.5602 20.6215 65.338C20.7666 65.4696 20.8636 65.5755 20.9127 65.6556C20.9302 65.6844 20.9539 65.709 20.9821 65.7277C21.1049 65.8072 21.2551 65.9211 21.4327 66.0694C21.5914 66.2027 21.9375 66.4144 22.4708 66.7046C23.0122 66.9993 23.7637 67.2886 24.7253 67.5725C25.6024 67.8311 26.431 68.0214 27.211 68.1433C28.6626 68.3694 30.2727 68.5528 32.0412 68.6936C33.3997 68.8023 34.4716 68.8744 35.2567 68.9099C36.1853 68.9517 36.6578 68.9731 36.6744 68.9743C37.2962 69.0097 37.7336 69.0286 37.9866 69.0309C38.7644 69.0378 39.2629 69.0275 39.8299 69.0919C40.0224 69.1142 40.1985 69.1256 40.3584 69.1262C41.1996 69.1296 42.6743 69.1222 44.7826 69.1039C44.8928 69.1027 45.0053 69.0904 45.1201 69.067C45.1423 69.0624 45.1647 69.0601 45.1869 69.0601C48.2836 69.0189 50.8116 69.014 52.7709 69.0455C52.953 69.0484 53.1529 69.0489 53.3705 69.0472C53.6691 69.0449 53.8687 69.0478 53.9692 69.0558C54.2836 69.0824 54.5243 69.1133 54.8009 69.1159C56.9441 69.1348 59.1685 69.1354 61.4744 69.1176C61.8102 69.1153 62.0869 69.1022 62.3044 69.0781C62.6191 69.0438 62.8949 69.0306 63.1319 69.0386C63.3768 69.0472 63.8674 69.0358 64.6034 69.0043C64.7045 69 64.7876 68.9725 64.8938 68.97C65.9891 68.9396 67.0946 68.8761 68.2104 68.7794C69.0556 68.7062 70.0266 68.594 71.1236 68.4429C72.7419 68.2209 74.1787 67.9227 75.4338 67.5484C76.3612 67.272 77.1701 66.9407 77.8605 66.5544C79.4888 65.6427 80.8087 63.9928 81.0734 62.088C81.1551 61.502 81.1956 61.132 81.1951 60.978C81.1942 60.5325 81.2259 60.2046 81.1942 59.8046C81.1148 58.8202 80.9055 57.8671 80.5663 56.9451C80.5504 56.9013 80.5409 56.8553 80.5381 56.8087C80.4807 55.8824 80.503 55.042 80.4696 54.4772C80.4296 53.7881 80.3014 52.7741 80.085 51.4349C79.9839 50.8117 79.8563 50.2297 79.7021 49.6889C79.6592 49.5412 79.6627 49.4099 79.7612 49.3077C80.17 48.8865 80.443 48.3895 80.58 47.8167C80.7651 47.0424 80.8493 46.2414 80.8327 45.4139C80.8302 45.2757 80.8764 45.116 80.8816 45.013C80.9187 44.3023 80.9033 43.4378 80.8353 42.4197C80.8274 42.2985 80.8443 42.1767 80.885 42.0618C81.2128 41.1347 81.4023 40.1769 81.4537 39.1886C81.4566 39.1268 81.494 39.0845 81.5659 39.0616C81.5071 40.1438 81.2964 41.191 80.9338 42.2034C80.915 42.2549 80.9307 42.4489 80.9809 42.7854C80.9826 42.7991 80.9838 42.8132 80.9843 42.8275C80.9923 43.0072 80.9926 43.8461 80.9852 45.3444C80.9835 45.6783 80.9389 46.0208 80.9141 46.3307C80.8293 47.3952 80.6272 48.5755 79.8323 49.3481C79.8031 49.3765 79.782 49.4121 79.771 49.4511C79.76 49.4902 79.7596 49.5313 79.7697 49.5704C80.3796 51.97 80.6631 54.3621 80.6203 56.7469C80.6192 56.8121 80.6302 56.8767 80.6529 56.9374C81.0463 57.9921 81.2622 59.078 81.3004 60.1951C81.3432 61.4324 81.1765 62.506 80.8002 63.416C80.3828 64.4238 79.7278 65.2873 78.8352 66.0067C78.4886 66.2854 78.1934 66.49 77.9495 66.6205C76.5174 67.3853 74.9344 67.8489 73.3104 68.1716C71.8108 68.4698 70.1677 68.6993 68.3809 68.8601C66.5564 69.0238 64.7057 69.1136 62.8286 69.1296C62.6034 69.1314 62.3207 69.1777 62.0851 69.1794C59.2545 69.1932 57.5522 69.2 56.9783 69.2C53.684 69.2017 50.0444 69.0764 46.9026 69.1365C46.8175 69.1377 46.5745 69.1431 46.1736 69.1528C44.163 69.1992 42.1075 69.2112 40.0072 69.1889C39.7828 69.1872 39.5447 69.1468 39.3074 69.1442C37.7959 69.1282 36.3374 69.0781 34.9321 68.994C33.1573 68.8881 31.4231 68.7479 29.7293 68.5734C28.5381 68.4509 27.4552 68.2978 26.4804 68.1141C26.0356 68.03 25.4411 67.8826 24.697 67.672C23.1664 67.2394 21.6143 66.5681 20.5024 65.4187C19.8309 64.7245 19.3547 63.913 19.0737 62.9842C18.9726 62.6494 18.9264 62.2313 18.869 61.8845C18.8393 61.6991 18.8224 61.5506 18.8184 61.439C18.7662 59.9823 18.8244 58.7762 19.1756 57.589C19.2973 57.1764 19.3644 56.9431 19.3769 56.8893C19.39 56.8298 19.392 56.7681 19.3829 56.7074C19.3675 56.6035 19.3367 56.4782 19.3392 56.3357C19.3495 55.8034 19.3324 55.3579 19.3675 54.8583C19.4937 53.0734 19.7715 51.3262 20.2009 49.6168C20.2122 49.5721 20.2121 49.5253 20.2006 49.4807C20.1891 49.4361 20.1665 49.3952 20.135 49.3618C19.4506 48.6382 19.2185 47.6132 19.1242 46.6535C19.0471 45.8677 19.0129 45.3704 19.0214 45.1615C19.0334 44.8508 18.9812 44.595 18.982 44.3323C18.9838 43.6919 18.9872 43.1457 18.9923 42.6936C18.9935 42.5893 18.9808 42.4854 18.9546 42.3845C18.5018 40.6505 18.3262 38.9008 18.4279 37.1353C18.5606 34.8373 19.5028 33.0526 21.6391 32.0757C22.4934 31.6843 23.3391 31.4233 24.1762 31.2928C25.5113 31.0851 26.8559 30.9503 28.2098 30.8885C28.2869 30.8851 28.4008 30.8482 28.4719 30.8482C29.4629 30.8456 30.6202 30.8001 31.69 30.8104C33.4962 30.8281 34.734 30.8461 35.4032 30.8645C35.5334 30.8679 35.6782 30.8962 35.8024 30.8997C37.23 30.9363 38.6699 31.0505 40.122 31.2422C41.2298 31.3887 42.495 31.5961 43.9174 31.8645C44.6889 32.0105 45.7893 32.1501 47.2186 32.2834C47.547 32.3138 47.8151 32.3275 48.023 32.3246C48.3964 32.3204 48.7245 32.3753 49.1005 32.3701C50.1878 32.3576 50.7805 32.3533 50.8787 32.3573C51.0546 32.3647 51.2299 32.3518 51.4047 32.3186C51.6025 32.2817 51.8612 32.3272 52.1122 32.3032C53.8087 32.1395 54.9762 32.0099 55.6147 31.9143C56.16 31.8325 57.2738 31.6548 58.9561 31.3812C59.7333 31.2553 60.6987 31.1457 61.8522 31.0525C63.3214 30.934 64.5129 30.865 65.4266 30.8456C65.6676 30.8404 66.6024 30.8258 68.231 30.8018C68.8877 30.7921 70.0303 30.823 71.6589 30.8945C72.8439 30.9466 74.0285 31.0533 75.2128 31.2147C75.8661 31.304 76.486 31.4327 77.0724 31.601C77.9787 31.8611 79.141 32.3916 79.8605 33.0526C80.676 33.8017 81.1908 34.7325 81.4049 35.845C81.5768 36.7395 81.635 37.6698 81.5797 38.6358Z" fill="#787B83"/>
<path d="M81.5797 38.6359L81.566 39.0617C81.494 39.0846 81.4566 39.1269 81.4538 39.1887C81.4024 40.1771 81.2128 41.1348 80.885 42.0619C80.8443 42.1768 80.8274 42.2986 80.8353 42.4198C80.9033 43.4379 80.9187 44.3024 80.8816 45.0131C80.8764 45.1161 80.8302 45.2758 80.8328 45.414C80.8493 46.2415 80.7651 47.0425 80.5801 47.8168C80.443 48.3896 80.1701 48.8866 79.7612 49.3078C79.6627 49.41 79.6593 49.5413 79.7021 49.689C79.8563 50.2298 79.9839 50.8118 80.085 51.435C80.3014 52.7742 80.4296 53.7882 80.4696 54.4773C80.503 55.0421 80.4807 55.8825 80.5381 56.8088C80.5409 56.8554 80.5505 56.9014 80.5664 56.9453C80.9056 57.8672 81.1148 58.8203 81.1942 59.8047C81.2259 60.2047 81.1942 60.5326 81.1951 60.9781C81.1956 61.1321 81.1551 61.5021 81.0734 62.0881C80.8088 63.9929 79.4888 65.6428 77.8605 66.5545C77.1701 66.9408 76.3612 67.2721 75.4338 67.5485C74.1787 67.9228 72.7419 68.221 71.1236 68.443C70.0266 68.5941 69.0556 68.7063 68.2104 68.7795C67.0946 68.8762 65.9891 68.9398 64.8938 68.9701C64.7876 68.9727 64.7045 69.0001 64.6035 69.0044C63.8674 69.0359 63.3769 69.0473 63.1319 69.0388C62.8949 69.0307 62.6191 69.0439 62.3044 69.0782C62.0869 69.1023 61.8102 69.1154 61.4744 69.1177C59.1686 69.1355 56.9441 69.1349 54.801 69.116C54.5243 69.1134 54.2836 69.0825 53.9692 69.0559C53.8687 69.0479 53.6692 69.045 53.3705 69.0473C53.1529 69.0491 52.9531 69.0485 52.7709 69.0456C50.8117 69.0141 48.2837 69.019 45.1869 69.0602C45.1647 69.0602 45.1423 69.0625 45.1201 69.0671C45.0053 69.0905 44.8928 69.1029 44.7826 69.104C42.6743 69.1223 41.1996 69.1297 40.3585 69.1263C40.1986 69.1257 40.0224 69.1143 39.83 69.092C39.2629 69.0276 38.7644 69.0379 37.9866 69.031C37.7337 69.0287 37.2962 69.0099 36.6744 68.9744C36.6578 68.9732 36.1853 68.9518 35.2568 68.91C34.4716 68.8745 33.3997 68.8024 32.0412 68.6937C30.2727 68.5529 28.6627 68.3695 27.2111 68.1434C26.431 68.0215 25.6025 67.8312 24.7253 67.5726C23.7637 67.2887 23.0122 66.9994 22.4709 66.7047C21.9375 66.4145 21.5915 66.2028 21.4327 66.0695C21.2551 65.9212 21.1049 65.8074 20.9822 65.7278C20.9539 65.7091 20.9302 65.6845 20.9128 65.6557C20.8637 65.5756 20.7666 65.4697 20.6215 65.3381C19.7641 64.5603 19.2168 63.3946 19.0266 62.2632C18.8879 61.4391 18.8159 60.4459 18.9281 59.5712C19.0058 58.9623 19.0452 58.6532 19.0463 58.6441C19.1114 58.2091 19.2525 57.6369 19.4695 56.9272C19.4797 56.8936 19.4849 56.8589 19.4849 56.8242C19.4815 55.3901 19.4923 54.5359 19.5174 54.2618C19.6602 52.6909 19.926 51.1251 20.3149 49.5645C20.32 49.5438 20.3205 49.5223 20.3163 49.5016C20.3122 49.4808 20.3035 49.4612 20.2909 49.4443C20.0225 49.0849 19.8798 48.8938 19.8626 48.8709C19.7456 48.7089 19.6328 48.4557 19.5243 48.1112C19.3575 47.579 19.2456 46.9277 19.1885 46.1574C19.1029 45.0025 19.0789 43.8691 19.1166 42.7572C19.1205 42.647 19.1058 42.5367 19.0729 42.431C18.9158 41.9205 18.7965 41.3746 18.7148 40.7931C18.6831 40.5708 18.6352 40.339 18.636 40.0592C18.636 40.0277 18.6332 39.9964 18.6275 39.9656C18.6052 39.842 18.5675 39.7338 18.5607 39.6016C18.5144 38.6402 18.5081 37.7998 18.5418 37.0804C18.606 35.7018 19.0352 34.3335 20.0314 33.2948C20.3985 32.9113 20.8822 32.5662 21.4824 32.2595C22.1545 31.9167 22.8355 31.6723 23.5253 31.5264C24.1808 31.3879 24.7208 31.2961 25.145 31.2509C25.9485 31.165 26.3645 31.1195 26.3931 31.1144C26.5318 31.0915 26.7577 31.0769 27.0706 31.0706C27.13 31.0694 27.3558 31.0494 27.7481 31.0105C28.346 30.9521 28.9516 30.9779 29.5341 30.9118C29.638 30.9003 29.9098 30.8955 30.3495 30.8972C31.9227 30.9035 33.2127 30.9112 34.2195 30.9204C34.4525 30.9221 34.7274 30.9727 34.9296 30.9736C35.8375 30.9776 36.3663 30.987 36.5159 31.0019C36.6935 31.0197 37.2314 31.0614 38.1297 31.1272C38.6134 31.1622 39.1498 31.2185 39.7392 31.2964C40.9886 31.4617 41.9608 31.6088 42.6558 31.7376C42.6717 31.7404 42.9301 31.7894 43.4309 31.8844C43.8175 31.9582 44.1033 32 44.2884 32.0097C44.326 32.012 44.3635 32.0177 44.4006 32.0269C44.6324 32.0847 44.8663 32.1279 45.1021 32.1565C45.7268 32.2315 46.4058 32.3021 47.139 32.3685C47.782 32.4263 48.353 32.4518 48.8521 32.4449C49.4072 32.4372 50.7134 32.4801 51.6274 32.4217C52.2881 32.38 52.6404 32.3565 52.6844 32.3514C53.2554 32.2867 53.8622 32.2212 54.5046 32.1548C54.7844 32.1262 55.2569 32.0644 55.9222 31.9694C56.0261 31.9545 57.0434 31.7905 58.9741 31.4775C59.2619 31.4306 59.542 31.3954 59.8144 31.3719C60.2067 31.3384 60.5588 31.2637 60.9365 31.2277C61.8233 31.1436 62.5845 31.0886 63.2201 31.0629C63.4839 31.0526 63.8394 30.9899 64.1915 30.9847C64.4775 30.9802 64.7471 30.971 65.0001 30.9573C65.446 30.9327 65.7153 30.9198 65.8078 30.9186C66.4137 30.9106 67.4998 30.9026 69.0662 30.8946C69.4253 30.8929 69.6969 30.898 69.8807 30.9101C70.2671 30.935 70.548 30.9015 70.9634 30.9504C71.4346 31.0062 71.9459 30.9521 72.3939 31.0259C72.495 31.0425 72.8382 31.0717 73.4235 31.1135C74.1938 31.1684 75.0604 31.2815 76.0232 31.4526C77.0693 31.6386 78.0549 31.9971 78.98 32.5282C80.4687 33.3832 81.255 34.8571 81.4255 36.5637C81.4929 37.2367 81.5237 37.9314 81.518 38.6479C81.5179 38.6542 81.5193 38.6604 81.5222 38.6659C81.5251 38.6715 81.5294 38.6762 81.5346 38.6796C81.5399 38.683 81.5459 38.6851 81.5521 38.6855C81.5583 38.686 81.5646 38.6849 81.5703 38.6822C81.5777 38.6788 81.5808 38.6634 81.5797 38.6359ZM19.1731 41.0472C19.2336 40.9751 19.2679 40.9079 19.2759 40.8455C19.3438 40.3316 19.5117 39.864 19.7795 39.4428C20.0374 39.0385 20.5753 38.6041 21.0926 38.6574C22.2139 38.7732 23.0165 39.7561 23.4328 40.6927C23.4354 40.6983 23.4396 40.7031 23.4449 40.7063C23.4503 40.7095 23.4564 40.711 23.4626 40.7106C23.4689 40.7103 23.4748 40.708 23.4797 40.7042C23.4846 40.7004 23.4883 40.6952 23.4902 40.6892C23.6469 40.1759 23.8799 39.4557 24.2439 39.0874C24.7536 38.5724 25.4765 38.4985 26.1215 38.8239C26.6423 39.0866 27.0886 39.5141 27.4561 39.9707C28.0625 40.7233 28.5619 41.5502 28.9542 42.4516C28.9645 42.4751 28.9824 42.4856 29.0081 42.4834C29.0156 42.4828 29.0256 42.4739 29.0381 42.4567C29.0438 42.4871 29.0578 42.5017 29.0801 42.5005C29.1178 42.4988 29.1389 42.4819 29.1435 42.4499C29.2229 41.8364 29.4147 41.265 29.7191 40.7356C30.281 39.7587 31.183 39.3475 32.2819 39.3707C33.2336 39.3913 34.1852 39.9218 34.843 40.6154C35.7225 41.5414 36.3706 42.5824 36.7874 43.7384C36.7976 43.7663 36.8165 43.7903 36.8413 43.8066C36.8661 43.823 36.8955 43.8309 36.9251 43.8291C36.9547 43.8274 36.983 43.8161 37.0058 43.797C37.0285 43.7778 37.0444 43.7519 37.0513 43.7229C37.286 42.7126 37.5224 41.7769 38.0021 40.9408C38.4398 40.1785 38.9074 39.4317 39.5833 38.9381C40.0641 38.5861 40.6149 38.3417 41.2356 38.205C41.4866 38.15 41.9063 38.0565 42.1058 38.0367C42.268 38.0207 42.6946 38.0124 43.3855 38.0118C43.6716 38.0112 44.1505 38.1045 44.822 38.2917C46.5368 38.7698 47.921 40.4042 48.6705 42.0198C49.2028 43.1684 49.6053 44.3539 49.8783 45.5763C49.8804 45.5861 49.8848 45.5952 49.8912 45.603C49.8976 45.6108 49.9058 45.6169 49.9151 45.6209C49.9443 45.6335 49.9662 45.6303 49.9811 45.6115L50.0505 45.6295C50.103 45.6524 50.1336 45.6424 50.1421 45.5994C50.3357 44.6234 50.5644 44.001 50.9636 42.8791C51.3513 41.7872 51.9046 40.828 52.6236 40.0016C53.0975 39.4563 53.6009 39.0333 54.1337 38.7329C55.01 38.2384 55.9993 38.0101 57.028 38.0144C57.4654 38.0161 57.8092 38.0296 58.0593 38.0547C58.1701 38.0662 58.3882 38.108 58.7137 38.1801C59.9432 38.453 60.8843 39.1269 61.537 40.2017C61.935 40.8575 62.2054 41.3522 62.3481 41.6859C62.5234 42.0979 62.7185 42.797 62.9332 43.783C62.9357 43.7947 62.9415 43.8053 62.9499 43.8136C62.9583 43.8219 62.9688 43.8273 62.9803 43.8294C63.0825 43.8477 63.1587 43.7953 63.209 43.6723C63.3346 43.3627 63.537 42.934 63.8163 42.3864C64.1341 41.7614 64.5461 41.2404 64.9743 40.7656C66.0176 39.6111 67.6537 38.9672 69.1492 39.6368C70.2054 40.1089 70.6773 41.1648 70.8178 42.2851C70.8281 42.3658 70.8555 42.3749 70.9001 42.3125C70.9172 42.3274 70.9397 42.3059 70.9677 42.2481C71.4034 41.3405 71.9531 40.5007 72.6166 39.7287C73.2907 38.9449 74.1404 38.3655 75.1914 38.7578C75.6814 38.9398 75.9581 39.3063 76.1396 39.7716C76.267 40.1001 76.3741 40.3954 76.4609 40.6575C76.4627 40.6635 76.4661 40.6689 76.4707 40.6733C76.4753 40.6776 76.4809 40.6807 76.487 40.6822C76.4931 40.6838 76.4994 40.6837 76.5055 40.6821C76.5116 40.6805 76.5172 40.6773 76.5217 40.6729C76.5359 40.6598 76.5485 40.6403 76.5594 40.6146C76.6113 40.6581 76.6507 40.6466 76.6776 40.5802C76.7701 40.3525 76.8709 40.167 76.9799 40.024C77.2529 39.6674 77.5852 39.3684 77.977 39.1269C78.4224 38.8522 78.8207 38.7392 79.1719 38.7878C79.611 38.8485 79.9445 39.0814 80.1723 39.4866C80.3962 39.8849 80.537 40.3464 80.5946 40.8712C80.5963 40.8856 80.603 40.899 80.6134 40.9091C80.6238 40.9193 80.6375 40.9256 80.652 40.927C80.6789 40.9299 80.6974 40.9242 80.7077 40.9099C80.7305 40.9339 80.7531 40.9476 80.7754 40.9511C80.8033 40.9694 80.831 40.972 80.8584 40.9588C80.8658 40.9551 80.872 40.9496 80.8765 40.9428C80.881 40.936 80.8836 40.9282 80.8841 40.9202C80.9073 40.5828 81.0169 40.3004 81.0529 39.9733C81.1677 38.9541 81.1948 38.0524 81.1343 37.2684C81.0703 36.4398 80.8656 35.622 80.5201 34.815C80.282 34.2605 79.8451 33.6235 79.4203 33.3068C79.0183 33.0081 78.6471 32.7797 78.3068 32.6218C77.6815 32.3316 77.0476 32.1099 76.4052 31.9565C74.977 31.6154 73.4869 31.4154 71.9348 31.3564C71.8097 31.3519 71.4962 31.3367 70.9943 31.3109C70.6819 31.2949 70.3673 31.2849 70.0503 31.2809C68.7524 31.2643 67.4658 31.2614 66.1907 31.2723C65.8223 31.2757 65.5954 31.3049 65.2767 31.3333C65.1448 31.3453 64.9161 31.3484 64.5906 31.3427C64.2343 31.3364 63.7849 31.3576 63.2424 31.4062C61.7377 31.5396 60.7329 31.642 60.2281 31.7135C59.0061 31.8864 58.2141 32.0034 57.852 32.0646C56.6568 32.2672 55.4625 32.4538 54.269 32.6243C54.104 32.6484 53.5678 32.7027 52.6604 32.7874C52.3461 32.8166 52.0608 32.7831 51.8107 32.8269C51.62 32.8595 51.4078 32.8764 51.1743 32.8776C50.3446 32.881 49.6396 32.8819 49.0594 32.8801C48.6346 32.8793 48.1746 32.8243 47.7754 32.814C47.2178 32.7995 46.6585 32.7042 46.1043 32.6467C45.8382 32.6192 45.6018 32.5871 45.395 32.5505C42.6803 32.0652 40.7065 31.7582 39.4736 31.6294C38.1048 31.4858 36.9905 31.3959 36.1305 31.3599C35.5497 31.3353 34.9601 31.3098 34.3617 31.2835C33.8603 31.2612 33.2701 31.2517 32.5911 31.2551C31.8382 31.2586 30.639 31.2268 29.4202 31.2903C29.2711 31.2978 29.0461 31.3061 28.7452 31.3152C27.7784 31.3433 26.7268 31.4288 25.5905 31.5719C24.0238 31.7702 22.3963 32.1599 21.025 32.9771C20.798 33.1119 20.6121 33.2999 20.4202 33.451C20.2718 33.5683 20.1342 33.7034 20.0074 33.8562C19.4963 34.4731 19.1645 35.1807 19.0121 35.9791C18.8636 36.7591 18.7948 37.574 18.8056 38.4239C18.8091 38.6482 18.8248 38.8482 18.8527 39.0239C18.8624 39.0851 18.8781 39.2854 18.8998 39.6248C18.9118 39.8091 18.9704 40.2686 19.0754 41.0034C19.0777 41.0182 19.083 41.0322 19.0909 41.0446C19.1263 41.1001 19.1537 41.101 19.1731 41.0472ZM43.2002 38.4001L42.8002 38.3887C43.2373 38.3983 42.4579 38.3749 42.2575 38.3887C41.2107 38.4602 40.3399 38.791 39.6449 39.381C39.4194 39.5727 39.185 39.8282 38.9417 40.1476C38.5117 40.7116 38.1717 41.1974 37.9575 41.8404C37.5644 43.0207 37.2449 44.1787 37.1001 45.3917C36.9613 46.5523 36.8871 47.5921 36.8774 48.5112C36.8654 49.6881 36.862 50.5929 37.0727 51.6822C37.1849 52.2643 37.4547 52.69 37.9635 52.963C38.7678 53.3948 39.6672 53.5253 40.5966 53.6309C40.7336 53.6463 40.9038 53.6535 41.1071 53.6523C41.4711 53.6506 41.8429 53.7339 42.2198 53.727C42.9487 53.7124 43.6973 53.7382 44.9736 53.7356C44.9963 53.7356 45.0188 53.7324 45.0404 53.7262C45.1375 53.7004 45.2474 53.6849 45.3702 53.6798C46.2633 53.6432 47.1102 53.5668 47.9108 53.4506C48.4116 53.3785 48.863 53.2225 49.265 52.9828C49.7121 52.7158 49.8423 52.3372 49.8098 51.7612C49.8063 51.7034 49.8309 51.3709 49.8834 50.7637C49.9188 50.3586 49.9071 49.6649 49.8483 48.6829C49.8449 48.6245 49.8409 48.5644 49.8363 48.5026C49.8063 48.1112 49.8355 47.67 49.7841 47.2871C49.7241 46.839 49.6764 46.4891 49.641 46.2372C49.3541 44.1882 48.5241 42.0327 47.2392 40.3596C46.8458 39.8474 46.345 39.4136 45.7368 39.0582C44.9516 38.5998 43.7703 38.3653 43.2002 38.4001ZM58.0542 38.399C57.6345 38.3432 57.1522 38.411 56.7436 38.3878C56.4044 38.3683 56.0841 38.393 55.7826 38.4616C55.1213 38.6127 54.5192 38.8711 53.9761 39.2368C53.7414 39.3947 53.4699 39.6531 53.2857 39.7965C53.1386 39.9115 53.009 40.0474 52.9011 40.1999C52.7289 40.4455 52.4934 40.6944 52.3358 40.939C51.2831 42.5718 50.6295 44.4251 50.3605 46.3506C50.3194 46.6459 50.2663 46.8819 50.256 47.0734C50.2218 47.7232 50.1567 48.2992 50.1567 48.9628C50.1555 50.113 50.1572 50.9563 50.1618 51.4925C50.1624 51.5434 50.1675 51.5942 50.1772 51.6445C50.2263 51.8928 50.2535 52.0929 50.2586 52.2445C50.2809 52.9381 51.4407 53.2849 52.0094 53.4077C52.3018 53.4706 52.8095 53.5376 53.5324 53.6086C53.7682 53.6314 54.1014 53.6478 54.532 53.6575C54.8101 53.6638 55.1436 53.6861 55.5325 53.7244C56.1578 53.7871 57.0255 53.6849 57.7038 53.7347C57.9231 53.7508 58.1838 53.7402 58.4859 53.703C58.579 53.6915 58.8385 53.6738 59.2645 53.6498C59.7305 53.6234 60.2416 53.5476 60.7978 53.4223C61.644 53.2317 62.5237 52.8437 62.8167 51.975C62.9172 51.6762 62.978 51.4147 62.9991 51.1904C63.0488 50.6521 63.1028 50.3131 63.1036 49.7843C63.1062 48.7619 63.1396 47.888 63.0445 47.0948C63.0411 47.0645 63.0274 46.8994 63.0034 46.5995C62.9469 45.8956 62.8518 45.0088 62.6822 44.2234C62.4989 43.377 62.275 42.5434 62.0106 41.7228C61.9473 41.5259 61.8947 41.3937 61.853 41.3262C61.3894 40.5708 61.0479 40.0732 60.8286 39.8334C60.4997 39.4751 60.2002 39.2119 59.9301 39.0436C59.3927 38.71 58.7674 38.4951 58.0542 38.399ZM23.6015 45.5943C23.5972 46.6759 23.5364 47.9198 23.6666 48.8692C23.8568 50.259 24.3347 51.7475 26.0059 51.7784C26.3485 51.7844 26.8899 51.6788 27.1802 51.5784C27.8047 51.3629 28.3263 50.78 28.6518 50.2152C28.6748 50.1754 28.6861 50.1298 28.6844 50.0839C28.6304 48.2176 28.6021 46.1634 28.7615 44.2079C28.7717 44.0775 28.7854 43.9453 28.8026 43.8113C28.8306 43.5956 28.8354 43.4645 28.8171 43.4182C28.6452 42.9855 28.3317 42.3463 27.8766 41.5005C27.4204 40.6518 26.8719 39.9647 26.2312 39.4394C26.23 39.3369 26.129 39.2445 25.9279 39.1621C24.3759 38.5234 23.9047 40.9948 23.7805 41.9434C23.6224 43.1561 23.5344 44.3653 23.5167 45.5711C23.5167 45.578 23.5181 45.5849 23.5209 45.5912C23.5237 45.5976 23.5279 45.6032 23.5331 45.6078C23.5383 45.6124 23.5444 45.6157 23.5511 45.6177C23.5577 45.6197 23.5647 45.6202 23.5715 45.6192C23.5778 45.6186 23.5878 45.6103 23.6015 45.5943ZM75.0424 39.2548C75.0201 39.2148 74.9593 39.1781 74.8599 39.1449C74.4939 39.0225 74.1367 39.0585 73.7884 39.2531C73.3481 39.4992 72.9644 39.8506 72.6372 40.3072C72.1129 41.0392 71.6353 41.8853 71.2041 42.8456C71.0722 43.1392 71.0288 43.4239 71.0739 43.6997C71.1322 44.0594 71.1322 44.3315 71.1887 44.9513C71.2133 45.2243 71.2258 45.5248 71.2264 45.8527C71.2281 46.6459 71.2275 47.591 71.2247 48.6881C71.2238 49.1662 71.169 49.5619 71.1493 50.0366C71.139 50.2753 71.1853 50.4204 71.3138 50.5946C71.7843 51.2356 72.4053 51.6336 73.1768 51.7887C73.5514 51.8637 73.9089 51.886 74.2492 51.8556C74.931 51.7947 75.5435 51.3097 75.845 50.7148C76.2159 49.9843 76.3289 49.204 76.4377 48.2528C76.4788 47.8889 76.4905 47.5097 76.4728 47.1154C76.4597 46.8367 76.4514 45.9588 76.448 44.4818C76.448 44.4545 76.444 44.4273 76.436 44.4011C76.3972 44.274 76.3775 44.1481 76.3769 44.0234C76.3761 43.2516 76.2947 42.7349 76.1679 41.752C76.1074 41.2787 75.9809 40.7911 75.7885 40.2892C75.6822 40.0119 75.3499 39.3776 75.0912 39.2943C75.0708 39.2877 75.0534 39.2736 75.0424 39.2548ZM76.8437 47.5678C76.89 47.7773 76.8831 48.0288 76.8232 48.3224C76.8272 48.2932 76.8152 48.2711 76.7872 48.2563C76.7802 48.2524 76.7723 48.2505 76.7644 48.2507C76.7564 48.2509 76.7486 48.2531 76.7417 48.2573C76.7348 48.2614 76.7291 48.2673 76.725 48.2743C76.721 48.2814 76.7188 48.2894 76.7187 48.2975C76.7153 48.5207 76.7281 48.7559 76.6956 48.9524C76.6619 49.1579 76.6313 49.4352 76.6039 49.7843C76.6007 49.8235 76.6066 49.8631 76.6211 49.8998C76.6357 49.9366 76.6585 49.9696 76.6878 49.9963C76.8198 50.1159 76.9634 50.2003 77.1187 50.2495C77.1454 50.2581 77.1734 50.2627 77.2018 50.2633C77.5387 50.2678 77.8019 50.2318 77.9915 50.1551C78.7393 49.8538 79.476 49.2709 79.8991 48.5567C80.2494 47.9635 80.4045 47.233 80.473 46.5308C80.5098 46.1531 80.5655 45.8467 80.5681 45.4775C80.5744 44.7359 80.5738 43.9727 80.5664 43.1881C80.5629 42.8705 80.4867 42.5615 80.4764 42.2645C80.4547 41.6281 80.3588 41.0043 80.1886 40.3931C80.0627 39.9407 79.7886 39.3432 79.3183 39.1612C79.1756 39.1063 79.0028 39.0937 78.8001 39.1235C78.4375 39.1761 78.1277 39.3306 77.8708 39.587C77.5019 39.9544 77.2717 40.2091 77.1804 40.351C76.7966 40.9476 76.4497 41.9743 76.5748 42.7314C76.6099 42.9452 76.5345 43.1478 76.6202 43.3761C76.627 43.3943 76.6305 43.4132 76.6305 43.4319L76.6579 44.4346C76.6584 44.4556 76.6625 44.4762 76.6699 44.4955C76.7013 44.5791 76.7158 44.644 76.7135 44.6904C76.6964 45.0377 76.7175 45.38 76.7769 45.717C76.7781 45.7222 76.7786 45.7274 76.7786 45.7325L76.8437 47.5678ZM23.2649 49.8615C23.2655 49.8581 23.2323 49.59 23.1655 49.0572C23.133 48.7979 23.1119 48.5275 23.1021 48.246C23.069 47.2971 23.0579 46.6341 23.0687 46.257C23.0853 45.6607 23.1356 44.8455 23.2195 43.8113C23.252 43.4107 23.2683 43.1091 23.2683 42.9066C23.2677 42.459 23.2723 42.1572 23.282 42.0009C23.2849 41.9623 23.2811 41.9234 23.2709 41.8859C23.2109 41.6564 23.1001 41.3371 22.9385 40.9279C22.673 40.2575 22.2113 39.751 21.6503 39.3767C21.4573 39.2474 21.212 39.1947 20.9145 39.2188C20.4228 39.2591 20.0682 39.933 19.9157 40.3502C19.8141 40.6277 19.7307 41.0873 19.6656 41.7288C19.6408 41.97 19.586 42.4473 19.5791 42.7967C19.5611 43.8388 19.5054 45.0097 19.5885 46.2922C19.6245 46.8407 19.7419 47.3841 19.8823 47.8399C20.1787 48.8022 21.0558 49.6744 21.9475 50.0263C22.3612 50.1894 22.8623 50.265 23.2161 49.9594C23.2302 49.9471 23.2418 49.9322 23.2502 49.9154C23.2585 49.8986 23.2635 49.8803 23.2649 49.8615ZM36.6932 51.4599C36.6612 51.1211 36.6364 50.8739 36.6187 50.7182C36.5844 50.4138 36.5645 50.1694 36.5587 49.9851C36.5079 48.4262 36.5844 46.8413 36.7883 45.2303C36.818 44.9951 36.8183 44.8349 36.7892 44.7496C36.426 43.6766 36.1113 42.9074 35.8452 42.4422C35.8372 42.4284 35.6962 42.2087 35.4221 41.7829C35.1223 41.3168 34.6735 40.903 34.2794 40.5227C34.2636 40.508 34.2453 40.4963 34.2255 40.4884C34.1866 40.4741 34.1224 40.4334 34.0327 40.3665C33.6484 40.0786 33.2484 39.8812 32.8327 39.7742C32.3839 39.6591 31.941 39.6614 31.5042 39.781C30.0369 40.1819 29.5418 41.6558 29.3533 43.0405C29.2648 43.6946 29.1909 44.4117 29.1315 45.1917C29.0978 45.6369 29.0801 45.9646 29.0784 46.1746C29.075 46.6255 29.0618 46.9526 29.039 47.1558C29.0196 47.3274 29.0139 47.5589 29.0218 47.8502C29.039 48.434 29.0613 48.585 29.0381 49.1061C29.0296 49.299 29.0447 49.5754 29.0835 49.9353C29.1378 50.4338 29.3031 50.8347 29.5795 51.138C29.9552 51.5495 30.4609 51.8267 31.0964 51.9698C31.9416 52.1604 32.4735 52.2591 32.6922 52.266C33.0605 52.278 33.6764 52.4634 34.0944 52.4239C34.6706 52.3696 35.2325 52.2499 35.7801 52.0651C36.0834 51.9629 36.5031 51.8016 36.6727 51.5432C36.6887 51.5188 36.696 51.4894 36.6932 51.4599ZM63.2664 51.9089C63.2807 51.9348 63.3042 51.9547 63.3323 51.9647C63.9002 52.1595 64.4613 52.2514 65.1414 52.357C65.3709 52.393 65.568 52.3707 65.765 52.4213C65.8131 52.4344 65.8633 52.4388 65.9131 52.4342C66.4551 52.3867 66.73 52.3598 66.738 52.3535C66.7472 52.3455 67.2971 52.2528 68.3878 52.0754C68.9599 51.9827 69.6392 51.7544 70.094 51.3749C70.4778 51.0547 70.6551 50.8453 70.8058 50.3628C70.8584 50.1952 70.8866 50.0727 70.8906 49.9954C70.9112 49.6332 70.9908 49.4658 70.9369 49.0726C70.9175 48.9307 70.9252 48.6918 70.96 48.3558C70.984 48.1309 70.9886 47.88 70.9737 47.603C70.972 47.5761 70.9603 47.3243 70.9386 46.8476C70.8569 45.0415 70.769 43.8142 70.6748 43.1658C70.564 42.4041 70.4361 41.8358 70.291 41.461C69.9313 40.5327 69.2889 39.9636 68.3638 39.7536C67.9869 39.6677 67.6123 39.6697 67.24 39.7596C66.8499 39.8534 66.503 40.0048 66.1992 40.2137C65.1011 40.9674 64.2888 41.968 63.7623 43.2156C63.5436 43.7341 63.3577 44.2829 63.2047 44.8621C63.1781 44.9629 63.1714 45.0679 63.185 45.1711C63.2729 45.8166 63.338 46.558 63.3803 47.3953C63.4094 47.9807 63.4591 48.3687 63.4488 48.7696C63.4317 49.4186 63.3988 50.0764 63.3503 50.7431C63.3303 51.0144 63.2895 51.3311 63.2278 51.6934C63.2153 51.7667 63.2281 51.8385 63.2664 51.9089ZM20.6087 50.101C20.2318 51.3114 20.01 52.405 19.9431 53.3819C19.9106 53.8644 19.8498 54.2575 19.8395 54.6069C19.8178 55.3268 19.8158 56.0462 19.8335 56.765C19.8421 57.0895 19.9183 57.4938 19.9697 57.7556C20.0673 58.2544 20.4819 59.0166 21.0635 59.1703C21.2879 59.2298 21.5786 59.2413 21.9355 59.2046C21.9673 59.2012 21.998 59.1925 22.0263 59.1789C22.3855 59.0055 22.6433 58.7185 22.7998 58.3179C22.8156 58.2787 22.824 58.2368 22.8246 58.1943C22.8426 57.4328 22.7998 56.5452 22.8777 55.7872C23.0362 54.2404 23.1724 53.145 23.6581 51.9089C23.7317 51.7217 23.8168 51.5552 23.9133 51.4093C23.9354 51.3762 23.9465 51.337 23.9453 51.2972C23.9441 51.2573 23.9305 51.2188 23.9065 51.1869C23.7494 50.9786 23.6164 50.7171 23.5073 50.4023C23.5013 50.3853 23.4889 50.3713 23.4727 50.3633C23.4566 50.3553 23.4379 50.3539 23.4208 50.3594C23.3323 50.388 23.2623 50.4169 23.2109 50.4461C22.7407 50.7148 22.1471 50.6702 21.6991 50.4272C21.3679 50.2487 21.1957 50.1542 21.1826 50.1439C21.0301 50.0232 20.8882 49.9542 20.7569 49.9371C20.7495 49.8821 20.7001 49.9368 20.6087 50.101ZM76.5611 50.3834L76.4574 50.4504C76.4462 50.4583 76.437 50.4686 76.4309 50.4804L76.0583 51.2161C76.0397 51.2529 76.0304 51.2937 76.031 51.3348C76.0316 51.3759 76.0421 51.4162 76.0617 51.4522C76.645 52.5304 76.9165 53.7656 77.0442 55.0378C77.0676 55.2707 77.0807 55.3998 77.0836 55.425C77.111 55.6693 77.125 55.7984 77.1255 55.8121C77.1867 56.8731 77.2163 57.7642 77.2146 58.4853C77.2146 58.521 77.2288 58.5555 77.254 58.5814L77.6892 59.0166C77.7005 59.0286 77.7138 59.0384 77.7286 59.0458C78.2505 59.3114 78.7353 59.3131 79.183 59.051C79.983 58.5831 80.1192 57.4028 80.1432 56.5821C80.2072 54.364 79.9696 52.1733 79.4306 50.01C79.4266 49.994 79.384 49.962 79.3029 49.9139C78.8135 50.2613 78.4581 50.4827 78.2365 50.5783C77.8756 50.734 77.5133 50.7703 77.1495 50.6873C76.9525 50.6427 76.7564 50.5414 76.5611 50.3834ZM28.7358 51.011C28.569 51.0894 28.4037 51.225 28.2398 51.4178C27.9169 51.7956 27.2693 52.0359 26.7819 52.1003C26.4547 52.1432 26.2389 52.1707 26.1344 52.1827C25.9962 52.1987 25.7606 52.1813 25.4277 52.1303C25.0517 52.0728 24.7202 51.9355 24.4375 51.7166C24.4119 51.6967 24.3822 51.6827 24.3505 51.6756C24.3189 51.6684 24.286 51.6683 24.2544 51.6753C24.2227 51.6822 24.1929 51.6961 24.1671 51.7158C24.1413 51.7356 24.1202 51.7607 24.1052 51.7895C24.0013 51.9898 23.8976 52.2388 23.7942 52.5364C23.3625 53.7837 23.2649 55.073 23.1201 56.5384C23.0764 56.9804 23.1013 57.3624 23.0884 57.7367C23.0793 57.9937 23.1053 58.2915 23.1664 58.6303C23.324 59.5025 23.4456 60.2339 24.0384 60.7919C24.9566 61.6572 26.4479 60.7979 27.17 60.0888C27.5597 59.7051 27.8732 59.3909 28.0813 58.9771C28.1292 58.8824 28.1536 58.7773 28.1524 58.6707C28.1382 57.4483 28.1342 56.607 28.1404 56.1469C28.1433 55.9375 28.1707 55.6702 28.2227 55.3451C28.2427 55.2227 28.2921 54.958 28.3709 54.5511C28.4891 53.941 28.6826 53.3851 28.9516 52.8832C29.0681 52.666 29.29 52.3656 29.4458 52.2402C29.5989 52.1166 29.6917 52.0122 29.7242 51.9269C29.7334 51.924 29.7416 51.9175 29.7491 51.9072C29.7527 51.902 29.7552 51.8961 29.7564 51.8898C29.7576 51.8836 29.7574 51.8772 29.756 51.871C29.7545 51.8647 29.7518 51.8589 29.748 51.8537C29.7441 51.8486 29.7392 51.8443 29.7337 51.8411C29.3216 51.6101 29.1169 51.2865 28.9276 50.871C28.9253 50.8657 28.9215 50.8612 28.9168 50.8578C28.9121 50.8545 28.9066 50.8524 28.9009 50.8519C28.8951 50.8513 28.8893 50.8524 28.8841 50.8548C28.8789 50.8573 28.8744 50.8611 28.8711 50.8659C28.8146 50.9477 28.7695 50.9961 28.7358 51.011ZM70.1583 51.8668C70.1577 51.8983 70.1671 51.912 70.1865 51.908C70.1546 51.9572 70.1628 51.995 70.2114 52.0213C70.5591 52.2136 70.7467 52.3904 70.9651 52.7287C71.2524 53.1745 71.4648 53.7536 71.6024 54.4661C71.7492 55.2215 71.8251 55.7704 71.8303 56.1126C71.8417 56.8766 71.8428 57.7436 71.8337 58.7136C71.8337 58.7467 71.838 58.7793 71.8466 58.8106C71.882 58.9365 71.9462 59.0667 72.0393 59.2012C72.6509 60.0837 73.6136 60.9421 74.6749 61.1232C75.7156 61.3 76.3529 60.5189 76.6159 59.621C76.878 58.7256 76.9123 57.8346 76.8737 56.8165C76.8537 56.2837 76.7969 55.633 76.7033 54.8644C76.6062 54.0649 76.4192 53.2723 76.1422 52.4866C76.0314 52.173 75.9295 51.9403 75.8364 51.7887C75.7473 51.6436 75.6445 51.6316 75.5041 51.7277C74.8334 52.1896 74.0659 52.2162 73.2984 52.1303C72.3962 52.0296 71.681 51.6141 71.1527 50.8839C71.1395 50.8657 71.1219 50.8511 71.1015 50.8416C71.0811 50.8321 71.0587 50.8279 71.0363 50.8294C71.0138 50.831 70.9922 50.8382 70.9733 50.8504C70.9544 50.8627 70.9389 50.8795 70.9283 50.8994C70.745 51.241 70.4952 51.5246 70.1788 51.7501C70.1457 51.7741 70.1389 51.813 70.1583 51.8668ZM34.306 52.7295C34.3026 53.0883 34.3265 53.4669 34.3077 53.8309C34.2729 54.4942 34.2672 55.0813 34.2906 55.5924C34.3123 56.0674 34.3214 56.3824 34.318 56.5375C34.3094 56.9307 34.3994 57.5144 34.4447 57.802C34.6794 59.2825 35.164 60.6599 35.8983 61.9344C36.0842 62.2572 36.39 62.6358 36.6161 62.8255C37.4322 63.5099 38.2736 63.5554 39.1404 62.962C39.5716 62.6667 39.9099 62.3347 40.1555 61.9662C40.4256 61.5604 40.6871 61.064 40.9401 60.4768C41.4215 59.3609 41.7812 58.4174 41.9123 57.3556C41.9465 57.0783 42.0022 56.5942 42.0185 56.2053C42.0522 55.4121 42.0567 54.7208 42.0322 54.1313C42.0311 54.1028 42.0193 54.0758 41.9991 54.0557C41.9789 54.0357 41.9518 54.024 41.9234 54.0232C41.4934 54.012 41.1525 54.0481 40.8287 53.9751C40.7876 53.9654 40.5372 53.9359 40.0775 53.8867C38.9811 53.7674 37.3142 53.3613 36.862 52.1939C36.8546 52.1747 36.8433 52.1572 36.8288 52.1427C36.8143 52.1281 36.797 52.1166 36.7779 52.109C36.7587 52.1015 36.7382 52.0979 36.7176 52.0986C36.697 52.0993 36.6767 52.1043 36.6581 52.1132C36.1716 52.3478 35.689 52.504 35.2105 52.5819C34.9047 52.6317 34.6229 52.6042 34.3454 52.678C34.334 52.6812 34.324 52.688 34.3169 52.6973C34.3098 52.7066 34.306 52.7179 34.306 52.7295ZM34.0045 52.86C34.0033 52.8294 33.9911 52.8003 33.97 52.778C33.9488 52.7557 33.9203 52.7419 33.8897 52.739C33.3466 52.6852 32.9206 52.6259 32.6117 52.5613C32.445 52.5258 31.8896 52.4291 30.9457 52.2711C30.9041 52.2643 30.8628 52.2539 30.8223 52.2402C30.6042 52.167 30.4543 52.1375 30.3726 52.1518C30.1728 52.1873 29.9741 52.2849 29.7765 52.4445C29.1341 52.9647 28.9567 53.5476 28.764 54.4086C28.6264 55.0192 28.541 55.6073 28.5079 56.1727C28.4582 57.0025 28.4314 57.5459 28.4274 57.8028C28.4143 58.6441 28.4899 59.4384 28.6544 60.1858C28.8617 61.1284 29.1863 61.9902 30.1328 62.3945C30.8866 62.7164 31.744 62.5757 32.407 62.0915C33.2678 61.4623 33.7835 60.4871 34.1655 59.4132C34.2203 59.2587 34.3231 59.0201 34.3051 58.8759C34.2457 58.3986 34.1829 57.9273 34.1167 57.462C34.0267 56.8302 33.9873 56.0001 34.0036 55.3228C34.0282 54.283 34.0285 53.462 34.0045 52.86ZM66.0862 52.8901C66.081 53.0961 66.0822 54 66.0896 55.6018C66.0919 56.134 66.061 56.6688 65.9971 57.2062C65.9314 57.7596 65.862 58.2844 65.7889 58.7806C65.7765 58.8671 65.7832 58.9553 65.8086 59.039C66.089 59.9683 66.4451 60.7392 66.8768 61.3516C67.2223 61.8409 67.6851 62.1819 68.2653 62.3748C68.701 62.5196 69.1364 62.5184 69.5715 62.3714C70.4118 62.0872 70.8461 61.4262 71.0885 60.5704C71.1998 60.1778 71.2729 59.841 71.3078 59.56C71.4888 58.1121 71.4782 56.6382 71.2761 55.1383C71.1853 54.4678 71.0028 53.5991 70.6739 53.0986C70.4112 52.7003 70.0489 52.4113 69.5869 52.2316C69.5285 52.209 69.4634 52.209 69.4045 52.2316C69.2532 52.29 69.0976 52.3346 68.9377 52.3655C67.8727 52.5687 66.9393 52.7244 66.1376 52.8325C66.1236 52.8345 66.1108 52.8414 66.1014 52.8519C66.092 52.8624 66.0866 52.8759 66.0862 52.8901ZM63.2295 52.3424C63.1821 52.3252 63.1387 52.3593 63.0993 52.4445C63.0845 52.4377 63.0691 52.4345 63.0531 52.4351C63.0394 52.4357 63.0274 52.4431 63.0171 52.4574C62.6779 52.9404 62.2225 53.2829 61.6509 53.4849C60.5539 53.8718 59.4141 54.0418 58.2315 53.9948C58.1578 53.992 58.0739 54.022 57.9797 54.085C57.9684 54.0924 57.9592 54.1025 57.9529 54.1143C57.9466 54.1262 57.9434 54.1394 57.9437 54.1528C57.9528 55.3843 57.9577 56.0161 57.9582 56.0482C57.9628 56.288 57.9728 56.4594 57.9882 56.5624C58.0508 56.977 58.0508 57.3109 58.1296 57.7608C58.1987 58.1522 58.2418 58.3788 58.2589 58.4406C58.509 59.3294 58.8422 60.191 59.2585 61.0253C59.5338 61.5765 59.8019 62.0028 60.0628 62.3044C60.2838 62.5591 60.5648 62.7966 60.9057 63.0169C61.3265 63.2899 61.7622 63.4035 62.2128 63.3577C62.8595 63.2933 63.4771 62.7714 63.8557 62.2409C64.0801 61.9267 64.3025 61.5275 64.5229 61.0434C64.9895 60.019 65.323 58.9331 65.5234 57.7856C65.6273 57.1933 65.6779 56.4869 65.675 55.6662C65.6699 54.2738 65.7076 53.3381 65.6271 52.7227C65.6243 52.7009 65.6134 52.6809 65.5965 52.6666C65.5795 52.6523 65.5577 52.6447 65.5354 52.6454C65.359 52.6523 65.1508 52.6348 64.911 52.593C64.3616 52.4975 63.8011 52.4139 63.2295 52.3424ZM43.6571 54.1528L42.7585 54.1253C42.5758 53.9731 42.451 53.9851 42.3842 54.1614C42.3763 54.1812 42.3722 54.2025 42.3722 54.224C42.366 54.6475 42.3654 55.1251 42.3705 55.6568C42.3728 55.8782 42.3934 56.0874 42.4322 56.2843C42.443 56.339 42.4479 56.3949 42.4468 56.4508C42.4445 56.5315 42.445 56.5887 42.4485 56.6225C42.5661 57.739 42.7534 58.8326 43.0104 59.9034C43.2125 60.7452 43.4775 61.5035 43.8053 62.1782C44.147 62.8795 44.8588 63.5028 45.6589 63.5903C47.3523 63.7766 48.4538 62.5791 48.9541 61.1069C49.2393 60.2665 49.5434 59.281 49.6573 58.3247C49.7532 57.5167 49.8012 57.074 49.8012 56.9968C49.8035 55.4802 49.8141 54.2292 49.8329 53.2437C49.8329 53.232 49.8291 53.2206 49.8221 53.2114C49.8152 53.2022 49.8054 53.1958 49.7944 53.1931C49.7315 53.177 49.6707 53.1725 49.6119 53.1793C49.5815 53.1827 49.5527 53.1933 49.528 53.2102C49.0363 53.5373 48.4042 53.7124 47.8388 53.8034C46.9497 53.9465 46.0503 54.0197 45.1406 54.0232C44.9179 54.0237 44.4234 54.0669 43.6571 54.1528ZM57.5248 54.2C57.5311 54.1565 57.5183 54.1356 57.4863 54.1373C55.9142 54.226 54.3875 54.176 52.9062 53.9871C52.2513 53.9036 51.7959 53.8257 51.54 53.7536C51.0786 53.6237 50.6575 53.4363 50.2766 53.1914C50.2538 53.1765 50.2478 53.1753 50.2586 53.1879C50.2301 53.1708 50.2129 53.165 50.2072 53.1708C50.1827 53.1925 50.1704 53.22 50.1704 53.2532C50.1715 54.273 50.1695 54.9591 50.1644 55.3117C50.153 56.0156 50.167 56.589 50.2064 57.032C50.2795 57.8595 50.3443 58.43 50.4008 58.7437C50.5361 59.4916 50.7451 60.2745 51.0278 61.0923C51.1214 61.3636 51.2399 61.6325 51.3833 61.8992C51.8293 62.733 52.4688 63.2776 53.302 63.5328C53.4733 63.5855 53.6726 63.6118 53.8999 63.6118C54.2373 63.6118 54.4395 63.6006 54.5063 63.5783C55.2864 63.3196 55.8365 62.8692 56.1569 62.2271C56.6103 61.3184 56.9606 60.2159 57.2079 58.9196C57.3832 58.0023 57.5063 57.1607 57.5771 56.395C57.6447 55.6645 57.6131 55.0318 57.619 54.2301C57.6191 54.2233 57.6175 54.2166 57.6145 54.2106C57.6115 54.2045 57.6071 54.1993 57.6017 54.1953C57.5962 54.1912 57.5899 54.1886 57.5833 54.1875C57.5766 54.1863 57.5698 54.1868 57.5634 54.1888L57.5248 54.2ZM45.3359 68.6439L52.6613 68.6224C52.6042 68.706 52.6299 68.7449 52.7384 68.7392C52.7926 68.7363 52.8283 68.7352 52.8454 68.7357C53.6814 68.7366 54.3847 68.7778 55.2292 68.7623C55.6804 68.7537 56.4147 68.7535 57.4323 68.7615C58.2418 68.7675 59.4076 68.7194 60.4183 68.7383C60.8711 68.7469 61.2449 68.7383 61.5395 68.7126C61.8882 68.6825 62.2333 68.7126 62.528 68.6859C62.7296 68.6682 62.9768 68.6588 63.2698 68.6576C63.7044 68.6565 64.1304 68.6436 64.5478 68.619C65.2296 68.5795 65.6536 68.5958 66.3457 68.546C67.8453 68.439 68.6236 68.3829 68.6807 68.3778C69.3591 68.3177 70.0084 68.2467 70.6285 68.1649C71.1944 68.0905 72.1215 67.9251 73.4098 67.6687C74.4348 67.465 75.4535 67.1711 76.466 66.7871C77.3968 66.4346 78.1774 65.9779 78.8078 65.4171C79.5325 64.7721 80.0553 63.9466 80.3762 62.9405C80.5532 62.3848 80.668 61.9502 80.7205 61.6365C80.7388 61.5261 80.7628 61.2849 80.7925 60.9129C80.855 60.1369 80.7711 59.4021 80.6255 58.6209C80.5878 58.4177 80.519 58.2718 80.419 58.1831C80.4088 58.139 80.3936 58.107 80.3736 58.087C80.3693 58.0827 80.3639 58.0797 80.358 58.0781C80.3521 58.0765 80.346 58.0765 80.3401 58.0779C80.3342 58.0794 80.3287 58.0823 80.3243 58.0864C80.3198 58.0906 80.3165 58.0958 80.3145 58.1015C80.1809 58.5136 79.9485 58.8696 79.6173 59.1694C79.2918 59.4636 78.8866 59.6118 78.4018 59.6141C77.9107 59.6164 77.5301 59.4659 77.26 59.1626C77.2565 59.1585 77.2519 59.1554 77.2467 59.1538C77.2416 59.1521 77.236 59.152 77.2308 59.1533C77.2255 59.1547 77.2208 59.1574 77.217 59.1613C77.2132 59.1653 77.2106 59.1701 77.2095 59.1754C77.1632 59.4015 77.1204 59.5958 77.081 59.7583C76.8566 60.6791 76.3172 61.248 75.463 61.4649C75.1417 61.5464 74.5362 61.5378 74.28 61.4726C73.2882 61.2202 72.4453 60.5292 71.8765 59.6639C71.8739 59.6599 71.8702 59.6568 71.8658 59.6551C71.8613 59.6534 71.8564 59.6531 71.8518 59.6543C71.8471 59.6555 71.8429 59.6582 71.8396 59.6619C71.8364 59.6656 71.8343 59.6702 71.8337 59.675C71.7643 60.4296 71.6478 61.1636 71.2632 61.8108C70.7185 62.7267 69.5484 63.083 68.5359 62.9551C67.6554 62.8435 66.9553 62.3968 66.4356 61.6151C66.1107 61.1252 65.7838 60.5755 65.4549 59.9661C65.453 59.9623 65.45 59.9591 65.4464 59.957C65.4427 59.9549 65.4385 59.9539 65.4343 59.9542C65.4301 59.9545 65.4261 59.956 65.4227 59.9586C65.4194 59.9611 65.4169 59.9646 65.4155 59.9686C65.0908 60.8356 64.7225 61.7387 64.1812 62.5207C63.7734 63.1096 63.0839 63.7534 62.3636 63.7963C61.919 63.8238 61.5293 63.8152 61.1113 63.6556C60.3912 63.3814 59.7762 62.8864 59.2662 62.1705C58.8128 61.5335 58.4982 60.9158 58.3223 60.3171C58.1287 59.6596 57.9711 59.1248 57.8375 58.5685C57.8359 58.5622 57.8323 58.5566 57.8272 58.5526C57.822 58.5486 57.8157 58.5464 57.8092 58.5464C57.8027 58.5464 57.7964 58.5486 57.7913 58.5526C57.7861 58.5566 57.7825 58.5622 57.7809 58.5685C57.7096 58.8827 57.6288 59.1777 57.5385 59.4536C57.3167 60.1317 57.2182 60.6562 57.0143 61.3696C56.6537 62.6306 55.6806 63.8976 54.3153 64.0324C53.7728 64.0862 53.2317 63.9932 52.6921 63.7534C50.9893 62.9963 50.4582 61.0408 50.0453 59.3866C50.0432 59.3765 50.0377 59.3674 50.0296 59.361C50.0216 59.3545 50.0116 59.351 50.0013 59.3511C49.991 59.3512 49.981 59.3549 49.9731 59.3615C49.9652 59.3681 49.9599 59.3773 49.958 59.3875C49.7649 60.2339 49.492 61.0594 49.1391 61.864C48.6688 62.9371 47.784 63.7946 46.6208 63.9972C45.4616 64.1998 44.5214 63.8567 43.8001 62.968C43.3764 62.446 43.09 61.8821 42.941 61.276C42.7109 60.338 42.463 59.4341 42.1975 58.5642C42.1949 58.5564 42.1898 58.5495 42.183 58.5448C42.1762 58.54 42.1681 58.5375 42.1599 58.5378C42.1517 58.5381 42.1439 58.5411 42.1377 58.5464C42.1315 58.5516 42.1272 58.5588 42.1255 58.5668C41.7958 60.0476 41.3238 61.4511 40.3045 62.6031C39.8017 63.1706 39.0633 63.7328 38.3181 63.7912C37.8145 63.8298 37.3562 63.8393 36.9099 63.5929C36.3909 63.3062 35.9714 62.8964 35.6516 62.3636C35.2336 61.6666 34.8636 60.904 34.5415 60.0759C34.538 60.0672 34.532 60.0597 34.5243 60.0543C34.5165 60.049 34.5074 60.046 34.498 60.0459C34.4886 60.0457 34.4793 60.0483 34.4714 60.0533C34.4635 60.0583 34.4572 60.0656 34.4533 60.0742C34.2452 60.5549 33.9694 60.9129 33.631 61.4065C32.9877 62.3465 32.0549 63.0478 30.8857 62.9791C29.4113 62.8927 28.5362 62.1459 28.2604 60.7386C28.1873 60.3644 28.139 60.0447 28.1156 59.7798C28.1153 59.7739 28.1131 59.7683 28.1094 59.7638C28.1056 59.7593 28.1006 59.7561 28.0949 59.7546C28.0891 59.7531 28.083 59.7534 28.0774 59.7554C28.0718 59.7575 28.0669 59.7612 28.0634 59.766C27.7967 60.138 27.4857 60.4757 27.1306 60.779C26.3151 61.4752 25.1425 61.8151 24.1574 61.3661C23.6812 61.1492 23.3454 60.8345 23.1501 60.4219C23.0005 60.106 22.8709 59.6831 22.7612 59.1531C22.6933 59.1262 22.6213 59.152 22.5454 59.2304C22.4049 59.3746 22.201 59.4627 21.9338 59.4948C21.5329 59.542 21.1055 59.542 20.7397 59.3145C20.2829 59.0307 19.9683 58.6306 19.7958 58.1144C19.791 58.1 19.781 58.088 19.7677 58.081C19.7544 58.0739 19.739 58.0724 19.7247 58.0767C19.7167 58.0789 19.7079 58.0824 19.6982 58.087C19.697 58.0503 19.6548 58.0066 19.5714 57.9556C19.4012 58.4896 19.3013 59.0226 19.2716 59.5549C19.2333 60.2571 19.2233 60.9175 19.2416 61.5361C19.2519 61.8663 19.3441 62.3662 19.5183 63.0358C19.6342 63.4816 19.8064 63.8713 20.0348 64.205C20.3329 64.641 20.6078 64.9687 20.8597 65.1879C22.4263 66.5493 24.3767 67.2438 26.441 67.6026C27.7036 67.8218 28.8779 67.9858 29.9641 68.0945C31.2946 68.2273 33.2119 68.3821 35.7159 68.5589C35.7901 68.564 35.8424 68.5669 35.8726 68.5675C36.2792 68.5743 36.6989 68.5969 37.1318 68.6353C37.4847 68.6668 37.8156 68.6808 38.1245 68.6774C38.3078 68.6756 38.6408 68.6897 39.1233 68.7194C39.2164 68.7251 39.2709 68.728 39.2869 68.728C40.6243 68.7635 42.5989 68.7709 45.2109 68.7503C45.2257 68.7498 45.3048 68.7455 45.4482 68.7374C45.455 68.7368 45.4614 68.7338 45.4663 68.729C45.4712 68.7242 45.4744 68.7179 45.4752 68.711C45.476 68.7042 45.4744 68.6973 45.4707 68.6915C45.4671 68.6857 45.4615 68.6813 45.455 68.6791L45.3359 68.6439Z" fill="#787B83" stroke="#787B83" stroke-width="0.8" stroke-linejoin="round"/>
<path d="M80.7741 40.9509C81.0036 39.8996 81.1047 38.8386 81.0773 37.7678C81.0687 37.4296 81.0105 37.0553 80.9685 36.7291C80.7826 35.2921 80.1582 33.8423 78.8819 33.0705C77.5243 32.2482 75.9653 31.8825 74.4192 31.6799C73.2121 31.5214 72.0146 31.4286 70.8268 31.4017C70.7352 31.4 70.6349 31.3691 70.5587 31.3751C70.4965 31.3791 69.9914 31.3694 69.0434 31.3459C67.6701 31.3116 66.0072 31.3494 64.0548 31.4593C62.533 31.5445 61.0717 31.6882 59.6709 31.8902C58.7516 32.023 57.6532 32.1941 56.3757 32.4035C55.0321 32.6239 53.9303 32.7718 53.0703 32.8473C51.2429 33.007 49.4487 33.0256 47.6876 32.9031C46.8319 32.8439 45.8289 32.728 45.0717 32.5941C42.438 32.1277 40.4705 31.8295 39.1691 31.6996C37.8591 31.5697 36.8247 31.4867 36.0658 31.4507C35.6775 31.4324 35.1727 31.4112 34.5514 31.3872C33.7965 31.358 33.2919 31.3434 33.0378 31.3434C32.356 31.3439 31.719 31.3414 31.1268 31.3356C30.4956 31.3296 29.8309 31.3786 29.215 31.3923C28.2685 31.4129 27.6381 31.4721 26.5588 31.5606C25.2271 31.6699 23.9728 31.9068 22.7959 32.2713C22.3979 32.3944 21.965 32.5755 21.4974 32.8147C19.875 33.6457 19.1427 35.0226 18.9842 36.7935C18.9237 37.4694 18.9054 38.1192 18.9294 38.743C18.9482 39.2409 19.029 40.0089 19.1718 41.047C19.1524 41.1008 19.125 41.1 19.0896 41.0444C19.0817 41.032 19.0764 41.018 19.0741 41.0032C18.9691 40.2684 18.9105 39.8089 18.8986 39.6246C18.8769 39.2852 18.8611 39.0849 18.8514 39.0237C18.8235 38.848 18.8078 38.648 18.8043 38.4237C18.7935 37.5738 18.8623 36.7589 19.0108 35.9789C19.1632 35.1805 19.495 34.4729 20.0061 33.856C20.1329 33.7032 20.2705 33.5681 20.419 33.4508C20.6108 33.2997 20.7967 33.1117 21.0237 32.977C22.395 32.1597 24.0225 31.77 25.5892 31.5717C26.7255 31.4286 27.7771 31.3431 28.7439 31.315C29.0448 31.3059 29.2698 31.2976 29.4189 31.2902C30.6377 31.2266 31.8369 31.2584 32.5899 31.255C33.2688 31.2515 33.859 31.261 34.3604 31.2833C34.9588 31.3096 35.5484 31.3351 36.1292 31.3597C36.9892 31.3957 38.1035 31.4856 39.4723 31.6292C40.7052 31.758 42.679 32.065 45.3938 32.5503C45.6005 32.5869 45.8369 32.619 46.103 32.6465C46.6572 32.704 47.2165 32.7993 47.7741 32.8139C48.1733 32.8242 48.6333 32.8791 49.0581 32.88C49.6383 32.8817 50.3433 32.8808 51.173 32.8774C51.4065 32.8762 51.6187 32.8594 51.8094 32.8267C52.0595 32.783 52.3448 32.8164 52.6591 32.7872C53.5665 32.7025 54.1027 32.6482 54.2677 32.6241C55.4612 32.4536 56.6556 32.267 57.8507 32.0645C58.2128 32.0032 59.0048 31.8862 60.2268 31.7134C60.7316 31.6418 61.7364 31.5394 63.2411 31.406C63.7836 31.3574 64.233 31.3362 64.5893 31.3425C64.9148 31.3482 65.1435 31.3451 65.2754 31.3331C65.5941 31.3047 65.8211 31.2756 66.1894 31.2721C67.4645 31.2613 68.7511 31.2641 70.0491 31.2807C70.366 31.2847 70.6806 31.2947 70.993 31.3108C71.4949 31.3365 71.8084 31.3517 71.9335 31.3563C73.4856 31.4152 74.9757 31.6152 76.4039 31.9563C77.0463 32.1097 77.6802 32.3314 78.3055 32.6216C78.6458 32.7795 79.017 33.0079 79.419 33.3066C79.8439 33.6234 80.2807 34.2603 80.5188 34.8148C80.8643 35.6218 81.069 36.4396 81.133 37.2682C81.1935 38.0523 81.1664 38.9539 81.0516 39.9731C81.0156 40.3002 80.906 40.5826 80.8829 40.92C80.8823 40.928 80.8797 40.9358 80.8752 40.9426C80.8707 40.9494 80.8645 40.9549 80.8572 40.9586C80.8298 40.9718 80.8021 40.9692 80.7741 40.9509Z" fill="#787B83"/>
<path d="M49.9806 45.6114C49.9657 45.6303 49.9437 45.6334 49.9146 45.6208C49.9053 45.6168 49.8971 45.6107 49.8907 45.6029C49.8843 45.5952 49.8799 45.586 49.8778 45.5762C49.6048 44.3538 49.2022 43.1683 48.67 42.0197C47.9205 40.4042 46.5363 38.7697 44.8215 38.2916C44.1499 38.1045 43.6711 38.0112 43.385 38.0118C42.6941 38.0123 42.2675 38.0206 42.1053 38.0366C41.9057 38.0564 41.486 38.15 41.2351 38.2049C40.6143 38.3417 40.0636 38.586 39.5827 38.938C38.9069 39.4316 38.4392 40.1784 38.0015 40.9407C37.5219 41.7768 37.2854 42.7125 37.0507 43.7229C37.0439 43.7518 37.028 43.7778 37.0052 43.7969C36.9825 43.8161 36.9542 43.8273 36.9246 43.8291C36.8949 43.8308 36.8655 43.8229 36.8407 43.8066C36.8159 43.7902 36.7971 43.7663 36.7869 43.7383C36.3701 42.5823 35.7219 41.5413 34.8425 40.6154C34.1847 39.9217 33.233 39.3912 32.2814 39.3706C31.1824 39.3475 30.2805 39.7586 29.7186 40.7355C29.4142 41.2649 29.2223 41.8363 29.143 42.4498C29.1384 42.4819 29.1173 42.4987 29.0796 42.5005C29.0573 42.5016 29.0433 42.487 29.0376 42.4567C29.2278 41.2523 29.7588 39.9475 30.9777 39.4797C32.5795 38.8642 34.1222 39.6161 35.1886 40.8291C35.4433 41.1193 35.7222 41.4987 36.0254 41.9674C36.3938 42.5368 36.681 43.1297 36.8871 43.746C36.889 43.7525 36.893 43.7582 36.8984 43.7621C36.9039 43.7661 36.9105 43.7681 36.9173 43.7678C36.924 43.7675 36.9304 43.7649 36.9355 43.7605C36.9406 43.7561 36.9441 43.7501 36.9454 43.7435C37.079 43.152 37.276 42.3168 37.5004 41.7562C37.8276 40.9398 38.4358 39.9003 39.0457 39.2788C39.8123 38.4959 40.8256 38.1139 41.9083 37.9671C42.5113 37.8847 43.224 37.865 43.8262 37.956C46.6365 38.3783 48.2332 40.4428 49.1797 42.9829C49.5451 43.9638 49.8121 44.84 49.9806 45.6114Z" fill="#787B83"/>
<path d="M70.9002 42.3124C70.8557 42.3748 70.8283 42.3656 70.818 42.2849C70.6775 41.1647 70.2056 40.1088 69.1494 39.6367C67.6539 38.9671 66.0178 39.6109 64.9745 40.7655C64.5463 41.2402 64.1343 41.7613 63.8165 42.3862C63.5372 42.9339 63.3348 43.3625 63.2092 43.6721C63.1589 43.7952 63.0827 43.8475 62.9805 43.8292C62.969 43.8272 62.9585 43.8217 62.9501 43.8134C62.9417 43.8052 62.9359 43.7945 62.9334 43.7829C62.7187 42.7968 62.5236 42.0978 62.3483 41.6857C62.2056 41.3521 61.9352 40.8573 61.5372 40.2015C60.8845 39.1268 59.9434 38.4529 58.7139 38.1799C58.3884 38.1078 58.1703 38.066 58.0595 38.0546C57.8094 38.0294 57.4656 38.016 57.0282 38.0142C55.9995 38.01 55.0102 38.2383 54.1339 38.7327C53.6011 39.0332 53.0977 39.4561 52.6238 40.0015C51.9048 40.8279 51.3515 41.787 50.9638 42.8789C50.5646 44.0009 50.3359 44.6233 50.1423 45.5993C50.1337 45.6422 50.1032 45.6522 50.0507 45.6293C50.1112 45.2179 50.2057 44.8127 50.3342 44.4138C50.554 43.7322 50.7548 43.1471 50.9363 42.6583C51.3184 41.6311 51.8666 40.7077 52.5809 39.8882C53.6679 38.6409 55.1318 37.961 56.7721 37.9035C58.4758 37.8443 60.2797 38.2692 61.3316 39.7388C61.6759 40.2201 62.0034 40.7635 62.3141 41.369C62.3992 41.5361 62.476 41.7241 62.5445 41.933C62.7438 42.5464 62.9025 43.1594 63.0207 43.7717C63.0217 43.7769 63.0244 43.7817 63.0283 43.7852C63.0323 43.7888 63.0373 43.7909 63.0425 43.7913C63.0478 43.7917 63.0531 43.7903 63.0575 43.7874C63.0619 43.7845 63.0653 43.7802 63.067 43.7751C63.5878 42.424 64.2679 41.2239 65.3557 40.2599C66.5138 39.2332 68.2937 38.8512 69.6437 39.8092C70.4214 40.362 70.8403 41.3664 70.9002 42.3124Z" fill="#787B83"/>
<path d="M42.6782 38.4565C41.7146 38.4702 40.5959 38.7114 39.8439 39.3364C39.168 39.8986 38.4005 40.8549 38.0836 41.7571C37.6234 43.0682 37.3198 44.351 37.1731 45.6054C37.0949 46.2767 37.0332 47.0135 36.9881 47.8159C36.9213 49.0108 36.9358 50.3319 37.1525 51.6239C37.2285 52.0737 37.3949 52.4085 37.6519 52.6282C37.9705 52.8995 38.3886 53.1029 38.9059 53.2386C39.7088 53.4497 40.6039 53.5668 41.5912 53.5897C42.0007 53.5994 42.5503 53.6114 43.2401 53.6257C44.1172 53.6435 45.2936 53.5985 46.7692 53.4909C47.2997 53.452 47.7459 53.3965 48.108 53.3244C48.7718 53.1931 49.6661 52.8969 49.7063 52.1166C49.768 50.932 49.7794 49.7101 49.7406 48.4511C49.6806 46.4973 49.3834 44.7565 48.6339 43.0233C48.1063 41.8018 47.499 40.715 46.6304 39.8755C45.7618 39.0353 44.6946 38.5552 43.4286 38.435C44.1812 38.3921 44.9501 38.5998 45.7353 39.0582C46.3435 39.4136 46.8443 39.8474 47.2377 40.3596C48.5225 42.0327 49.3526 44.1882 49.6395 46.2372C49.6749 46.489 49.7226 46.839 49.7826 47.2871C49.8339 47.67 49.8048 48.1112 49.8348 48.5026C49.8394 48.5644 49.8434 48.6245 49.8468 48.6829C49.9056 49.6649 49.9173 50.3585 49.8819 50.7637C49.8294 51.3709 49.8048 51.7034 49.8082 51.7612C49.8408 52.3372 49.7106 52.7158 49.2635 52.9827C48.8615 53.2225 48.4101 53.3785 47.9092 53.4506C47.1086 53.5668 46.2618 53.6432 45.3687 53.6798C45.2459 53.6849 45.136 53.7004 45.0389 53.7261C45.0173 53.7324 44.9948 53.7356 44.9721 53.7356C43.6958 53.7382 42.9472 53.7124 42.2182 53.727C41.8414 53.7339 41.4696 53.6506 41.1056 53.6523C40.9023 53.6535 40.7321 53.6463 40.5951 53.6309C39.6657 53.5253 38.7663 53.3948 37.962 52.963C37.4532 52.69 37.1834 52.2642 37.0712 51.6822C36.8604 50.5929 36.8639 49.6881 36.8759 48.5112C36.8856 47.5921 36.9598 46.5523 37.0986 45.3917C37.2433 44.1787 37.5628 43.0207 37.956 41.8404C38.1701 41.1974 38.5102 40.7116 38.9402 40.1476C39.1834 39.8282 39.4179 39.5727 39.6434 39.381C40.3384 38.791 41.2092 38.4602 42.2559 38.3887C42.4564 38.3749 42.5971 38.3975 42.6782 38.4565Z" fill="#787B83"/>
<path d="M58.0539 38.3989C58.7671 38.495 59.3924 38.7099 59.9297 39.0435C60.1998 39.2118 60.4993 39.4751 60.8283 39.8333C61.0475 40.0731 61.389 40.5707 61.8527 41.3261C61.8944 41.3936 61.9469 41.5258 62.0103 41.7227C62.2747 42.5433 62.4986 43.3769 62.6819 44.2233C62.8515 45.0087 62.9465 45.8955 63.0031 46.5994C63.0271 46.8993 63.0408 47.0644 63.0442 47.0947C63.1393 47.8879 63.1059 48.7618 63.1033 49.7842C63.1024 50.313 63.0485 50.652 62.9988 51.1903C62.9777 51.4146 62.9168 51.6761 62.8163 51.9749C62.5234 52.8436 61.6437 53.2316 60.7974 53.4222C60.2412 53.5475 59.7302 53.6233 59.2642 53.6497C58.8382 53.6737 58.5786 53.6914 58.4856 53.7029C58.1835 53.7401 57.9228 53.7507 57.7035 53.7346C57.0251 53.6849 56.1574 53.787 55.5321 53.7243C55.1433 53.686 54.8098 53.6637 54.5317 53.6574C54.1011 53.6477 53.7679 53.6313 53.5321 53.6085C52.8091 53.5375 52.3015 53.4705 52.0091 53.4076C51.4403 53.2848 50.2806 52.938 50.2583 52.2444C50.2531 52.0928 50.226 51.8927 50.1769 51.6444C50.1672 51.5941 50.1621 51.5433 50.1615 51.4924C50.1569 50.9562 50.1552 50.1129 50.1563 48.9627C50.1563 48.2991 50.2215 47.7231 50.2557 47.0733C50.266 46.8818 50.3191 46.6458 50.3602 46.3505C50.6292 44.425 51.2827 42.5717 52.3354 40.9389C52.4931 40.6943 52.7286 40.4454 52.9008 40.1998C53.0087 40.0473 53.1383 39.9114 53.2854 39.7964C53.4695 39.653 53.7411 39.3946 53.9758 39.2367C54.5188 38.871 55.121 38.6126 55.7823 38.4615C56.0838 38.3929 56.4041 38.3683 56.7433 38.3877C57.1519 38.4109 57.6341 38.3431 58.0539 38.3989ZM50.2883 51.7534C50.314 51.8415 50.3265 51.948 50.3259 52.0727C50.32 52.7517 51.0549 53.0659 51.6331 53.211C52.0328 53.3112 52.3403 53.3747 52.5556 53.4016C53.1226 53.4728 53.9424 53.5655 54.6387 53.581C55.2889 53.5947 56.0983 53.6634 56.7733 53.6239C56.8669 53.6182 57.4026 53.6107 58.3802 53.6016C59.2722 53.5936 60.1747 53.4728 61.0878 53.2393C61.4076 53.1575 61.6948 53.0385 61.9495 52.8822C62.6022 52.4831 62.7992 51.9096 62.89 51.1791C63.0176 50.1533 63.0031 49.118 62.9971 48.0665C62.9954 47.766 62.9774 47.4186 62.9431 47.0243C62.8603 46.064 62.7978 45.4568 62.7555 45.2028C62.5334 43.8544 62.2602 42.7382 61.9358 41.854C61.6554 41.0895 61.1646 40.3521 60.4634 39.6419C59.4518 38.6169 58.2509 38.4555 56.8744 38.4521C56.3724 38.4509 55.9322 38.5045 55.5536 38.6126C53.5775 39.1783 52.3971 40.6986 51.5791 42.491C50.9195 43.9354 50.5158 45.4557 50.3679 47.0518C50.2232 48.6055 50.2549 50.046 50.2763 51.6761C50.2763 51.7023 50.2803 51.7284 50.2883 51.7534Z" fill="#787B83"/>
<path d="M80.7072 40.9098C80.6969 40.9241 80.6783 40.9298 80.6515 40.9269C80.6369 40.9255 80.6233 40.9192 80.6129 40.909C80.6024 40.8989 80.5958 40.8855 80.5941 40.8711C80.5364 40.3463 80.3957 39.8848 80.1718 39.4865C79.944 39.0813 79.6105 38.8484 79.1714 38.7877C78.8202 38.7391 78.4219 38.8521 77.9765 39.1268C77.5847 39.3683 77.2524 39.6673 76.9794 40.0239C76.8703 40.1669 76.7696 40.3524 76.677 40.5801C76.6502 40.6465 76.6108 40.658 76.5588 40.6145C76.8192 39.9063 77.4017 39.3388 78.045 38.9749C79.723 38.0263 80.5299 39.4916 80.7072 40.9098Z" fill="#787B83"/>
<path d="M26.2298 39.4392C26.0037 39.299 25.8181 39.212 25.6731 39.1782C24.2709 38.8512 23.9085 41.5046 23.8203 42.351C23.7084 43.4303 23.635 44.5113 23.6002 45.5941C23.5865 45.6101 23.5765 45.6184 23.5702 45.619C23.5634 45.62 23.5564 45.6195 23.5497 45.6175C23.5431 45.6156 23.537 45.6122 23.5318 45.6076C23.5266 45.603 23.5224 45.5974 23.5196 45.5911C23.5167 45.5847 23.5153 45.5779 23.5154 45.5709C23.5331 44.3651 23.621 43.1559 23.7792 41.9432C23.9034 40.9947 24.3745 38.5233 25.9266 39.1619C26.1276 39.2443 26.2287 39.3368 26.2298 39.4392Z" fill="#787B83"/>
<path d="M75.0915 39.2943C75.3502 39.3776 75.6826 40.0119 75.7888 40.2892C75.9812 40.7911 76.1077 41.2787 76.1682 41.752C76.295 42.7349 76.3764 43.2516 76.3772 44.0234C76.3778 44.1481 76.3975 44.274 76.4363 44.4011C76.4443 44.4273 76.4483 44.4545 76.4483 44.4818C76.4518 45.9588 76.46 46.8367 76.4732 47.1154C76.4909 47.5097 76.4792 47.8889 76.438 48.2528C76.3293 49.204 76.2162 49.9843 75.8453 50.7148C75.5438 51.3097 74.9314 51.7947 74.2495 51.8556C73.9092 51.886 73.5517 51.8637 73.1771 51.7887C72.4056 51.6336 71.7846 51.2356 71.3141 50.5946C71.1856 50.4204 71.1394 50.2753 71.1496 50.0366C71.1693 49.5619 71.2242 49.1662 71.225 48.6881C71.2279 47.591 71.2284 46.6459 71.2267 45.8527C71.2261 45.5248 71.2136 45.2243 71.189 44.9513C71.1325 44.3315 71.1325 44.0594 71.0743 43.6997C71.0291 43.4239 71.0725 43.1392 71.2045 42.8456C71.6356 41.8853 72.1133 41.0392 72.6375 40.3072C72.9647 39.8506 73.3484 39.4992 73.7887 39.2531C74.137 39.0585 74.4942 39.0225 74.8603 39.1449C74.9596 39.1781 75.0204 39.2148 75.0427 39.2548C75.0537 39.2736 75.0711 39.2877 75.0915 39.2943ZM71.2721 50.3431C71.87 51.3543 72.9219 51.8204 74.0628 51.775C75.1147 51.732 75.7588 50.9706 76.0209 50.0066C76.2213 49.2712 76.3324 48.5075 76.3541 47.7155C76.3804 46.738 76.363 45.5946 76.3019 44.2852C76.2516 43.2259 76.1642 42.3177 76.0397 41.5605C75.8976 40.6944 75.5027 39.0986 74.366 39.1621C73.769 39.1947 73.1 39.8291 72.7377 40.3244C72.1061 41.1903 71.5828 42.1471 71.1676 43.195C71.1558 43.225 71.1502 43.2568 71.1513 43.2886C71.1616 43.5352 71.1922 43.9035 71.243 44.3934C71.2824 44.7711 71.3067 45.1559 71.3158 45.5479C71.3484 46.9701 71.3435 48.298 71.3012 49.5319C71.2935 49.7568 71.2079 50.0778 71.237 50.2452C71.2427 50.2798 71.2546 50.313 71.2721 50.3431Z" fill="#787B83"/>
<path d="M76.8239 48.3222L76.6886 49.7807C76.6848 49.8221 76.6927 49.8638 76.7115 49.901C76.7303 49.9382 76.7591 49.9694 76.7948 49.991C77.1449 50.201 77.51 50.2342 77.8904 50.0906C78.5642 49.8371 79.1298 49.4213 79.5872 48.8433C80.1722 48.1042 80.3144 47.1822 80.4086 46.2783C80.4441 45.935 80.4603 45.5484 80.4575 45.1186C80.4472 43.3906 80.4669 42.2798 80.2039 40.8445C80.1434 40.5143 80.0455 40.2053 79.9101 39.9174C79.5835 39.2255 79.0613 39.0372 78.3435 39.3526C78.1642 39.4315 77.9603 39.5912 77.7319 39.8316C77.3524 40.2316 77.092 40.5835 76.9164 41.1097C76.8142 41.4159 76.7508 41.6128 76.7263 41.7003C76.6606 41.9338 76.6423 42.2552 76.6715 42.6644C76.6886 42.9107 76.6852 43.1099 76.7006 43.3065C76.7714 44.2147 76.8302 45.0408 76.877 45.7847C76.9039 46.2071 76.893 46.8014 76.8445 47.5677L76.7794 45.7324C76.7794 45.7272 76.7788 45.722 76.7777 45.7169C76.7183 45.3798 76.6972 45.0376 76.7143 44.6902C76.7166 44.6439 76.702 44.5789 76.6706 44.4954C76.6632 44.4761 76.6592 44.4555 76.6586 44.4344L76.6312 43.4318C76.6312 43.4131 76.6277 43.3941 76.6209 43.376C76.5353 43.1476 76.6107 42.9451 76.5755 42.7313C76.4505 41.9742 76.7974 40.9475 77.1811 40.3509C77.2725 40.209 77.5026 39.9543 77.8715 39.5869C78.1285 39.3305 78.4383 39.176 78.8009 39.1233C79.0036 39.0936 79.1763 39.1062 79.3191 39.1611C79.7894 39.3431 80.0635 39.9406 80.1894 40.393C80.3595 41.0042 80.4555 41.6279 80.4772 42.2643C80.4875 42.5613 80.5637 42.8704 80.5671 43.188C80.5745 43.9726 80.5751 44.7357 80.5688 45.4774C80.5663 45.8465 80.5106 46.153 80.4737 46.5307C80.4052 47.2329 80.2502 47.9634 79.8999 48.5566C79.4767 49.2708 78.7401 49.8537 77.9923 50.155C77.8027 50.2317 77.5395 50.2677 77.2025 50.2631C77.1741 50.2626 77.1462 50.2579 77.1195 50.2494C76.9641 50.2002 76.8205 50.1158 76.6886 49.9962C76.6593 49.9695 76.6364 49.9365 76.6219 49.8997C76.6073 49.8629 76.6014 49.8234 76.6047 49.7841C76.6321 49.435 76.6626 49.1578 76.6963 48.9523C76.7289 48.7557 76.716 48.5205 76.7194 48.2973C76.7196 48.2892 76.7218 48.2813 76.7258 48.2742C76.7298 48.2672 76.7356 48.2613 76.7425 48.2572C76.7493 48.253 76.7572 48.2507 76.7651 48.2506C76.7731 48.2504 76.781 48.2523 76.788 48.2561C76.8159 48.271 76.8279 48.2931 76.8239 48.3222Z" fill="#787B83"/>
<path d="M36.6724 51.5431C36.5028 51.8014 36.0831 51.9628 35.7798 52.065C35.2322 52.2498 34.6703 52.3694 34.0941 52.4238C33.6761 52.4633 33.0603 52.2779 32.6919 52.2659C32.4732 52.259 31.9413 52.1603 31.0962 51.9697C30.4606 51.8266 29.9549 51.5493 29.5792 51.1379C29.3028 50.8346 29.1375 50.4337 29.0832 49.9352C29.0444 49.5753 29.0293 49.2988 29.0378 49.106C29.061 48.5849 29.0387 48.4338 29.0216 47.8501C29.0136 47.5588 29.0193 47.3273 29.0387 47.1556C29.0615 46.9525 29.0747 46.6254 29.0781 46.1745C29.0798 45.9644 29.0975 45.6368 29.1312 45.1916C29.1906 44.4115 29.2645 43.6945 29.3531 43.0404C29.5415 41.6557 30.0366 40.1818 31.5039 39.7809C31.9407 39.6613 32.3836 39.659 32.8324 39.774C33.2481 39.8811 33.6481 40.0785 34.0325 40.3664C34.1221 40.4333 34.1864 40.4739 34.2252 40.4883C34.245 40.4962 34.2633 40.5078 34.2791 40.5226C34.6732 40.9029 35.122 41.3166 35.4218 41.7828C35.6959 42.2085 35.8369 42.4283 35.8449 42.442C36.111 42.9073 36.4257 43.6764 36.7889 44.7495C36.818 44.8347 36.8177 44.995 36.788 45.2302C36.5842 46.8412 36.5076 48.4261 36.5585 49.985C36.5642 50.1693 36.5842 50.4137 36.6184 50.7181C36.6361 50.8738 36.661 51.121 36.6929 51.4598C36.6957 51.4893 36.6885 51.5186 36.6724 51.5431ZM36.5859 51.4555C36.5713 51.1224 36.4711 50.5215 36.4557 50.0442C36.4066 48.4808 36.4794 46.9101 36.6741 45.3323C36.6921 45.1907 36.6775 45.0662 36.6989 44.9452C36.7074 44.8978 36.7045 44.8487 36.6904 44.8018C36.2193 43.2198 35.5811 41.9184 34.4136 40.8325C33.6684 40.1397 32.7236 39.623 31.6735 39.8401C30.4178 40.1002 29.795 41.1887 29.5698 42.3639C29.3565 43.4824 29.2837 44.6559 29.1869 45.8568C29.1686 46.0846 29.162 46.4537 29.1672 46.9642C29.1672 47.0036 29.1629 47.0427 29.1543 47.081C29.1104 47.2853 29.0989 47.4867 29.1201 47.6853C29.2588 48.9832 28.9436 49.9541 29.4601 50.84C29.7625 51.3594 30.494 51.7345 31.0559 51.8624C31.527 51.9688 32.206 52.0907 33.0928 52.2281C33.6073 52.3076 34.0647 52.3274 34.465 52.2873C34.6786 52.2656 35.1243 52.1554 35.8021 51.9568C36.0134 51.8944 36.2475 51.78 36.5045 51.6134C36.5306 51.5965 36.5518 51.573 36.5661 51.5453C36.5803 51.5176 36.5872 51.4866 36.5859 51.4555Z" fill="#787B83"/>
<path d="M63.2656 51.9087C63.2273 51.8383 63.2145 51.7664 63.227 51.6932C63.2887 51.3309 63.3295 51.0142 63.3495 50.7429C63.3981 50.0762 63.4309 49.4184 63.448 48.7694C63.4583 48.3685 63.4086 47.9805 63.3795 47.395C63.3372 46.5578 63.2721 45.8164 63.1842 45.1709C63.1706 45.0677 63.1773 44.9627 63.2039 44.8618C63.3569 44.2827 63.5428 43.7339 63.7615 43.2154C64.288 41.9678 65.1003 40.9672 66.1984 40.2135C66.5022 40.0046 66.8491 39.8532 67.2392 39.7594C67.6115 39.6695 67.9861 39.6675 68.363 39.7533C69.2881 39.9634 69.9305 40.5325 70.2902 41.4608C70.4353 41.8356 70.5632 42.4039 70.674 43.1656C70.7682 43.814 70.8561 45.0412 70.9378 46.8474C70.9595 47.3241 70.9712 47.5759 70.9729 47.6028C70.9878 47.8798 70.9832 48.1307 70.9592 48.3556C70.9244 48.6916 70.9167 48.9305 70.9361 49.0724C70.9901 49.4656 70.9104 49.633 70.8898 49.9952C70.8858 50.0725 70.8576 50.1949 70.805 50.3626C70.6543 50.8451 70.477 51.0545 70.0932 51.3747C69.6384 51.7541 68.9591 51.9825 68.387 52.0752C67.2963 52.2526 66.7464 52.3453 66.7372 52.3533C66.7292 52.3596 66.4543 52.3865 65.9124 52.434C65.8625 52.4386 65.8123 52.4342 65.7642 52.4211C65.5672 52.3705 65.3701 52.3928 65.1406 52.3567C64.4605 52.2512 63.8994 52.1593 63.3315 51.9644C63.3034 51.9545 63.2799 51.9346 63.2656 51.9087ZM63.3341 51.87C63.8949 52.0514 64.5781 52.1899 65.3839 52.2855C66.1822 52.3808 66.8451 52.2211 67.7642 52.0717C68.3655 51.9739 68.7496 51.9001 68.9163 51.8503C69.8748 51.5636 70.6706 51.0185 70.7913 49.9677C70.7936 49.9443 70.8105 49.7889 70.8419 49.5016C70.8498 49.4315 70.849 49.3603 70.8393 49.2896C70.7988 48.9828 70.8022 48.6378 70.8496 48.2543C70.8644 48.1307 70.8639 47.8915 70.8479 47.5367C70.8347 47.2431 70.8273 47.0045 70.8256 46.8208C70.8142 45.671 70.7302 44.4707 70.5738 43.2197C70.483 42.4874 70.3468 41.6384 70.0084 41.0796C69.1861 39.7199 67.551 39.4211 66.2541 40.2847C64.6566 41.3466 63.6904 43.1089 63.2827 44.9657C63.2691 45.0276 63.2668 45.0913 63.2758 45.1537C63.4129 46.0585 63.494 47.2852 63.5191 48.8338C63.5385 50.0356 63.4649 51.0268 63.2981 51.8074C63.2953 51.8205 63.2975 51.8343 63.3041 51.8459C63.3108 51.8575 63.3215 51.8661 63.3341 51.87Z" fill="#787B83"/>
<path d="M76.5599 50.3834L76.1214 51.2787C76.1133 51.2955 76.1096 51.314 76.1106 51.3325C76.1117 51.351 76.1174 51.3688 76.1274 51.3843C76.1976 51.4959 76.2667 51.629 76.3346 51.7835C76.6773 52.5669 76.9122 53.4025 77.0396 54.2901C77.1978 55.3894 77.2823 56.2604 77.2931 56.9031C77.3086 57.801 77.312 58.3158 77.3034 58.4474C77.3026 58.4626 77.3049 58.4779 77.3102 58.4924C77.3155 58.5068 77.3237 58.5201 77.3342 58.5316C77.6038 58.8177 77.7722 58.9756 77.8396 59.0054C78.8478 59.4466 79.6358 58.8303 79.8774 57.85C80.0047 57.3326 80.0667 56.6656 80.0633 55.849C80.0604 55.2887 80.0458 54.8821 80.0196 54.6292C79.9673 54.1218 79.9579 53.6265 79.8988 53.1398C79.772 52.0839 79.573 51.0086 79.3018 49.9138C79.3829 49.9619 79.4254 49.9939 79.4294 50.01C79.9685 52.1732 80.206 54.3639 80.1421 56.5821C80.1181 57.4027 79.9819 58.5831 79.1819 59.0509C78.7342 59.313 78.2493 59.3113 77.7274 59.0458C77.7127 59.0384 77.6993 59.0285 77.688 59.0166L77.2529 58.5813C77.2276 58.5554 77.2135 58.5209 77.2135 58.4852C77.2152 57.7641 77.1855 56.8731 77.1244 55.8121C77.1238 55.7983 77.1098 55.6693 77.0824 55.4249C77.0796 55.3997 77.0664 55.2707 77.043 55.0378C76.9154 53.7656 76.6439 52.5303 76.0605 51.4521C76.0409 51.4161 76.0304 51.3758 76.0298 51.3347C76.0292 51.2936 76.0386 51.2529 76.0571 51.2161L76.4297 50.4804C76.4359 50.4686 76.445 50.4582 76.4563 50.4503L76.5599 50.3834Z" fill="#787B83"/>
<path d="M70.1873 51.908C70.8803 52.2213 71.2658 52.9287 71.4842 53.6188C71.764 54.5076 71.913 55.4164 71.9313 56.3452C71.949 57.2517 71.9507 58.0171 71.9364 58.6415C71.933 58.7657 71.9596 58.8744 72.0161 58.9677C72.4878 59.7517 73.1108 60.3486 73.8851 60.7584C74.4016 61.0322 75.1383 61.2005 75.6496 60.8682C76.3931 60.3858 76.6373 59.4372 76.7298 58.5728C76.7932 57.9782 76.8114 57.4282 76.7846 56.9229C76.7101 55.5263 76.567 54.1768 76.1567 52.8205C76.042 52.4394 75.8946 52.0851 75.7147 51.7578C75.7119 51.7527 75.7081 51.7483 75.7034 51.7448C75.6988 51.7414 75.6936 51.7389 75.688 51.7376C75.6824 51.7363 75.6766 51.7362 75.6711 51.7373C75.6655 51.7384 75.6602 51.7407 75.6556 51.744C75.1286 52.1235 74.5173 52.2974 73.8217 52.266C72.6774 52.2145 71.7257 51.8711 71.0499 50.9079C71.047 50.9039 71.043 50.9006 71.0384 50.8986C71.0339 50.8965 71.0289 50.8956 71.0239 50.896C71.0189 50.8965 71.0141 50.8982 71.0099 50.901C71.0058 50.9039 71.0024 50.9077 71.0002 50.9122C70.8049 51.3226 70.5245 51.6407 70.1591 51.8668C70.1397 51.813 70.1465 51.7741 70.1796 51.75C70.496 51.5246 70.7458 51.241 70.9291 50.8994C70.9397 50.8795 70.9552 50.8626 70.9741 50.8504C70.993 50.8382 71.0146 50.831 71.0371 50.8294C71.0595 50.8279 71.082 50.8321 71.1023 50.8416C71.1227 50.8511 71.1403 50.8657 71.1535 50.8839C71.6818 51.6141 72.397 52.0296 73.2992 52.1303C74.0667 52.2162 74.8342 52.1896 75.5049 51.7277C75.6454 51.6316 75.7481 51.6436 75.8372 51.7887C75.9303 51.9403 76.0322 52.173 76.143 52.4866C76.42 53.2723 76.607 54.0649 76.7041 54.8644C76.7977 55.633 76.8545 56.2837 76.8745 56.8165C76.9131 57.8346 76.8788 58.7256 76.6167 59.621C76.3537 60.5189 75.7165 61.3 74.6757 61.1232C73.6145 60.9421 72.6517 60.0836 72.0401 59.2012C71.947 59.0667 71.8828 58.9365 71.8474 58.8106C71.8388 58.7793 71.8345 58.7466 71.8345 58.7136C71.8437 57.7436 71.8425 56.8766 71.8311 56.1126C71.826 55.7703 71.75 55.2215 71.6032 54.4661C71.4656 53.7536 71.2532 53.1745 70.966 52.7287C70.7475 52.3904 70.5599 52.2136 70.2122 52.0213C70.1636 51.995 70.1554 51.9572 70.1873 51.908Z" fill="#787B83"/>
<path d="M28.7365 51.0107C28.4715 51.3593 28.1854 51.6317 27.8782 51.828C27.3857 52.1439 26.6893 52.2494 26.1129 52.2761C25.4242 52.3075 24.8114 52.1273 24.2747 51.7353C24.2713 51.7329 24.2674 51.7312 24.2634 51.7304C24.2594 51.7296 24.2552 51.7297 24.2513 51.7305C24.2473 51.7314 24.2436 51.7332 24.2404 51.7356C24.2372 51.738 24.2346 51.7411 24.2327 51.7447C23.9969 52.1865 23.819 52.6632 23.6991 53.1748C23.4706 54.1483 23.3262 55.1452 23.2656 56.1656C23.2559 56.323 23.2405 56.4995 23.2194 56.6952C23.1714 57.1468 23.2031 57.7451 23.2168 58.0593C23.2465 58.7077 23.3539 59.3023 23.5389 59.8431C23.6325 60.1161 23.7873 60.3762 24.0031 60.6234C24.3035 60.9668 24.6921 61.1075 25.1689 61.0457C26.2987 60.8981 27.324 59.9633 27.9356 59.0293C28.003 58.9269 28.0375 58.8113 28.0393 58.6825C28.0473 58.132 28.0504 57.5107 28.0487 56.8188C28.0475 56.1733 28.0692 55.6997 28.1138 55.3982C28.2491 54.4865 28.4307 53.6341 28.8504 52.8658C29.092 52.424 29.3835 52.111 29.725 51.9267C29.6924 52.012 29.5996 52.1164 29.4466 52.24C29.2907 52.3653 29.0688 52.6658 28.9524 52.883C28.6834 53.3849 28.4898 53.9408 28.3716 54.5509C28.2928 54.9578 28.2434 55.2225 28.2234 55.3449C28.1715 55.67 28.144 55.9372 28.1412 56.1467C28.1349 56.6068 28.1389 57.4481 28.1532 58.6705C28.1543 58.7771 28.1299 58.8822 28.0821 58.9769C27.8739 59.3907 27.5604 59.7049 27.1707 60.0886C26.4486 60.7977 24.9573 61.6569 24.0391 60.7916C23.4464 60.2337 23.3247 59.5023 23.1671 58.6301C23.106 58.2913 23.08 57.9935 23.0892 57.7365C23.102 57.3622 23.0772 56.9802 23.1209 56.5381C23.2656 55.0728 23.3633 53.7835 23.795 52.5362C23.8984 52.2386 24.002 51.9896 24.1059 51.7893C24.1209 51.7605 24.1421 51.7354 24.1679 51.7156C24.1936 51.6959 24.2234 51.682 24.2551 51.6751C24.2868 51.6681 24.3196 51.6682 24.3513 51.6753C24.3829 51.6825 24.4126 51.6965 24.4383 51.7164C24.7209 51.9353 25.0524 52.0726 25.4285 52.1301C25.7614 52.1811 25.9969 52.1985 26.1351 52.1825C26.2396 52.1705 26.4555 52.143 26.7827 52.1001C27.2701 52.0357 27.9176 51.7953 28.2406 51.4176C28.4044 51.2248 28.5698 51.0891 28.7365 51.0107Z" fill="#787B83"/>
<path d="M34.3452 52.6779C34.6227 52.604 34.9045 52.6315 35.2103 52.5817C35.6888 52.5039 36.1714 52.3477 36.6579 52.113C36.6765 52.1041 36.6968 52.0992 36.7174 52.0985C36.738 52.0978 36.7585 52.1013 36.7777 52.1089C36.7968 52.1165 36.8141 52.1279 36.8286 52.1425C36.8431 52.1571 36.8544 52.1745 36.8618 52.1937C37.314 53.3612 38.9809 53.7672 40.0773 53.8865C40.537 53.9357 40.7874 53.9652 40.8285 53.9749C41.1523 54.0479 41.4932 54.0119 41.9232 54.023C41.9516 54.0239 41.9787 54.0355 41.9989 54.0556C42.0191 54.0757 42.0309 54.1027 42.032 54.1312C42.0565 54.7206 42.052 55.412 42.0183 56.2051C42.002 56.594 41.9463 57.0782 41.9121 57.3554C41.781 58.4173 41.4212 59.3607 40.9399 60.4767C40.6869 61.0638 40.4254 61.5603 40.1552 61.966C39.9097 62.3346 39.5714 62.6665 39.1402 62.9618C38.2734 63.5553 37.4319 63.5098 36.6159 62.8253C36.3898 62.6356 36.084 62.257 35.8981 61.9343C35.1638 60.6598 34.6792 59.2823 34.4445 57.8018C34.3991 57.5142 34.3092 56.9305 34.3178 56.5373C34.3212 56.3823 34.3121 56.0672 34.2904 55.5922C34.2669 55.0812 34.2727 54.494 34.3075 53.8307C34.3263 53.4668 34.3024 53.0882 34.3058 52.7294C34.3058 52.7177 34.3096 52.7064 34.3167 52.6971C34.3238 52.6878 34.3338 52.681 34.3452 52.6779ZM36.7127 52.2023C36.2342 52.4432 35.7085 52.6032 35.1358 52.6822C35.0473 52.6942 34.8211 52.7202 34.4574 52.7603C34.4464 52.7615 34.4363 52.7667 34.4289 52.7747C34.4215 52.7828 34.4173 52.7932 34.4171 52.8041C34.376 54.3515 34.3792 55.6243 34.4266 56.6223C34.4899 57.9718 34.7883 59.2917 35.3217 60.5822C35.6703 61.4261 35.9881 62.0536 36.5705 62.6571C37.0888 63.1927 37.8768 63.4442 38.5646 63.161C39.4409 62.7996 40.0525 62.0828 40.4867 61.2235C40.8516 60.5036 41.1714 59.7436 41.4461 58.9435C41.6243 58.4239 41.7459 57.8859 41.811 57.3297C41.9292 56.3156 41.9703 55.262 41.9343 54.1689C41.9337 54.1484 41.9249 54.1289 41.91 54.1148C41.8951 54.1006 41.8752 54.0929 41.8547 54.0934C40.8371 54.118 39.8455 54.007 38.8798 53.7603C38.0078 53.538 37.1179 53.1182 36.7701 52.2246C36.7681 52.2192 36.765 52.2143 36.761 52.2102C36.7569 52.2061 36.752 52.2029 36.7466 52.2008C36.7412 52.1987 36.7354 52.1977 36.7296 52.198C36.7237 52.1983 36.718 52.1997 36.7127 52.2023Z" fill="#787B83"/>
<path d="M34.0048 52.8599C34.0288 53.4619 34.0285 54.2829 34.004 55.3227C33.9877 56 34.0271 56.8301 34.117 57.4619C34.1833 57.9272 34.2461 58.3985 34.3055 58.8757C34.3234 59.02 34.2207 59.2586 34.1658 59.4131C33.7838 60.487 33.2682 61.4622 32.4073 62.0914C31.7443 62.5756 30.8869 62.7163 30.1331 62.3944C29.1866 61.9901 28.862 61.1283 28.6547 60.1857C28.4903 59.4383 28.4146 58.644 28.4277 57.8027C28.4317 57.5458 28.4586 57.0024 28.5082 56.1726C28.5414 55.6072 28.6267 55.0191 28.7644 54.4085C28.9571 53.5475 29.1344 52.9646 29.7768 52.4444C29.9744 52.2848 30.1731 52.1872 30.373 52.1517C30.4546 52.1374 30.6045 52.1669 30.8227 52.2401C30.8631 52.2538 30.9044 52.2642 30.946 52.271C31.89 52.429 32.4453 52.5257 32.612 52.5612C32.921 52.6258 33.347 52.6851 33.89 52.7389C33.9206 52.7418 33.9492 52.7556 33.9703 52.7779C33.9914 52.8002 34.0037 52.8293 34.0048 52.8599ZM33.8369 52.8281C32.7439 52.7097 31.6261 52.5194 30.4835 52.2573C30.4613 52.2522 30.4389 52.2499 30.4167 52.2504C30.2819 52.2556 30.1697 52.285 30.08 52.3388C29.2475 52.8376 29.0008 53.6497 28.8209 54.5999C28.6621 55.4435 28.5793 56.146 28.5725 56.7074C28.5599 57.7192 28.5596 58.4274 28.5716 58.832C28.587 59.3636 28.6821 59.9519 28.8569 60.5969C29.1318 61.6124 29.6826 62.3 30.6933 62.4468C31.6424 62.5833 32.5666 62.027 33.1088 61.2716C33.5702 60.6301 33.9291 59.8827 34.1855 59.0294C34.2019 58.974 34.2063 58.9157 34.1984 58.8586C34.0139 57.5269 33.918 56.7454 33.9106 56.5142C33.8752 55.4532 33.87 54.2465 33.8952 52.8942C33.8955 52.8779 33.8897 52.8621 33.8789 52.8498C33.8681 52.8376 33.8531 52.8299 33.8369 52.8281Z" fill="#787B83"/>
<path d="M63.0978 52.4444C62.667 53.2737 61.7479 53.6042 60.8579 53.8282C59.9474 54.0566 58.9949 54.1124 58.0886 54.0995C58.0827 54.0994 58.0767 54.1004 58.0712 54.1026C58.0656 54.1048 58.0606 54.1081 58.0563 54.1122C58.052 54.1163 58.0485 54.1213 58.0461 54.1268C58.0438 54.1322 58.0425 54.1381 58.0424 54.1441C58.0087 55.2332 58.0518 56.3165 58.1717 57.3941C58.2277 57.892 58.325 58.3653 58.4638 58.814C58.7836 59.8509 59.1979 60.7932 59.7067 61.6408C60.3431 62.7009 61.55 63.6993 62.8057 63.0717C63.4019 62.7739 63.9201 62.0511 64.2345 61.4184C64.7712 60.3379 65.1547 59.196 65.3848 57.9924C65.5099 57.3395 65.5733 56.4742 65.575 55.3966C65.5767 54.3985 65.5661 53.5295 65.5433 52.7895C65.5431 52.7805 65.5395 52.7719 65.5333 52.7655C65.5271 52.7591 65.5187 52.7554 65.5099 52.7552C64.7281 52.7226 63.9675 52.5849 63.228 52.3423C63.7996 52.4138 64.3601 52.4974 64.9094 52.5929C65.1493 52.6347 65.3574 52.6522 65.5339 52.6453C65.5562 52.6447 65.578 52.6522 65.5949 52.6665C65.6119 52.6808 65.6228 52.7008 65.6255 52.7226C65.706 53.3381 65.6683 54.2737 65.6735 55.6661C65.6763 56.4868 65.6258 57.1932 65.5219 57.7856C65.3214 58.933 64.988 60.0189 64.5214 61.0433C64.301 61.5274 64.0786 61.9266 63.8541 62.2408C63.4755 62.7713 62.858 63.2932 62.2113 63.3576C61.7607 63.4034 61.325 63.2898 60.9041 63.0168C60.5632 62.7965 60.2823 62.559 60.0613 62.3043C59.8003 62.0027 59.5322 61.5764 59.257 61.0253C58.8407 60.1909 58.5075 59.3293 58.2574 58.4405C58.2402 58.3787 58.1971 58.1521 58.128 57.7607C58.0492 57.3109 58.0492 56.9769 57.9867 56.5623C57.9713 56.4593 57.9613 56.2879 57.9567 56.0481C57.9561 56.0161 57.9513 55.3843 57.9422 54.1527C57.9419 54.1393 57.9451 54.1261 57.9514 54.1142C57.9577 54.1024 57.9669 54.0923 57.9781 54.0849C58.0723 54.0219 58.1563 53.9919 58.23 53.9948C59.4126 54.0417 60.5524 53.8717 61.6494 53.4848C62.221 53.2828 62.6764 52.9403 63.0156 52.4573C63.0259 52.443 63.0378 52.4356 63.0515 52.435C63.0675 52.4344 63.083 52.4376 63.0978 52.4444Z" fill="#787B83"/>
<path d="M42.7588 54.1251L42.5035 54.138C42.4906 54.1384 42.4783 54.1439 42.4692 54.1533C42.4601 54.1628 42.4549 54.1754 42.4547 54.1886C42.4342 55.7441 42.5684 57.2707 42.8573 58.7683C43.098 60.0148 43.3781 61.1264 43.9272 62.1986C44.3477 63.0201 45.1726 63.5807 46.1097 63.53C47.308 63.4648 48.2365 62.6029 48.6717 61.547C49.3666 59.86 49.7195 58.0899 49.7304 56.2368C49.7372 55.1243 49.7406 54.1348 49.7406 53.2684C49.7407 53.2588 49.7382 53.2493 49.7333 53.241C49.7284 53.2328 49.7213 53.226 49.7128 53.2214C49.7043 53.2168 49.6946 53.2146 49.6849 53.215C49.6752 53.2155 49.6657 53.2185 49.6576 53.2238C48.9689 53.6753 48.2074 53.8461 47.4288 53.9508C46.1856 54.1179 44.9285 54.1852 43.6573 54.1526C44.4237 54.0667 44.9182 54.0235 45.1409 54.0229C46.0506 54.0195 46.95 53.9463 47.8391 53.8032C48.4044 53.7122 49.0366 53.5371 49.5282 53.21C49.5529 53.1931 49.5818 53.1825 49.6122 53.1791C49.671 53.1722 49.7318 53.1768 49.7946 53.1928C49.8056 53.1956 49.8154 53.202 49.8224 53.2112C49.8294 53.2204 49.8332 53.2318 49.8332 53.2435C49.8143 54.229 49.8037 55.48 49.8015 56.9965C49.8015 57.0738 49.7535 57.5165 49.6576 58.3245C49.5436 59.2808 49.2396 60.2663 48.9543 61.1067C48.4541 62.5789 47.3525 63.7764 45.6591 63.5901C44.8591 63.5025 44.1473 62.8793 43.8055 62.178C43.4777 61.5033 43.2128 60.745 43.0106 59.9032C42.7537 58.8324 42.5664 57.7388 42.4487 56.6223C42.4453 56.5885 42.4447 56.5313 42.447 56.4506C42.4482 56.3947 42.4433 56.3388 42.4325 56.284C42.3936 56.0872 42.3731 55.878 42.3708 55.6565C42.3656 55.1249 42.3662 54.6473 42.3725 54.2238C42.3725 54.2023 42.3766 54.181 42.3845 54.1612C42.4513 53.9849 42.5761 53.9729 42.7588 54.1251Z" fill="#787B83"/>
<path d="M50.2583 53.1878C50.2589 54.2333 50.2629 55.2798 50.2703 56.327C50.2709 56.4014 50.2721 56.477 50.2738 56.5537C50.3012 58.3014 50.6509 59.969 51.3231 61.5566C51.6802 62.3995 52.3184 63.0966 53.1844 63.3945C54.2688 63.767 55.3446 63.3326 55.9356 62.4133C56.3083 61.8338 56.6397 60.8638 56.8376 60.0981C57.3367 58.1626 57.5657 56.1966 57.5246 54.1999L57.5631 54.1887C57.5696 54.1867 57.5764 54.1862 57.583 54.1873C57.5897 54.1884 57.596 54.1911 57.6014 54.1951C57.6068 54.1991 57.6112 54.2044 57.6143 54.2104C57.6173 54.2165 57.6188 54.2231 57.6188 54.2299C57.6128 55.0317 57.6445 55.6643 57.5768 56.3948C57.506 57.1606 57.383 58.0021 57.2076 58.9195C56.9604 60.2157 56.61 61.3182 56.1566 62.227C55.8363 62.8691 55.2861 63.3195 54.506 63.5782C54.4392 63.6005 54.2371 63.6116 53.8996 63.6116C53.6723 63.6116 53.473 63.5853 53.3017 63.5327C52.4686 63.2774 51.829 62.7329 51.383 61.8991C51.2397 61.6324 51.1212 61.3634 51.0275 61.0922C50.7449 60.2744 50.5359 59.4915 50.4005 58.7435C50.344 58.4299 50.2792 57.8593 50.2061 57.0318C50.1667 56.5889 50.1527 56.0154 50.1641 55.3115C50.1693 54.959 50.1713 54.2728 50.1701 53.253C50.1701 53.2198 50.1824 53.1923 50.207 53.1706C50.2127 53.1649 50.2298 53.1706 50.2583 53.1878Z" fill="#787B83"/>
<path d="M19.5715 57.9556C19.5002 58.5925 19.4234 59.1997 19.3411 59.7771C19.3217 59.9111 19.3171 60.3675 19.3274 61.1463C19.336 61.8459 19.479 62.6117 19.6649 63.1885C20.3879 65.4333 23.0441 66.7132 25.1512 67.2171C26.5548 67.553 28.0881 67.804 29.7509 67.97C31.8461 68.1788 33.9729 68.3474 36.1315 68.4756C38.1821 68.598 39.4666 68.6504 39.9851 68.6327C40.1573 68.6266 40.3783 68.673 40.5856 68.6773C42.1697 68.7076 43.7532 68.6965 45.3361 68.6438L45.4552 68.679C45.4617 68.6812 45.4672 68.6856 45.4709 68.6914C45.4746 68.6972 45.4761 68.7041 45.4753 68.711C45.4745 68.7178 45.4714 68.7242 45.4665 68.729C45.4616 68.7338 45.4551 68.7368 45.4483 68.7374C45.305 68.7454 45.2259 68.7497 45.211 68.7503C42.5991 68.7709 40.6244 68.7634 39.2871 68.7279C39.2711 68.7279 39.2165 68.7251 39.1234 68.7194C38.6409 68.6896 38.308 68.6756 38.1247 68.6773C37.8158 68.6807 37.4848 68.6667 37.1319 68.6352C36.6991 68.5969 36.2794 68.5743 35.8728 68.5674C35.8425 68.5668 35.7903 68.564 35.716 68.5588C33.212 68.382 31.2948 68.2272 29.9642 68.0944C28.8781 67.9857 27.7038 67.8217 26.4412 67.6025C24.3769 67.2437 22.4265 66.5493 20.8598 65.1878C20.608 64.9686 20.333 64.641 20.0349 64.2049C19.8065 63.8713 19.6344 63.4815 19.5184 63.0357C19.3443 62.3662 19.252 61.8663 19.2418 61.5361C19.2235 60.9174 19.2335 60.257 19.2717 59.5548C19.3014 59.0226 19.4014 58.4895 19.5715 57.9556Z" fill="#787B83"/>
<path d="M22.7605 59.153C22.5069 59.398 22.2334 59.5436 21.9399 59.59C21.6875 59.6295 21.4248 59.6229 21.1518 59.5702C20.4435 59.4329 19.9012 58.7419 19.6974 58.0869C19.7071 58.0823 19.7159 58.0789 19.7239 58.0766C19.7382 58.0723 19.7536 58.0739 19.7669 58.0809C19.7802 58.088 19.7903 58.1 19.795 58.1143C19.9675 58.6305 20.2821 59.0306 20.739 59.3144C21.1047 59.5419 21.5321 59.5419 21.933 59.4947C22.2003 59.4626 22.4041 59.3745 22.5446 59.2303C22.6206 59.1519 22.6925 59.1261 22.7605 59.153Z" fill="#787B83"/>
<path d="M52.6626 68.6224C54.1958 68.6676 56.6019 68.6871 59.8808 68.6808C60.2315 68.6802 60.5147 68.6745 60.7306 68.6636C61.2611 68.6367 61.5443 68.623 61.5803 68.6224C62.1131 68.6196 62.7266 68.6004 63.421 68.5649C63.8676 68.542 64.5237 68.5211 65.3894 68.5022C65.543 68.4988 65.7677 68.4839 66.0635 68.4576C66.2211 68.4433 66.4458 68.4321 66.7376 68.4241C66.9187 68.4195 67.0566 68.407 67.1514 68.3864C67.3201 68.3494 67.4674 68.3649 67.7073 68.3529C68.0396 68.3357 68.549 68.2928 69.2354 68.2241C71.2671 68.0221 73.2038 67.669 75.0454 67.1648C75.6656 66.9948 76.2994 66.7671 76.947 66.4815C78.601 65.751 79.7231 64.6496 80.291 62.9156C80.805 61.3464 80.8481 59.7689 80.4204 58.1831C80.5203 58.2718 80.5891 58.4177 80.6268 58.6209C80.7724 59.4021 80.8564 60.1369 80.7938 60.9129C80.7641 61.2849 80.7401 61.5261 80.7219 61.6365C80.6693 61.9502 80.5546 62.3848 80.3775 62.9405C80.0566 63.9466 79.5338 64.7721 78.8092 65.4171C78.1787 65.9779 77.3981 66.4346 76.4673 66.7871C75.4549 67.1711 74.4361 67.465 73.4111 67.6687C72.1228 67.9251 71.1958 68.0905 70.6299 68.1649C70.0097 68.2467 69.3604 68.3177 68.682 68.3778C68.6249 68.3829 67.8466 68.439 66.347 68.546C65.6549 68.5958 65.2309 68.5795 64.5491 68.619C64.1317 68.6436 63.7057 68.6565 63.2711 68.6576C62.9782 68.6588 62.7309 68.6682 62.5293 68.6859C62.2347 68.7126 61.8895 68.6825 61.5409 68.7126C61.2462 68.7383 60.8725 68.7469 60.4196 68.7383C59.4089 68.7194 58.2431 68.7675 57.4336 68.7615C56.4161 68.7535 55.6817 68.7538 55.2306 68.7623C54.386 68.7778 53.6828 68.7366 52.8468 68.7357C52.8296 68.7352 52.7939 68.7363 52.7397 68.7392C52.6312 68.7449 52.6055 68.706 52.6626 68.6224Z" fill="#787B83"/>
</g>
<defs>
<filter id="filter0_g_500_6761" x="17.1998" y="40.8" width="65.6" height="21.6001" filterUnits="userSpaceOnUse" color-interpolation-filters="sRGB">
<feFlood flood-opacity="0" result="BackgroundImageFix"/>
<feBlend mode="normal" in="SourceGraphic" in2="BackgroundImageFix" result="shape"/>
<feTurbulence type="fractalNoise" baseFrequency="1 1" numOctaves="3" seed="8403" />
<feDisplacementMap in="shape" scale="4" xChannelSelector="R" yChannelSelector="G" result="displacedImage" width="100%" height="100%" />
<feMerge result="effect1_texture_500_6761">
<feMergeNode in="displacedImage"/>
</feMerge>
</filter>
<linearGradient id="paint0_linear_500_6761" x1="50.0001" y1="45.0002" x2="50.0001" y2="63.5002" gradientUnits="userSpaceOnUse">
<stop offset="0.122525" stop-color="#ACACAE"/>
<stop offset="0.443453" stop-color="#DEDFE1"/>
<stop offset="1" stop-color="#797A7B"/>
</linearGradient>
</defs>
</svg>
