<svg width="100" height="100" viewBox="0 0 100 100" fill="none" xmlns="http://www.w3.org/2000/svg">
<circle cx="50" cy="50" r="50" fill="white"/>
<mask id="mask0_500_4544" style="mask-type:alpha" maskUnits="userSpaceOnUse" x="10" y="24" width="80" height="52">
<rect x="10" y="24" width="80" height="52" fill="#D9D9D9"/>
</mask>
<g mask="url(#mask0_500_4544)">
<path d="M16.7998 39.6001L24.7998 36.1001L33.7998 34.1001L43.2998 35.6001L49.7998 38.6001L55.2998 36.1001L64.2998 34.6001L75.7998 35.6001L83.7998 40.6001L86.2998 43.6001V49.1001L83.7998 51.6001L84.2998 55.6001L50.0498 58.6001L16.7998 55.6001L16.2998 52.1001L13.7998 47.1001L14.2998 43.1001L16.7998 39.6001Z" fill="#FFDBDF"/>
<path d="M23.5688 60.9811C23.5634 60.997 23.5548 61.0115 23.5434 61.0237C23.5321 61.0359 23.5182 61.0454 23.5029 61.0517C22.9023 61.3048 22.2702 61.4222 21.5932 61.5406C20.562 61.7201 19.6405 61.6552 18.5482 61.4938C17.5618 61.3487 16.6022 60.6564 16.2632 59.6958C16.1267 59.312 16.0321 58.8221 16.0312 58.3915C16.028 57.2018 16.0363 56.5015 16.056 56.2908C16.0665 56.1839 16.1114 56.0559 16.1219 55.9404C16.2161 54.9149 16.4281 53.8878 16.7578 52.8591C16.9765 52.1773 17.2305 51.6607 17.5637 51.0601C18.0899 50.111 18.9721 49.4636 20.0903 49.6823C21.4385 49.9468 22.4211 51.3896 23.0752 52.6232C23.4488 53.3279 23.7983 54.052 24.1236 54.7955C24.2028 54.9769 24.2296 55.0858 24.1866 55.2959C23.8104 57.1321 23.5411 59.0379 23.5908 60.8818C23.5914 60.9028 23.5841 60.9359 23.5688 60.9811Z" fill="#FFFFFD"/>
<path d="M76.5465 61.0744C76.5277 61.0683 76.5112 61.0563 76.4996 61.0402C76.4879 61.0241 76.4816 61.0046 76.4816 60.9846C76.4848 59.0781 76.2757 57.1983 75.8543 55.3452C75.8287 55.2336 75.8353 55.1171 75.8734 55.0091C75.979 54.7087 76.1153 54.3847 76.282 54.0371C77.0163 52.5065 78.5852 49.2122 80.7508 49.6705C81.4013 49.8087 81.9179 50.1722 82.3005 50.761C82.8785 51.6515 83.2913 52.6233 83.5389 53.6761C83.8356 54.9366 84.0135 56.2377 84.0727 57.5796C84.0918 58.0198 84.0383 58.3788 84.0059 58.9183C83.9696 59.5078 83.7567 60.0272 83.3671 60.4766C82.875 61.0438 82.2123 61.3917 81.3791 61.5203C80.6572 61.6311 79.9315 61.6708 79.202 61.6396C79.1422 61.6371 78.8035 61.5894 78.186 61.4964C77.6093 61.4086 77.0736 61.2491 76.5465 61.0744Z" fill="#FFFFFD"/>
<path d="M34.0654 34.1351C34.5625 34.0913 35.1022 34.0885 35.6845 34.1273C36.1211 34.1572 36.5732 34.1822 37.041 34.2025C37.1351 34.1587 37.2489 34.1615 37.3818 34.2103C37.356 34.2477 37.3891 34.2711 37.4804 34.2807C39.3053 34.4621 40.8064 34.6647 41.9833 34.8881C42.3042 34.9492 43.2014 35.1599 44.6738 35.5189C44.9983 35.5978 45.2959 35.6863 45.5664 35.7855C45.9539 35.9287 46.3252 36.0178 46.747 36.1762C47.8526 36.5912 48.8865 37.0483 49.8476 37.5473C49.8937 37.5711 49.9452 37.5842 49.997 37.5844C50.0487 37.5845 50.0995 37.5717 50.1455 37.5482C51.7133 36.7449 53.3137 36.1024 54.9453 35.6205C55.2312 35.5364 55.8464 35.3771 56.79 35.143C57.4652 34.9756 58.0873 34.8487 58.6562 34.7621C60.0356 34.5527 61.2909 34.4026 62.4208 34.3109C62.7333 34.2861 63.0299 34.266 63.3105 34.2514C63.399 34.2469 63.6647 34.2363 64.1074 34.2191C65.0517 34.1819 65.9467 34.2415 66.7812 34.2396C67.3707 34.2384 67.9316 34.268 68.4638 34.3285C70.3152 34.5395 71.5909 34.6686 73.0537 34.9379C73.2376 34.9723 73.8866 35.1168 74.9999 35.3715C76.4788 35.7095 77.8308 36.2384 79.2744 36.9076C80.5048 37.4773 81.5306 38.0602 82.3505 38.6566C83.1079 39.2078 83.7568 39.7806 84.2978 40.3744C84.7732 40.8976 85.213 41.3618 85.5634 41.8353C86.2814 42.8054 86.779 44.0069 87.0703 45.1889C87.188 45.6676 87.2252 46.2091 87.1826 46.8119C87.1176 47.7233 86.8713 48.5994 86.4443 49.4408C86.1225 50.0729 85.6017 50.723 85.1367 51.1957C85.0798 51.2531 84.8554 51.4452 84.4648 51.7728C84.4061 51.8222 84.363 51.8878 84.3408 51.9613C84.3186 52.0349 84.3182 52.114 84.3398 52.1879C84.4754 52.65 84.6272 53.2508 84.7939 53.9896C84.9555 54.7062 85.0501 55.3313 85.0781 55.8646C85.0924 56.1405 85.1585 56.3582 85.1748 56.6273C85.2199 57.3416 85.209 58.0891 85.1415 58.8695C85.0365 60.0936 84.6053 61.1678 83.6142 61.9174C83.4106 62.0707 83.1342 62.207 82.7851 62.3266C82.0314 62.5831 81.3303 62.713 80.6835 62.7162C80.0186 62.7194 79.4975 62.7224 79.1201 62.725C78.8816 62.7269 78.7002 62.7159 78.5761 62.6918C78.3727 62.6517 78.1094 62.6731 77.8535 62.6234C77.3246 62.5203 76.8572 62.4112 76.4511 62.2973C76.3823 62.2778 76.3086 62.2832 76.2431 62.3119C76.1778 62.3406 76.124 62.3909 76.0917 62.4545L75.913 62.8129C75.9111 62.816 75.9087 62.8195 75.9062 62.8226C75.5486 63.2604 75.3289 63.5139 75.248 63.5834C74.6837 64.0656 74.0029 64.2643 73.1884 64.4486C72.9084 64.5116 72.5829 64.5631 72.2119 64.6019C71.6402 64.6624 71.0735 64.7054 70.5126 64.7309C70.3605 64.7378 70.1158 64.714 69.7792 64.6605C69.7432 64.6542 69.7066 64.6511 69.6699 64.6518C68.8493 64.6575 68.0582 64.5593 67.2968 64.3568C66.6419 64.1824 65.9616 63.9808 65.2558 63.7523C65.2189 63.7407 65.1789 63.7396 65.1415 63.7494C65.1043 63.7592 65.071 63.7799 65.0449 63.808L64.7324 64.142C64.7273 64.1477 64.7215 64.1532 64.7158 64.1576C64.0519 64.6617 63.4369 65.0161 62.871 65.2211C62.4802 65.363 61.8765 65.4977 61.0605 65.6244C60.6825 65.6829 60.3935 65.7103 60.1943 65.7064C59.7629 65.6989 59.4955 65.7834 59.0468 65.7758C58.262 65.763 57.193 65.7637 55.8398 65.7777C55.4846 65.7809 54.809 65.6943 53.8134 65.518C53.1584 65.4015 52.4596 65.117 51.7167 64.6644C50.9892 64.2214 50.5327 63.5521 50.5107 62.7357C50.505 62.5048 50.4909 62.3088 50.4687 62.1478C50.4038 61.6666 50.3895 61.3471 50.4257 61.1898C50.4824 60.9474 50.5083 60.7625 50.5039 60.6351C50.4771 59.8343 50.5208 59.0735 50.6347 58.3529C50.82 57.1775 50.9255 56.4249 51.2177 55.4262C51.8155 53.3895 53.0623 51.4692 54.9023 50.3988C55.3071 50.1634 55.8558 49.9607 56.5488 49.7914C58.3773 49.3436 60.3011 49.8788 61.6933 51.1049C62.6021 51.9062 63.3196 52.8731 63.8466 54.0053C63.9236 54.1714 64.0557 54.527 64.2421 55.0717C64.365 55.4301 64.5014 55.7864 64.6503 56.1391C64.7469 56.1352 64.7942 56.1117 64.7929 56.0697H64.7939C65.0536 55.2308 65.3763 54.4139 65.7626 53.6195C66.2107 52.6992 66.7548 51.874 67.3945 51.1439C68.0476 50.3982 69.0923 49.664 70.1044 49.557C70.6067 49.5042 71.048 49.538 71.4287 49.6576C71.756 49.7607 72.0263 49.8187 72.3203 49.9809C73.233 50.4869 73.9387 51.1552 74.4365 51.9857C74.6426 52.3293 74.8792 52.7987 75.1464 53.393C75.2208 53.4273 75.2641 53.4213 75.2763 53.3744H75.2773C75.6363 52.5093 76.0688 51.6824 76.5761 50.8949C77.1191 50.0515 77.8001 49.3574 78.6181 48.8119C79.2647 48.3804 80.0017 48.2038 80.829 48.2826C81.6426 48.36 82.4461 48.897 82.956 49.5043C83.1846 49.7769 83.4001 50.0778 83.6015 50.4076L83.7978 50.7475L83.8222 50.7689C83.8473 50.7861 83.8743 50.7901 83.9033 50.7816C84.4456 50.1304 84.9518 49.629 85.4111 48.7982C85.8598 47.9854 86.0645 47.1283 86.0244 46.2269C85.9737 45.1003 85.431 43.9059 84.8496 42.8871C84.4056 42.1063 83.7493 41.4559 83.041 40.7553C82.6184 40.3372 82.2164 39.9946 81.8359 39.7279C80.5341 38.8164 79.3777 38.1476 78.3681 37.723C76.6502 37.0006 74.9542 36.4767 73.2802 36.1508C72.2955 35.9592 71.0769 35.7706 69.6249 35.5853C69.0396 35.5109 68.4552 35.5081 67.9882 35.4603C67.5211 35.4133 67.1943 35.3925 67.0078 35.3988C66.5723 35.4141 66.1756 35.3344 65.6972 35.3373C64.8628 35.3421 64.0662 35.3173 63.207 35.3822C62.5101 35.4344 61.986 35.4767 61.6347 35.5092C59.308 35.725 57.0539 36.168 54.873 36.8383C53.2092 37.3494 51.6367 38.0275 50.1562 38.8734C50.1191 38.8948 50.0769 38.9069 50.0341 38.9076C49.9915 38.9082 49.9496 38.8974 49.9121 38.8773C48.3009 38.0186 46.578 37.2997 44.7441 36.7191C44.2712 36.5696 43.7062 36.4219 43.0488 36.2768C42.2161 36.0928 41.6443 35.9734 41.3349 35.9193C39.7317 35.6387 38.3811 35.4722 37.2831 35.4193C36.8987 35.4009 36.6167 35.3859 36.4384 35.3744C36.0191 35.349 35.7385 35.3363 35.5966 35.3363C34.7102 35.3363 34.1132 35.3322 33.8056 35.3246C33.7701 35.3233 33.7341 35.3261 33.6992 35.3324C33.5146 35.3674 33.3406 35.3879 33.1777 35.3949C32.5068 35.4242 31.8775 35.4658 31.29 35.518C30.6668 35.5727 29.6936 35.7017 28.371 35.9066C26.1445 36.2504 23.9285 36.8775 21.9091 37.6957C21.3548 37.9204 20.6543 38.2561 19.8085 38.7035C19.0415 39.109 18.3895 39.5291 17.8535 39.9633C16.1109 41.3774 14.7214 43.004 14.1542 45.098C13.9717 45.7746 13.9583 46.5183 14.1142 47.3285C14.289 48.2384 14.7369 49.0732 15.3193 49.7816C15.619 50.1463 15.8981 50.4855 16.1552 50.7992C16.163 50.8085 16.1732 50.8162 16.1845 50.8207C16.1957 50.8251 16.2078 50.826 16.2197 50.8246C16.2318 50.8231 16.2441 50.8191 16.2539 50.8119C16.2636 50.8047 16.2713 50.7946 16.2763 50.7836C16.7442 49.7573 17.9201 48.3216 19.166 48.3002C19.2869 48.2983 19.4154 48.2816 19.5498 48.2504C19.5799 48.2435 19.6105 48.2407 19.6406 48.2426C20.4045 48.2827 21.1117 48.5504 21.7617 49.0443C22.3657 49.5033 22.8879 50.0312 23.3271 50.6283C23.9457 51.4698 24.4414 52.3823 24.8144 53.3656C24.8933 53.3364 24.9506 53.2684 24.9863 53.1615C25.3434 52.3085 25.8085 51.5706 26.3808 50.9486C26.5317 50.7844 26.8047 50.5642 27.1992 50.2875C27.807 49.8611 28.4955 49.6145 29.2656 49.5482C30.4018 49.4508 31.5096 50.0077 32.3222 50.8002C33.1898 51.6481 33.8804 52.6511 34.3935 53.809C34.5507 54.1642 34.792 54.7593 35.1171 55.5941C35.1701 55.7296 35.1985 55.8448 35.2021 55.9398L35.1972 56.0287C35.3458 56.0482 35.4154 56.0395 35.4052 56.0023L35.4042 56.0014C35.6964 54.7365 36.2052 53.5668 36.9296 52.4935C37.5884 51.5185 38.4303 50.7625 39.455 50.226C40.2236 49.8231 41.2071 49.5539 42.1074 49.5424C43.4378 49.5265 44.6402 49.9029 45.7128 50.6713C46.6299 51.3287 47.3635 52.1388 47.914 53.101C48.5245 54.1685 48.933 55.2338 49.1386 56.2963C49.3684 57.4809 49.5035 58.4106 49.5449 59.0853C49.5665 59.444 49.5829 59.6826 49.5937 59.8012C49.6777 60.7426 49.6605 61.796 49.6357 62.4711C49.5927 63.6731 48.9495 64.5038 47.8613 65.0404C46.9991 65.4663 45.9704 65.6215 45.0576 65.7514C44.6249 65.8131 44.2129 65.8479 43.8222 65.8568C42.6942 65.881 41.5385 65.8814 40.3564 65.8578C39.647 65.8425 38.9057 65.7307 38.1982 65.6381C36.8782 65.4655 35.7821 64.8897 34.9101 63.9096C34.8866 63.8832 34.8556 63.8642 34.8212 63.8559C34.7868 63.8475 34.7498 63.85 34.7167 63.8627C33.6112 64.2783 32.4592 64.5481 31.2607 64.6723C29.9774 64.8047 28.7312 64.7944 27.5224 64.641C27.2264 64.6041 26.809 64.5131 26.2705 64.3685C25.203 64.0821 24.4672 63.3611 23.9726 62.3949C23.9511 62.3531 23.9147 62.3206 23.871 62.3031C23.8271 62.2857 23.7778 62.2843 23.7333 62.3002C22.896 62.5961 21.9376 62.7899 20.9619 62.8119C20.1623 62.8304 19.54 62.8266 19.0957 62.8012C17.8229 62.7276 16.2529 62.2967 15.5664 61.0805C15.3308 60.6635 15.1623 60.2789 15.0605 59.9281C14.8823 59.3101 14.7922 58.6063 14.791 57.8178C14.7891 56.716 14.8771 55.6152 15.0546 54.516C15.1934 53.6576 15.394 52.8392 15.6562 52.0609C15.6718 52.0142 15.6715 51.9629 15.6552 51.9164C15.639 51.8701 15.6075 51.8309 15.5664 51.8041C14.5294 51.1376 13.7433 49.931 13.2802 48.8119C13.0291 48.2066 12.893 47.4667 12.8271 46.8031C12.6772 45.2782 13.1603 43.8705 13.8984 42.5404C14.3787 41.6753 15.1479 40.8452 15.8134 40.1195C16.068 39.8409 16.4207 39.5253 16.871 39.1723C17.8316 38.4198 18.8025 37.7917 19.7841 37.2894C21.5238 36.3983 23.2461 35.7418 24.9501 35.3197C26.6338 34.9028 28.2115 34.6112 29.6826 34.4437C30.1671 34.389 31.0539 34.3051 32.3427 34.1937C32.8888 34.147 33.4257 34.1915 34.0654 34.1351ZM37.6376 65.4467H37.6386H37.6376ZM53.5927 64.4359C53.917 64.5431 54.243 64.6165 54.5712 64.6557C55.21 64.732 55.7163 64.8119 56.2548 64.8109H56.2558C56.1214 64.8112 55.9883 64.8057 55.8554 64.7973C55.4559 64.7718 55.0514 64.713 54.5722 64.6557C54.4903 64.6459 54.4078 64.6345 54.3261 64.6205C54.0805 64.5784 53.8361 64.5164 53.5927 64.4359ZM43.2031 50.8832C42.3158 50.6903 41.476 50.7391 40.6835 51.0287C38.9868 51.6484 37.5723 53.4061 36.9306 55.06C36.6938 55.671 36.5113 56.2724 36.3828 56.8637C36.1326 58.0182 35.9617 59.1966 35.8701 60.3988C35.8051 61.2486 35.7782 61.8481 35.791 62.1957C35.805 62.5736 35.85 62.8464 35.9257 63.0131C36.3182 63.8731 37.5881 64.3493 38.455 64.4935C39.3284 64.6393 39.9654 64.714 40.3652 64.7172C41.2691 64.7255 42.1685 64.7312 43.0634 64.7338C43.877 64.7357 44.3928 64.633 45.2656 64.5394C45.6087 64.5025 46.1107 64.3702 46.7714 64.143C47.2959 63.9622 47.7223 63.6886 48.0507 63.3226C48.234 63.1184 48.3415 62.9317 48.372 62.7631C48.4655 62.2546 48.498 61.6775 48.4706 61.0316C48.4019 59.4192 48.2068 57.8805 47.8847 56.4164C47.5722 54.9976 46.9428 53.7434 45.997 52.6537C45.278 51.8268 44.2935 51.12 43.2031 50.8832ZM58.1191 50.7572C57.6732 50.7521 57.3502 50.7627 57.1503 50.7894C56.1783 50.9174 55.1919 51.5319 54.4843 52.1898C54.1101 52.5374 53.6986 53.0464 53.2499 53.7172C53.115 53.9183 52.8547 54.4441 52.4697 55.2943C52.4514 55.3348 52.438 55.3773 52.4296 55.4203C52.3666 55.7477 52.2102 56.0382 52.1347 56.3646C51.9562 57.1295 51.835 57.9606 51.7089 58.8324C51.645 59.2697 51.632 59.753 51.5986 60.0394C51.5241 60.6771 51.538 61.5065 51.5361 61.9516C51.5291 62.8528 51.9147 63.5166 52.6923 63.9418C53.3251 64.2874 53.9662 64.4986 54.6142 64.5756C55.2452 64.651 55.7445 64.7298 56.2763 64.7279C56.7524 64.7279 57.453 64.7296 58.3779 64.7328C59.4397 64.7376 60.3488 64.6394 61.3886 64.4809C62.071 64.3771 62.7077 64.1458 63.2978 63.7855C63.9851 63.3648 64.2989 62.778 64.2392 62.0258C64.2039 61.5875 64.2056 61.3627 64.1884 60.724C64.1684 60.0213 64.0352 59.1237 63.954 58.4935C63.8401 57.6196 63.6194 56.6761 63.291 55.6635C62.8129 54.1867 61.9937 52.9412 60.8339 51.9271C60.1569 51.337 59.0892 50.7677 58.1191 50.7572ZM32.1279 64.475V64.476V64.475ZM46.8281 64.2182H46.829H46.8281ZM51.6728 63.056C51.8219 63.3635 52.0473 63.6243 52.3486 63.8393C52.0474 63.6242 51.8218 63.3635 51.6728 63.056ZM26.6054 63.1957C26.8975 63.2997 27.1939 63.3702 27.4619 63.4105H27.4628C27.1951 63.3703 26.8983 63.2996 26.6064 63.1957H26.6054ZM68.1005 63.4613H68.0996H68.1005ZM70.4091 50.8373C69.6994 50.9748 69.0841 51.2996 68.5634 51.8119C68.1834 52.1862 67.8959 52.5115 67.7011 52.7865C67.3046 53.3441 66.9485 53.9595 66.6328 54.6322C66.058 55.8569 65.6088 57.1427 65.2861 58.4896C65.2664 58.5718 65.2749 58.7551 65.3105 59.0394L65.3671 59.766L65.4931 62.5219C65.494 62.5416 65.5009 62.5608 65.5117 62.5775C65.5224 62.5942 65.5369 62.6083 65.5546 62.6176C66.2382 62.9651 67.0726 63.1682 67.8134 63.3314C68.2229 63.4212 68.5852 63.4021 68.9775 63.4594C69.5991 63.551 70.3064 63.4997 70.9873 63.5141C71.1473 63.5172 71.562 63.4824 72.2304 63.4105C72.6707 63.3628 73.0336 63.2901 73.3193 63.1928C74.2254 62.8834 74.7657 62.5683 75.1581 61.7328C75.2657 61.5043 75.3182 61.1485 75.3144 60.6654C75.2953 58.4987 74.9525 56.4437 74.2861 54.5004C74.0417 53.7901 73.7301 53.147 73.3515 52.5717C72.8216 51.7668 72 50.9497 71.0175 50.8666C70.6649 50.8367 70.462 50.8271 70.4091 50.8373ZM30.9912 51.3646C30.1052 50.7469 29.0909 50.5957 28.1581 51.1244C27.5483 51.4701 27.0201 52.0082 26.5732 52.7377C26.2912 53.1979 26.0849 53.6017 25.955 53.9486C25.4121 55.3954 25.0666 56.8846 24.9189 58.4154C24.8324 59.3093 24.7877 59.8868 24.7851 60.1478C24.7806 60.6654 24.8908 61.2321 25.1162 61.8471C25.2638 62.2485 25.5349 62.5581 25.9287 62.7758C26.4767 63.0781 27.0401 63.2711 27.6181 63.3539C28.8295 63.5264 30.0708 63.5554 31.3408 63.4408C32.4902 63.3367 33.4243 63.0653 34.4746 62.7025C34.4962 62.695 34.5148 62.6802 34.5283 62.6615C34.5417 62.6427 34.5495 62.6202 34.5498 62.5971C34.5561 61.3228 34.6168 60.0279 34.7314 58.7123C34.7447 58.5545 34.7307 58.395 34.6904 58.2416C34.2578 56.6164 33.6747 54.9812 32.8544 53.5365C32.3714 52.684 31.792 51.9232 30.9912 51.3646ZM24.497 63.101V63.1V63.101ZM34.541 62.7318C34.5288 62.7418 34.5146 62.7484 34.5009 62.7562C34.5389 62.7343 34.5732 62.7061 34.5976 62.6693L34.541 62.7318ZM65.4433 62.5795H65.4423C65.4498 62.6085 65.4664 62.6342 65.4892 62.6527H65.4902C65.4674 62.6342 65.4508 62.6084 65.4433 62.5795ZM51.454 61.9955C51.4536 62.0527 51.4553 62.1091 51.458 62.1644C51.4553 62.1092 51.4536 62.0527 51.454 61.9955C51.4555 61.7703 51.4527 61.4478 51.4589 61.101V61.1C51.4527 61.4473 51.4555 61.7701 51.454 61.9955ZM79.4794 61.7455H79.4804H79.4794ZM80.7509 49.6703C78.5854 49.2122 77.0164 52.5069 76.2822 54.0375C76.1155 54.3849 75.9796 54.7088 75.874 55.0092C75.8359 55.117 75.8289 55.2335 75.8544 55.3451C76.2758 57.1982 76.4855 59.0782 76.4824 60.9848C76.4824 61.0047 76.4883 61.0243 76.4999 61.0404C76.5116 61.0565 76.528 61.0686 76.5468 61.0746C77.0739 61.2493 77.6098 61.4086 78.1865 61.4965C78.8033 61.5893 79.1418 61.6374 79.2021 61.64C79.9316 61.6712 80.658 61.6307 81.3798 61.5199C82.2127 61.3913 82.8752 61.0438 83.3671 60.4769C83.7567 60.0275 83.9695 59.5078 84.0058 58.9184C84.0383 58.3789 84.0923 58.0197 84.0732 57.5795C84.014 56.2376 83.8356 54.9365 83.539 53.6762C83.2914 52.6233 82.8787 51.6517 82.3007 50.7611C81.9182 50.1723 81.4015 49.8084 80.7509 49.6703ZM20.0898 49.682C18.9718 49.4636 18.0895 50.1109 17.5634 51.06C17.2302 51.6605 16.9764 52.1771 16.7578 52.8588C16.428 53.8874 16.2162 54.9144 16.122 55.9398C16.1115 56.0554 16.0661 56.1835 16.0556 56.2904C16.0359 56.5011 16.028 57.2014 16.0312 58.391C16.0322 58.8216 16.1261 59.3118 16.2626 59.6957C16.6016 60.6562 17.5615 61.3483 18.5478 61.4935C19.64 61.6549 20.5616 61.7198 21.5927 61.5404C22.2697 61.422 22.9023 61.3042 23.5029 61.0512C23.518 61.0449 23.5317 61.0358 23.5429 61.0238C23.5542 61.0117 23.5629 60.9967 23.5683 60.9809C23.5836 60.9357 23.5914 60.9023 23.5908 60.8812C23.5411 59.0375 23.8103 57.1314 24.1865 55.2953C24.2294 55.0855 24.2031 54.9765 24.124 54.7953C23.7987 54.0518 23.4488 53.3271 23.0751 52.6225C22.4211 51.3889 21.4379 49.9465 20.0898 49.682ZM18.4843 61.5629H18.4853H18.4843ZM24.8164 61.1439H24.8173H24.8164ZM16.8437 60.7172H16.8447H16.8437ZM76.4423 61.0844H76.4433H76.4423ZM65.3515 60.1889C65.3454 60.4703 65.3481 60.7515 65.3603 61.0326L65.3496 60.6107C65.348 60.4701 65.3484 60.3295 65.3515 60.1889ZM24.7226 59.6586C24.7046 59.8624 24.6996 60.0639 24.706 60.2631C24.6996 60.0639 24.7056 59.8624 24.7236 59.6586H24.7226ZM51.5624 59.5043C51.5467 59.7182 51.5347 59.913 51.5175 60.058H51.5185C51.5357 59.913 51.5477 59.7181 51.5634 59.5043H51.5624ZM16.3046 54.2416C16.2551 54.475 16.2095 54.7129 16.1699 54.9555C16.0438 55.7276 15.9749 56.2374 15.9628 56.4838C15.9202 57.3366 15.9256 58.1042 15.9785 58.7865C15.9991 59.0548 16.0472 59.3062 16.121 59.5414C16.0472 59.3063 15.9991 59.0548 15.9785 58.7865C15.9653 58.6161 15.9554 58.4403 15.9482 58.2592C15.9264 57.7154 15.9309 57.1236 15.9628 56.4838C15.9749 56.2374 16.0448 55.7276 16.1708 54.9555C16.2105 54.7129 16.2551 54.475 16.3046 54.2416ZM65.2294 58.3607H65.2304H65.2294ZM14.8691 58.056H14.8701H14.8691ZM76.0537 56.8139C76.0304 56.6697 76.0055 56.5276 75.9804 56.3871C76.0055 56.5276 76.0304 56.6697 76.0537 56.8139ZM52.3779 55.3148C52.3713 55.336 52.3663 55.3576 52.3623 55.3793C52.3463 55.4622 52.3247 55.5431 52.2998 55.6225C52.3247 55.5431 52.3462 55.4622 52.3623 55.3793C52.3663 55.3576 52.3713 55.336 52.3779 55.3148ZM66.3574 55.0394H66.3583H66.3574ZM36.0468 54.2807C36.0008 54.3874 35.9566 54.4948 35.914 54.6029C35.9992 54.3866 36.0915 54.1731 36.1904 53.9623L36.0468 54.2807ZM76.1855 54.058H76.1865H76.1855ZM67.3085 53.2328C67.1901 53.4194 67.0765 53.612 66.9667 53.809C67.0764 53.612 67.1901 53.4194 67.3085 53.2328ZM46.8535 53.6664C46.8061 53.5908 46.7569 53.5161 46.707 53.4418C46.8067 53.5903 46.9015 53.7412 46.9912 53.8949L46.8535 53.6664ZM55.3554 51.3998C55.0229 51.6133 54.7141 51.8564 54.4453 52.1059C54.0659 52.4579 53.6484 52.9739 53.1933 53.6537H53.1943C53.6493 52.9741 54.0669 52.4588 54.4462 52.1068C54.7152 51.8572 55.0236 51.6134 55.3564 51.3998H55.3554ZM33.9755 53.1283V53.1293V53.1283ZM74.997 53.2758C75.0259 53.3239 75.0569 53.3558 75.0878 53.3744C75.0402 53.3456 74.994 53.2827 74.9511 53.184L74.997 53.2758ZM25.0302 53.2279C25.025 53.2312 25.0188 53.2326 25.0126 53.2328C25.0065 53.233 25.0005 53.2318 24.9951 53.2289C24.9896 53.226 24.9847 53.2215 24.9814 53.2162V53.2172C24.9847 53.2223 24.9897 53.226 24.9951 53.2289C25.0005 53.2318 25.0065 53.234 25.0126 53.2338C25.0188 53.2336 25.025 53.2312 25.0302 53.2279C25.0354 53.2247 25.04 53.2196 25.0429 53.2143C25.04 53.2197 25.0355 53.2247 25.0302 53.2279ZM16.6601 52.8959H16.6611H16.6601ZM67.6777 52.6908H67.6787H67.6777ZM32.9726 51.641C33.1005 51.8006 33.2229 51.962 33.3398 52.1254C33.2229 51.962 33.1005 51.8006 32.9726 51.641ZM68.5263 51.7299H68.5273H68.5263ZM27.2861 51.6928H27.2871H27.2861ZM26.4023 51.0678C26.2843 51.1919 26.1746 51.3213 26.0742 51.4545V51.4555C26.1747 51.3221 26.2842 51.1921 26.4023 51.0678ZM72.3749 51.3725C72.4312 51.4201 72.4859 51.4692 72.54 51.5189C72.4858 51.4691 72.4313 51.4192 72.3749 51.3715C72.3371 51.3393 72.2985 51.3089 72.2597 51.2797C72.2987 51.3091 72.337 51.3402 72.3749 51.3725ZM78.2705 50.6449C78.2223 50.6976 78.1751 50.751 78.1298 50.8051C78.0236 50.932 77.9327 51.0448 77.8564 51.143C77.9327 51.0448 78.0236 50.932 78.1298 50.8051C78.1751 50.751 78.2223 50.6976 78.2705 50.6449ZM44.0263 51.0521C44.1563 51.1091 44.284 51.1722 44.4091 51.2406C44.284 51.1722 44.1563 51.1091 44.0263 51.0521ZM32.1191 50.7162C32.2261 50.8108 32.329 50.9098 32.4277 51.0121C32.329 50.9098 32.2261 50.8109 32.1191 50.7162ZM70.1708 50.807C69.8585 50.8903 69.5651 51.0101 69.291 51.1644C69.565 51.0101 69.8585 50.8903 70.1708 50.807ZM73.4023 50.8666H73.4033H73.4023ZM57.5449 50.6615C57.3809 50.6669 57.2478 50.6755 57.1464 50.6889C56.9007 50.7213 56.6541 50.7847 56.4111 50.8715C56.5936 50.8063 56.7782 50.7546 56.9628 50.7191C57.0242 50.7073 57.0861 50.6969 57.1474 50.6889C57.2487 50.6755 57.3812 50.6669 57.5449 50.6615ZM28.957 50.7475C28.8495 50.7671 28.7425 50.7946 28.6357 50.8295C28.7425 50.7945 28.8495 50.7671 28.957 50.7475ZM43.2206 50.7885H43.2216H43.2206ZM82.8886 49.5551C83.1992 49.9077 83.466 50.3126 83.707 50.7396C83.466 50.3126 83.1992 49.9077 82.8886 49.5551ZM77.0595 50.3793C77.0196 50.4294 76.9811 50.4806 76.9423 50.5316C77.0357 50.4088 77.1315 50.288 77.2314 50.1703L77.0595 50.3793ZM21.4101 50.2748C21.451 50.3089 21.4898 50.3451 21.5292 50.3803C21.4081 50.2721 21.2817 50.1665 21.1484 50.0717L21.4101 50.2748ZM72.3417 50.0902H72.3427H72.3417ZM78.9081 50.0668V50.0678V50.0668ZM80.6855 49.56C80.8199 49.5825 80.9557 49.6188 81.0917 49.6732C81.2106 49.721 81.3232 49.7777 81.4306 49.8402C81.3232 49.7777 81.2107 49.721 81.0917 49.6732C80.9557 49.6188 80.8199 49.5825 80.6855 49.56ZM71.2246 49.6976H71.2255H71.2246ZM29.8486 49.6439V49.643V49.6439ZM20.0009 49.5726C20.0887 49.584 20.1769 49.6036 20.2646 49.6283C20.1768 49.6036 20.0888 49.584 20.0009 49.5726ZM19.5195 49.556C19.5947 49.5508 19.6719 49.5493 19.7519 49.5521C19.6719 49.5493 19.5947 49.5508 19.5195 49.556ZM78.9501 48.7416C78.8393 48.7994 78.7307 48.8616 78.624 48.9281C78.7307 48.8616 78.8393 48.7994 78.9501 48.7416ZM81.8085 48.682H81.8095H81.8085ZM79.5849 48.4643C79.4278 48.5198 79.2748 48.5839 79.1249 48.6547C79.2748 48.5839 79.4278 48.5198 79.5849 48.4643ZM80.8945 48.3607V48.3598C80.8826 48.3579 80.8702 48.3578 80.8583 48.3578C80.8704 48.3578 80.8825 48.3588 80.8945 48.3607ZM13.4267 43.7367H13.4277H13.4267ZM39.2705 35.5355H39.2714H39.2705Z" fill="#667781"/>
<path d="M54.4841 52.1894C55.1917 51.5315 56.178 50.9175 57.1501 50.7895C57.3499 50.7628 57.673 50.752 58.1192 50.7571C59.0894 50.7676 60.1569 51.3367 60.8339 51.9268C61.9937 52.9408 62.8127 54.1863 63.2907 55.6631C63.6192 56.6759 63.8404 57.6193 63.9544 58.4933C64.0355 59.1235 64.1683 60.0211 64.1883 60.7239C64.2055 61.3627 64.2036 61.5871 64.2389 62.0253C64.2988 62.7778 63.9849 63.3644 63.2974 63.7851C62.7073 64.1454 62.0711 64.3775 61.3887 64.4812C60.3488 64.6397 59.4398 64.7371 58.378 64.7324C57.4531 64.7292 56.7525 64.7276 56.2764 64.7276C55.7445 64.7295 55.2451 64.6512 54.614 64.5758C53.9659 64.4987 53.3256 64.2874 52.6928 63.9417C51.9149 63.5165 51.5295 62.8532 51.5365 61.9518C51.5384 61.5069 51.5241 60.6771 51.5985 60.0392C51.632 59.7528 51.6453 59.2696 51.7093 58.8323C51.8353 57.9605 51.9566 57.1298 52.1352 56.365C52.2106 56.0384 52.3662 55.7481 52.4293 55.4206C52.4376 55.3775 52.451 55.3352 52.4694 55.2946C52.8545 54.4441 53.1145 53.9183 53.2495 53.7171C53.6983 53.0462 54.1098 52.5369 54.4841 52.1894Z" fill="#FFFFFD"/>
<path d="M35.8702 60.3993C35.9619 59.1968 36.1328 58.0182 36.383 56.8635C36.5116 56.2721 36.6943 55.6709 36.9311 55.0598C37.5728 53.406 38.9869 51.6481 40.6837 51.0284C41.4762 50.7387 42.3162 50.6903 43.2035 50.8832C44.294 51.12 45.2784 51.8266 45.9974 52.6535C46.9434 53.7433 47.5726 54.9977 47.8852 56.4166C48.2073 57.8807 48.4027 59.419 48.4715 61.0314C48.4989 61.6776 48.4658 62.2549 48.3722 62.7636C48.3416 62.9322 48.2347 63.1188 48.0513 63.3231C47.7229 63.6891 47.2964 63.9625 46.7718 64.1433C46.1111 64.3706 45.6091 64.5027 45.266 64.5396C44.3933 64.6332 43.8777 64.7353 43.0641 64.7334C42.1691 64.7309 41.2696 64.7255 40.3657 64.7172C39.9659 64.714 39.3294 64.6395 38.456 64.4937C37.589 64.3496 36.319 63.8731 35.9266 63.0128C35.8508 62.846 35.806 62.5735 35.7919 62.1954C35.7792 61.8478 35.8053 61.2491 35.8702 60.3993Z" fill="#FFFFFD"/>
<path d="M34.5493 62.5974C34.549 62.6206 34.5416 62.6432 34.5281 62.662C34.5146 62.6808 34.4956 62.6949 34.4738 62.7024C33.4235 63.0653 32.4897 63.3364 31.34 63.4405C30.07 63.5551 28.8294 63.5261 27.618 63.3536C27.04 63.2709 26.4769 63.0783 25.9288 62.7759C25.5348 62.5582 25.2639 62.2485 25.1163 61.8469C24.8909 61.2319 24.7805 60.6657 24.7849 60.1482C24.7875 59.8872 24.832 59.3095 24.9186 58.4151C25.0663 56.8842 25.4116 55.3952 25.9546 53.9483C26.0845 53.6014 26.2904 53.1978 26.5724 52.7375C27.0193 52.008 27.5476 51.4705 28.1575 51.1248C29.0904 50.5958 30.1044 50.7467 30.9905 51.3645C31.7917 51.9231 32.3712 52.6841 32.8544 53.5368C33.6746 54.9815 34.2571 56.6162 34.6896 58.2413C34.7301 58.3949 34.744 58.5541 34.7307 58.7121C34.6161 60.0279 34.5556 61.323 34.5493 62.5974Z" fill="#FFFFFD"/>
<path d="M65.3672 59.7662L65.3099 59.0396C65.2743 58.755 65.2663 58.5717 65.2861 58.4896C65.6088 57.1426 66.0576 55.8567 66.6324 54.632C66.9481 53.9591 67.3043 53.3439 67.7009 52.7862C67.8957 52.5112 68.1831 52.1866 68.5631 51.8123C69.0838 51.2998 69.6991 50.9749 70.4089 50.8374C70.4617 50.8272 70.6644 50.8371 71.0171 50.867C71.9997 50.95 72.8208 51.7664 73.3508 52.5714C73.7295 53.1469 74.0411 53.7898 74.2856 54.5002C74.9521 56.4437 75.2949 58.4988 75.314 60.6657C75.3178 61.1489 75.2659 61.5047 75.1583 61.7332C74.7659 62.5687 74.2254 62.8838 73.3193 63.1932C73.0334 63.2906 72.6703 63.3632 72.2298 63.4109C71.5607 63.4828 71.1463 63.5172 70.9866 63.514C70.3057 63.4997 69.5991 63.5513 68.9775 63.4596C68.5851 63.4023 68.2232 63.4214 67.8136 63.3317C67.0726 63.1684 66.2381 62.965 65.5544 62.6174C65.5366 62.6081 65.5217 62.5944 65.5109 62.5776C65.5002 62.5609 65.4941 62.5417 65.4933 62.5219L65.3672 59.7662Z" fill="#FFFFFD"/>
<path opacity="0.7" d="M66 48L72 56.8262H69.9131V67.1738H72L66 76L60 67.1738H62.0869V56.8262H60L66 48Z" fill="#CF1039"/>
</g>
</svg>
