<svg width="100" height="100" viewBox="0 0 100 100" fill="none" xmlns="http://www.w3.org/2000/svg">
<circle cx="50" cy="50" r="50" fill="white"/>
<mask id="mask0_500_6530" style="mask-type:alpha" maskUnits="userSpaceOnUse" x="10" y="30" width="80" height="40">
<rect x="10" y="30" width="80" height="40" fill="#D9D9D9"/>
</mask>
<g mask="url(#mask0_500_6530)">
<mask id="mask1_500_6530" style="mask-type:alpha" maskUnits="userSpaceOnUse" x="10" y="30" width="80" height="40">
<rect x="10" y="30" width="80" height="40" fill="#D9D9D9"/>
</mask>
<g mask="url(#mask1_500_6530)">
<path d="M76.4648 30.9521C77.7822 30.6485 79.3866 30.447 81.4287 30.749C83.6953 31.0851 85.5667 32.3148 86.7998 34.3721C88.0408 36.4426 88.6565 39.3912 88.2998 43.1699C87.9304 47.078 86.5961 50.4809 85.249 53.8877C83.9108 57.2722 82.5526 60.6753 82.2607 64.4688C82.1267 66.2099 81.8026 67.4004 81.4102 68.1738C81.0192 68.9442 80.5852 69.2574 80.2354 69.3574C79.8873 69.4568 79.5009 69.3801 79.124 69.1182C78.7438 68.8538 78.4053 68.4184 78.207 67.8887C77.9779 67.2757 77.7056 66.3895 77.3848 65.3701C77.0674 64.3619 76.707 63.24 76.3086 62.1943C75.9128 61.1554 75.4675 60.1564 74.9707 59.4082C74.7222 59.034 74.4442 58.6968 74.1318 58.4482C73.8169 58.1978 73.4359 58.0138 73 58.0137C72.5639 58.0137 72.1822 58.1976 71.8672 58.4482C71.5548 58.6968 71.2768 59.0339 71.0283 59.4082C70.5316 60.1564 70.0862 61.1553 69.6904 62.1943C69.2922 63.2399 68.9316 64.3619 68.6143 65.3701C68.2933 66.3895 68.0214 67.2758 67.792 67.8887C67.594 68.4183 67.256 68.8539 66.876 69.1182C66.4992 69.3801 66.1127 69.4569 65.7646 69.3574C65.4148 69.2574 64.9808 68.9443 64.5898 68.1738C64.1974 67.4004 63.8733 66.2099 63.7393 64.4688C63.4473 60.6753 62.0892 57.2722 60.751 53.8877C59.4039 50.4809 58.0696 47.078 57.7002 43.1699C57.3429 39.3912 57.959 36.4426 59.2002 34.3721C60.4334 32.3148 62.3047 31.0851 64.5713 30.749C66.6135 30.447 68.218 30.6485 69.5352 30.9521C70.2011 31.1057 70.7893 31.2846 71.3477 31.4453C71.8932 31.6024 72.4271 31.7477 72.9297 31.8066L72.999 31.8145L73.0693 31.8066C73.5721 31.7477 74.1057 31.6023 74.6514 31.4453C75.21 31.2846 75.7987 31.1057 76.4648 30.9521Z" fill="white" stroke="#787B83" stroke-width="1.2"/>
<path d="M30.4648 30.9521C31.7822 30.6485 33.3866 30.447 35.4287 30.749C37.6953 31.0851 39.5667 32.3148 40.7998 34.3721C42.0408 36.4426 42.6565 39.3912 42.2998 43.1699C41.9304 47.078 40.5961 50.4809 39.249 53.8877C37.9108 57.2722 36.5526 60.6753 36.2607 64.4688C36.1267 66.2099 35.8026 67.4004 35.4102 68.1738C35.0192 68.9442 34.5852 69.2574 34.2354 69.3574C33.8873 69.4568 33.5009 69.3801 33.124 69.1182C32.7438 68.8538 32.4053 68.4184 32.207 67.8887C31.9779 67.2757 31.7056 66.3895 31.3848 65.3701C31.0674 64.3619 30.707 63.24 30.3086 62.1943C29.9128 61.1554 29.4675 60.1564 28.9707 59.4082C28.7222 59.034 28.4442 58.6968 28.1318 58.4482C27.8169 58.1978 27.4359 58.0138 27 58.0137C26.5639 58.0137 26.1822 58.1976 25.8672 58.4482C25.5548 58.6968 25.2768 59.0339 25.0283 59.4082C24.5316 60.1564 24.0862 61.1553 23.6904 62.1943C23.2922 63.2399 22.9316 64.3619 22.6143 65.3701C22.2933 66.3895 22.0214 67.2758 21.792 67.8887C21.594 68.4183 21.256 68.8539 20.876 69.1182C20.4992 69.3801 20.1127 69.4569 19.7646 69.3574C19.4148 69.2574 18.9808 68.9443 18.5898 68.1738C18.1974 67.4004 17.8733 66.2099 17.7393 64.4688C17.4473 60.6753 16.0892 57.2722 14.751 53.8877C13.4039 50.4809 12.0696 47.078 11.7002 43.1699C11.3429 39.3912 11.959 36.4426 13.2002 34.3721C14.4334 32.3148 16.3047 31.0851 18.5713 30.749C20.6135 30.447 22.218 30.6485 23.5352 30.9521C24.2011 31.1057 24.7893 31.2846 25.3477 31.4453C25.8932 31.6024 26.4271 31.7477 26.9297 31.8066L26.999 31.8145L27.0693 31.8066C27.5721 31.7477 28.1057 31.6023 28.6514 31.4453C29.21 31.2846 29.7987 31.1057 30.4648 30.9521Z" fill="url(#paint0_linear_500_6530)" stroke="#787B83" stroke-width="1.2"/>
<mask id="mask2_500_6530" style="mask-type:alpha" maskUnits="userSpaceOnUse" x="11" y="30" width="33" height="39">
<path d="M30.5996 31.5361C31.8621 31.2451 33.3892 31.0532 35.3408 31.3418C37.4286 31.6513 39.1439 32.7756 40.2852 34.6797C41.4423 36.6104 42.0506 39.4208 41.7021 43.1123C41.3419 46.9236 40.0407 50.2511 38.6904 53.666C37.3578 57.0362 35.962 60.5232 35.6621 64.4219C35.5315 66.118 35.2192 67.223 34.875 67.9014C34.534 68.5732 34.2131 68.7396 34.0713 68.7803C33.9332 68.8197 33.7305 68.8073 33.4668 68.624C33.2302 68.4596 32.995 68.1854 32.833 67.833L32.7686 67.6777C32.5467 67.084 32.2826 66.2197 31.958 65.1885C31.6405 64.1797 31.2754 63.0432 30.8701 61.9795C30.47 60.9292 30.005 59.8809 29.4707 59.0762C29.2032 58.6733 28.8846 58.2796 28.5049 57.9775C28.1684 57.7099 27.7369 57.4786 27.2246 57.4248L27 57.4131C26.3881 57.4131 25.8788 57.6716 25.4941 57.9775C25.1145 58.2796 24.7968 58.6733 24.5293 59.0762C23.9951 59.8809 23.53 60.9291 23.1299 61.9795C22.7247 63.0431 22.3595 64.1799 22.042 65.1885C21.7984 65.9621 21.5887 66.6419 21.4053 67.1836L21.2305 67.6777C21.0708 68.1048 20.8033 68.4372 20.5332 68.625C20.27 68.8079 20.0676 68.8196 19.9297 68.7803C19.7881 68.7398 19.4663 68.574 19.125 67.9014C18.7808 67.2229 18.4685 66.118 18.3379 64.4219C18.0379 60.5232 16.6422 57.0362 15.3096 53.666C13.9593 50.2511 12.6581 46.9236 12.2979 43.1123C11.9488 39.4208 12.5576 36.6103 13.7148 34.6797C14.8562 32.7757 16.5714 31.6514 18.6592 31.3418L19.0195 31.293C20.8004 31.0771 22.2168 31.2633 23.4004 31.5361C24.0462 31.685 24.6139 31.8571 25.1816 32.0205C25.7237 32.1765 26.3016 32.3359 26.8594 32.4014L26.999 32.418L27.1396 32.4014C27.6976 32.3359 28.2752 32.1765 28.8174 32.0205C29.3854 31.857 29.9535 31.6851 30.5996 31.5361ZM17.2754 65.7236C17.2883 65.8112 17.3033 65.897 17.3174 65.9814C17.3053 65.9086 17.2916 65.8349 17.2803 65.7598L17.2754 65.7236ZM16.8789 62.4795C16.9594 62.9308 17.0278 63.3864 17.0791 63.8477L17.1416 64.5137C17.0885 63.8236 16.9979 63.1467 16.8789 62.4795ZM16.6104 61.1865C16.6405 61.314 16.6681 61.4422 16.6963 61.5703C16.6681 61.4422 16.6405 61.314 16.6104 61.1865ZM16.4502 60.5449C16.4853 60.6787 16.5187 60.8129 16.5518 60.9473C16.5187 60.8129 16.4853 60.6787 16.4502 60.5449ZM28.6416 60.0107C28.7329 60.1632 28.8216 60.3259 28.9102 60.4961C28.8762 60.4309 28.8429 60.3664 28.8086 60.3037L28.6416 60.0107ZM16.2842 59.9404C16.2966 59.984 16.309 60.0276 16.3213 60.0713C16.309 60.0276 16.2966 59.984 16.2842 59.9404ZM16.0977 59.3115C16.1183 59.3788 16.138 59.4463 16.1582 59.5137C16.138 59.4463 16.1183 59.3788 16.0977 59.3115ZM27.4492 58.7207C27.5836 58.7846 27.7137 58.8781 27.8438 58.9932C27.7137 58.8781 27.5836 58.7846 27.4492 58.7207ZM15.8828 58.6338C15.8985 58.6816 15.9142 58.7295 15.9297 58.7773C15.9142 58.7295 15.8985 58.6816 15.8828 58.6338ZM27.0977 58.6182C27.1016 58.6186 27.1054 58.6197 27.1094 58.6201C27.1051 58.6196 27.1009 58.6186 27.0967 58.6182L27 58.6133L27.0977 58.6182ZM15.6611 57.9775C15.7003 58.0906 15.7381 58.2041 15.7764 58.3174C15.7381 58.2041 15.7003 58.0906 15.6611 57.9775ZM15.4658 57.4248C15.4945 57.5045 15.5225 57.5843 15.5508 57.6641C15.5225 57.5843 15.4945 57.5045 15.4658 57.4248ZM15.2422 56.8145C15.2653 56.8765 15.2877 56.9389 15.3105 57.001C15.2877 56.9389 15.2653 56.8765 15.2422 56.8145ZM14.4717 54.8154C14.3211 54.4333 14.171 54.05 14.0195 53.666C14.171 54.05 14.3211 54.4333 14.4717 54.8154ZM41.917 48.2158C41.7857 48.6696 41.6454 49.1181 41.499 49.5625C41.6454 49.1181 41.7857 48.6697 41.917 48.2158ZM11.5459 46.085C11.4989 45.8641 11.4538 45.6418 11.4121 45.418C11.4538 45.6418 11.4989 45.8641 11.5459 46.085ZM42.71 44.7031H42.7109H42.71ZM42.7393 38.0225C42.9804 39.3622 43.0602 40.8603 42.9541 42.5088H42.9531C43.0289 41.3315 43.0101 40.231 42.9053 39.21C42.8843 39.0056 42.8598 38.8044 42.832 38.6064L42.7393 38.0225ZM42.4932 36.9131H42.4941H42.4932ZM41.9834 35.3975H41.9844H41.9834ZM33.6445 30.001C34.2273 30.0095 34.85 30.0557 35.5166 30.1543C37.1976 30.4035 38.6814 31.1124 39.875 32.249C38.6815 31.1125 37.1976 30.4045 35.5166 30.1553C34.8499 30.0567 34.2274 30.0096 33.6445 30.001ZM32.6377 30.0234V30.0244C32.5304 30.031 32.4247 30.0389 32.3203 30.0479C29.9198 30.2543 28.2868 31.059 27 31.21L26.6562 31.1562C26.5397 31.1342 26.4204 31.1075 26.2979 31.0781C26.5436 31.137 26.7772 31.1828 27 31.209C28.3427 31.0514 30.0624 30.1822 32.6377 30.0234ZM26.1279 31.0352C26.072 31.0208 26.0153 31.0066 25.958 30.9912C26.0153 31.0066 26.072 31.0208 26.1279 31.0352ZM19.1621 30.0703C18.9411 30.0927 18.7149 30.121 18.4834 30.1553L18.0293 30.2344C17.817 30.2773 17.6086 30.3296 17.4033 30.3877C17.7533 30.2886 18.1133 30.2092 18.4834 30.1543C18.7149 30.1201 18.9411 30.0927 19.1621 30.0703ZM21.2021 30.0156C21.552 30.0329 21.8861 30.0651 22.2061 30.1055C21.8861 30.0651 21.552 30.0329 21.2021 30.0156ZM36.7197 65.7539C36.6979 65.8996 36.6733 66.0407 36.6484 66.1777C36.6733 66.0407 36.6979 65.8996 36.7197 65.7539ZM16.7549 61.835C16.7945 62.0256 16.8313 62.217 16.8662 62.4092C16.8313 62.217 16.7945 62.0256 16.7549 61.835ZM14.7129 55.4297C14.8156 55.693 14.9163 55.9565 15.0166 56.2197C14.9163 55.9565 14.8156 55.693 14.7129 55.4297ZM14.7129 55.4297C14.6331 55.225 14.5524 55.0204 14.4717 54.8154C14.5524 55.0204 14.6331 55.225 14.7129 55.4297ZM11.6475 46.5361C11.613 46.3863 11.5781 46.2361 11.5459 46.085C11.5781 46.2361 11.613 46.3863 11.6475 46.5361ZM11.0479 42.5312C11.0352 42.3378 11.0262 42.1463 11.0186 41.957C11.0262 42.1463 11.0352 42.3378 11.0479 42.5312Z" fill="url(#paint1_linear_500_6530)"/>
</mask>
<g mask="url(#mask2_500_6530)">
<g filter="url(#filter0_ng_500_6530)">
<path d="M37.1614 84.9897C37.0304 85.0018 36.8998 85.0017 36.7698 84.9926C36.8998 85.0017 37.0305 85.0018 37.1614 84.9897ZM36.3303 84.9233C36.459 84.955 36.589 84.977 36.72 84.9887C36.589 84.977 36.459 84.955 36.3303 84.9233ZM37.8303 84.8276C37.6182 84.9111 37.4046 84.9634 37.1907 84.9858C37.4046 84.9634 37.6183 84.9111 37.8303 84.8276ZM35.7962 84.7319C35.9121 84.786 36.0292 84.8343 36.1487 84.8725C36.0292 84.8343 35.9121 84.7861 35.7962 84.7319ZM15.6848 29.8432C18.2222 29.5358 20.2405 29.8012 21.927 30.1899C22.8472 30.402 23.6563 30.6475 24.4651 30.8803C25.2375 31.1027 26.0619 31.33 26.8567 31.4233L27.055 31.4467L27.2561 31.4233C28.0511 31.33 28.8742 31.1026 29.6468 30.8803C30.4561 30.6474 31.2653 30.4021 32.1858 30.1899C33.9849 29.7752 36.1616 29.5022 38.9427 29.9135C41.9176 30.3547 44.3622 31.9562 45.9886 34.6694C47.6375 37.4206 48.5036 41.4257 48.0071 46.686C47.4937 52.117 45.6402 56.8589 43.7161 61.7251C41.8172 66.5274 39.8282 71.4968 39.4007 77.0522C39.2146 79.4692 38.7691 81.0445 38.2786 82.0112C37.7927 82.9685 37.3351 83.2052 37.1331 83.2632C36.9363 83.3193 36.6474 83.3016 36.2718 83.0405C35.9347 82.8061 35.5993 82.4156 35.3684 81.9135L35.2766 81.6919C34.9605 80.8459 34.5848 79.6143 34.1223 78.145C33.6699 76.7075 33.149 75.0875 32.5716 73.5717C32.0014 72.0752 31.3386 70.5817 30.5774 69.435C30.1962 68.8609 29.7424 68.2999 29.2014 67.8696C28.722 67.4883 28.1071 67.1582 27.3772 67.0815L27.0569 67.0649C26.185 67.0649 25.4586 67.4336 24.9104 67.8696C24.3696 68.2999 23.9174 68.861 23.5364 69.435C22.7752 70.5817 22.1124 72.0751 21.5423 73.5717C20.9649 75.0874 20.4439 76.7077 19.9915 78.145C19.6445 79.2473 19.3457 80.2158 19.0843 80.9878L18.8352 81.6919C18.6078 82.3005 18.226 82.7748 17.8411 83.0424C17.4663 83.3028 17.1782 83.3191 16.9817 83.2632C16.7801 83.2055 16.3215 82.9694 15.8352 82.0112C15.3448 81.0444 14.8993 79.4692 14.7132 77.0522C14.2856 71.4967 12.2966 66.5275 10.3977 61.7251C8.47363 56.8589 6.61911 52.117 6.10574 46.686C5.60842 41.4258 6.47614 37.4205 8.12527 34.6694C9.75176 31.9563 12.1961 30.3546 15.1712 29.9135L15.6848 29.8432ZM40.0589 82.2241C39.9976 82.3715 39.9352 82.5126 39.8704 82.6469C39.9352 82.5126 39.9977 82.3715 40.0589 82.2241ZM20.7005 81.5454C20.6088 81.816 20.5211 82.0662 20.4368 82.2915C20.4193 82.3382 20.3979 82.3832 20.3792 82.4292L20.4368 82.2905C20.5211 82.0652 20.6087 81.815 20.7005 81.5444V81.5454ZM40.72 80.0073C40.84 79.4317 40.9412 78.7989 41.0188 78.1049L41.0979 77.2729C41.0155 78.3013 40.8863 79.2093 40.72 80.0073ZM12.8587 75.7368C12.9203 76.2147 12.9706 76.6966 13.0081 77.1831V77.184C12.9706 76.6973 12.9203 76.215 12.8587 75.7368ZM22.5862 75.7192C22.4742 76.0432 22.3633 76.368 22.2561 76.6919C22.3633 76.368 22.4742 76.0432 22.5862 75.7192ZM12.4602 73.3813C12.502 73.5824 12.5393 73.7845 12.5774 73.9868C12.5394 73.7845 12.502 73.5824 12.4602 73.3813ZM12.2552 72.4555C12.2959 72.6285 12.3331 72.8023 12.3714 72.976C12.3331 72.8023 12.2959 72.6285 12.2552 72.4555ZM12.0198 71.5141C12.0694 71.703 12.1155 71.8928 12.1624 72.0825C12.1156 71.8928 12.0694 71.703 12.0198 71.5141ZM11.7747 70.6235C11.8281 70.8099 11.8791 70.9969 11.93 71.184C11.8791 70.9969 11.8281 70.8099 11.7747 70.6235ZM11.4915 69.6753C11.5519 69.8705 11.6103 70.0662 11.6682 70.2622C11.6103 70.0662 11.5519 69.8705 11.4915 69.6753ZM28.6536 69.7143C28.7883 69.8709 28.9189 70.0462 29.0501 70.2348C28.9189 70.0462 28.7883 69.8709 28.6536 69.7143ZM42.802 69.1098C42.7372 69.3112 42.672 69.5123 42.6096 69.7143C42.672 69.5123 42.7372 69.3112 42.802 69.1098ZM11.2073 68.7827C11.2659 68.9607 11.3225 69.1393 11.3792 69.3178C11.3225 69.1393 11.2659 68.9607 11.2073 68.7827ZM27.9192 69.0532C27.9921 69.0997 28.065 69.1512 28.137 69.2085C28.065 69.1512 27.9921 69.0997 27.9192 69.0532ZM27.1956 68.7827C27.2874 68.7923 27.3785 68.8115 27.469 68.8393C27.3328 68.7974 27.1951 68.7749 27.0559 68.7749H27.0569C27.1033 68.7749 27.1495 68.7779 27.1956 68.7827ZM10.8987 67.8696C10.9602 68.0471 11.0205 68.2249 11.0803 68.4028C11.0205 68.2249 10.9602 68.0471 10.8987 67.8696ZM10.5989 67.0219C10.6633 67.2005 10.7264 67.3793 10.7893 67.5581C10.7264 67.3793 10.6633 67.2005 10.5989 67.0219ZM10.3167 66.2505C10.3492 66.338 10.3812 66.4256 10.4134 66.5132C10.3812 66.4256 10.3492 66.338 10.3167 66.2505ZM9.55984 64.269C9.67832 64.5729 9.79409 64.8773 9.91043 65.1811C9.7941 64.8773 9.67831 64.5729 9.55984 64.269ZM45.3069 62.353C45.0012 63.1262 44.6988 63.8974 44.4007 64.6674C44.6987 63.8974 45.0012 63.1262 45.3069 62.353ZM8.55984 61.7251C8.79842 62.3297 9.03507 62.9331 9.27175 63.5346C9.03509 62.9331 8.79841 62.3297 8.55984 61.7251ZM49.0305 37.4751C49.7864 40.0947 50.0515 43.2317 49.7102 46.8471C49.3731 50.414 48.4856 53.6877 47.3997 56.8237L47.0677 57.7602C48.3017 54.3389 49.3384 50.7699 49.7093 46.8462C50.0342 43.4033 49.81 40.3944 49.135 37.853L49.0305 37.4751ZM4.27859 44.9555C4.30161 45.5703 4.34354 46.2006 4.40457 46.8462C4.43826 47.2026 4.47644 47.5569 4.52078 47.9077C4.58541 48.419 4.66388 48.9243 4.74929 49.4243C4.60527 48.5812 4.48641 47.7233 4.40359 46.8471C4.34253 46.2014 4.30162 45.5705 4.27859 44.9555ZM4.30496 42.1948C4.27177 42.754 4.2552 43.3286 4.25711 43.9184C4.2552 43.3286 4.27176 42.754 4.30496 42.1948ZM4.65847 39.2661C4.68108 39.1461 4.70435 39.0269 4.72879 38.9087C4.70435 39.0269 4.68108 39.1461 4.65847 39.2661ZM4.81668 38.5044C4.84359 38.3865 4.8719 38.2697 4.90066 38.1538C4.8719 38.2697 4.84359 38.3865 4.81668 38.5044ZM47.9593 34.7085C48.2774 35.3428 48.5596 36.0204 48.802 36.7407L48.9192 37.104C48.69 36.3698 48.4203 35.6783 48.1145 35.0298L47.9593 34.7085ZM5.8616 35.3257C5.95619 35.1132 6.05431 34.9051 6.15652 34.7016C6.05432 34.9051 5.95619 35.1132 5.8616 35.3257ZM38.6302 28.1469C38.8154 28.1694 39.0034 28.194 39.1936 28.2221C42.7872 28.7549 45.7472 30.7607 47.6292 34.0893L47.7971 34.395C47.1918 33.2589 46.4646 32.2697 45.6331 31.4321C45.5575 31.3559 45.4809 31.2811 45.4036 31.2075C43.7027 29.5876 41.5883 28.5773 39.1927 28.2221C39.0027 28.194 38.8152 28.1693 38.6302 28.1469ZM6.83035 33.5092C6.742 33.6487 6.65678 33.7914 6.57254 33.936C6.65678 33.7914 6.74199 33.6487 6.83035 33.5092ZM8.19851 31.7251C7.91655 32.0297 7.6471 32.3525 7.39187 32.6938C7.64711 32.3525 7.91654 32.0297 8.19851 31.7251ZM34.1985 28.1118C31.0163 28.4609 28.8109 29.5192 27.0569 29.7251L27.0559 29.7241C28.7304 29.5278 30.8164 28.5552 33.7708 28.1635L34.1985 28.1118ZM26.4534 29.6245C26.3276 29.599 26.1993 29.5717 26.0686 29.5405C26.1993 29.5717 26.3276 29.599 26.4534 29.6245ZM25.7669 29.4633C25.7 29.446 25.632 29.43 25.5637 29.4116C25.632 29.43 25.7 29.446 25.7669 29.4633ZM11.9387 29.0649C11.8322 29.1111 11.7262 29.1581 11.6214 29.2075C11.7262 29.1581 11.8322 29.1111 11.9387 29.0649ZM12.7669 28.7426C12.8587 28.7111 12.9513 28.6812 13.0442 28.6518C12.9513 28.6812 12.8587 28.7111 12.7669 28.7426ZM13.9632 28.4018C14.2768 28.3299 14.5959 28.2702 14.9202 28.2221C15.2345 28.1756 15.5422 28.138 15.843 28.1069C15.5423 28.138 15.2345 28.1756 14.9202 28.2221L14.2737 28.3354C14.1697 28.3564 14.066 28.3782 13.9632 28.4018ZM20.5315 28.1899C20.968 28.2521 21.3849 28.3282 21.7844 28.4106C21.3849 28.3282 20.968 28.2521 20.5315 28.1899ZM35.5559 28.0132C36.0278 27.9959 36.5192 27.9951 37.0315 28.0161L37.5501 28.0444C36.8486 27.9971 36.1849 27.9901 35.5559 28.0132ZM38.2923 84.5923C38.2517 84.618 38.211 84.6423 38.1702 84.6655C38.211 84.6423 38.2517 84.618 38.2923 84.5923ZM38.1106 84.6977C38.0839 84.7121 38.0574 84.7264 38.0305 84.7397C38.0574 84.7264 38.0839 84.7121 38.1106 84.6977ZM37.9563 84.7739C37.9327 84.7847 37.9097 84.7962 37.886 84.8061C37.9097 84.7962 37.9327 84.7847 37.9563 84.7739ZM39.218 83.7212C39.1886 83.7593 39.159 83.7962 39.1292 83.8325C39.1589 83.7963 39.1886 83.7593 39.218 83.7212ZM14.7356 83.5034C14.7119 83.469 14.6877 83.4345 14.6643 83.3989C14.6877 83.4345 14.7119 83.469 14.7356 83.5034ZM39.6038 83.1479C39.5726 83.201 39.5408 83.2526 39.5091 83.3032C39.5408 83.2526 39.5726 83.201 39.6038 83.1479ZM33.8137 82.6225L33.8089 82.6118C33.8338 82.6665 33.8622 82.7194 33.8889 82.7729C33.8639 82.7229 33.8372 82.6736 33.8137 82.6225ZM33.8889 82.7729C33.9143 82.8236 33.9382 82.8748 33.9651 82.9243C33.9382 82.8748 33.9143 82.8236 33.8889 82.7729ZM40.1594 81.9721C40.1342 82.0382 40.1082 82.1028 40.0823 82.1665C40.1082 82.1028 40.1342 82.0382 40.1594 81.9721ZM40.6233 80.4419C40.6007 80.5371 40.5767 80.6303 40.553 80.7221C40.5767 80.6303 40.6007 80.5371 40.6233 80.4419ZM40.5413 80.768C40.5183 80.8558 40.495 80.9421 40.471 81.0268C40.495 80.9421 40.5183 80.8558 40.5413 80.768ZM40.4553 81.0815C40.4298 81.1701 40.4038 81.257 40.3772 81.3423C40.4038 81.257 40.4298 81.1701 40.4553 81.0815ZM40.3645 81.3833C40.3378 81.4677 40.3102 81.5502 40.2825 81.6313C40.3102 81.5503 40.3378 81.4677 40.3645 81.3833ZM12.7942 75.269C12.8123 75.3934 12.8295 75.5181 12.846 75.643C12.8295 75.5181 12.8123 75.3934 12.7942 75.269ZM12.6389 74.31C12.6489 74.3663 12.6585 74.4226 12.6682 74.479C12.6585 74.4226 12.6489 74.3663 12.6389 74.31ZM4.3782 41.2475C4.37677 41.2622 4.37472 41.2768 4.37332 41.2915C4.37472 41.2768 4.37677 41.2622 4.3782 41.2475ZM4.60183 39.5825C4.62015 39.4764 4.63874 39.3708 4.65847 39.2661C4.63875 39.3708 4.62015 39.4764 4.60183 39.5825ZM4.75515 38.7856C4.77526 38.6913 4.79541 38.5975 4.81668 38.5044C4.79541 38.5975 4.77526 38.6913 4.75515 38.7856ZM5.79617 35.476C5.81793 35.4257 5.83941 35.3755 5.8616 35.3257C5.83941 35.3755 5.81793 35.4257 5.79617 35.476ZM11.4505 29.2905C11.5072 29.2625 11.5641 29.2345 11.6214 29.2075C11.5641 29.2345 11.5072 29.2625 11.4505 29.2905ZM12.5657 28.8149C12.6326 28.7905 12.6994 28.7658 12.7669 28.7426C12.6994 28.7658 12.6326 28.7905 12.5657 28.8149ZM13.18 28.6108C13.2394 28.5928 13.2988 28.5742 13.3587 28.5571C13.2988 28.5742 13.2394 28.5928 13.18 28.6108Z" fill="url(#paint2_linear_500_6530)"/>
</g>
</g>
<path opacity="0.7" d="M43.5 48.887H50.4998V46.8L57.5 52.5001L50.4998 58.8V56.7131H43.5V48.887Z" fill="#CF1039"/>
</g>
</g>
<defs>
<filter id="filter0_ng_500_6530" x="0.256958" y="24.0002" width="53.6" height="64.9988" filterUnits="userSpaceOnUse" color-interpolation-filters="sRGB">
<feFlood flood-opacity="0" result="BackgroundImageFix"/>
<feBlend mode="normal" in="SourceGraphic" in2="BackgroundImageFix" result="shape"/>
<feTurbulence type="fractalNoise" baseFrequency="2 2" stitchTiles="stitch" numOctaves="3" result="noise" seed="6596" />
<feColorMatrix in="noise" type="luminanceToAlpha" result="alphaNoise" />
<feComponentTransfer in="alphaNoise" result="coloredNoise1">
<feFuncA type="discrete" tableValues="1 1 1 1 1 1 1 1 1 1 1 1 1 1 1 1 1 1 1 1 1 1 1 1 1 1 1 1 1 1 1 1 1 1 1 1 1 1 1 1 1 1 1 1 1 1 1 1 1 1 1 0 0 0 0 0 0 0 0 0 0 0 0 0 0 0 0 0 0 0 0 0 0 0 0 0 0 0 0 0 0 0 0 0 0 0 0 0 0 0 0 0 0 0 0 0 0 0 0 0 "/>
</feComponentTransfer>
<feComposite operator="in" in2="shape" in="coloredNoise1" result="noise1Clipped" />
<feFlood flood-color="rgba(0, 0, 0, 0.25)" result="color1Flood" />
<feComposite operator="in" in2="noise1Clipped" in="color1Flood" result="color1" />
<feMerge result="effect1_noise_500_6530">
<feMergeNode in="shape" />
<feMergeNode in="color1" />
</feMerge>
<feTurbulence type="fractalNoise" baseFrequency="2 2" numOctaves="3" seed="1366" />
<feDisplacementMap in="effect1_noise_500_6530" scale="8" xChannelSelector="R" yChannelSelector="G" result="displacedImage" width="100%" height="100%" />
<feMerge result="effect2_texture_500_6530">
<feMergeNode in="displacedImage"/>
</feMerge>
</filter>
<linearGradient id="paint0_linear_500_6530" x1="27" y1="31.5" x2="27" y2="68" gradientUnits="userSpaceOnUse">
<stop offset="0.43128" stop-color="#A6A6A6"/>
<stop offset="0.764928" stop-color="#D2D2D2"/>
</linearGradient>
<linearGradient id="paint1_linear_500_6530" x1="27.2569" y1="31.5009" x2="27.2569" y2="67.9989" gradientUnits="userSpaceOnUse">
<stop offset="0.43128" stop-color="#A6A6A6"/>
<stop offset="0.764928" stop-color="#D2D2D2"/>
</linearGradient>
<linearGradient id="paint2_linear_500_6530" x1="27.4099" y1="30.2038" x2="27.41" y2="83.8241" gradientUnits="userSpaceOnUse">
<stop offset="0.331731" stop-color="#D7D7D7"/>
<stop offset="0.600962" stop-color="white"/>
</linearGradient>
</defs>
</svg>
