<svg width="100" height="100" viewBox="0 0 100 100" fill="none" xmlns="http://www.w3.org/2000/svg">
<circle cx="50" cy="50" r="50" fill="white"/>
<mask id="mask0_500_3455" style="mask-type:alpha" maskUnits="userSpaceOnUse" x="10" y="27" width="80" height="46">
<rect x="10" y="27" width="80" height="46" fill="#D9D9D9"/>
</mask>
<g mask="url(#mask0_500_3455)">
<path d="M52.5 43.5L79.5 41L80.5 51L80 60L77 62L68 58L68.5 64.5L67 67.5L59 65.5L53.5 66.5L51 65.5L52.5 43.5Z" fill="white"/>
<path d="M27.0001 42H52.0001L48.0001 53L49.0001 65L48.0001 67H46.0001L40.0001 65L34.0001 67L31.5001 65.5V60L28.0001 62L23.5001 63.5L19.5 61.5L18.5 54.5L20 50.5V43L27.0001 42Z" fill="white"/>
<path d="M15.5 37.5L18.5 34.5L24 33H36L50 34.5L67 33H79L84 36L84.5 40.5L83.5 47L81 50.5H80L78 44.5L74.5 43L70.5 46.5L67 52.5L64.5 45.5L59.5 44.5L56.5 45.5L53.5 48L51 55.5L49 55L46.5 48.5L42.5 44.5H38.5L35 46.5L33 53L28 44.5L24 44L21.5 45.5L20 50.5L18 49.5L15.5 44V37.5Z" fill="#FFDBDF"/>
<mask id="mask1_500_3455" style="mask-type:alpha" maskUnits="userSpaceOnUse" x="10" y="30" width="80" height="40">
<rect x="10" y="30" width="80" height="40" fill="#D9D9D9"/>
</mask>
<g mask="url(#mask1_500_3455)">
<path d="M68.343 58.5436C68.3483 58.4894 68.3899 58.47 68.4676 58.4854C68.6656 58.5236 68.8696 58.5748 69.0555 58.6651C69.9452 59.0934 70.838 59.5899 71.7338 60.1547C72.7455 60.7924 73.7407 61.3367 74.7196 61.7878C76.417 62.5697 78.421 62.4964 79.433 60.7188C79.7847 60.1011 80.0581 59.4463 80.2531 58.7544C80.5894 57.5606 80.7636 56.3458 80.7756 55.1098C80.7877 53.8571 80.6922 52.6476 80.4892 51.4812C80.4846 51.4566 80.4832 51.4309 80.4852 51.405C80.5395 50.7726 81.4359 50.1362 82.0218 49.6855C82.2222 49.5309 82.4496 49.2917 82.7042 48.9678C83.6961 47.7071 84.2358 45.9767 84.4469 44.2713C84.6083 42.9637 84.6767 42.0359 84.6519 41.4879C84.6368 41.1406 84.7152 40.6227 84.675 40.1539C84.6669 40.0569 84.6549 39.7243 84.6388 39.1562C84.5916 37.5341 83.9524 35.8378 82.7042 34.7768C82.1314 34.2896 81.6014 33.937 81.1143 33.7188C80.4966 33.4425 79.8326 33.2267 79.1224 33.0714C78.0371 32.8339 77.0304 32.691 76.1025 32.6428C75.4774 32.61 75.0951 32.5883 74.9558 32.5776C74.5672 32.5468 74.1843 32.5324 73.8071 32.5344C71.2986 32.5465 69.4049 32.5485 68.1259 32.5404C67.4646 32.5364 66.7903 32.6017 66.0697 32.6248C65.5866 32.6401 65.0741 32.6713 64.5321 32.7181C63.0507 32.8456 62.4276 32.8827 61.0417 33.0795C60.4079 33.1691 59.6904 33.2815 58.8891 33.4167C57.9263 33.578 56.797 33.7553 55.5013 33.9487C54.0829 34.1608 52.7412 34.291 51.4763 34.3392C49.3846 34.4188 47.3026 34.3351 45.2303 34.0882C44.6829 34.0226 43.5945 33.853 41.9651 33.5793C39.2165 33.1186 36.8015 32.7934 34.3965 32.6619C32.1735 32.5394 29.7887 32.4986 27.242 32.5394C26.4963 32.5515 25.8451 32.6217 25.1105 32.6298C24.217 32.6398 23.3497 32.7382 22.3689 32.8667C21.1696 33.0232 20.046 33.3381 18.9981 33.8112C18.1399 34.1986 17.4012 34.741 16.7822 35.4383C16.076 36.2353 15.6304 37.1878 15.4455 38.296C15.337 38.9477 15.2954 39.5513 15.3209 40.1067C15.3618 41.0021 15.3876 41.5367 15.3983 41.7107C15.4894 43.1949 15.8066 44.6942 16.35 46.2085C16.6234 46.9694 16.9855 47.7369 17.4364 48.5111C17.9335 49.3637 18.57 50.0449 19.3459 50.5548C19.3942 50.5865 19.4319 50.6319 19.4541 50.6853C19.4763 50.7386 19.482 50.7973 19.4705 50.8539C19.2702 51.8369 19.1265 52.5767 19.0394 53.0732C18.892 53.9063 18.7593 54.8746 18.6414 55.978C18.5938 56.4237 18.5747 56.8005 18.5841 57.1083C18.6012 57.6553 18.5449 58.4924 18.6484 59.1539C18.7831 60.0182 18.9278 60.6334 19.4484 61.309C19.8196 61.7908 20.0755 62.0892 20.2162 62.2043C20.8728 62.743 21.6185 63.0505 22.4533 63.1268C23.3491 63.2077 24.2777 63.1495 25.2391 62.9521C26.8357 62.6242 28.3881 62.1344 29.8962 61.4826C30.3414 61.2909 30.6942 61.0851 31.1163 60.8452C31.1259 60.8397 31.1373 60.8382 31.148 60.841C31.1587 60.8439 31.1679 60.8508 31.1736 60.8603C31.1823 60.8764 31.1843 60.8934 31.1796 60.9115C30.7334 61.1992 30.262 61.4478 29.7656 61.6573C28.2367 62.3017 26.6484 62.7798 25.0009 63.0916C23.1729 63.4369 21.1177 63.4259 19.8454 61.9534C19.3328 61.3612 18.9258 60.8292 18.7358 60.1135C18.5074 59.2556 18.4129 58.3325 18.4524 57.3442C18.5409 55.1068 18.9188 52.8995 19.3881 50.7615C19.3905 50.7511 19.3898 50.7403 19.386 50.7303C19.3823 50.7203 19.3756 50.7116 19.367 50.7053C18.2608 49.9304 17.418 48.912 16.8384 47.6499C15.6284 45.0121 15.1048 42.1373 15.2144 39.385C15.3162 36.8301 16.4837 34.9789 18.7168 33.8313C19.5455 33.405 20.5033 33.0922 21.59 32.8928C23.0077 32.6325 24.6137 32.4933 26.4079 32.4752C27.7633 32.4618 29.4463 32.4581 31.457 32.4642C34.4063 32.4742 37.4071 32.7258 40.4596 33.219C41.6006 33.4037 42.7476 33.594 43.9007 33.7901C45.1007 33.9939 46.5006 34.1274 47.6121 34.1996C49.4847 34.3201 51.344 34.29 53.1898 34.1093C55.862 33.8473 58.5735 33.3183 61.0357 32.969C62.0662 32.8232 63.3361 32.6947 64.8456 32.5836C67.6998 32.3728 70.6494 32.3849 73.5277 32.42C74.9226 32.4374 76.2582 32.523 77.5346 32.677C79.9938 32.9731 82.7555 33.8343 83.9846 36.2272C84.3102 36.8609 84.5309 37.5167 84.6469 38.1946C84.7098 38.5606 84.7571 39.1839 84.7886 40.0646C84.8107 40.6621 84.8013 41.2871 84.7604 41.9396C84.5815 44.8073 84.2227 48.2331 81.6419 50.1031C81.3485 50.3159 80.5355 51.0135 80.5937 51.424C80.6922 52.1213 80.7753 52.8162 80.843 53.5088C80.9857 54.9602 80.8862 56.4706 80.5445 58.0398C80.3341 59.006 80.0125 59.8793 79.5797 60.6595C78.6833 62.2746 77.1557 62.646 75.4573 62.1722C75.1055 62.0738 74.6817 61.9042 74.186 61.6633C73.2781 61.2223 72.1689 60.5886 70.8584 59.7622C70.3466 59.439 69.6963 59.0893 68.9078 58.7133C68.9024 58.7106 68.897 58.7086 68.8917 58.7072L68.343 58.5436Z" fill="#787B83"/>
<path d="M68.3425 58.5437C68.3184 58.5564 68.3017 58.5708 68.2923 58.5868C68.2139 58.5989 68.1888 58.6969 68.2169 58.8809C68.4688 60.5418 68.6357 61.8888 68.7174 62.922C68.7556 63.4092 68.7764 63.8994 68.7797 64.3925C68.7824 64.9185 68.6608 65.415 68.4149 65.8821C67.9385 66.7855 66.9617 67.2783 65.9647 67.458C65.4512 67.5503 64.7065 67.4861 64.2201 67.3626C63.536 67.19 62.7706 66.9143 61.9237 66.5355C61.6765 66.4245 61.4242 66.3164 61.1669 66.2113C60.3499 65.8761 59.3539 65.4947 58.4314 65.4635C57.7486 65.4408 57.0864 65.5596 56.4445 65.8199C55.0446 66.387 53.7049 67.3466 52.2175 66.8176C51.0106 66.388 50.7975 64.786 50.8658 63.7311C50.8679 63.705 50.9593 62.5537 51.1402 60.2772C51.299 58.2703 51.3965 56.9163 51.4327 56.215C51.444 55.9948 51.4464 55.8054 51.4397 55.6469C51.4379 55.5979 51.4172 55.5516 51.382 55.5176C51.3468 55.4835 51.2998 55.4644 51.2508 55.4642C50.3027 55.4568 49.7681 55.4541 49.6468 55.4561C49.4143 55.4602 49.2207 55.4782 49.0659 55.5103C48.6549 55.5967 48.7282 55.8777 48.7614 56.2421C48.9021 57.7658 49.018 59.1235 49.1091 60.3153C49.144 60.7757 49.1674 61.138 49.1795 61.4024C49.1909 61.6647 49.2126 62.0267 49.2448 62.4884C49.2863 63.0893 49.2632 63.893 49.1755 64.8994C49.1594 65.0881 49.1289 65.2685 49.084 65.4405C48.9554 65.9333 48.882 66.2836 48.5061 66.6209C47.9366 67.1314 47.2955 67.3493 46.5826 67.2743C46.2315 67.2368 45.9146 67.1632 45.6319 67.0535C45.4222 66.9718 44.8212 66.7286 43.8289 66.3238C42.6682 65.85 41.3325 65.5358 40.017 65.581C38.6703 65.6261 37.602 66.1903 36.2996 66.7202C35.3931 67.0886 34.4986 67.2964 33.5881 67.1388C33.0374 67.0434 32.5148 66.8307 32.0917 66.4061C31.5296 65.842 31.1932 65.1969 31.0827 64.4708C30.9601 63.6598 30.9892 62.6199 31.2053 61.6623C31.2522 61.4536 31.2941 61.228 31.3309 60.9858C31.3321 60.9776 31.33 60.9692 31.3252 60.9625C31.3203 60.9557 31.313 60.9511 31.3048 60.9497C31.2907 60.947 31.2773 60.95 31.2646 60.9587C31.2646 60.9433 31.2619 60.9286 31.2566 60.9145C31.2505 60.8978 31.2395 60.8891 31.2234 60.8884C31.2053 60.8871 31.1906 60.8948 31.1792 60.9115C31.1839 60.8935 31.1818 60.8764 31.1731 60.8603C31.1675 60.8508 31.1583 60.8439 31.1476 60.8411C31.1369 60.8383 31.1255 60.8398 31.1159 60.8453C30.6938 61.0852 30.341 61.2909 29.8958 61.4827C28.3877 62.1344 26.8353 62.6243 25.2387 62.9522C24.2773 63.1496 23.3487 63.2078 22.4529 63.1268C21.6181 63.0505 20.8724 62.743 20.2158 62.2044C20.0751 62.0893 19.8191 61.7908 19.448 61.309C18.9274 60.6335 18.7827 60.0182 18.648 59.154C18.5445 58.4925 18.6008 57.6554 18.5837 57.1083C18.5743 56.8005 18.5934 56.4238 18.641 55.9781C18.7589 54.8746 18.8915 53.9063 19.0389 53.0732C19.126 52.5767 19.2697 51.8369 19.4701 50.8539C19.4816 50.7973 19.4759 50.7386 19.4537 50.6853C19.4315 50.632 19.3938 50.5865 19.3455 50.5548C18.5696 50.0449 17.9331 49.3637 17.436 48.5112C16.9851 47.7369 16.6229 46.9694 16.3496 46.2086C15.8062 44.6942 15.489 43.195 15.3979 41.7108C15.3872 41.5368 15.3614 41.0021 15.3205 40.1068C15.295 39.5514 15.3366 38.9478 15.4451 38.296C15.63 37.1879 16.0756 36.2353 16.7817 35.4383C17.4008 34.741 18.1395 34.1987 18.9977 33.8112C20.0456 33.3381 21.1692 33.0233 22.3685 32.8667C23.3493 32.7382 24.2166 32.6399 25.1101 32.6298C25.8447 32.6218 26.4959 32.5515 27.2416 32.5395C29.7883 32.4987 32.1731 32.5395 34.3961 32.6619C36.8011 32.7934 39.216 33.1186 41.9647 33.5794C43.5941 33.8531 44.6825 34.0227 45.2299 34.0883C47.3022 34.3352 49.3842 34.4188 51.4759 34.3392C52.7408 34.291 54.0825 34.1609 55.5008 33.9487C56.7966 33.7554 57.9259 33.578 58.8886 33.4168C59.69 33.2816 60.4075 33.1692 61.0413 33.0795C62.4272 32.8828 63.0503 32.8456 64.5316 32.7181C65.0737 32.6713 65.5862 32.6402 66.0693 32.6248C66.7898 32.6017 67.4642 32.5365 68.1255 32.5405C69.4045 32.5485 71.2982 32.5465 73.8067 32.5345C74.1839 32.5325 74.5668 32.5468 74.9554 32.5776C75.0947 32.5883 75.4769 32.6101 76.102 32.6429C77.03 32.691 78.0366 32.8339 79.122 33.0715C79.8322 33.2267 80.4962 33.4425 81.1139 33.7189C81.601 33.937 82.131 34.2897 82.7038 34.7768C83.952 35.8378 84.5912 37.5341 84.6384 39.1562C84.6545 39.7243 84.6665 40.0569 84.6746 40.1539C84.7148 40.6227 84.6364 41.1406 84.6515 41.4879C84.6762 42.036 84.6079 42.9638 84.4464 44.2713C84.2354 45.9767 83.6957 47.7072 82.7038 48.9679C82.4492 49.2918 82.2217 49.531 82.0214 49.6856C81.4355 50.1363 80.5391 50.7726 80.4848 51.405C80.4828 51.431 80.4841 51.4566 80.4888 51.4813C80.6918 52.6476 80.7873 53.8572 80.7752 55.1098C80.7632 56.3458 80.589 57.5607 80.2526 58.7545C80.0577 59.4464 79.7843 60.1012 79.4326 60.7188C78.4205 62.4965 76.4166 62.5697 74.7192 61.7878C73.7403 61.3368 72.7451 60.7924 71.7334 60.1547C70.8376 59.5899 69.9448 59.0934 69.0551 58.6651C68.8692 58.5748 68.6651 58.5236 68.4672 58.4855C68.3894 58.4701 68.3479 58.4895 68.3425 58.5437ZM32.6957 52.1709C32.7319 52.1889 32.7734 52.1953 32.8203 52.1899C32.8317 52.2087 32.8451 52.2177 32.8605 52.217C32.9007 52.215 32.9248 52.1939 32.9329 52.1538C33.2303 50.6562 33.556 49.3714 34.1569 47.9983C34.496 47.2234 34.9395 46.5475 35.4875 45.9707C36.5629 44.8405 38.1327 44.186 39.7135 44.183C40.2676 44.1817 40.6465 44.1964 40.8501 44.2272C43.3646 44.6076 45.3314 46.1132 46.6891 48.205C47.1745 48.9528 47.4891 49.8351 47.7624 50.6943C48.2093 52.0976 48.5081 53.4844 48.6589 54.8549C48.6616 54.8795 48.6695 54.9033 48.6822 54.9246C48.6949 54.9459 48.712 54.9642 48.7324 54.9783C48.7528 54.9924 48.776 55.0019 48.8004 55.0063C48.8249 55.0106 48.8499 55.0096 48.874 55.0034C49.3915 54.8709 49.8418 54.9051 50.4317 55.0034C50.7402 55.0556 51.3965 55.162 51.4638 54.8147C51.5067 54.5932 51.5573 54.2349 51.6156 53.7397C51.7033 52.9949 51.847 52.2214 52.0467 51.419C52.5251 49.4979 53.4587 47.8517 54.8074 46.4384C55.0633 46.1701 55.4791 45.8298 56.0546 45.4176C56.3092 45.2356 56.6271 45.0646 57.0083 44.9047C57.5946 44.6578 57.9296 44.5223 58.0133 44.4982C58.6458 44.3155 59.1151 44.2161 59.4213 44.2001C59.5017 44.196 59.8089 44.1907 60.3429 44.184C61.6373 44.1669 62.9397 44.6246 63.9055 45.4056C64.3028 45.7268 64.6546 46.1115 64.9608 46.5599C65.2442 46.9741 65.4924 47.4318 65.7055 47.933C66.3014 49.3343 66.7326 50.8499 67.0692 52.1086C67.0705 52.1133 67.0727 52.1176 67.0757 52.1214C67.0786 52.1252 67.0823 52.1283 67.0866 52.1307C67.0908 52.133 67.0954 52.1345 67.1002 52.135C67.105 52.1355 67.1098 52.1351 67.1145 52.1337C67.1279 52.1297 67.1366 52.117 67.1406 52.0956C67.1526 52.1103 67.1654 52.1207 67.1788 52.1267C67.1942 52.1347 67.2089 52.1324 67.223 52.1197C67.2384 52.1056 67.2478 52.0879 67.2511 52.0665C67.3154 52.0772 67.352 52.0655 67.3607 52.0313C67.7546 50.5247 68.5817 49.1737 69.4209 47.8367C69.7592 47.298 70.2751 46.601 70.9686 45.7458C71.6225 44.9382 72.259 44.285 72.878 43.7865C74.279 42.6583 76.2337 42.4555 77.6015 43.7805C77.9512 44.1198 78.2072 44.4159 78.3693 44.6688C78.6708 45.1392 78.9341 45.6786 79.1592 46.2869C79.6463 47.6051 79.9786 48.9294 80.1562 50.2597C80.1599 50.2884 80.1718 50.3153 80.1905 50.3374C80.2092 50.3594 80.2338 50.3757 80.2615 50.3841C80.2891 50.3926 80.3186 50.3929 80.3464 50.3851C80.3743 50.3773 80.3993 50.3616 80.4185 50.34C80.5565 50.1868 80.6834 50.0626 80.7993 49.9676C81.4352 49.445 81.7715 49.169 81.8084 49.1395C82.0978 48.9046 82.3531 48.5998 82.5742 48.2251C83.3249 46.9524 83.7419 45.5069 83.9711 44.0073C84.2056 42.4729 84.2763 40.9221 84.1831 39.355C84.1138 38.1956 83.7279 36.966 83.152 36.0456C82.8532 35.5678 82.4891 35.1743 82.0596 34.8652C81.4117 34.3994 80.6526 34.0357 79.7823 33.7741C78.2601 33.3171 76.6987 33.0782 75.0981 33.0574C74.8348 33.0544 74.5363 33.0022 74.2941 32.9982C71.4687 32.958 69.3928 32.9637 68.0662 33.0153C67.9503 33.0193 67.8478 33.0223 67.7586 33.0243C67.1838 33.0337 66.4806 33.0527 65.6492 33.0815C65.2304 33.0956 64.2198 33.1812 62.6171 33.3385C61.653 33.4328 60.6474 33.565 59.6002 33.7349C58.8357 33.8594 57.3869 34.0926 55.2536 34.4346C54.7712 34.5122 54.3153 34.5691 53.8858 34.6052C53.0436 34.6775 52.585 34.7183 52.51 34.7277C52.0206 34.7869 51.5271 34.7598 51.104 34.8019C50.5499 34.8575 49.9804 34.8755 49.3955 34.8561C48.6586 34.8307 47.8713 34.7899 47.0338 34.7337C46.0724 34.6688 45.3294 34.5905 44.8048 34.4988C43.1894 34.2164 41.7798 33.9748 40.5758 33.7741C38.0533 33.3532 35.4467 33.1277 32.756 33.0976C29.3511 33.0608 26.9582 33.0547 25.5774 33.0795C25.2759 33.0848 24.8066 33.113 24.1694 33.1638C22.7825 33.2742 21.5042 33.5175 20.3344 33.8935C19.4446 34.1793 18.6761 34.5507 18.0289 35.0077C16.7375 35.9201 15.9687 37.5904 15.8129 39.1311C15.6602 40.6347 15.8612 42.1785 16.1134 43.6641C16.4075 45.3925 17.0146 46.9754 17.9345 48.4128C18.2145 48.8504 18.6966 49.364 19.3806 49.9536C19.4051 49.9748 19.4372 49.9856 19.4701 49.9837C19.6021 49.9783 19.6791 49.9265 19.7012 49.8281C19.8801 49.0345 20.131 48.2067 20.454 47.3448C21.1494 45.4899 22.284 44.1589 24.1985 43.6982C25.9241 43.2826 27.4426 44.0595 28.6144 45.254C29.129 45.7786 29.6 46.3785 30.0275 47.0537C31.0636 48.6908 31.9992 50.3782 32.6263 52.1949C32.6276 52.1987 32.6297 52.202 32.6325 52.2047C32.6353 52.2073 32.6387 52.2091 32.6424 52.21C32.6665 52.216 32.6843 52.203 32.6957 52.1709ZM67.7134 53.1816C67.6786 53.2204 67.6347 53.2532 67.5818 53.28C67.5878 53.2713 67.5898 53.2609 67.5878 53.2489C67.5872 53.2459 67.586 53.2431 67.5841 53.2407C67.5822 53.2383 67.5798 53.2364 67.5771 53.2352C67.5743 53.2339 67.5713 53.2333 67.5683 53.2334C67.5653 53.2335 67.5623 53.2344 67.5597 53.2358C67.492 53.278 67.4572 53.3295 67.4551 53.3904C67.4411 53.7825 67.4819 54.2175 67.5778 54.6953C67.6689 55.1503 67.8106 55.9205 68.0029 57.0059C68.0521 57.284 68.1164 57.8661 68.4109 57.9284C68.8109 58.0127 69.1733 58.1438 69.4983 58.3218C70.0359 58.618 70.7173 58.9753 71.2439 59.2935C72.5142 60.0624 73.3008 60.5288 73.6036 60.6927C75.0739 61.4917 77.3141 62.4904 78.6286 60.8684C78.9689 60.4481 79.2336 60.0296 79.4225 59.6127C79.9083 58.544 80.1967 57.3897 80.2878 56.1497C80.3052 55.9195 80.328 55.6385 80.3561 55.3066C80.3843 54.9787 80.3896 54.6983 80.3722 54.4654C80.2918 53.3854 80.1361 52.3666 79.9009 51.2424C79.7166 50.3571 79.6054 49.8214 79.5672 49.6354C79.381 48.718 79.1629 47.8433 78.913 47.0116C78.5887 45.9322 78.0923 45.0134 77.4236 44.2553C77.3676 44.1914 77.3023 44.1356 77.2296 44.0897C77.1204 44.0207 76.9737 43.9214 76.7895 43.7915C76.2819 43.4352 75.481 43.2114 74.8217 43.3368C74.7923 43.3422 74.7637 43.3502 74.7363 43.3609C74.3684 43.5088 74.0623 43.6386 73.8177 43.7504C73.5062 43.8922 73.138 44.1505 72.7132 44.5253C72.2402 44.9435 71.8181 45.3912 71.4469 45.8683C70.6798 46.8547 69.9572 47.8822 69.2792 48.9508C68.4859 50.2008 67.9935 51.3505 67.8019 52.3997C67.7456 52.7089 67.7576 52.9096 67.6561 53.1435C67.6536 53.1499 67.6532 53.1567 67.6551 53.1626C67.6632 53.188 67.6826 53.1943 67.7134 53.1816ZM29.0034 46.3882C28.3957 45.7264 27.8909 45.2399 27.4889 44.9288C26.8226 44.4119 25.7251 43.9321 24.8156 44.0264C24.5288 44.0565 24.3131 44.0963 24.1684 44.1459C23.6914 44.3071 23.2492 44.5193 22.8418 44.7822C22.4311 45.0472 22.0914 45.3761 21.8227 45.7689C20.9896 46.9885 20.5052 48.4771 20.1575 49.9245C19.9391 50.8319 19.731 51.7453 19.5334 52.6647C19.3853 53.3513 19.2754 54.0114 19.2038 54.6451C19.1079 55.4943 19.0453 56.1611 19.0158 56.6456C18.8872 58.7324 19.0822 60.759 20.9092 62.0287C21.5497 62.4744 22.352 62.6835 23.3162 62.656C23.8421 62.6407 24.368 62.5824 24.894 62.4814C26.5643 62.1609 28.1119 61.6995 29.537 61.0972C30.0998 60.8597 30.5567 60.6138 30.9078 60.3595C31.3165 60.063 31.5513 59.7077 31.6123 59.2935C31.7778 58.1566 32.0237 56.752 32.35 55.0797C32.4217 54.7137 32.4602 54.3885 32.4656 54.1041C32.4702 53.8357 32.43 53.5119 32.345 53.1325C32.0622 51.8731 31.5446 50.5956 30.7922 49.3001C29.938 47.8286 29.4509 47.0116 29.331 46.849C29.3169 46.8296 29.3018 46.8108 29.2858 46.7928C29.1712 46.669 29.0878 46.5505 29.0355 46.4374C29.0275 46.4195 29.0167 46.4029 29.0034 46.3882ZM47.2198 50.8951C47.0362 50.2654 46.8362 49.7261 46.6198 49.277C45.6818 47.3311 44.1971 45.9556 42.1657 45.1506L42.1717 45.0914C42.1733 45.0767 42.1698 45.0619 42.1617 45.0496C42.1536 45.0373 42.1415 45.0283 42.1275 45.0241C41.2933 44.7679 40.5584 44.6344 39.9225 44.6236C38.6522 44.6022 37.5049 44.974 36.4805 45.7388C35.8674 46.1965 35.3391 46.8202 34.8956 47.6098C34.4615 48.384 34.1298 49.1375 33.9007 49.8703C33.563 50.951 33.2927 52.1123 33.0896 53.3543C32.8133 55.0446 32.5168 56.6657 31.9791 59.6257C31.8153 60.5321 31.7319 61.2638 31.5792 62.1572C31.4733 62.7788 31.4361 63.2864 31.4676 63.6799C31.6083 65.4585 32.558 66.9039 34.5419 66.7694C34.6959 66.7587 34.8645 66.7239 35.0474 66.665C35.5036 66.5185 35.8051 66.4322 36.2714 66.2404C36.8845 65.9882 37.466 65.7426 38.0161 65.5037C39.7658 64.7418 41.634 65.052 43.3998 65.6452C43.712 65.7503 44.4721 66.0514 45.6801 66.5486C46.0285 66.6918 46.4164 66.7644 46.8439 66.7664C47.9886 66.7704 48.7021 65.9192 48.7524 64.8272C48.7651 64.5555 48.7715 64.4193 48.7715 64.4186C48.8585 63.4631 48.8525 62.46 48.7534 61.4094C48.7302 61.1554 48.7393 60.8674 48.7101 60.6084C48.5085 58.7802 48.3477 56.9895 48.2278 55.2363C48.2107 54.9954 48.1534 54.7876 48.1463 54.5397C48.1437 54.4567 48.1182 54.2831 48.07 54.0188C47.877 52.9615 47.6315 51.9102 47.3333 50.865C47.331 50.8568 47.3267 50.8492 47.3209 50.843C47.315 50.8367 47.3078 50.8319 47.2998 50.829C47.2917 50.826 47.2831 50.825 47.2746 50.8261C47.2661 50.8271 47.258 50.8301 47.2509 50.8349C47.2415 50.8416 47.2311 50.8616 47.2198 50.8951ZM62.5237 45.0733C61.0112 44.4791 59.5238 44.457 58.0133 44.999C57.4056 45.2172 56.8884 45.4718 56.4616 45.7629C55.4379 46.4608 54.5682 47.3656 53.8527 48.477C53.0869 49.6675 52.5777 50.9466 52.3251 52.3144C52.0705 53.6976 51.9241 54.8981 51.8859 55.9159C51.8598 56.6355 51.8045 57.3773 51.7784 57.9886C51.7556 58.5059 51.7321 58.9107 51.708 59.2031C51.6852 59.4755 51.6568 59.8429 51.6226 60.3053C51.6186 60.3621 51.6149 60.419 51.6115 60.4759C51.5807 61.0306 51.5197 61.842 51.4286 62.91C51.3985 63.2593 51.3787 63.5487 51.3693 63.7782C51.3422 64.4688 51.297 65.0992 51.5794 65.6041C51.8782 66.1374 52.3402 66.4235 52.9653 66.4623C53.5415 66.4977 54.0895 66.3897 54.6094 66.1381C55.2312 65.8369 55.7725 65.5837 56.2335 65.3782C57.8073 64.6766 59.4012 65.0008 60.9549 65.6272C62.0956 66.0879 63.2151 66.6801 64.3759 66.932C64.8884 67.0431 65.3557 67.0679 65.7778 67.0063C66.2944 66.93 66.7282 66.7637 67.0793 66.5075C67.8203 65.9668 68.2404 65.227 68.3395 64.2881C68.3563 64.1342 68.3379 63.8592 68.2843 63.4631C68.235 63.0977 68.2169 62.7845 68.1828 62.4844C68.038 61.2096 67.903 60.1018 67.7777 59.161C67.7385 58.8659 67.7476 58.631 67.7094 58.368C67.6772 58.1546 67.6525 57.9568 67.635 57.7748C67.5613 57.0086 67.4933 56.4639 67.431 56.1407C67.295 55.4327 67.0016 54.0532 66.5507 52.0022C66.3048 50.8834 65.9899 49.7839 65.606 48.7039C65.342 47.9611 64.9919 47.2819 64.5558 46.6663C64.0241 45.9175 63.3035 45.3805 62.5237 45.0733Z" fill="#787B83" stroke="#787B83" stroke-width="0.6"/>
<path d="M67.2514 52.0663C67.4906 51.0405 67.9589 50.116 68.5116 49.1354C69.5608 47.2714 70.9055 45.4105 72.41 44.0263C73.9416 42.619 76.0259 42.1894 77.666 43.6981C78.5544 44.5151 79.065 45.6032 79.4318 46.7434C79.7072 47.6006 79.9293 48.4327 80.0981 49.2398C80.1698 49.5837 80.217 49.9387 80.2398 50.3047C80.2402 50.3141 80.2435 50.323 80.2492 50.3304C80.2549 50.3378 80.2627 50.3432 80.2716 50.346C80.2806 50.3487 80.2901 50.3486 80.299 50.3457C80.3079 50.3429 80.3156 50.3373 80.3212 50.3298C80.885 49.6162 81.7895 49.2076 82.286 48.488C83.6487 46.5096 83.9783 43.8215 84.116 41.4737C84.1569 40.7878 84.1392 40.0146 84.0628 39.1541C83.979 38.2105 83.7063 37.2988 83.2447 36.4188C82.5372 35.0708 81.1171 34.2869 79.6931 33.8603C77.5072 33.2058 75.3294 33.1095 72.9124 33.0964C70.1842 33.083 67.8865 33.1165 66.0193 33.1968C64.0535 33.2811 62.0295 33.4558 60.3491 33.7268C57.3891 34.2039 55.7064 34.4732 55.3011 34.5348C52.268 34.9918 49.1747 35.0661 46.021 34.7576C44.5909 34.6181 43.1056 34.321 41.569 34.048C38.8294 33.5602 35.9032 33.2701 32.7904 33.1777C32.6376 33.1737 32.5284 33.171 32.4628 33.1697C29.8029 33.1376 27.8402 33.1285 26.5746 33.1426C25.8248 33.1506 25.1997 33.2018 24.3978 33.253C23.1335 33.334 21.9027 33.5441 20.7054 33.8834C19.6891 34.1718 18.794 34.5913 18.0201 35.1421C16.9076 35.933 16.2081 37.3654 15.9911 38.6672C15.8845 39.3103 15.846 39.9818 15.8755 40.6818C15.9344 42.0636 16.113 43.3692 16.4111 44.5984C16.8925 46.5828 17.8553 48.6777 19.5165 49.9183C19.5234 49.9234 19.5314 49.9267 19.5399 49.9278C19.5484 49.9289 19.557 49.9278 19.5649 49.9245C19.5728 49.9213 19.5797 49.9161 19.585 49.9093C19.5903 49.9026 19.5937 49.8946 19.5949 49.8862C19.6934 49.2307 19.9567 48.4338 20.2683 47.5484C20.8632 45.8571 21.7999 44.4619 23.5214 43.7924C26.3555 42.6923 28.5423 44.6325 29.9905 46.8127C31.029 48.3752 31.8869 50.0016 32.5643 51.6919C32.6226 51.8385 32.6557 52.0131 32.6959 52.1707C32.6845 52.2028 32.6668 52.2159 32.6427 52.2099C32.639 52.209 32.6356 52.2071 32.6328 52.2045C32.6299 52.2019 32.6278 52.1985 32.6266 52.1948C31.9995 50.378 31.0638 48.6907 30.0277 47.0536C29.6002 46.3784 29.1292 45.7785 28.6147 45.2539C27.4429 44.0594 25.9243 43.2825 24.1988 43.6981C22.2843 44.1588 21.1496 45.4897 20.4542 47.3447C20.1313 48.2066 19.8803 49.0343 19.7015 49.828C19.6794 49.9263 19.6023 49.9782 19.4703 49.9835C19.4374 49.9855 19.4053 49.9746 19.3809 49.9534C18.6968 49.3639 18.2148 48.8503 17.9347 48.4127C17.0148 46.9753 16.4078 45.3924 16.1137 43.6639C15.8614 42.1784 15.6604 40.6346 15.8132 39.131C15.9689 37.5902 16.7378 35.92 18.0292 35.0076C18.6764 34.5505 19.4449 34.1791 20.3346 33.8934C21.5044 33.5173 22.7827 33.2741 24.1696 33.1637C24.8068 33.1128 25.2761 33.0847 25.5776 33.0794C26.9585 33.0546 29.3513 33.0606 32.7562 33.0974C35.4469 33.1275 38.0535 33.3531 40.576 33.774C41.78 33.9747 43.1897 34.2163 44.805 34.4987C45.3296 34.5903 46.0726 34.6686 47.0341 34.7335C47.8716 34.7898 48.6588 34.8306 49.3958 34.856C49.9807 34.8754 50.5502 34.8573 51.1043 34.8018C51.5274 34.7596 52.0208 34.7867 52.5102 34.7275C52.5853 34.7182 53.0439 34.6773 53.8861 34.6051C54.3155 34.5689 54.7715 34.512 55.2538 34.4344C57.3871 34.0925 58.8359 33.8593 59.6004 33.7348C60.6476 33.5648 61.6533 33.4327 62.6174 33.3383C64.22 33.1811 65.2307 33.0954 65.6494 33.0814C66.4809 33.0526 67.184 33.0335 67.7589 33.0242C67.848 33.0221 67.9505 33.0191 68.0664 33.0151C69.393 32.9636 71.469 32.9579 74.2943 32.9981C74.5365 33.0021 74.835 33.0543 75.0983 33.0573C76.6989 33.078 78.2603 33.3169 79.7825 33.774C80.6528 34.0356 81.412 34.3993 82.0598 34.865C82.4893 35.1742 82.8534 35.5677 83.1523 36.0454C83.7281 36.9659 84.114 38.1955 84.1834 39.3548C84.2765 40.922 84.2058 42.4728 83.9713 44.0072C83.7422 45.5068 83.3251 46.9522 82.5744 48.225C82.3533 48.5997 82.098 48.9045 81.8086 49.1394C81.7717 49.1688 81.4354 49.4449 80.7996 49.9675C80.6837 50.0625 80.5567 50.1866 80.4187 50.3399C80.3995 50.3615 80.3745 50.3771 80.3467 50.385C80.3188 50.3928 80.2893 50.3924 80.2617 50.384C80.234 50.3755 80.2094 50.3593 80.1907 50.3372C80.1721 50.3152 80.1601 50.2882 80.1564 50.2596C79.9788 48.9293 79.6465 47.605 79.1594 46.2867C78.9343 45.6785 78.671 45.1391 78.3695 44.6687C78.2074 44.4157 77.9514 44.1196 77.6017 43.7804C76.2339 42.4554 74.2792 42.6582 72.8783 43.7864C72.2592 44.2849 71.6227 44.938 70.9688 45.7457C70.2754 46.6009 69.7595 47.2978 69.4211 47.8365C68.582 49.1735 67.7549 50.5246 67.3609 52.0312C67.3522 52.0653 67.3157 52.077 67.2514 52.0663Z" fill="#787B83"/>
<path d="M67.5817 53.2801C67.5422 53.3872 67.5275 53.4962 67.5375 53.6073C67.567 53.9506 67.6129 54.2889 67.6752 54.6221C67.8447 55.5268 68.0159 56.4509 68.1887 57.3945C68.2236 57.5825 68.2644 57.707 68.3113 57.7679C68.3392 57.8034 68.3785 57.8274 68.4219 57.8351C68.7924 57.9 69.1428 58.0205 69.4731 58.1965C70.2238 58.595 71.2087 59.142 72.273 59.7934C73.4287 60.4991 74.4297 61.0843 75.5704 61.4376C76.1844 61.6283 77.2165 61.7217 77.8255 61.4005C78.1217 61.2445 78.3652 61.0471 78.5562 60.8082C79.5712 59.5415 80.0255 57.8462 80.1802 56.195C80.3048 54.8613 80.2429 53.5558 79.9943 52.2784C79.6754 50.6382 79.4158 49.3845 79.2154 48.5173C78.7984 46.7035 78.2296 44.9359 76.7773 43.9211C76.2879 43.5788 75.4498 43.2978 74.8488 43.4524C74.615 43.5133 74.3007 43.6367 73.9061 43.8227C73.5209 44.0048 73.1236 44.2888 72.7142 44.6749C71.3776 45.9366 70.3474 47.4613 69.3334 49.0543C68.5535 50.2799 67.9958 51.5577 67.8088 53.0051C67.7988 53.084 67.767 53.1429 67.7134 53.1817C67.6826 53.1944 67.6631 53.1881 67.6551 53.1627C67.6532 53.1568 67.6535 53.15 67.6561 53.1436C67.7576 52.9097 67.7455 52.709 67.8018 52.3998C67.9934 51.3506 68.4859 50.2009 69.2791 48.9509C69.9572 47.8823 70.6798 46.8547 71.4469 45.8684C71.8181 45.3913 72.2402 44.9436 72.7132 44.5254C73.138 44.1506 73.5061 43.8923 73.8177 43.7505C74.0622 43.6387 74.3684 43.5089 74.7362 43.361C74.7636 43.3503 74.7922 43.3423 74.8216 43.3369C75.4809 43.2115 76.2819 43.4353 76.7894 43.7916C76.9737 43.9215 77.1204 44.0208 77.2296 44.0897C77.3022 44.1357 77.3676 44.1915 77.4236 44.2554C78.0922 45.0135 78.5887 45.9323 78.9129 47.0117C79.1628 47.8434 79.3809 48.718 79.5672 49.6355C79.6054 49.8215 79.7166 50.3572 79.9008 51.2425C80.136 52.3667 80.2918 53.3855 80.3722 54.4655C80.3896 54.6984 80.3842 54.9788 80.3561 55.3067C80.328 55.6386 80.3052 55.9196 80.2878 56.1498C80.1966 57.3898 79.9082 58.5441 79.4225 59.6128C79.2335 60.0297 78.9689 60.4482 78.6285 60.8685C77.314 62.4905 75.0739 61.4918 73.6036 60.6928C73.3008 60.5289 72.5142 60.0624 71.2439 59.2936C70.7173 58.9754 70.0359 58.618 69.4982 58.3219C69.1733 58.1439 68.8108 58.0128 68.4108 57.9285C68.1164 57.8662 68.0521 57.2841 68.0028 57.006C67.8105 55.9206 67.6688 55.1504 67.5777 54.6954C67.4819 54.2176 67.441 53.7826 67.4551 53.3905C67.4571 53.3296 67.4919 53.2781 67.5596 53.2359C67.5623 53.2344 67.5652 53.2336 67.5682 53.2335C67.5713 53.2334 67.5743 53.234 67.577 53.2352C67.5798 53.2365 67.5822 53.2384 67.5841 53.2408C67.5859 53.2432 67.5872 53.246 67.5878 53.249C67.5898 53.261 67.5878 53.2714 67.5817 53.2801Z" fill="#787B83"/>
<path d="M29.0357 46.4374C29.088 46.5505 29.1714 46.6689 29.286 46.7927C29.302 46.8107 29.3171 46.8295 29.3312 46.8489C29.4511 47.0115 29.9382 47.8286 30.7924 49.3001C31.5448 50.5956 32.0624 51.873 32.3451 53.1324C32.4302 53.5118 32.4704 53.8357 32.4657 54.104C32.4604 54.3884 32.4219 54.7136 32.3502 55.0797C32.0239 56.7519 31.778 58.1565 31.6125 59.2934C31.5515 59.7076 31.3167 60.063 30.908 60.3594C30.5569 60.6137 30.1 60.8596 29.5372 61.0972C28.1121 61.6994 26.5645 62.1608 24.8942 62.4813C24.3682 62.5824 23.8423 62.6406 23.3163 62.656C22.3522 62.6834 21.5499 62.4743 20.9094 62.0286C19.0823 60.7589 18.8874 58.7323 19.016 56.6455C19.0455 56.161 19.1081 55.4942 19.2039 54.645C19.2756 54.0113 19.3855 53.3512 19.5336 52.6646C19.7312 51.7452 19.9393 50.8318 20.1577 49.9244C20.5054 48.477 20.9898 46.9884 21.8229 45.7689C22.0916 45.3761 22.4313 45.0472 22.842 44.7822C23.2493 44.5192 23.6915 44.3071 24.1686 44.1458C24.3133 44.0963 24.529 44.0565 24.8158 44.0263C25.7253 43.932 26.8227 44.4118 27.489 44.9287C27.891 45.2399 28.3959 45.7264 29.0036 46.3882C29.0169 46.4028 29.0277 46.4194 29.0357 46.4374ZM31.4638 59.4831C31.7137 57.9266 31.9813 56.3882 32.2667 54.8679C32.3639 54.3499 32.3853 53.9387 32.3311 53.6343C32.0845 52.2404 31.6061 50.9288 30.8959 49.6996C29.7131 47.6519 28.9593 46.1844 27.3222 44.9679C26.4268 44.3014 25.1886 43.9049 24.1163 44.2783C23.654 44.4389 23.2326 44.6433 22.852 44.8916C22.0651 45.4055 21.5064 46.34 21.1506 47.2032C20.4843 48.8152 20.2019 50.1653 19.7547 52.1206C19.3597 53.843 19.1738 55.5705 19.0914 57.2949C19.0619 57.9179 19.1111 58.562 19.2391 59.2272C19.3825 59.9746 19.6234 60.5665 19.9617 61.0028C20.9305 62.2535 22.3204 62.7413 23.8791 62.5295C25.4456 62.316 26.9845 61.9363 28.496 61.3902C29.1667 61.148 29.7694 60.888 30.304 60.6103C30.7006 60.4042 30.9636 60.2236 31.0929 60.0683C31.3214 59.7946 31.445 59.5996 31.4638 59.4831Z" fill="#787B83"/>
<path d="M67.1406 52.0955C67.1366 52.1169 67.1279 52.1296 67.1145 52.1336C67.1098 52.135 67.105 52.1354 67.1002 52.1349C67.0954 52.1344 67.0908 52.1329 67.0866 52.1306C67.0823 52.1282 67.0786 52.1251 67.0757 52.1213C67.0727 52.1175 67.0705 52.1132 67.0692 52.1085C66.7326 50.8498 66.3014 49.3342 65.7055 47.9329C65.4924 47.4317 65.2442 46.974 64.9608 46.5598C64.6546 46.1114 64.3028 45.7267 63.9055 45.4055C62.9397 44.6246 61.6373 44.1668 60.3429 44.1839C59.8089 44.1906 59.5017 44.196 59.4213 44.2C59.1151 44.216 58.6458 44.3154 58.0133 44.4981C57.9296 44.5222 57.5946 44.6577 57.0083 44.9046C56.6271 45.0645 56.3092 45.2355 56.0546 45.4175C55.4791 45.8297 55.0633 46.17 54.8074 46.4383C53.4587 47.8516 52.5251 49.4978 52.0467 51.419C51.847 52.2213 51.7033 52.9948 51.6156 53.7396C51.5573 54.2348 51.5067 54.5931 51.4638 54.8146C51.3965 55.1619 50.7402 55.0555 50.4317 55.0033C49.8418 54.905 49.3915 54.8709 48.874 55.0033C48.8499 55.0095 48.8249 55.0105 48.8004 55.0062C48.776 55.0018 48.7528 54.9923 48.7324 54.9782C48.712 54.9641 48.6949 54.9458 48.6822 54.9245C48.6695 54.9032 48.6616 54.8794 48.6589 54.8548C48.5081 53.4843 48.2093 52.0975 47.7624 50.6942C47.4891 49.835 47.1745 48.9527 46.6891 48.2049C45.3314 46.1131 43.3646 44.6075 40.8502 44.2271C40.6465 44.1963 40.2676 44.1816 39.7135 44.1829C38.1327 44.1859 36.5629 44.8404 35.4875 45.9706C34.9395 46.5474 34.496 47.2233 34.1569 47.9982C33.556 49.3713 33.2303 50.6561 32.9329 52.1537C32.9248 52.1938 32.9007 52.2149 32.8605 52.2169C32.8451 52.2176 32.8317 52.2086 32.8203 52.1898C33.0947 50.7484 33.4434 49.3673 34.0404 48.0062C34.4745 47.0155 35.1177 46.0248 35.9659 45.3854C37.0419 44.5744 38.195 44.1344 39.4251 44.0655C41.9174 43.9269 44.1465 45.017 45.8108 46.872C46.5223 47.6649 47.0348 48.4569 47.3484 49.2478C48.0894 51.1202 48.5611 53.0079 48.7634 54.911C48.7641 54.9162 48.7659 54.9212 48.7687 54.9257C48.7714 54.9302 48.7751 54.934 48.7795 54.937C48.7839 54.9399 48.7888 54.9419 48.794 54.9428C48.7992 54.9437 48.8045 54.9434 48.8096 54.9421C49.211 54.8364 49.6006 54.808 49.9784 54.8568C50.3349 54.903 50.7101 54.9378 51.104 54.9612C51.2829 54.9719 51.3791 54.8976 51.3925 54.7384C51.5117 53.2501 51.7777 51.8552 52.1904 50.5537C52.6195 49.2037 53.4034 47.8647 54.2949 46.8288C55.3715 45.5788 56.7383 44.7276 58.3952 44.2753C59.2501 44.0417 60.1285 43.9848 61.0303 44.1046C63.0624 44.3746 64.6623 45.4968 65.5597 47.3588C66.2472 48.7841 66.6773 50.2526 67.1094 51.8757C67.1282 51.9473 67.1386 52.0205 67.1406 52.0955Z" fill="#787B83"/>
<path d="M42.1659 45.1506C41.3613 44.8743 40.5972 44.7361 39.8736 44.7361C37.8696 44.7354 36.326 45.5732 35.2426 47.2495C34.2286 48.8184 33.723 50.5819 33.3874 52.3245C33.0849 53.8943 32.8718 55.3247 32.5301 57.1666C32.2769 58.533 32.032 59.9667 31.7955 61.4676C31.6076 62.6601 31.4397 63.5835 31.7302 64.6154C32.0548 65.7667 32.7864 66.5466 34.0215 66.6801C34.3478 66.7149 34.7488 66.6554 35.2245 66.5014C36.3601 66.1321 37.4656 65.579 38.3882 65.2458C40.6715 64.4197 43.2734 65.3903 45.3759 66.3178C46.4572 66.7945 47.7135 66.8809 48.3446 65.8661C48.5295 65.5683 48.6421 65.036 48.6823 64.2691C48.7171 63.612 48.7251 63.0606 48.7064 62.6149C48.6752 61.8631 48.6471 61.0059 48.5577 60.1427C48.4203 58.8304 48.2813 57.3037 48.1406 55.5626C48.0153 54.0081 47.7084 52.4523 47.22 50.8951C47.2314 50.8617 47.2418 50.8416 47.2512 50.8349C47.2583 50.8301 47.2664 50.8271 47.2749 50.8261C47.2834 50.8251 47.292 50.8261 47.3 50.829C47.3081 50.8319 47.3153 50.8367 47.3211 50.843C47.327 50.8492 47.3312 50.8568 47.3336 50.865C47.6317 51.9102 47.8773 52.9615 48.0702 54.0188C48.1185 54.2831 48.1439 54.4568 48.1466 54.5397C48.1536 54.7877 48.2109 54.9954 48.228 55.2363C48.3479 56.9896 48.5087 58.7803 48.7104 60.6084C48.7396 60.8674 48.7305 61.1555 48.7536 61.4094C48.8528 62.46 48.8588 63.4631 48.7717 64.4187C48.7717 64.4193 48.7653 64.5555 48.7526 64.8272C48.7024 65.9193 47.9888 66.7705 46.8441 66.7664C46.4167 66.7644 46.0288 66.6918 45.6804 66.5486C44.4724 66.0514 43.7123 65.7503 43.4001 65.6453C41.6343 65.052 39.766 64.7419 38.0164 65.5037C37.4663 65.7426 36.8847 65.9882 36.2717 66.2405C35.8054 66.4322 35.5039 66.5185 35.0476 66.6651C34.8647 66.7239 34.6962 66.7587 34.5421 66.7695C32.5583 66.904 31.6086 65.4586 31.4679 63.6799C31.4364 63.2864 31.4736 62.7789 31.5794 62.1572C31.7322 61.2639 31.8156 60.5321 31.9794 59.6257C32.5171 56.6657 32.8135 55.0446 33.0899 53.3543C33.2929 52.1123 33.5633 50.951 33.9009 49.8703C34.1301 49.1375 34.4617 48.3841 34.8959 47.6098C35.3394 46.8202 35.8677 46.1966 36.4807 45.7388C37.5051 44.974 38.6525 44.6023 39.9228 44.6237C40.5586 44.6344 41.2936 44.7679 42.1277 45.0242C42.1418 45.0283 42.1539 45.0373 42.1619 45.0496C42.17 45.0619 42.1736 45.0767 42.172 45.0914L42.1659 45.1506Z" fill="#787B83"/>
<path d="M62.5239 45.0734C63.3038 45.3805 64.0244 45.9175 64.556 46.6663C64.9922 47.282 65.3423 47.9612 65.6062 48.7039C65.9901 49.784 66.305 50.8834 66.5509 52.0023C67.0018 54.0533 67.2953 55.4328 67.4313 56.1407C67.4936 56.4639 67.5616 57.0087 67.6353 57.7749C67.6527 57.9569 67.6775 58.1546 67.7097 58.3681C67.7479 58.6311 67.7388 58.8659 67.778 59.161C67.9033 60.1019 68.0383 61.2097 68.183 62.4845C68.2172 62.7846 68.2353 63.0977 68.2845 63.4631C68.3381 63.8593 68.3566 64.1343 68.3398 64.2882C68.2406 65.227 67.8206 65.9668 67.0796 66.5075C66.7285 66.7638 66.2947 66.9301 65.7781 67.0064C65.356 67.0679 64.8887 67.0432 64.3761 66.9321C63.2154 66.6801 62.0958 66.0879 60.9552 65.6272C59.4015 65.0009 57.8075 64.6766 56.2337 65.3783C55.7728 65.5837 55.2314 65.837 54.6097 66.1381C54.0898 66.3897 53.5417 66.4978 52.9655 66.4623C52.3404 66.4235 51.8785 66.1374 51.5796 65.6041C51.2972 65.0992 51.3425 64.4689 51.3696 63.7783C51.379 63.5488 51.3988 63.2593 51.4289 62.91C51.52 61.8421 51.581 61.0307 51.6118 60.4759C51.6152 60.4191 51.6188 60.3622 51.6229 60.3053C51.657 59.8429 51.6855 59.4755 51.7083 59.2032C51.7324 58.9108 51.7559 58.5059 51.7786 57.9886C51.8048 57.3774 51.86 56.6356 51.8862 55.9159C51.9244 54.8981 52.0708 53.6976 52.3254 52.3144C52.5779 50.9467 53.0871 49.6675 53.8529 48.4771C54.5685 47.3656 55.4381 46.4609 56.4619 45.7629C56.8887 45.4719 57.4059 45.2172 58.0136 44.9991C59.5241 44.4571 61.0114 44.4792 62.5239 45.0734ZM68.1911 63.7321C68.1509 63.2583 68.1087 62.7535 68.0554 62.3439C67.8309 60.6101 67.6353 58.9071 67.4685 57.2348C67.4152 56.6988 67.3107 56.0384 67.2353 55.688C67.2125 55.5843 66.9797 54.4872 66.5369 52.3967C66.1885 50.7526 65.7379 49.2952 65.1851 48.0244C64.8696 47.2984 64.4612 46.6854 63.9601 46.1855C62.6918 44.9228 60.7532 44.4912 59.0155 44.8305C55.4398 45.5291 53.071 48.9448 52.4299 52.3225C52.2604 53.2165 52.1465 54.0379 52.0882 54.7867C52.0205 55.6466 51.9297 57.0869 51.8158 59.1078C51.7776 59.7757 51.6564 61.4466 51.452 64.1206C51.4219 64.5167 51.4524 64.8891 51.5435 65.2377C51.7776 66.1291 52.668 66.4724 53.5163 66.3519C54.3916 66.2264 55.0358 65.833 56.0559 65.3351C58.5422 64.1196 60.9572 65.5479 63.2385 66.4784C64.947 67.175 66.975 67.2091 67.9448 65.3401C68.1971 64.8543 68.2373 64.2731 68.1911 63.7321Z" fill="#787B83"/>
<path d="M68.2928 58.5869C68.5159 60.0096 68.6938 61.4329 68.8265 62.8569C68.9243 63.9021 68.928 64.6262 68.8375 65.029C68.3521 67.2051 66.125 67.9549 64.102 67.448C63.3593 67.2613 62.6629 66.9903 61.8267 66.6139C60.4358 65.9876 58.9746 65.3974 57.5063 65.6232C55.7858 65.8892 54.1537 67.5675 52.1929 66.9291C51.0271 66.5487 50.7246 65.0601 50.7598 64.0052C50.7779 63.4457 50.8014 63.0084 50.8302 62.6933C50.9668 61.1823 51.1283 59.1172 51.3146 56.4981C51.3407 56.1301 51.3554 55.8293 51.3588 55.5957C51.3589 55.589 51.3575 55.5824 51.3547 55.5763C51.352 55.5702 51.3479 55.5647 51.3429 55.5603C51.3378 55.5559 51.3318 55.5527 51.3254 55.5508C51.3189 55.549 51.3122 55.5485 51.3055 55.5496C50.5307 55.6811 49.7578 55.4572 48.981 55.6188C48.9366 55.6282 48.8971 55.6535 48.8701 55.6899C48.8431 55.7263 48.8303 55.7714 48.8343 55.8166C49.0473 58.2463 49.1947 60.0246 49.2765 61.1515C49.3167 61.7086 49.3307 62.2847 49.3398 62.6963C49.3626 63.7168 49.3498 64.4267 49.3016 64.8262C49.2262 65.4546 49.0815 66.2285 48.589 66.6882C47.6765 67.5394 46.5339 67.5354 45.4103 67.0887C44.4445 66.7063 43.5732 66.3148 42.536 66.0066C41.0617 65.568 39.4437 65.5319 38.0116 66.1281C36.5242 66.7474 35.2067 67.436 33.7143 67.2694C32.7937 67.1663 32.0647 66.7109 31.5274 65.9033C30.6099 64.5241 30.8058 62.4604 31.2651 60.9588C31.2778 60.9501 31.2912 60.9471 31.3053 60.9497C31.3135 60.9512 31.3208 60.9558 31.3257 60.9625C31.3305 60.9693 31.3326 60.9777 31.3314 60.9859C31.2946 61.2281 31.2527 61.4536 31.2058 61.6624C30.9897 62.62 30.9606 63.6599 31.0832 64.4709C31.1937 65.197 31.5301 65.842 32.0922 66.4061C32.5153 66.8307 33.0379 67.0435 33.5886 67.1389C34.4991 67.2965 35.3936 67.0887 36.3001 66.7203C37.6025 66.1903 38.6708 65.6262 40.0175 65.5811C41.333 65.5359 42.6687 65.8501 43.8294 66.3238C44.8217 66.7287 45.4227 66.9719 45.6324 67.0536C45.9151 67.1633 46.232 67.2369 46.5831 67.2744C47.296 67.3493 47.9371 67.1315 48.5066 66.6209C48.8825 66.2837 48.9559 65.9334 49.0845 65.4405C49.1294 65.2686 49.1599 65.0882 49.176 64.8995C49.2637 63.8931 49.2868 63.0894 49.2453 62.4885C49.2131 62.0268 49.1914 61.6648 49.18 61.4024C49.1679 61.1381 49.1445 60.7758 49.1096 60.3154C49.0185 59.1236 48.9026 57.7658 48.7619 56.2422C48.7287 55.8778 48.6554 55.5967 49.0664 55.5104C49.2212 55.4783 49.4148 55.4602 49.6473 55.4562C49.7686 55.4542 50.3032 55.4569 51.2513 55.4642C51.3003 55.4645 51.3473 55.4836 51.3825 55.5176C51.4177 55.5517 51.4384 55.598 51.4402 55.6469C51.4469 55.8055 51.4446 55.9949 51.4332 56.215C51.397 56.9163 51.2995 58.2704 51.1407 60.2772C50.9598 62.5537 50.8684 63.705 50.8663 63.7311C50.798 64.7861 51.0111 66.3881 52.2181 66.8177C53.7054 67.3467 55.0451 66.3871 56.445 65.8199C57.0869 65.5596 57.7492 65.4409 58.4319 65.4636C59.3545 65.4947 60.3504 65.8762 61.1674 66.2114C61.4247 66.3165 61.677 66.4245 61.9242 66.5356C62.7711 66.9144 63.5365 67.1901 64.2206 67.3627C64.707 67.4862 65.4517 67.5504 65.9653 67.4581C66.9622 67.2784 67.939 66.7856 68.4154 65.8822C68.6613 65.4151 68.7829 64.9186 68.7802 64.3926C68.7769 63.8994 68.7561 63.4093 68.7179 62.9221C68.6362 61.8889 68.4693 60.5419 68.2174 58.881C68.1893 58.697 68.2144 58.599 68.2928 58.5869Z" fill="#787B83"/>
</g>
<rect opacity="0.7" x="16.5" y="45.5" width="67" height="26" rx="13" stroke="#CF1039" stroke-width="3"/>
</g>
</svg>
