<svg width="100" height="100" viewBox="0 0 100 100" fill="none" xmlns="http://www.w3.org/2000/svg">
<circle cx="50" cy="50" r="50" fill="white"/>
<mask id="mask0_500_5484" style="mask-type:alpha" maskUnits="userSpaceOnUse" x="33" y="19" width="34" height="62">
<rect x="33" y="19" width="34" height="62" fill="#D9D9D9"/>
</mask>
<g mask="url(#mask0_500_5484)">
<path d="M43.6689 42.2082C43.6689 42.194 43.6634 42.1805 43.6537 42.1705C43.6439 42.1605 43.6306 42.1548 43.6167 42.1548C42.5061 42.1569 41.2452 42.1579 39.8339 42.1579C39.4711 42.1579 39.1785 42.133 38.9563 42.0831C38.2021 41.9139 37.8095 41.5775 37.3235 40.9295C37.0436 40.5576 36.7953 40.1433 36.5784 39.6867C34.7989 35.945 33.9464 31.6927 34.0026 27.5593C34.0247 25.9566 34.2637 24.0032 35.2388 22.6661C36.3926 21.0839 37.8236 20.443 39.6693 20.1518C41.049 19.9344 42.4884 19.9505 43.9873 20.2C45.3972 20.4348 46.9516 20.804 48.4047 21.0029C49.7831 21.1923 51.2596 21.1335 52.8342 20.8265C54.8958 20.4246 55.8849 20.1692 57.4414 20.0452C58.9624 19.9235 60.3653 20.0578 61.65 20.4482C63.3906 20.9773 64.612 22.0734 65.3143 23.7366C65.7451 24.7579 65.8837 25.9094 65.959 27.0456C65.9851 27.438 65.9985 27.7032 65.9991 27.8413C66.0323 32.0352 65.1124 36.2998 63.2487 40.0476C63.1348 40.276 62.9233 40.6003 62.614 41.0207C62.0804 41.7474 61.3598 42.1203 60.452 42.1395C59.3079 42.1648 57.9104 42.1682 56.2595 42.1497C56.2537 42.1496 56.248 42.1506 56.2427 42.1528C56.2373 42.1549 56.2324 42.1581 56.2283 42.1623C56.2242 42.1664 56.2209 42.1713 56.2187 42.1767C56.2165 42.1821 56.2153 42.1879 56.2153 42.1938V47.6048C56.2154 47.6187 56.2203 47.6321 56.2291 47.6426C56.2379 47.6531 56.2501 47.6601 56.2635 47.6623C56.4838 47.6992 56.6561 47.734 56.7807 47.7668C57.3731 47.9227 57.8816 48.1606 58.306 48.4805C59.5311 49.4034 60.0041 51.1055 60.1708 52.579C60.3382 54.0693 60.381 55.59 60.2993 57.141C60.1849 59.3108 59.9914 61.3835 59.7189 63.3591C59.2389 66.8379 58.4992 70.2101 57.4997 73.4757C57.2761 74.2071 56.9758 75.038 56.5989 75.9684C56.0225 77.3917 55.3909 78.6632 54.3997 79.5901C53.8956 80.0628 52.9738 80.2576 52.7388 79.3635C52.6424 78.9957 52.5929 78.6119 52.5902 78.212C52.5848 77.3848 52.5942 76.7016 52.6183 76.1622C52.623 76.048 52.6702 74.7663 52.7599 72.317C52.8549 69.7036 52.7616 67.1048 52.4797 64.5208C52.3719 63.5317 52.1965 62.5312 51.9535 61.5195C51.7517 60.6797 50.9855 57.8568 50.0928 57.7399C48.8576 57.5768 48.0482 61.2652 47.8855 62.1183C47.4825 64.2307 47.2486 66.3915 47.1836 68.6009C47.1495 69.774 47.0862 71.2567 47.1314 72.7507C47.1776 74.2922 47.2432 75.9332 47.3282 77.6736C47.353 78.1843 47.3061 78.658 47.1876 79.0948C46.9757 79.8752 46.1985 80.2864 45.4976 79.7716C44.9041 79.3368 44.394 78.4847 44.0857 77.8859C43.4484 76.6506 42.8884 75.2657 42.4057 73.731C40.7106 68.3487 39.8641 62.7418 39.615 57.1739C39.5518 55.7619 39.5759 54.6647 39.6793 53.3235C39.8741 50.8225 40.6554 47.976 43.5977 47.6889C43.6173 47.6869 43.6354 47.6776 43.6486 47.6628C43.6618 47.648 43.669 47.6288 43.6689 47.6089V42.2082ZM49.9943 41.4412C52.4667 41.4425 54.1042 41.4439 54.9068 41.4453C56.5243 41.4473 58.1644 41.4473 59.8274 41.4453C60.3409 41.4446 60.6729 41.4285 60.8235 41.3971C61.7765 41.1992 62.4634 39.942 62.8379 39.1186C64.3871 35.7191 65.2115 32.1391 65.3113 28.3786C65.3327 27.5754 65.2714 26.6583 65.1275 25.6275C64.9016 24.0073 64.2689 22.7943 63.0016 21.8632C62.5129 21.5036 61.9171 21.2377 61.2142 21.0654C60.0286 20.7749 58.8801 20.6683 57.7688 20.7455C55.9371 20.8727 54.224 21.2921 52.5199 21.5976C51.661 21.7521 50.8221 21.829 50.0034 21.8283C49.1846 21.8283 48.3461 21.7508 47.4879 21.5956C45.7838 21.288 44.0716 20.8665 42.24 20.7373C41.1287 20.6594 39.9799 20.765 38.7936 21.0542C38.0907 21.2258 37.4948 21.491 37.0061 21.8499C35.7379 22.7799 35.1042 23.9919 34.8763 25.6121C34.7317 26.6429 34.6694 27.56 34.6895 28.3632C34.7859 32.1237 35.607 35.7044 37.1528 39.1053C37.5263 39.9297 38.2122 41.1869 39.1652 41.3858C39.3158 41.4179 39.6478 41.4343 40.1613 41.435C41.8243 41.4391 43.4644 41.4408 45.0818 41.4401C45.8845 41.4395 47.522 41.4398 49.9943 41.4412ZM55.4682 42.1928C55.4682 42.1881 55.4673 42.1834 55.4655 42.179C55.4637 42.1747 55.4612 42.1707 55.4579 42.1674C55.4546 42.1641 55.4508 42.1614 55.4465 42.1596C55.4422 42.1578 55.4377 42.1569 55.433 42.1569H44.4894C44.4801 42.1569 44.4711 42.1607 44.4645 42.1674C44.4579 42.1741 44.4542 42.1833 44.4542 42.1928V47.5105C44.4542 47.52 44.4579 47.5291 44.4645 47.5359C44.4711 47.5426 44.4801 47.5464 44.4894 47.5464H55.433C55.4377 47.5464 55.4422 47.5455 55.4465 47.5437C55.4508 47.5418 55.4546 47.5392 55.4579 47.5359C55.4612 47.5325 55.4637 47.5286 55.4655 47.5242C55.4673 47.5199 55.4682 47.5152 55.4682 47.5105V42.1928ZM53.6245 79.2681C53.7912 79.2039 53.9485 79.088 54.0965 78.9205C55.2443 77.6213 55.8538 76.0166 56.4654 74.2437C57.1027 72.3952 57.6409 70.4582 58.0801 68.4327C58.6806 65.6614 59.1144 62.8805 59.3815 60.0901C59.6426 57.3748 59.7651 54.8565 59.4076 52.1914C59.1716 50.4411 58.3342 48.7676 56.4664 48.4282C56.0948 48.3606 55.6861 48.3134 55.2884 48.3124C51.7095 48.3028 48.0676 48.3024 44.3628 48.3113C42.0482 48.3175 40.8924 49.8228 40.556 51.9966C40.4274 52.8251 40.3427 53.6024 40.3019 54.3284C40.2631 55.0181 40.2597 55.7998 40.2919 56.6735C40.4639 61.4272 41.1273 66.0941 42.2822 70.6743C42.7675 72.602 43.365 74.4351 44.0746 76.1735C44.481 77.1695 44.9724 78.077 45.5488 78.8959C45.5729 78.9301 45.6609 79.009 45.8129 79.1328C46.1202 79.383 46.4024 79.2507 46.5359 78.8857C46.6163 78.6662 46.6363 78.1187 46.6253 77.849C46.5523 76.0607 46.488 74.3534 46.4325 72.7271C46.4097 72.062 46.403 71.4618 46.4124 70.9265C46.4579 68.482 46.5858 66.3563 46.796 64.5496C46.9938 62.8484 47.278 61.1893 47.8424 59.5651C48.1697 58.6207 49.0564 56.4612 50.4241 57.1041C51.3128 57.5225 51.8993 58.8125 52.2006 59.7517C52.8051 61.6446 53.1104 63.5672 53.277 65.6016C53.3862 66.9285 53.4561 68.0988 53.4869 69.1126C53.5371 70.7276 53.4347 72.4995 53.3875 74.2642C53.3443 75.8812 53.256 77.2225 53.3353 78.6949C53.3453 78.8809 53.3828 79.0473 53.4478 79.1943C53.4624 79.2271 53.4889 79.2529 53.5216 79.2666C53.5544 79.2803 53.5912 79.2809 53.6245 79.2681Z" fill="#787B83" stroke="#787B83" stroke-width="0.8"/>
<path d="M50.0036 21.8287C50.8224 21.8294 51.6612 21.7525 52.5201 21.598C54.2242 21.2924 55.9374 20.8731 57.769 20.7459C58.8803 20.6687 60.0288 20.7753 61.2144 21.0658C61.9173 21.2381 62.5132 21.504 63.0019 21.8636C64.2691 22.7947 64.9018 24.0077 65.1277 25.6278C65.2717 26.6587 65.3329 27.5758 65.3115 28.379C65.2117 32.1395 64.3873 35.7195 62.8382 39.119C62.4636 39.9424 61.7767 41.1995 60.8238 41.3974C60.6731 41.4289 60.3411 41.445 59.8276 41.4456C58.1647 41.4477 56.5245 41.4477 54.9071 41.4456C54.1044 41.4443 52.4669 41.4429 49.9946 41.4415C47.5223 41.4402 45.8848 41.4398 45.0821 41.4405C43.4647 41.4412 41.8245 41.4395 40.1615 41.4354C39.6481 41.4347 39.316 41.4183 39.1654 41.3862C38.2124 41.1872 37.5265 39.9301 37.153 39.1057C35.6072 35.7048 34.7861 32.1241 34.6897 28.3636C34.6696 27.5604 34.7319 26.6433 34.8765 25.6125C35.1044 23.9923 35.7381 22.7803 37.0064 21.8503C37.4951 21.4914 38.0909 21.2261 38.7938 21.0546C39.9801 20.7654 41.1289 20.6598 42.2402 20.7377C44.0719 20.8669 45.784 21.2883 47.4881 21.596C48.3464 21.7511 49.1849 21.8287 50.0036 21.8287Z" fill="#FBFBFB"/>
<path d="M53.6246 79.2679C53.5913 79.2806 53.5546 79.2801 53.5218 79.2664C53.489 79.2527 53.4626 79.2269 53.4479 79.1941C53.3829 79.0471 53.3454 78.8806 53.3354 78.6947C53.2561 77.2222 53.3444 75.881 53.3876 74.264C53.4348 72.4992 53.5372 70.7274 53.487 69.1124C53.4562 68.0986 53.3863 66.9283 53.2772 65.6014C53.1105 63.567 52.8052 61.6444 52.2007 59.7515C51.8994 58.8122 51.313 57.5223 50.4243 57.1039C49.0565 56.461 48.1698 58.6205 47.8425 59.5649C47.2781 61.1891 46.9939 62.8482 46.7961 64.5493C46.5859 66.3561 46.458 68.4817 46.4125 70.9263C46.4031 71.4615 46.4098 72.0617 46.4326 72.7269C46.4882 74.3532 46.5524 76.0605 46.6254 77.8488C46.6364 78.1184 46.6164 78.666 46.536 78.8854C46.4025 79.2505 46.1203 79.3827 45.813 79.1325C45.661 79.0088 45.573 78.9299 45.5489 78.8957C44.9725 78.0767 44.4811 77.1693 44.0748 76.1733C43.3651 74.4349 42.7676 72.6018 42.2823 70.674C41.1275 66.0939 40.464 61.427 40.292 56.6732C40.2598 55.7996 40.2632 55.0179 40.302 54.3281C40.3428 53.6022 40.4275 52.8249 40.5561 51.9964C40.8925 49.8225 42.0483 48.3173 44.363 48.3111C48.0678 48.3022 51.7096 48.3026 55.2886 48.3121C55.6862 48.3132 56.0949 48.3603 56.4665 48.428C58.3343 48.7674 59.1718 50.4409 59.4077 52.1912C59.7652 54.8562 59.6427 57.3746 59.3816 60.0899C59.1145 62.8803 58.6807 65.6612 58.0802 68.4325C57.641 70.458 57.1028 72.395 56.4655 74.2434C55.8539 76.0164 55.2444 77.6211 54.0966 78.9203C53.9486 79.0878 53.7913 79.2036 53.6246 79.2679Z" fill="url(#paint0_linear_500_5484)"/>
<path d="M55.4681 42.5002H44.4543L44.4541 47.3H55.4681L55.4681 42.5002Z" fill="#FBFBFB"/>
</g>
<defs>
<linearGradient id="paint0_linear_500_5484" x1="49.95" y1="48.3047" x2="49.95" y2="79.2771" gradientUnits="userSpaceOnUse">
<stop stop-color="#959595"/>
<stop offset="1" stop-color="#D3D3D3"/>
</linearGradient>
</defs>
</svg>
