<svg width="200" height="200" viewBox="0 0 200 200" fill="none" xmlns="http://www.w3.org/2000/svg">
<path d="M200 100C200 155.228 155.228 200 100 200C44.7715 200 0 155.228 0 100C0 44.7715 44.7715 0 100 0C155.228 0 200 44.7715 200 100Z" fill="white"/>
<mask id="mask0_177_28206" style="mask-type:alpha" maskUnits="userSpaceOnUse" x="20" y="48" width="160" height="104">
<path d="M20 48H180V152H20V48Z" fill="#D9D9D9"/>
</mask>
<g mask="url(#mask0_177_28206)">
<path d="M33.6016 79.1992L49.6016 72.1992L67.6016 68.1992L86.6016 71.1992L99.6016 77.1992L110.602 72.1992L128.602 69.1992L151.602 71.1992L167.602 81.1992L172.602 87.1992V98.1992L167.602 103.199L168.602 111.199L100.102 117.199L33.6016 111.199L32.6016 104.199L27.6016 94.1992L28.6016 86.1992L33.6016 79.1992Z" fill="#FFDBDF"/>
<path d="M47.1391 121.96C47.1284 121.992 47.111 122.021 47.0883 122.045C47.0656 122.07 47.038 122.089 47.0073 122.102C45.8061 122.608 44.5419 122.842 43.1879 123.079C41.1254 123.438 39.2825 123.308 37.0978 122.986C35.1251 122.695 33.2058 121.311 32.5279 119.39C32.2548 118.622 32.0657 117.642 32.0638 116.781C32.0575 114.402 32.074 113.001 32.1135 112.58C32.1345 112.366 32.2242 112.11 32.2452 111.879C32.4337 109.828 32.8576 107.774 33.5171 105.716C33.9544 104.353 34.4624 103.32 35.1289 102.118C36.1812 100.22 37.9457 98.9253 40.182 99.3626C42.8785 99.8916 44.8436 102.777 46.1518 105.244C46.8991 106.654 47.5981 108.102 48.2486 109.589C48.4071 109.952 48.4606 110.17 48.3747 110.59C47.6222 114.262 47.0837 118.074 47.183 121.762C47.1843 121.804 47.1696 121.87 47.1391 121.96Z" fill="#FFFFFD"/>
<path d="M153.095 122.148C153.057 122.136 153.024 122.112 153.001 122.08C152.977 122.048 152.965 122.009 152.965 121.969C152.971 118.156 152.553 114.396 151.71 110.69C151.659 110.467 151.672 110.234 151.748 110.018C151.96 109.417 152.232 108.769 152.566 108.074C154.034 105.012 157.172 98.4239 161.503 99.3406C162.804 99.6168 163.838 100.344 164.603 101.521C165.759 103.303 166.584 105.246 167.08 107.352C167.673 109.873 168.029 112.475 168.147 115.159C168.185 116.039 168.078 116.757 168.013 117.836C167.941 119.015 167.515 120.054 166.736 120.953C165.752 122.087 164.426 122.783 162.76 123.04C161.316 123.262 159.865 123.341 158.406 123.279C158.286 123.274 157.609 123.178 156.374 122.992C155.22 122.817 154.149 122.498 153.095 122.148Z" fill="#FFFFFD"/>
<path d="M68.1327 68.2693C69.1269 68.1815 70.2063 68.1761 71.371 68.2537C72.2441 68.3135 73.1484 68.3634 74.0839 68.4041C74.2721 68.3163 74.4998 68.322 74.7655 68.4197C74.7139 68.4945 74.7801 68.5413 74.9628 68.5603C78.6125 68.9231 81.6147 69.3284 83.9686 69.7752C84.6103 69.8974 86.4047 70.3188 89.3495 71.0369C89.9985 71.1947 90.5938 71.3716 91.1347 71.5701C91.9097 71.8565 92.6523 72.0346 93.496 72.3514C95.7072 73.1813 97.7749 74.0955 99.6972 75.0935C99.7893 75.1413 99.8923 75.1674 99.996 75.1678C100.099 75.168 100.201 75.1425 100.293 75.0955C103.429 73.4888 106.629 72.2038 109.892 71.24C110.464 71.0719 111.695 70.7533 113.582 70.2849C114.932 69.9502 116.176 69.6963 117.314 69.5232C120.073 69.1044 122.584 68.8042 124.844 68.6209C125.469 68.5713 126.062 68.531 126.623 68.5017C126.8 68.4928 127.331 68.4716 128.217 68.4373C130.105 68.3628 131.895 68.4821 133.564 68.4783C134.743 68.4758 135.865 68.5351 136.93 68.656C140.632 69.0781 143.184 69.3363 146.109 69.8748C146.477 69.9435 147.775 70.2327 150.002 70.742C152.96 71.418 155.664 72.4757 158.551 73.8142C161.012 74.9537 163.063 76.1194 164.703 77.3123C166.218 78.4146 167.516 79.5603 168.598 80.7478C169.548 81.7942 170.428 82.7227 171.129 83.6697C172.565 85.6098 173.56 88.0127 174.142 90.3767C174.378 91.3342 174.452 92.4172 174.367 93.6228C174.237 95.4456 173.745 97.1979 172.891 98.8807C172.247 100.145 171.205 101.445 170.275 102.39C170.162 102.505 169.713 102.889 168.932 103.545C168.814 103.643 168.728 103.775 168.683 103.922C168.639 104.069 168.638 104.227 168.682 104.375C168.953 105.299 169.256 106.501 169.59 107.978C169.913 109.411 170.102 110.662 170.158 111.728C170.187 112.28 170.319 112.715 170.351 113.254C170.442 114.682 170.42 116.177 170.285 117.738C170.075 120.186 169.213 122.335 167.23 123.834C166.823 124.14 166.27 124.413 165.572 124.652C164.065 125.165 162.663 125.425 161.369 125.431C160.039 125.438 158.997 125.444 158.242 125.449C157.765 125.453 157.402 125.431 157.154 125.383C156.747 125.302 156.221 125.345 155.709 125.246C154.651 125.04 153.716 124.821 152.904 124.594C152.767 124.555 152.619 124.565 152.488 124.623C152.358 124.68 152.25 124.781 152.185 124.908L151.828 125.625C151.824 125.631 151.819 125.638 151.814 125.644C151.099 126.52 150.66 127.027 150.498 127.166C149.369 128.13 148.008 128.528 146.379 128.896C145.819 129.022 145.168 129.125 144.426 129.203C143.282 129.324 142.149 129.41 141.027 129.461C140.723 129.475 140.234 129.427 139.56 129.32C139.488 129.307 139.415 129.301 139.342 129.303C137.701 129.314 136.118 129.118 134.596 128.713C133.286 128.364 131.925 127.961 130.514 127.504C130.44 127.48 130.36 127.478 130.285 127.498C130.211 127.517 130.144 127.559 130.092 127.615L129.467 128.283C129.457 128.294 129.445 128.305 129.433 128.314C128.106 129.322 126.876 130.031 125.744 130.441C124.962 130.725 123.755 130.995 122.123 131.248C121.367 131.365 120.789 131.42 120.391 131.412C119.528 131.397 118.993 131.566 118.096 131.551C116.526 131.525 114.388 131.526 111.682 131.554C110.971 131.561 109.62 131.388 107.629 131.035C106.319 130.802 104.921 130.233 103.435 129.328C101.98 128.442 101.067 127.103 101.023 125.471C101.012 125.009 100.984 124.617 100.939 124.295C100.809 123.332 100.781 122.693 100.853 122.379C100.967 121.894 101.019 121.524 101.01 121.269C100.956 119.668 101.043 118.146 101.271 116.705C101.642 114.354 101.853 112.849 102.437 110.851C103.633 106.778 106.127 102.937 109.807 100.797C110.616 100.326 111.714 99.9204 113.1 99.5818C116.757 98.6862 120.604 99.7567 123.389 102.209C125.206 103.811 126.641 105.745 127.695 108.01C127.849 108.342 128.113 109.053 128.486 110.142C128.732 110.859 129.005 111.572 129.303 112.277C129.496 112.269 129.59 112.222 129.588 112.138H129.59C130.109 110.461 130.755 108.827 131.527 107.238C132.423 105.397 133.512 103.747 134.791 102.287C136.097 100.795 138.187 99.327 140.211 99.1131C141.215 99.0074 142.098 99.0749 142.859 99.3142C143.514 99.5204 144.055 99.6364 144.642 99.9607C146.468 100.973 147.879 102.309 148.875 103.97C149.287 104.658 149.76 105.596 150.295 106.785C150.444 106.854 150.53 106.842 150.555 106.748H150.557C151.275 105.018 152.139 103.364 153.154 101.789C154.24 100.102 155.602 98.7139 157.238 97.6228C158.531 96.7598 160.005 96.4066 161.66 96.5642C163.287 96.7189 164.894 97.793 165.914 99.0076C166.371 99.5527 166.802 100.155 167.205 100.814L167.598 101.494L167.646 101.537C167.697 101.571 167.75 101.579 167.808 101.562C168.893 100.26 169.906 99.2569 170.824 97.5955C171.722 95.9698 172.131 94.2556 172.051 92.4529C171.949 90.1996 170.864 87.8107 169.701 85.7732C168.813 84.2115 167.5 82.9109 166.084 81.5096C165.239 80.6734 164.435 79.9882 163.674 79.4549C161.07 77.6317 158.757 76.2943 156.738 75.4451C153.302 74.0003 149.91 72.9524 146.562 72.3006C144.593 71.9174 142.156 71.5402 139.252 71.1697C138.081 71.0208 136.912 71.0152 135.978 70.9197C135.044 70.8255 134.391 70.784 134.017 70.7967C133.147 70.8272 132.353 70.6679 131.396 70.6736C129.728 70.6832 128.134 70.6336 126.416 70.7635C125.022 70.8678 123.974 70.9525 123.271 71.0174C118.618 71.449 114.11 72.335 109.748 73.6756C106.42 74.6979 103.275 76.054 100.314 77.7459C100.24 77.7885 100.156 77.8129 100.07 77.8142C99.985 77.8154 99.9012 77.7938 99.8261 77.7537C96.6038 76.0362 93.158 74.5984 89.4901 73.4373C88.5444 73.1382 87.4143 72.8427 86.0995 72.5525C84.4342 72.1846 83.2905 71.9459 82.6718 71.8377C79.4653 71.2764 76.7641 70.9434 74.5683 70.8377C73.7993 70.8008 73.2353 70.7708 72.8788 70.7478C72.0402 70.6969 71.479 70.6717 71.1952 70.6717C69.4223 70.6717 68.2283 70.6635 67.6132 70.6482C67.5421 70.6457 67.4701 70.6512 67.4003 70.6639C67.0312 70.7338 66.6831 70.7749 66.3573 70.7889C65.0156 70.8474 63.7569 70.9306 62.5819 71.0349C61.3355 71.1445 59.3892 71.4024 56.744 71.8123C52.2909 72.4998 47.859 73.7539 43.8202 75.3904C42.7115 75.8397 41.3106 76.5113 39.619 77.406C38.0849 78.217 36.7809 79.0573 35.7089 79.9256C32.2237 82.7539 29.4448 86.0071 28.3104 90.1951C27.9453 91.5482 27.9185 93.0357 28.2304 94.656C28.5799 96.4757 29.4757 98.1455 30.6405 99.5623C31.24 100.292 31.7982 100.97 32.3124 101.597C32.328 101.616 32.3484 101.631 32.371 101.64C32.3934 101.649 32.4176 101.651 32.4413 101.648C32.4655 101.645 32.4901 101.637 32.5097 101.623C32.5292 101.608 32.5446 101.588 32.5546 101.566C33.4904 99.5136 35.8422 96.6421 38.3339 96.5994C38.5758 96.5956 38.8328 96.5622 39.1015 96.4998C39.1617 96.4861 39.2229 96.4805 39.2831 96.4842C40.8109 96.5644 42.2254 97.0997 43.5253 98.0877C44.7334 99.0056 45.7777 100.062 46.6561 101.256C47.8934 102.939 48.8848 104.764 49.6308 106.73C49.7885 106.672 49.9032 106.536 49.9745 106.322C50.6887 104.616 51.619 103.14 52.7636 101.896C53.0654 101.568 53.6114 101.128 54.4003 100.574C55.6159 99.7212 56.993 99.228 58.5331 99.0955C60.8057 98.9007 63.0212 100.014 64.6464 101.599C66.3816 103.295 67.7628 105.301 68.789 107.617C69.1034 108.327 69.5859 109.518 70.2362 111.187C70.3421 111.458 70.3989 111.689 70.4061 111.879L70.3964 112.056C70.6935 112.095 70.8327 112.078 70.8124 112.004L70.8104 112.002C71.3948 109.472 72.4124 107.133 73.8612 104.986C75.1788 103.036 76.8625 101.524 78.912 100.451C80.4491 99.6452 82.4161 99.1069 84.2167 99.0838C86.8776 99.052 89.2824 99.8049 91.4276 101.342C93.2617 102.656 94.7289 104.277 95.83 106.201C97.0509 108.336 97.868 110.467 98.2792 112.592C98.7388 114.961 99.0089 116.82 99.0917 118.17C99.1349 118.887 99.1677 119.364 99.1893 119.601C99.3574 121.484 99.323 123.591 99.2733 124.941C99.1874 127.345 97.9009 129.007 95.7245 130.08C94.0002 130.932 91.9427 131.242 90.1171 131.502C89.2517 131.625 88.4278 131.695 87.6464 131.713C85.3904 131.761 83.079 131.762 80.7147 131.715C79.2959 131.684 77.8133 131.46 76.3983 131.275C73.7584 130.93 71.5661 129.778 69.8222 127.818C69.7751 127.765 69.7131 127.728 69.6444 127.711C69.5755 127.694 69.5016 127.699 69.4354 127.724C67.2243 128.556 64.9203 129.095 62.5233 129.344C59.9567 129.608 57.4644 129.588 55.0468 129.281C54.4548 129.207 53.6199 129.025 52.5429 128.736C50.408 128.163 48.9364 126.721 47.9472 124.789C47.9042 124.705 47.8314 124.64 47.744 124.605C47.6562 124.57 47.5576 124.568 47.4686 124.599C45.794 125.191 43.8771 125.579 41.9257 125.623C40.3266 125.66 39.0819 125.652 38.1933 125.601C35.6478 125.454 32.5078 124.593 31.1347 122.16C30.6636 121.326 30.3266 120.557 30.1229 119.855C29.7666 118.619 29.5864 117.212 29.5839 115.635C29.5801 113.431 29.7561 111.229 30.1112 109.031C30.3887 107.314 30.79 105.677 31.3143 104.121C31.3455 104.027 31.3449 103.925 31.3124 103.832C31.2799 103.739 31.217 103.661 31.1347 103.607C29.0607 102.274 27.4886 99.861 26.5624 97.6228C26.0602 96.4121 25.7879 94.9325 25.6561 93.6053C25.3563 90.5555 26.3225 87.7401 27.7987 85.0799C28.7593 83.3497 30.2978 81.6894 31.6288 80.2381C32.1379 79.6807 32.8433 79.0496 33.744 78.3435C35.6652 76.8387 37.607 75.5824 39.5702 74.5779C43.0497 72.7956 46.4941 71.4825 49.9022 70.6385C53.2695 69.8046 56.425 69.2213 59.3671 68.8865C60.3361 68.777 62.1098 68.6093 64.6874 68.3865C65.7796 68.293 66.8534 68.382 68.1327 68.2693ZM75.2772 130.892H75.2792H75.2772ZM107.185 128.871C107.834 129.085 108.487 129.232 109.144 129.31C110.422 129.463 111.435 129.623 112.512 129.621H112.514C112.245 129.621 111.979 129.61 111.713 129.594C110.914 129.543 110.105 129.425 109.146 129.31C108.983 129.291 108.818 129.268 108.654 129.24C108.162 129.156 107.673 129.032 107.185 128.871ZM86.4081 101.765C84.6335 101.38 82.954 101.477 81.369 102.056C77.9755 103.296 75.1465 106.811 73.8632 110.119C73.3897 111.341 73.0246 112.544 72.7675 113.726C72.2672 116.035 71.9254 118.392 71.7421 120.797C71.6122 122.496 71.5584 123.695 71.5839 124.39C71.6119 125.146 71.702 125.692 71.8534 126.025C72.6384 127.745 75.1782 128.698 76.912 128.986C78.6588 129.278 79.9328 129.427 80.7323 129.433C82.5401 129.45 84.3389 129.462 86.1288 129.467C87.7559 129.47 88.7876 129.265 90.5331 129.078C91.2193 129.004 92.2234 128.739 93.5448 128.285C94.5937 127.923 95.4466 127.376 96.1034 126.644C96.4699 126.236 96.6849 125.862 96.746 125.525C96.933 124.508 96.9979 123.354 96.9433 122.062C96.8058 118.837 96.4156 115.76 95.7714 112.832C95.1463 109.994 93.8876 107.486 91.996 105.306C90.558 103.653 88.5889 102.239 86.4081 101.765ZM116.24 101.513C115.348 101.503 114.702 101.525 114.303 101.578C112.359 101.834 110.386 103.063 108.971 104.379C108.222 105.074 107.399 106.092 106.502 107.433C106.232 107.836 105.711 108.887 104.941 110.588C104.905 110.669 104.878 110.754 104.861 110.84C104.735 111.494 104.422 112.075 104.271 112.728C103.914 114.258 103.672 115.92 103.42 117.664C103.292 118.538 103.266 119.505 103.199 120.078C103.05 121.353 103.078 123.012 103.074 123.902C103.06 125.705 103.831 127.032 105.387 127.883C106.652 128.574 107.934 128.996 109.23 129.15C110.492 129.301 111.491 129.459 112.555 129.455C113.507 129.455 114.908 129.458 116.758 129.465C118.881 129.474 120.7 129.278 122.779 128.961C124.144 128.753 125.417 128.291 126.598 127.57C127.972 126.729 128.6 125.555 128.48 124.051C128.41 123.174 128.413 122.725 128.379 121.447C128.339 120.042 128.072 118.247 127.91 116.986C127.682 115.238 127.241 113.351 126.584 111.326C125.628 108.372 123.989 105.881 121.67 103.853C120.316 102.673 118.18 101.534 116.24 101.513ZM64.2577 128.949V128.951V128.949ZM93.6581 128.435H93.66H93.6581ZM103.348 126.111C103.646 126.726 104.097 127.248 104.699 127.678C104.097 127.248 103.646 126.726 103.348 126.111ZM53.2128 126.39C53.7969 126.598 54.3898 126.739 54.9257 126.82H54.9276C54.3921 126.74 53.7986 126.598 53.2147 126.39H53.2128ZM136.203 126.922H136.201C136.457 126.96 136.749 126.997 137.076 127.029H137.078C136.751 126.997 136.459 126.96 136.203 126.922ZM140.82 101.674C139.401 101.949 138.17 102.598 137.129 103.623C136.369 104.371 135.794 105.022 135.404 105.572C134.611 106.687 133.899 107.918 133.267 109.263C132.118 111.713 131.22 114.284 130.574 116.978C130.535 117.143 130.552 117.509 130.623 118.078L130.736 119.531L130.988 125.043C130.99 125.082 131.004 125.121 131.025 125.154C131.047 125.187 131.076 125.216 131.111 125.234C132.478 125.929 134.147 126.335 135.629 126.662C136.448 126.841 137.172 126.803 137.957 126.918C139.2 127.101 140.615 126.998 141.976 127.027C142.297 127.033 143.126 126.964 144.463 126.82C145.343 126.725 146.069 126.579 146.641 126.385C148.453 125.766 149.533 125.136 150.318 123.465C150.533 123.008 150.638 122.296 150.631 121.33C150.593 116.996 149.907 112.886 148.574 109C148.085 107.579 147.462 106.293 146.705 105.142C145.645 103.533 144.002 101.898 142.037 101.732C141.332 101.672 140.926 101.653 140.82 101.674ZM61.9843 102.728C60.2123 101.493 58.1838 101.19 56.3183 102.248C55.0986 102.939 54.0421 104.015 53.1483 105.474C52.5843 106.395 52.1717 107.202 51.912 107.896C50.8262 110.79 50.1351 113.768 49.8397 116.83C49.6667 118.618 49.5773 119.773 49.5722 120.295C49.5632 121.33 49.7836 122.463 50.2343 123.693C50.5296 124.496 51.0717 125.115 51.8593 125.551C52.9554 126.155 54.0822 126.541 55.2382 126.707C57.661 127.052 60.1436 127.11 62.6835 126.881C64.9824 126.672 66.8506 126.13 68.9511 125.404C68.9944 125.389 69.0316 125.36 69.0585 125.322C69.0854 125.285 69.1009 125.24 69.1015 125.193C69.1142 122.645 69.2356 120.055 69.4647 117.424C69.4913 117.108 69.4634 116.789 69.3827 116.482C68.5176 113.232 67.3513 109.961 65.7108 107.072C64.7447 105.367 63.586 103.845 61.9843 102.728ZM133.898 126.433H133.896H133.898ZM48.996 126.201V126.199V126.201ZM69.0839 125.463C69.0596 125.483 69.0311 125.496 69.0038 125.512C69.0797 125.468 69.1484 125.411 69.1972 125.338L69.0839 125.463ZM130.889 125.158H130.887C130.902 125.216 130.935 125.267 130.98 125.304H130.982C130.937 125.267 130.904 125.216 130.889 125.158ZM102.91 123.99C102.909 124.104 102.913 124.217 102.918 124.328C102.913 124.217 102.909 124.104 102.91 123.99C102.913 123.54 102.907 122.895 102.92 122.201V122.199C102.907 122.894 102.913 123.539 102.91 123.99ZM158.961 123.49H158.963H158.961ZM161.504 99.3396C157.173 98.4234 154.035 105.013 152.566 108.074C152.233 108.769 151.961 109.417 151.75 110.017C151.674 110.233 151.66 110.466 151.711 110.689C152.554 114.395 152.973 118.155 152.967 121.969C152.967 122.008 152.979 122.048 153.002 122.08C153.025 122.112 153.058 122.136 153.096 122.148C154.15 122.498 155.221 122.816 156.375 122.992C157.609 123.178 158.286 123.274 158.406 123.279C159.865 123.341 161.318 123.26 162.762 123.039C164.427 122.782 165.752 122.087 166.736 120.953C167.515 120.054 167.941 119.015 168.014 117.836C168.078 116.757 168.187 116.038 168.148 115.158C168.03 112.474 167.673 109.872 167.08 107.351C166.585 105.246 165.759 103.302 164.603 101.521C163.838 100.344 162.805 99.6159 161.504 99.3396ZM40.1815 99.3631C37.9456 98.9262 36.1809 100.221 35.1288 102.119C34.4624 103.32 33.9548 104.353 33.5175 105.717C32.858 107.774 32.4344 109.828 32.246 111.879C32.225 112.11 32.1342 112.366 32.1132 112.58C32.0737 113.001 32.058 114.402 32.0643 116.781C32.0663 117.642 32.2542 118.623 32.5272 119.39C33.2051 121.311 35.125 122.696 37.0976 122.986C39.282 123.309 41.1252 123.439 43.1874 123.08C44.5414 122.843 45.8065 122.607 47.0077 122.101C47.0379 122.089 47.0653 122.071 47.0878 122.047C47.1104 122.022 47.1278 121.992 47.1386 121.961C47.1691 121.87 47.1848 121.804 47.1835 121.762C47.0842 118.074 47.6225 114.262 48.3749 110.59C48.4607 110.17 48.4082 109.952 48.2499 109.59C47.5993 108.103 46.8996 106.653 46.1522 105.244C44.8441 102.777 42.8778 99.892 40.1815 99.3631ZM36.9706 123.125H36.9726H36.9706ZM49.6347 122.287H49.6366H49.6347ZM33.6893 121.433H33.6913H33.6893ZM152.887 122.168H152.889H152.887ZM130.705 120.377C130.693 120.94 130.698 121.502 130.723 122.064L130.701 121.221C130.698 120.939 130.699 120.658 130.705 120.377ZM49.4472 119.316C49.4112 119.724 49.4011 120.127 49.414 120.525C49.4011 120.127 49.4132 119.724 49.4491 119.316H49.4472ZM103.127 119.008C103.095 119.435 103.071 119.825 103.037 120.115H103.039C103.073 119.825 103.097 119.435 103.129 119.008H103.127ZM32.6112 108.482C32.5121 108.949 32.421 109.425 32.3417 109.91C32.0896 111.454 31.9518 112.474 31.9276 112.967C31.8424 114.672 31.8532 116.208 31.9589 117.572C32.0001 118.109 32.0964 118.612 32.244 119.082C32.0964 118.612 32.0001 118.109 31.9589 117.572C31.9325 117.231 31.9128 116.88 31.8983 116.517C31.8548 115.43 31.8637 114.246 31.9276 112.967C31.9518 112.474 32.0916 111.454 32.3436 109.91C32.4229 109.425 32.5121 108.949 32.6112 108.482ZM130.461 116.721H130.463H130.461ZM29.7401 116.111H29.7421H29.7401ZM151.963 112.773C152.013 113.054 152.065 113.338 152.111 113.627C152.065 113.338 152.013 113.054 151.963 112.773ZM104.758 110.629C104.744 110.671 104.735 110.714 104.726 110.758C104.694 110.923 104.651 111.085 104.601 111.244C104.651 111.085 104.694 110.923 104.726 110.758C104.735 110.714 104.744 110.671 104.758 110.629ZM132.717 110.078H132.719H132.717ZM72.0956 108.56C72.0036 108.774 71.9151 108.989 71.83 109.205C72.0004 108.772 72.185 108.345 72.3827 107.924L72.0956 108.56ZM152.373 108.115H152.375H152.373ZM134.619 106.465C134.382 106.838 134.155 107.223 133.935 107.617C134.155 107.223 134.382 106.838 134.619 106.465ZM93.7089 107.332C93.6141 107.181 93.5157 107.031 93.4159 106.883C93.6153 107.18 93.805 107.481 93.9843 107.789L93.7089 107.332ZM110.713 102.799C110.048 103.226 109.43 103.712 108.892 104.211C108.134 104.915 107.299 105.947 106.389 107.306H106.391C107.301 105.947 108.136 104.917 108.894 104.213C109.432 103.713 110.049 103.226 110.715 102.799H110.713ZM67.953 106.256V106.258V106.256ZM149.996 106.551C150.054 106.647 150.116 106.711 150.178 106.748C150.082 106.69 149.99 106.564 149.904 106.367L149.996 106.551ZM50.0624 106.455C50.0519 106.461 50.0396 106.464 50.0272 106.465C50.0149 106.465 50.003 106.463 49.9921 106.457C49.9812 106.451 49.9713 106.442 49.9647 106.431V106.433C49.9713 106.444 49.9813 106.451 49.9921 106.457C50.003 106.463 50.0149 106.467 50.0272 106.467C50.0396 106.466 50.0519 106.461 50.0624 106.455C50.0728 106.448 50.082 106.438 50.0878 106.428C50.0819 106.438 50.0729 106.448 50.0624 106.455ZM33.3222 105.791H33.3241H33.3222ZM135.357 105.381H135.359H135.357ZM65.9472 103.281C66.203 103.6 66.4478 103.923 66.6815 104.25C66.4478 103.923 66.203 103.6 65.9472 103.281ZM137.055 103.459H137.057H137.055ZM54.5741 103.385H54.5761H54.5741ZM52.8065 102.135C52.5706 102.383 52.3511 102.642 52.1503 102.908V102.91C52.3513 102.643 52.5703 102.383 52.8065 102.135ZM144.752 102.744C144.864 102.839 144.974 102.937 145.082 103.037C144.974 102.937 144.864 102.838 144.752 102.742C144.676 102.678 144.599 102.617 144.521 102.558C144.599 102.617 144.676 102.679 144.752 102.744ZM156.543 101.289C156.447 101.394 156.352 101.501 156.262 101.609C156.049 101.863 155.867 102.089 155.715 102.285C155.867 102.089 156.049 101.863 156.262 101.609C156.352 101.501 156.447 101.394 156.543 101.289ZM88.0546 102.103C88.3146 102.217 88.57 102.344 88.8202 102.48C88.57 102.344 88.3146 102.217 88.0546 102.103ZM64.2401 101.431C64.4542 101.621 64.66 101.819 64.8573 102.023C64.66 101.819 64.4542 101.621 64.2401 101.431ZM140.344 101.613C139.719 101.78 139.132 102.019 138.584 102.328C139.132 102.019 139.719 101.78 140.344 101.613ZM146.807 101.732H146.808H146.807ZM115.09 101.322C114.763 101.333 114.497 101.35 114.295 101.377C113.803 101.442 113.31 101.568 112.824 101.742C113.189 101.612 113.558 101.508 113.928 101.437C114.05 101.414 114.174 101.393 114.297 101.377C114.499 101.35 114.763 101.333 115.09 101.322ZM57.9159 101.494C57.701 101.533 57.487 101.588 57.2733 101.658C57.4869 101.588 57.701 101.533 57.9159 101.494ZM86.4433 101.576H86.4452H86.4433ZM165.779 99.1092C166.4 99.8144 166.934 100.624 167.416 101.478C166.934 100.624 166.4 99.8144 165.779 99.1092ZM154.121 100.758C154.041 100.858 153.964 100.96 153.887 101.062C154.073 100.817 154.265 100.575 154.465 100.34L154.121 100.758ZM42.8222 100.549C42.9039 100.617 42.9816 100.689 43.0604 100.76C42.8181 100.543 42.5653 100.332 42.2987 100.142L42.8222 100.549ZM144.685 100.179H144.687H144.685ZM157.818 100.133V100.135V100.133ZM161.373 99.1189C161.642 99.164 161.913 99.2366 162.185 99.3455C162.423 99.441 162.648 99.5545 162.863 99.6795C162.648 99.5544 162.423 99.4411 162.185 99.3455C161.913 99.2366 161.642 99.1641 161.373 99.1189ZM142.451 99.3943H142.453H142.451ZM59.6991 99.2869V99.285V99.2869ZM40.0038 99.1443C40.1793 99.167 40.3557 99.2063 40.5311 99.2557C40.3555 99.2062 40.1796 99.167 40.0038 99.1443ZM39.0409 99.1111C39.1914 99.1006 39.3458 99.0976 39.5058 99.1033C39.3458 99.0976 39.1913 99.1006 39.0409 99.1111ZM157.902 97.4822C157.681 97.5979 157.463 97.7223 157.25 97.8553C157.463 97.7223 157.681 97.5979 157.902 97.4822ZM163.619 97.3631H163.621H163.619ZM159.172 96.9275C158.858 97.0387 158.551 97.1669 158.252 97.3084C158.551 97.1669 158.858 97.0386 159.172 96.9275ZM161.791 96.7205V96.7185C161.767 96.7148 161.742 96.7147 161.719 96.7146C161.743 96.7147 161.767 96.7167 161.791 96.7205ZM26.8554 87.4725H26.8573H26.8554ZM78.5429 71.0701H78.5448H78.5429Z" fill="#667781"/>
<path d="M108.974 104.379C110.389 103.063 112.361 101.835 114.306 101.579C114.705 101.526 115.351 101.504 116.244 101.514C118.184 101.535 120.319 102.673 121.673 103.854C123.993 105.882 125.631 108.373 126.587 111.326C127.244 113.352 127.686 115.239 127.914 116.987C128.076 118.247 128.342 120.042 128.382 121.448C128.416 122.725 128.413 123.174 128.483 124.051C128.603 125.556 127.975 126.729 126.6 127.57C125.42 128.291 124.148 128.755 122.783 128.962C120.703 129.279 118.885 129.474 116.761 129.465C114.912 129.458 113.51 129.455 112.558 129.455C111.494 129.459 110.496 129.302 109.233 129.152C107.937 128.997 106.656 128.575 105.391 127.883C103.835 127.033 103.064 125.706 103.078 123.904C103.082 123.014 103.053 121.354 103.202 120.078C103.269 119.506 103.296 118.539 103.424 117.665C103.676 115.921 103.919 114.26 104.276 112.73C104.427 112.077 104.738 111.496 104.864 110.841C104.881 110.755 104.907 110.67 104.944 110.589C105.714 108.888 106.234 107.837 106.504 107.434C107.402 106.092 108.225 105.074 108.974 104.379Z" fill="#FFFFFD"/>
<path d="M71.741 120.799C71.9243 118.394 72.2662 116.036 72.7665 113.727C73.0237 112.544 73.3891 111.342 73.8627 110.12C75.146 106.812 77.9743 103.296 81.3678 102.057C82.9529 101.477 84.6328 101.381 86.4076 101.766C88.5885 102.24 90.5574 103.653 91.9954 105.307C93.8873 107.487 95.1458 109.995 95.7709 112.833C96.4151 115.761 96.8059 118.838 96.9434 122.063C96.9982 123.355 96.932 124.51 96.7448 125.527C96.6837 125.864 96.4698 126.238 96.1032 126.646C95.4462 127.378 94.5932 127.925 93.5442 128.287C92.2226 128.741 91.2188 129.005 90.5325 129.079C88.7871 129.266 87.7558 129.471 86.1287 129.467C84.3387 129.462 82.5398 129.451 80.7319 129.434C79.9324 129.428 78.6592 129.279 76.9125 128.987C75.1785 128.699 72.6385 127.746 71.8537 126.026C71.7022 125.692 71.6124 125.147 71.5844 124.391C71.5589 123.696 71.6111 122.498 71.741 120.799Z" fill="#FFFFFD"/>
<path d="M69.0993 125.196C69.0987 125.242 69.084 125.287 69.057 125.325C69.0299 125.363 68.992 125.391 68.9484 125.406C66.8477 126.132 64.98 126.674 62.6807 126.882C60.1408 127.111 57.6595 127.053 55.2367 126.708C54.0807 126.543 52.9546 126.158 51.8584 125.553C51.0703 125.117 50.5286 124.498 50.2332 123.695C49.7825 122.465 49.5617 121.332 49.5706 120.297C49.5757 119.775 49.6648 118.62 49.8379 116.831C50.1333 113.769 50.824 110.791 51.91 107.898C52.1697 107.204 52.5816 106.397 53.1456 105.476C54.0393 104.017 55.096 102.942 56.3157 102.251C58.1815 101.193 60.2096 101.494 61.9818 102.73C63.584 103.847 64.7432 105.369 65.7095 107.074C67.35 109.964 68.5149 113.233 69.38 116.484C69.4609 116.791 69.4887 117.109 69.4621 117.425C69.233 120.057 69.112 122.647 69.0993 125.196Z" fill="#FFFFFD"/>
<path d="M130.738 119.533L130.624 118.08C130.552 117.511 130.536 117.144 130.576 116.98C131.221 114.286 132.119 111.714 133.268 109.265C133.9 107.919 134.612 106.689 135.405 105.573C135.795 105.023 136.37 104.374 137.13 103.626C138.171 102.601 139.402 101.951 140.821 101.676C140.927 101.655 141.333 101.675 142.038 101.735C144.003 101.901 145.645 103.534 146.705 105.144C147.463 106.295 148.086 107.581 148.575 109.001C149.908 112.888 150.593 116.999 150.632 121.332C150.639 122.299 150.535 123.01 150.32 123.467C149.535 125.138 148.455 125.769 146.642 126.387C146.071 126.582 145.344 126.727 144.463 126.823C143.125 126.967 142.296 127.035 141.977 127.029C140.615 127 139.202 127.104 137.959 126.92C137.174 126.806 136.45 126.844 135.631 126.664C134.149 126.338 132.48 125.931 131.112 125.236C131.077 125.217 131.047 125.19 131.026 125.156C131.004 125.123 130.992 125.084 130.99 125.045L130.738 119.533Z" fill="#FFFFFD"/>
<path opacity="0.7" d="M132 96L144 113.652H139.826V134.348H144L132 152L120 134.348H124.174V113.652H120L132 96Z" fill="#CF1039"/>
</g>
</svg>
