<svg width="200" height="200" viewBox="0 0 200 200" fill="none" xmlns="http://www.w3.org/2000/svg">
<path d="M200 100C200 155.228 155.228 200 100 200C44.7715 200 0 155.228 0 100C0 44.7715 44.7715 0 100 0C155.228 0 200 44.7715 200 100Z" fill="white"/>
<path d="M69 61L127 66L152 68V138H64L56 134L54 130L51 104L46 84L47 75L51 67L57 62L69 61Z" fill="#FFDBDF"/>
<path d="M37 99L48 83L55 76L60 77L63 84L69 78H74L79 81L80 90L88 78L94 80L98 86L102 81L106 80L111 81L114 87L118 83L123 81L132 84L134 88L139 83L145 82L152 84V120L145 122L137 116L130 122L123 121L116 116L111.341 121L104 120L99 117L95 121L88 122L82 117L79 121H70L64 116L61 123L55 122L51 112V103L44 100H41L37 99Z" fill="white"/>
<mask id="mask0_177_25746" style="mask-type:alpha" maskUnits="userSpaceOnUse" x="20" y="60" width="160" height="80">
<path d="M20 60H180V140H20V60Z" fill="#D9D9D9"/>
</mask>
<g mask="url(#mask0_177_25746)">
<mask id="mask1_177_25746" style="mask-type:alpha" maskUnits="userSpaceOnUse" x="36" y="84" width="11" height="17">
<path d="M45.6008 84.8008L46.4008 85.6008L44.0008 97.6008L41.6008 100.801L36.8008 98.4008L45.6008 84.8008Z" fill="#DEDFE1"/>
</mask>
<g mask="url(#mask1_177_25746)">
<g opacity="0.7" filter="url(#filter0_g_177_25746)">
<path d="M50.3333 76L52 77.4L47 98.4L42 104L32 99.8L50.3333 76Z" fill="#CF1039"/>
</g>
</g>
<mask id="mask2_177_25746" style="mask-type:alpha" maskUnits="userSpaceOnUse" x="80" y="78" width="17" height="29">
<path d="M95.2008 81.5984L96.0008 85.5984V93.5984L95.2008 99.9984L87.2008 106.398L83.2008 104.798L80.8008 98.3984V86.3984L82.4008 83.1984L87.2008 78.3984H92.0008L95.2008 81.5984Z" fill="#DEDFE1"/>
</mask>
<g mask="url(#mask2_177_25746)">
<path opacity="0.7" d="M96.9474 79.6571L98 84.2286V93.3714L96.9474 100.686L95 109L86.4211 108L81.1579 106.171L78 98.8571V85.1429L80.1053 81.4857L86.4211 76H92.7368L96.9474 79.6571Z" fill="#CF1039"/>
</g>
<path d="M152.796 137.028V136.088C149.085 136.549 142.259 136.562 134.666 136.577C126.925 136.592 118.152 136.611 108.833 137.023C106.507 137.125 104.189 137.236 101.889 137.344C88.1404 137.997 75.1514 138.612 65.0561 137.485C61.5061 137.089 58.7496 135.686 56.8655 133.313C53.9003 129.579 53.7254 124.27 53.8796 121.481C55.1751 123.011 56.7508 123.975 58.4901 123.975C61.4685 123.975 64.0877 121.087 65.1238 117.149C66.8555 120.571 70.131 122.735 74.1454 122.735C78.4062 122.735 81.3037 120.994 82.4845 117.862C84.2426 120.832 87.3846 122.648 91.2805 122.648C95.6409 122.648 98.514 121.025 99.6478 118.011C101.479 120.139 104.324 121.406 107.75 121.406C112.283 121.406 115.202 119.814 116.24 116.877C118.233 120.305 122.059 122.737 126.239 122.737C130.419 122.737 135.163 120.251 136.603 116.467C138.521 120.109 142.485 122.737 146.828 122.737C148.857 122.737 150.976 122.172 152.796 121.174V118.963C151.175 120.117 149.049 120.853 146.828 120.853C141.981 120.853 138.222 117.056 137.423 113.178C137.357 112.857 137.312 112.538 137.288 112.219C137.274 112.038 137.265 111.859 137.265 111.679V103.795C137.265 103.123 137.957 102.576 138.837 102.576C138.873 102.576 142.432 102.457 145.967 102.457H146.845C147.097 102.453 147.368 102.453 147.652 102.453C149.222 102.453 151.209 102.482 152.798 102.706V99.6024C151.029 100.297 147.131 100.284 145.014 100.278H144.137C140.604 100.276 137.041 100.161 136.975 100.159C136.141 100.159 135.435 99.627 135.435 98.9964V91.3164C135.435 87.1101 139.525 82.4054 144.999 82.4054C148.21 82.4054 151.222 83.895 152.798 85.9604V83.2644C150.685 81.5408 147.759 80.5213 144.999 80.5213C140.651 80.5213 136.686 83.0889 134.77 86.6495C133.326 82.9454 128.668 80.5213 124.411 80.5213C120.154 80.5213 116.288 82.968 114.324 86.3965C113.711 81.8844 110.206 78.4144 105.984 78.4144C102.325 78.4144 99.2737 81.1028 97.6002 84.5331C96.833 80.0361 93.535 76.8493 89.3363 76.8493C85.6284 76.8493 82.3247 79.6623 80.6776 83.676C80.0646 79.1356 76.932 76.5642 71.8571 76.5642C67.9969 76.5642 64.821 78.6447 63.0423 81.9693C62.2601 78.5371 60.2275 75.9016 57.486 75.3352C55.4647 74.9199 53.2948 75.6486 51.2509 77.4006C49.9912 78.1709 48.6073 79.4924 47.3061 80.9499C47.1726 77.7196 48.1917 71.8048 51.721 67.3626C54.1184 64.3438 57.2209 62.6031 60.942 62.1878C62.826 61.9782 64.8492 61.8876 66.989 61.8876C73.0849 61.8876 80.1097 62.6182 87.4334 63.3791C93.5594 64.0153 99.8942 64.6742 106.092 64.9479C130.652 66.0335 149.081 67.8893 152.8 69.6243V67.625C144.969 64.9706 115.574 63.481 106.174 63.0657C100.033 62.7938 93.7268 62.1387 87.6271 61.5044C77.6258 60.4622 68.183 59.4805 60.7314 60.3112C56.497 60.7832 52.9695 62.7598 50.2506 66.1826C46.0801 71.4348 45.1193 78.6107 45.4935 81.8995C45.5311 82.2336 45.595 82.5565 45.6815 82.8718C44.4405 84.4293 43.3894 85.9358 42.7595 86.9194L37.1243 95.7322C36.6787 96.4289 36.3327 97.1444 36.1503 97.7466C35.7968 98.9096 36.1296 99.4778 36.5019 99.7535C36.6805 99.9045 37.491 100.578 38.3897 101.158C39.2114 101.689 40.1328 101.809 40.8022 101.809C41.2459 101.809 41.5806 101.757 41.7047 101.734C41.7611 101.724 41.8175 101.709 41.8796 101.69H41.8852C42.3102 101.549 42.8893 101.237 43.5399 100.558C43.5474 100.575 43.553 100.592 43.5605 100.609C43.9385 101.462 44.6116 102.049 45.4126 102.225C45.6571 102.289 47.8796 102.865 50.2882 103.384V110.713C50.2882 113.577 51.0234 116.596 52.2701 119.029C52.2118 119.318 52.1629 119.622 52.1253 119.945C51.8132 122.686 51.5067 129.59 55.3989 134.493C57.6045 137.272 60.784 138.911 64.8492 139.364C68.9896 139.826 73.5888 140 78.5133 140C85.7732 140 93.74 139.622 101.978 139.232C104.275 139.122 106.592 139.013 108.916 138.911C118.195 138.501 126.948 138.484 134.67 138.467C143.28 138.45 149.197 138.408 152.796 137.976V137.032V137.028ZM107.75 119.52C104.255 119.52 101.504 117.928 100.171 115.389C99.6516 114.402 99.3526 113.269 99.3056 112.029C99.3019 111.914 99.2887 111.802 99.2887 111.685V103.152C99.2887 102.627 99.5595 102.174 99.9524 101.934C101.039 101.972 103.151 102.034 105.257 102.034C106.802 102.034 107.946 101.883 108.782 101.7C110.467 101.851 111.356 102.191 111.795 102.357C111.945 102.414 112.062 102.457 112.15 102.482L112.191 102.495C112.84 102.731 113.615 103.195 113.615 104.06L114.314 110.152L114.421 111.083L114.53 112.034L114.788 114.27C114.764 117.753 112.396 119.518 107.746 119.518L107.75 119.52ZM112.656 100.667C112.716 100.684 112.776 100.703 112.836 100.726C113.233 100.871 113.592 101.049 113.906 101.256C113.592 101.049 113.235 100.871 112.836 100.726C112.774 100.703 112.716 100.684 112.656 100.667C112.631 100.66 112.605 100.65 112.573 100.639C112.605 100.65 112.631 100.662 112.656 100.667ZM115.104 102.517C114.997 102.323 114.867 102.136 114.717 101.962C114.566 101.789 114.397 101.624 114.207 101.473C114.397 101.624 114.568 101.787 114.717 101.962C114.867 102.136 114.997 102.323 115.104 102.517C115.157 102.414 115.215 102.312 115.279 102.215C115.215 102.313 115.157 102.414 115.104 102.517ZM135.225 111.104C135.223 111.436 135.219 111.751 135.215 112.044C135.21 112.397 135.206 112.716 135.2 112.99C135.189 113.605 135.178 113.994 135.178 114.017C135.178 117.592 130.919 120.849 126.241 120.849C120.938 120.849 116.933 116.303 116.689 112.082C116.681 111.946 116.678 111.81 116.678 111.676V103.792C116.678 103.12 117.37 102.572 118.25 102.572C118.285 102.572 121.845 102.453 125.38 102.453H126.258C126.51 102.449 126.78 102.449 127.064 102.449C130.09 102.449 134.67 102.555 134.943 103.967C135.215 105.378 135.246 108.67 135.227 111.105L135.225 111.104ZM134.23 101.228C134.569 101.337 134.883 101.466 135.168 101.615C134.885 101.466 134.571 101.337 134.23 101.228ZM135.482 101.732C135.294 101.651 135.114 101.553 134.947 101.441C135.114 101.553 135.294 101.649 135.482 101.732ZM133.822 100.839C133.726 100.907 133.625 100.969 133.519 101.03C133.625 100.969 133.726 100.905 133.822 100.839ZM114.844 95.0318V91.3126C114.844 87.1063 118.934 82.4017 124.408 82.4017C129.084 82.4017 133.345 85.562 133.345 89.0584C133.345 89.0905 133.386 90.4706 133.395 92.215C133.395 92.5209 133.397 92.838 133.397 93.1628C133.397 93.4724 133.395 93.7877 133.392 94.1029C133.373 95.9588 133.301 97.8429 133.11 98.8114C132.814 100.301 127.145 100.28 124.423 100.273H123.546C120.013 100.271 116.45 100.156 116.384 100.154C115.549 100.154 114.844 99.6213 114.844 98.9908V95.0318ZM112.278 100.146C112.18 100.239 112.075 100.329 111.962 100.414C112.073 100.329 112.18 100.241 112.278 100.146C112.376 100.054 112.468 99.9555 112.554 99.8535C112.47 99.9555 112.377 100.052 112.278 100.146ZM98.0947 95.113V90.2894C98.0947 85.6659 101.541 80.2929 105.983 80.2929C109.521 80.2929 112.515 83.7024 112.539 87.7501L111.936 93.2137L111.83 94.1652L111.727 95.096L111.443 97.6692L111.437 97.7731C111.437 98.6188 110.727 99.0682 110.129 99.2966L110.091 99.3098C110.006 99.3344 109.895 99.3778 109.751 99.4344C109.527 99.525 109.173 99.6647 108.643 99.7969C107.908 99.98 106.831 100.15 105.259 100.15C102.846 100.15 100.421 100.067 99.5839 100.035C99.3921 100.027 99.2849 100.023 99.2793 100.023H99.2398C98.608 100.023 98.0947 99.4155 98.0947 98.6679V95.113ZM97.1471 103.339L97.4122 105.918V111.683C97.4122 111.812 97.4159 111.938 97.4216 112.063C97.4667 113.418 97.7544 114.672 98.2508 115.791C97.8465 119.086 95.5093 120.758 91.2787 120.758C87.048 120.758 83.9775 118.185 83.0806 114.266C82.964 113.758 82.8869 113.228 82.8474 112.676C82.8286 112.412 82.8173 112.146 82.8173 111.874V105.28C83.6214 105.781 84.9948 107.52 87.0086 107.52C90.9387 107.52 95.2893 101.311 95.2893 101.311C95.4416 101.377 95.562 101.424 95.6503 101.453L95.6917 101.468C96.3554 101.74 97.1452 102.283 97.1452 103.337L97.1471 103.339ZM96.2934 99.3778C96.2727 99.4212 96.2483 99.4646 96.2219 99.5062C96.2464 99.4646 96.2708 99.4212 96.2934 99.3778ZM96.1448 99.6308C96.1693 99.6402 96.1937 99.6515 96.2125 99.6572C96.1919 99.6515 96.1693 99.6402 96.1448 99.6308ZM81.4466 94.5051V89.3473C81.4466 83.6892 85.132 78.7259 89.3344 78.7259C93.0593 78.7259 95.8722 82.0713 95.891 86.5154L95.2329 93.1816L95.1389 94.1294L95.0468 95.0563L94.7929 97.6352C94.7929 97.6352 93.5774 100.274 93.12 100.8C92.202 101.856 89.3505 105.6 86.72 105.6C83.52 104.8 81.7963 99.8913 81.7963 99.8913C81.7963 99.8913 81.4485 99.1909 81.4447 98.7472C81.4447 98.7416 81.4447 98.7359 81.4447 98.7302V94.507L81.4466 94.5051ZM80.9934 101.704C80.9615 101.904 80.9427 102.11 80.9427 102.319V111.874C80.9427 112.189 80.9558 112.499 80.9765 112.805C81.016 113.38 81.0912 113.937 81.2003 114.475C81.0912 119.731 77.3194 120.847 74.1435 120.847C70.1705 120.847 67.1545 118.346 66.0846 114.477C66.0019 114.179 65.9304 113.871 65.8721 113.556C65.8157 113.252 65.7687 112.941 65.7349 112.623C65.686 112.174 65.6596 111.713 65.6596 111.24V102.944C65.7236 102.946 65.7931 102.95 65.8608 102.952C67.1 102.999 69.0931 103.061 71.0824 103.061C74.828 103.061 77.812 102.098 78.3704 101.906C78.4362 101.883 78.4964 101.859 78.5603 101.83C79.179 101.551 79.6998 101.179 80.1078 100.728C80.341 101.118 80.6418 101.449 80.9897 101.702L80.9934 101.704ZM63.3751 98.5849V88.5091C63.3751 82.5829 66.863 78.4427 71.8571 78.4427C75.078 78.4427 78.9176 79.6453 78.9195 85.4016L79.1282 92.4699L79.1564 93.4195L79.1846 94.3597L79.2899 97.943C79.2899 97.9562 79.2861 97.9675 79.2861 97.9807C79.2805 98.3394 79.2053 98.6415 79.0868 98.902C78.9308 99.2456 78.7014 99.5137 78.4438 99.7195C78.2351 99.8875 78.0113 100.018 77.7969 100.114L78.1805 100.973L77.7631 100.127C77.451 100.235 74.6042 101.181 71.0843 101.181C69.0028 101.181 66.9138 101.113 65.7198 101.066C65.7029 101.066 65.6841 101.066 65.6672 101.064C65.135 101.043 64.7966 101.026 64.7289 101.022C64.7233 101.022 64.712 101.022 64.712 101.022H64.7082H64.6612C64.3472 101.022 64.0576 100.831 63.8301 100.535C63.6496 100.297 63.5123 99.9876 63.439 99.6364C63.4014 99.4552 63.3751 99.2664 63.3751 99.0682V98.5867V98.5849ZM55.1206 76.3207C54.6938 76.4283 54.2669 76.5869 53.8439 76.7908C54.2651 76.585 54.6919 76.4264 55.1206 76.3207ZM48.2838 82.666C48.1541 82.9038 48.0281 83.1436 47.9078 83.389C48.0281 83.1455 48.1541 82.9038 48.2838 82.666ZM43.4214 97.5163L42.9814 98.2205C42.1785 99.4759 41.5505 99.8044 41.3362 99.8837C41.1387 99.9139 40.1403 100.044 39.4051 99.5703C38.7884 99.1739 38.2036 98.7132 37.899 98.4659C37.9686 98.1582 38.1979 97.5389 38.7037 96.7479L44.339 87.9351C44.9012 87.0573 45.4709 86.2304 46.0369 85.462C45.7849 86.2096 45.5743 86.9685 45.4202 87.7294L43.4214 97.5144V97.5163ZM51.2265 101.653C50.9106 101.587 50.5966 101.521 50.2882 101.453C47.9492 100.939 45.8902 100.399 45.8658 100.393L45.8169 100.382C45.5292 100.324 45.3543 100.018 45.2754 99.8403C45.0949 99.4344 45.0535 98.8982 45.1626 98.3677L45.1908 98.228L46.2682 92.957L47.2591 88.1088C47.3813 87.5066 47.5524 86.9024 47.7461 86.3002C47.8551 85.9623 47.9755 85.6281 48.1052 85.2958C48.235 84.9636 48.3722 84.6351 48.5208 84.3103C49.256 82.7 50.2074 81.1915 51.2998 79.9738C51.6778 79.5528 52.0614 79.179 52.4487 78.8467C53.1933 78.2086 53.9511 77.7385 54.6919 77.4478C55.271 77.2212 55.8407 77.1004 56.3842 77.1004C56.6305 77.1004 56.8711 77.1249 57.1062 77.1721C60.3384 77.8386 62.2676 82.8548 61.2297 87.9333L60.8386 90.1478L60.675 91.0785L60.5114 92.0093L59.4998 97.7315L59.3343 98.6623L59.1689 99.5949L59.0749 100.127C58.8379 101.292 58.0294 101.728 57.3939 101.889L57.3751 101.892C57.1081 101.934 54.8762 102.249 52.1629 101.823C51.9109 101.783 51.6552 101.74 51.3939 101.685C51.3374 101.673 51.281 101.66 51.2246 101.649L51.2265 101.653ZM53.2403 116.613C52.5709 114.83 52.1648 112.778 52.1648 110.709V103.733C53.2271 103.884 54.2124 103.935 55.0473 103.935C56.403 103.935 57.3713 103.803 57.6609 103.76C57.7267 103.75 57.7887 103.737 57.8545 103.72C59.466 103.31 60.581 102.142 60.9194 100.484L61.0266 99.8819C61.2316 99.9253 61.4233 99.9725 61.6001 100.018C61.8784 101.332 62.7151 102.376 63.785 102.751V110.86L63.7323 112.924L63.7192 113.433C63.7192 113.582 63.7154 113.73 63.7117 113.877C63.7004 114.202 63.6741 114.523 63.6383 114.84C63.1927 118.784 60.9401 122.091 58.4901 122.091C56.952 122.091 55.4308 120.781 54.2632 118.784C54.0639 118.442 53.874 118.083 53.6972 117.706C53.5336 117.354 53.3813 116.988 53.2403 116.611V116.613Z" fill="#787B83"/>
</g>
<path opacity="0.7" d="M110 92C110 79.8497 100.15 70 88 70C75.8497 70 66 79.8497 66 92C66 104.15 75.8497 114 88 114V118C73.6406 118 62 106.359 62 92C62 77.6406 73.6406 66 88 66C102.359 66 114 77.6406 114 92C114 106.359 102.359 118 88 118V114C100.15 114 110 104.15 110 92Z" fill="#CF1039"/>
<path opacity="0.7" d="M52 94C52 86.268 45.732 80 38 80C30.268 80 24 86.268 24 94C24 101.732 30.268 108 38 108V112C28.0589 112 20 103.941 20 94C20 84.0589 28.0589 76 38 76C47.9411 76 56 84.0589 56 94C56 103.941 47.9411 112 38 112V108C45.732 108 52 101.732 52 94Z" fill="#CF1039"/>
<defs>
<filter id="filter0_g_177_25746" x="30" y="74" width="24" height="32" filterUnits="userSpaceOnUse" color-interpolation-filters="sRGB">
<feFlood flood-opacity="0" result="BackgroundImageFix"/>
<feBlend mode="normal" in="SourceGraphic" in2="BackgroundImageFix" result="shape"/>
<feTurbulence type="fractalNoise" baseFrequency="3.3333332538604736 3.3333332538604736" numOctaves="3" seed="1745" />
<feDisplacementMap in="shape" scale="4" xChannelSelector="R" yChannelSelector="G" result="displacedImage" width="100%" height="100%" />
<feMerge result="effect1_texture_177_25746">
<feMergeNode in="displacedImage"/>
</feMerge>
</filter>
</defs>
</svg>
